<?xml version="1.0" encoding="UTF-8"?>
<svg width="52.9687493px" height="40.9876958px" viewBox="0 0 52.9687493 40.9876958" version="1.1" xmlns="http://www.w3.org/2000/svg" xmlns:xlink="http://www.w3.org/1999/xlink">
    <title>scales</title>
    <defs>
        <polygon id="path-1" points="0 0 27.7916667 0 27.7916667 41 0 41"></polygon>
        <polygon id="path-3" points="0 0 26.5416667 0 26.5416667 41 0 41"></polygon>
    </defs>
    <g id="Icons-2" stroke="none" stroke-width="1" fill="none" fill-rule="evenodd">
        <g id="scales" transform="translate(-0.0156, 0)">
            <g id="Clipped" transform="translate(25.2083, 0)">
                <mask id="mask-2" fill="white">
                    <use xlink:href="#path-1"></use>
                </mask>
                <g id="Path"></g>
                <path d="M1.29166667,0 L2.21354133,1.3125 C2.39583333,1.53124933 2.505208,1.8125 2.505208,2.11979067 C2.505208,2.510416 2.32812533,2.85937467 2.05208267,3.08854133 C1.40625067,3.67708267 1.744792,4.20833333 2.45312533,4.54687467 C2.46874933,5.41666667 2.44791733,5.98437467 2.46354133,6.35937467 C2.71874933,6.54166667 2.92708267,6.77604133 3.07291733,7.05208267 C3.317708,7.057292 3.567708,7.08333333 3.79166667,7.10937467 C7.10937467,7.385416 10.0885413,8.96874933 13.2083333,9.98958267 C14.760416,10.505208 16.4635413,10.6666667 18.0468747,10.1718747 C18.2343747,10.1093747 18.432292,10.0520827 18.630208,9.98958267 L18.8385413,9.40104133 C18.7968747,9.39062533 18.755208,9.380208 18.7083333,9.36979067 C17.885416,9.23437467 17.619792,8.14583333 18.1041667,7.53124933 C18.8593747,6.42187467 20.557292,6.52604133 21.4687493,7.380208 C22.3333333,8.04166667 22.3385413,9.40104133 21.6093747,10.1666667 C21.182292,10.630208 20.6614587,10.9687493 20.0989587,11.2291667 L26.3385413,28.6666667 L27.7760413,28.6614573 C27.3593747,28.9114573 26.994792,29.192708 26.6093747,29.375 C23.1979173,31.3593747 19,31.755208 15.192708,30.760416 C13.385416,30.2447907 11.994792,29.6562493 10.5260413,28.6718747 L11.9375,28.6718747 L17.9531253,11.875 C17.692708,11.9270827 17.432292,11.9739587 17.1718747,12.0156253 C14.3489587,12.4114573 11.6875,11.1666667 9.09374933,10.2343747 C7.16666667,9.52604133 5.16666667,8.932292 3.09374933,8.89583333 L3.09374933,8.90104133 C2.942708,9.203124 2.72395867,9.46354133 2.44791733,9.65624933 L2.44791733,33.125 C2.44791733,37.5989587 6.65625067,38.4218747 7.52604133,38.4218747 C8.39062533,38.4218747 9.192708,38.828124 9.192708,39.4895827 C10.9583333,39.5416667 13.0520827,39.4895827 14.375,39.4895827 C15.692708,39.4895827 16.682292,39.8697907 16.682292,40.9635413 C11.5520827,41.005208 6.41666667,40.9791667 1.29166667,40.9843747 L1.29166667,0 Z M19.3906253,7.6875 C19.25,7.6875 19.0729173,7.71354133 18.9479173,7.78124933 C18.369792,8.010416 18.5156253,8.85937467 19.0312507,8.875 C19.0625,8.79687467 19.0416667,8.70833333 19.130208,8.692708 C19.2135413,8.67708267 19.239584,8.77083333 19.2656253,8.83333333 C19.307292,8.8125 19.3593747,8.79687467 19.4010413,8.77083333 C19.932292,8.385416 19.0833333,7.84374933 19.75,8.03645733 C20.4218747,8.46874933 19.9479173,9.057292 19.4166667,9.307292 L19.5312507,9.61979067 C19.8489587,9.442708 20.135416,9.21874933 20.3385413,8.90104133 C20.6614587,8.27604133 20.005208,7.6875 19.3906253,7.6875 Z M19.2760413,9.35937467 L19.2187493,9.375 L19.2187493,9.77083333 L19.3958333,9.6875 L19.2760413,9.35937467 Z M19.0729173,9.40624933 L18.994792,9.41145733 L18.8125,9.92708267 L19.0729173,9.83333333 L19.0729173,9.40624933 Z M19.9687493,11.2916667 C19.7239587,11.3958333 19.4739587,11.4843747 19.2187493,11.5625 L19.2135413,28.6666667 L26.1875,28.6614573 L19.9687493,11.2916667 Z M19.0729173,11.6093747 L18.125,11.8385413 L12.0937493,28.6718747 L19.057292,28.6666667 L19.0729173,28.6145827 L19.0729173,11.6093747 Z" id="Shape" fill="#000000" fill-rule="nonzero" mask="url(#mask-2)"></path>
            </g>
            <g id="Clipped">
                <mask id="mask-4" fill="white">
                    <use xlink:href="#path-3"></use>
                </mask>
                <g id="Path"></g>
                <path d="M26.505208,0 L25.5781253,1.3125 C25.3958333,1.53124933 25.2916667,1.8125 25.2916667,2.11979067 C25.2916667,2.510416 25.4635413,2.85937467 25.739584,3.08854133 C26.385416,3.67708267 26.0468747,4.20833333 25.3437493,4.54687467 C25.3281253,5.41666667 25.3437493,5.98437467 25.3281253,6.35937467 C25.0781253,6.54166667 24.869792,6.77604133 24.7239587,7.05208267 C24.4739587,7.057292 24.2291667,7.08333333 24,7.10937467 C20.682292,7.385416 17.7031253,8.96874933 14.5885413,9.98958267 C13.0312507,10.505208 11.3281253,10.6666667 9.744792,10.1718747 C9.557292,10.1093747 9.35937467,10.0520827 9.16666667,9.98958267 L8.95312533,9.40104133 C8.994792,9.39062533 9.04166667,9.380208 9.08333333,9.36979067 C9.90625067,9.23437467 10.1770827,8.14583333 9.6875,7.53124933 C8.932292,6.42187467 7.23437467,6.52604133 6.32291733,7.380208 C5.45833333,8.04166667 5.45833333,9.40104133 6.182292,10.1666667 C6.614584,10.630208 7.130208,10.9687493 7.692708,11.2291667 L1.45312533,28.6666667 L0.0156253333,28.6614573 C0.432292,28.9114573 0.796874667,29.192708 1.182292,29.375 C4.59374933,31.3593747 8.79166667,31.755208 12.5989587,30.760416 C14.4062507,30.2447907 15.8020827,29.6562493 17.2708333,28.6718747 L15.8541667,28.6718747 L9.83854133,11.875 C10.1041667,11.9270827 10.364584,11.9739587 10.619792,12.0156253 C13.4479173,12.4114573 16.1041667,11.1666667 18.6979173,10.2343747 C20.625,9.52604133 22.630208,8.932292 24.6979173,8.89583333 L24.6979173,8.90104133 C24.8489587,9.203124 25.0729173,9.46354133 25.3437493,9.65624933 L25.3437493,33.125 C25.3437493,37.5989587 21.135416,38.4218747 20.2708333,38.4218747 C19.4062507,38.4218747 18.5989587,38.828124 18.5989587,39.4895827 C16.8333333,39.5416667 14.739584,39.4895827 13.4218747,39.4895827 C12.0989587,39.4895827 11.114584,39.8697907 11.114584,40.9635413 C16.244792,41.005208 21.375,40.9791667 26.505208,40.9843747 L26.505208,0 Z M8.40104133,7.6875 C8.54687467,7.6875 8.71874933,7.71354133 8.84374933,7.78124933 C9.42187467,8.010416 9.27604133,8.85937467 8.760416,8.875 C8.72916667,8.79687467 8.75,8.70833333 8.66145867,8.692708 C8.58333333,8.67708267 8.55208267,8.77083333 8.53125067,8.83333333 C8.48437467,8.8125 8.432292,8.79687467 8.39062533,8.77083333 C7.85937467,8.385416 8.71354133,7.84374933 8.04687467,8.03645733 C7.375,8.46874933 7.84895867,9.057292 8.375,9.307292 L8.26562533,9.61979067 C7.942708,9.442708 7.65625067,9.21874933 7.45312533,8.90104133 C7.130208,8.27604133 7.78645867,7.6875 8.40104133,7.6875 Z M8.51562533,9.35937467 L8.57291733,9.375 L8.57291733,9.77083333 L8.39583333,9.6875 L8.51562533,9.35937467 Z M8.72395867,9.40624933 L8.79687467,9.41145733 L8.98437467,9.92708267 L8.72395867,9.83333333 L8.72395867,9.40624933 Z M7.82291733,11.2916667 C8.067708,11.3958333 8.317708,11.4843747 8.57291733,11.5625 L8.57812533,28.6666667 L1.60416667,28.6614573 L7.82291733,11.2916667 Z M8.72395867,11.6093747 L9.66666667,11.8385413 L15.6979173,28.6718747 L8.73437467,28.6666667 L8.71874933,28.6145827 L8.72395867,11.6093747 Z" id="Shape" fill="#000000" fill-rule="nonzero" mask="url(#mask-4)"></path>
            </g>
        </g>
    </g>
</svg>