<?xml version="1.0" encoding="UTF-8"?>
<svg width="49.0884279px" height="44.802084px" viewBox="0 0 49.0884279 44.802084" version="1.1" xmlns="http://www.w3.org/2000/svg" xmlns:xlink="http://www.w3.org/1999/xlink">
    <title>heart hands</title>
    <defs>
        <polygon id="path-1" points="0 0 30.6666667 0 30.6666667 30.2864587 0 30.2864587"></polygon>
        <polygon id="path-3" points="0 0 19.7760413 0 19.7760413 32 0 32"></polygon>
        <polygon id="path-5" points="0 0 19.557292 0 19.557292 30.6666667 0 30.6666667"></polygon>
    </defs>
    <g id="Icons-2" stroke="none" stroke-width="1" fill="none" fill-rule="evenodd">
        <g id="heart-hands" transform="translate(-0.2287, -0.099)">
            <g id="Clipped" transform="translate(9.1094, 0)">
                <mask id="mask-2" fill="white">
                    <use xlink:href="#path-1"></use>
                </mask>
                <g id="Path"></g>
                <path d="M15.6458333,29.3125 C15.3958333,29.3125 15.1510413,29.2135413 14.9739587,29.0364587 C8.22395867,22.1875 1.244792,15.1041667 1.244792,7.88541733 C1.244792,3.59375067 4.682292,0.0989586667 8.91666667,0.0989586667 C11.869792,0.0989586667 14.364584,1.38541733 15.6562507,3.39062533 C16.9218747,1.27083333 19.255208,0.0989586667 22.369792,0.0989586667 C26.6041667,0.0989586667 30.0468747,3.59375067 30.0468747,7.88541733 C30.0468747,15.0989587 23.0729173,22.1718747 16.3333333,29.0156253 L16.3125,29.0364587 C16.135416,29.2135413 15.8958333,29.3125 15.6458333,29.3125 Z M8.91666667,2.01562533 C5.72916667,2.01562533 3.135416,4.64583333 3.135416,7.88541733 C3.135416,14.0885413 9.380208,20.6406253 15.6458333,27 C21.9010413,20.6406253 28.1510413,14.0885413 28.1510413,7.88541733 C28.1510413,4.64583333 25.557292,2.01562533 22.369792,2.01562533 C20.0625,2.01562533 17.1770827,2.77083333 16.5729173,6.35416667 C16.494792,6.82812533 16.0781253,7.17187467 15.6041667,7.15104267 C15.130208,7.130208 14.744792,6.755208 14.7031253,6.27604267 C14.4583333,3.47916667 11.6093747,2.01562533 8.91666667,2.01562533 Z" id="Shape" fill="#000000" fill-rule="nonzero" mask="url(#mask-2)"></path>
            </g>
            <path d="M28,15.4427093 L21.4218747,15.4427093 C20.7708333,15.4427093 20.2395827,14.9114587 20.2395827,14.244792 C20.2395827,13.5833333 20.7708333,13.052084 21.4218747,13.052084 L28,13.052084 C28.6510413,13.052084 29.182292,13.5833333 29.182292,14.244792 C29.182292,14.9114587 28.6510413,15.4427093 28,15.4427093 Z" id="Path" fill="#000000" fill-rule="nonzero"></path>
            <path d="M24.7083333,18.7812507 C24.057292,18.7812507 23.5312493,18.244792 23.5312493,17.5833333 L23.5312493,10.9114587 C23.5312493,10.25 24.057292,9.71354133 24.7083333,9.71354133 C25.3645827,9.71354133 25.8906253,10.25 25.8906253,10.9114587 L25.8906253,17.5833333 C25.8906253,18.244792 25.3645827,18.7812507 24.7083333,18.7812507 Z" id="Path" fill="#000000" fill-rule="nonzero"></path>
            <g id="Clipped" transform="translate(0, 7.6198)">
                <mask id="mask-4" fill="white">
                    <use xlink:href="#path-3"></use>
                </mask>
                <g id="Path"></g>
                <path d="M11.6666667,31.5625 C11.3906253,31.5625 11.1197907,31.4375 10.9375,31.2135413 C10.6093747,30.8125 10.192708,30.3020827 9.703124,29.7135413 C8.15104133,27.8281253 6.02083333,25.25 4.34374933,22.9739587 C3.91666667,22.4010413 2.755208,20.2239587 1.77083333,17.7864587 C0.479166667,14.5885413 -0.00520933333,12.239584 0.333333333,10.7916667 L2.27083333,2.45312533 C2.46354133,1.635416 3.09374933,1.10937467 3.885416,1.10937467 C5.48437467,1.10937467 7.1875,3.20312533 7.27604133,6.71354133 C7.27604133,6.78645867 7.27083333,6.85937467 7.255208,6.92708267 L7.22916667,7.057292 C6.71874933,9.64062533 6.45833333,10.932292 6.64062533,11.9739587 C6.6875,12.239584 6.760416,12.505208 6.875,12.7916667 C7.260416,12.1979173 7.885416,11.8593747 8.61458267,11.8593747 C9.77604133,11.8593747 11.1197907,12.692708 12.6041667,14.3385413 C13.255208,14.9739587 14.0625,15.7864587 15.3593747,17.307292 C15.6718747,17.6718747 15.9010413,17.9270827 16.0833333,18.130208 C16.75,18.875 16.8489587,19.0260413 17.0208333,19.9843747 C17.067708,20.255208 17.135416,20.625 17.25,21.1562507 L18.567708,27.135416 C18.6562493,27.5520827 18.4635413,27.9843747 18.0937493,28.1875 L12.1145827,31.4479173 C11.9739587,31.5260413 11.817708,31.5625 11.6666667,31.5625 Z M4.0625,3.10416667 L2.17187467,11.2343747 C1.61458267,13.630208 5.130208,20.8437493 5.85416667,21.8229173 C7.505208,24.0625 9.61458267,26.614584 11.1510413,28.4791667 C11.4218747,28.807292 11.6718747,29.1093747 11.9010413,29.385416 L16.5625,26.8385413 L15.4062493,21.5729173 C15.2812493,21 15.2083333,20.6093747 15.1614573,20.3281253 C15.1197907,20.119792 15.0833333,19.9062507 15.0625,19.864584 C15.0312493,19.8020827 14.8697907,19.625 14.6875,19.4218747 C14.505208,19.2187493 14.255208,18.942708 13.9270827,18.5625 C12.6666667,17.0833333 11.8958333,16.307292 11.2708333,15.692708 C11.255208,15.6770827 11.2447907,15.6666667 11.2291667,15.6510413 C9.625,13.869792 8.76562533,13.7760413 8.60937467,13.7760413 C8.49479067,13.7760413 8.47395867,13.807292 8.4375,13.869792 C8.260416,14.182292 8.24479067,15.1458333 8.95833333,16.3958333 C9.005208,16.4531253 9.057292,16.5156253 9.11458267,16.5885413 L9.22395867,16.7187493 C9.54166667,17.0989587 10.203124,17.8906253 11.5,19.4791667 C11.510416,19.489584 11.5156253,19.5 11.5208333,19.510416 C11.8020827,19.880208 11.8593747,20.255208 11.6875,20.6093747 C11.5260413,20.9375 11.197916,21.1458333 10.8385413,21.1458333 C10.3906253,21.1458333 10.203124,20.9218747 9.828124,20.4739587 C9.65624933,20.2656253 9.42187467,19.9843747 9.16145733,19.6666667 C8.635416,19.0260413 8.03124933,18.2812507 7.66145733,17.817708 C7.49479067,17.619792 7.432292,17.5416667 7.36979067,17.4479173 L7.17708267,17.1406253 C4.3125,12.5937493 4.260416,12.3020827 5.375,6.682292 L5.380208,6.65625067 C5.30208267,4.432292 4.48437467,3.385416 4.0625,3.10416667 Z" id="Shape" fill="#000000" fill-rule="nonzero" mask="url(#mask-4)"></path>
            </g>
            <path d="M13.8593747,44.4635413 C13.7708333,44.4635413 13.6770827,44.4531253 13.5885413,44.427084 C13.3489587,44.3541667 13.1458333,44.1875 13.0312493,43.9583333 L10.3645827,38.932292 C10.2447907,38.7083333 10.2135413,38.4427093 10.2864573,38.2031253 C10.3645827,37.9583333 10.5260413,37.75 10.75,37.630208 L18.5312493,33.3854173 C18.9895827,33.1354173 19.567708,33.3125 19.8125,33.7760427 L22.4791667,38.802084 C22.5989587,39.0260427 22.625,39.2916667 22.5520827,39.5364587 C22.4843747,39.7760427 22.317708,39.9791667 22.0989587,40.1041667 L14.3125,44.3489587 C14.1718747,44.427084 14.0156253,44.4635413 13.8593747,44.4635413 Z M12.4739587,38.869792 L14.2447907,42.2083333 L20.3697907,38.869792 L18.5989587,35.5312507 L12.4739587,38.869792 Z" id="Shape" fill="#000000" fill-rule="nonzero"></path>
            <g id="Clipped" transform="translate(30.4427, 8.9531)">
                <mask id="mask-6" fill="white">
                    <use xlink:href="#path-5"></use>
                </mask>
                <g id="Path"></g>
                <path d="M7.442708,30.6666667 C7.29166667,30.6666667 7.135416,30.630208 6.994792,30.5520827 L1.01562533,27.2916667 C0.640625333,27.0885413 0.447917333,26.6562507 0.541666667,26.2343747 L1.85937467,20.260416 C1.97916667,19.7239587 2.04166667,19.3541667 2.08854133,19.0833333 C2.260416,18.125 2.35416667,17.9739587 3.02604133,17.2291667 C3.21354133,17.0260413 3.4375,16.7708333 3.75,16.4114587 C5.04687467,14.8906253 5.85416667,14.0781253 6.505208,13.4375 C7.989584,11.7968747 9.33333333,10.9635413 10.494792,10.9635413 C11.2187493,10.9635413 11.8437493,11.3020827 12.2343747,11.8906253 C12.3437493,11.6093747 12.4218747,11.3437493 12.4687493,11.0781253 C12.6458333,10.0364587 12.3906253,8.744792 11.880208,6.16145867 L11.8541667,6.03125067 C11.8385413,5.96354133 11.8333333,5.89062533 11.8333333,5.817708 C11.9218747,2.307292 13.625,0.208333333 15.2239587,0.208333333 C16.010416,0.208333333 16.6458333,0.739584 16.8333333,1.557292 L18.7708333,9.89583333 C19.5833333,13.369792 15.369792,21.255208 14.7708333,22.0781253 C13.0885413,24.3541667 10.9583333,26.932292 9.40625067,28.817708 C8.91666667,29.4062507 8.494792,29.9166667 8.17187467,30.317708 C7.989584,30.5416667 7.71874933,30.6666667 7.442708,30.6666667 Z M2.54166667,25.9479173 L7.20833333,28.489584 C7.432292,28.2187493 7.682292,27.9114587 7.95312533,27.5833333 C9.494792,25.7187493 11.6041667,23.1666667 13.255208,20.9270827 C14,19.9114587 17.5,12.7656253 16.932292,10.3385413 L15.0468747,2.20833333 C14.625,2.489584 13.807292,3.53645867 13.7239587,5.760416 L13.7291667,5.78645867 C14.8489587,11.4062507 14.7968747,11.6979173 11.9218747,16.239584 L11.7291667,16.5468747 C11.6718747,16.6458333 11.5989587,16.7343747 11.442708,16.9218747 C11.0781253,17.380208 10.4843747,18.1093747 9.942708,18.7708333 C9.682292,19.0885413 9.44791733,19.375 9.27604133,19.5781253 C8.90625067,20.0208333 8.71874933,20.244792 8.28125067,20.25 C8.27604133,20.25 8.27083333,20.25 8.27083333,20.25 C7.91145867,20.25 7.58333333,20.0416667 7.42187467,19.7187493 C7.244792,19.3593747 7.30208267,18.989584 7.58333333,18.614584 C7.58854133,18.6041667 7.59895867,18.5937493 7.60416667,18.5833333 C8.83854133,17.0781253 9.48437467,16.3020827 9.82812533,15.885416 L9.98437467,15.6979173 C10.0416667,15.625 10.0989587,15.557292 10.1458333,15.494792 C10.8541667,14.244792 10.8489587,13.2864587 10.6666667,12.9739587 C10.635416,12.9114587 10.614584,12.880208 10.494792,12.880208 C10.3385413,12.880208 9.48437467,12.9739587 7.875,14.755208 C7.864584,14.7708333 7.84895867,14.7812507 7.83854133,14.7968747 C7.21354133,15.4114587 6.442708,16.1875 5.17708267,17.6666667 C4.84895867,18.0468747 4.60416667,18.3229173 4.42187467,18.5208333 C4.244792,18.7187493 4.07812533,18.9062507 4.04687467,18.9635413 C4.02083333,19.005208 3.98437467,19.2187493 3.94791733,19.4218747 C3.89583333,19.7083333 3.82812533,20.1041667 3.70312533,20.6770827 L2.54166667,25.9479173 Z" id="Shape" fill="#000000" fill-rule="nonzero" mask="url(#mask-6)"></path>
            </g>
            <path d="M35.6875,44.9010427 C35.5364573,44.9010427 35.380208,44.859376 35.2395827,44.7864587 L27.453124,40.5416667 C27.2343747,40.4218747 27.067708,40.2135413 27,39.9687507 C26.9270827,39.7291667 26.953124,39.4635413 27.067708,39.239584 L29.7395827,34.2135413 C29.9843747,33.75 30.557292,33.5729173 31.0156253,33.8229173 L38.8020827,38.0677093 C39.260416,38.3229173 39.432292,38.9010427 39.1875,39.369792 L36.5208333,44.3958333 C36.4010413,44.619792 36.203124,44.7864587 35.9635413,44.859376 C35.8697907,44.8854173 35.7812493,44.9010427 35.6875,44.9010427 Z M29.182292,39.307292 L35.3020827,42.6406253 L37.072916,39.307292 L30.953124,35.9687507 L29.182292,39.307292 Z" id="Shape" fill="#000000" fill-rule="nonzero"></path>
        </g>
    </g>
</svg>