<?xml version="1.0" encoding="UTF-8"?>
<svg width="43.6868488px" height="52.3658853px" viewBox="0 0 43.6868488 52.3658853" version="1.1" xmlns="http://www.w3.org/2000/svg" xmlns:xlink="http://www.w3.org/1999/xlink">
    <title>clover</title>
    <defs>
        <polygon id="path-1" points="0 0 45 0 45 53 0 53"></polygon>
    </defs>
    <g id="Icons-2" stroke="none" stroke-width="1" fill="none" fill-rule="evenodd">
        <g id="clover" transform="translate(-0.6621, -0.6341)">
            <mask id="mask-2" fill="white">
                <use xlink:href="#path-1"></use>
            </mask>
            <g id="Path"></g>
            <path d="M36.817708,23.0208333 C36.1666667,22.7916667 35.4687493,22.5781253 34.7291653,22.369792 C35.4687493,22.1666667 36.1666667,21.947916 36.817708,21.7187493 C39.317708,20.8437493 41.2083333,19.7812493 42.4374987,18.5520827 C43.6718747,17.3281253 44.3489573,15.697916 44.3489573,13.9583333 C44.3489573,12.2239573 43.6718747,10.5885413 42.4374987,9.36458267 C41.125,8.05729067 39.317708,7.375 37.4791653,7.47395733 C37.572916,5.64583333 36.890624,3.84374933 35.578124,2.53645867 C33.0312493,1.22124533e-15 28.890624,1.22124533e-15 26.3437493,2.53645867 C25.2083333,3.66145867 24.203124,5.48437467 23.3437493,7.947916 C23.078124,8.71874933 22.817708,9.5625 22.578124,10.4687493 C22.3489573,9.635416 22.1093747,8.85416667 21.8489573,8.130208 C20.9687493,5.64583333 19.9010413,3.760416 18.6666667,2.53645867 C16.1197907,1.22124533e-15 11.9791653,1.22124533e-15 9.43229067,2.53645867 C8.11979067,3.84374933 7.43749867,5.64583333 7.53124933,7.47395733 C5.692708,7.375 3.885416,8.05729067 2.572916,9.36458267 C0.0260413333,11.8958333 0.0260413333,16.0208333 2.572916,18.5520827 C3.703124,19.6770827 5.53124933,20.6822907 8.010416,21.5364587 C8.86458267,21.8281253 9.80208267,22.1093747 10.817708,22.369792 C9.80208267,22.635416 8.86458267,22.9114587 8.010416,23.2083333 C5.53124933,24.0625 3.703124,25.0625 2.567708,26.1875 C0.0260413333,28.7239573 0.0260413333,32.8437493 2.572916,35.375 C3.885416,36.6875 5.692708,37.3645827 7.53124933,37.2708333 C7.43749867,39.0989573 8.11979067,40.8958333 9.43229067,42.2083333 C10.7083333,43.4739573 12.380208,44.1093747 14.0520827,44.1093747 C15.7239573,44.1093747 17.395832,43.4739573 18.6666667,42.2083333 C19.9010413,40.9791667 20.9687493,39.0989573 21.8489573,36.6145827 C21.875,36.5520827 21.895832,36.494792 21.9166667,36.4322907 C22.1145827,38.8645827 22.4739573,41.1562493 22.9947907,43.260416 C23.880208,46.8281253 25.255208,50.015624 27.078124,52.7291667 C27.1718747,52.869792 27.322916,52.9635413 27.4895827,52.994792 C27.520832,53 27.5572907,53 27.5937493,53 C27.7239573,53 27.8541653,52.9583333 27.9635413,52.880208 L29.9583333,51.4218747 C30.0937493,51.322916 30.1874987,51.1718747 30.2083333,51.005208 C30.2291653,50.8385413 30.1822907,50.6718747 30.078124,50.5416667 C28.635416,48.744792 27.4010413,46.6666667 26.4114573,44.3593747 C25.8124987,42.9270827 25.192708,41.4010413 24.635416,39.8125 C25.1666667,40.8020827 25.7395827,41.6041667 26.3437493,42.2083333 C28.890624,44.7395827 33.0312493,44.7395827 35.578124,42.2083333 C36.890624,40.8958333 37.572916,39.0989573 37.4791653,37.2708333 C39.317708,37.3645827 41.125,36.6875 42.4374987,35.375 C44.9843747,32.8437493 44.9843747,28.7239573 42.4374987,26.1875 C41.2083333,24.9635413 39.317708,23.8958333 36.817708,23.0208333 Z M25.270832,44.8385413 C26.2135413,47.0364587 27.3697907,49.0416667 28.7135413,50.8020827 L27.755208,51.5 C26.1874987,49.0260413 24.9895827,46.1614587 24.197916,42.9635413 C24.0520827,42.369792 23.9166667,41.760416 23.7968747,41.140624 C24.270832,42.4270827 24.7760413,43.6614587 25.270832,44.8385413 Z M41.5624987,34.505208 C40.3385413,35.7239573 38.5937493,36.265624 36.885416,35.9635413 C36.6874987,35.9270827 36.4791653,35.994792 36.3385413,36.135416 C36.192708,36.2760413 36.130208,36.4791667 36.1666667,36.6770827 C36.4687493,38.380208 35.9218747,40.119792 34.697916,41.3333333 C33.6666667,42.3593747 32.3124987,42.875 30.9583333,42.875 C29.6041653,42.875 28.25,42.3593747 27.2187493,41.3333333 C26.2187493,40.3437493 25.3124987,38.6770827 24.515624,36.390624 C24.0260413,34.9895827 23.578124,33.3385413 23.1874987,31.4843747 C23.125,31.2031253 22.8697907,30.994792 22.578124,30.994792 C22.2864573,30.994792 22.0312493,31.2031253 21.9739573,31.4895827 C21.5989573,33.25 21.1666667,34.8333333 20.6822907,36.2031253 C19.8645827,38.515624 18.890624,40.2395827 17.7916667,41.3333333 C15.7291653,43.385416 12.375,43.385416 10.3124987,41.3333333 C9.08854133,40.119792 8.54166667,38.380208 8.84374933,36.6770827 C8.880208,36.4791667 8.817708,36.2760413 8.67187467,36.135416 C8.55729067,36.0208333 8.395832,35.9531253 8.23437467,35.9531253 C8.197916,35.9531253 8.16145733,35.9583333 8.125,35.9635413 C6.41666667,36.265624 4.67187467,35.7239573 3.447916,34.505208 C1.385416,32.4531253 1.385416,29.1145827 3.447916,27.0625 C4.442708,26.067708 6.11458267,25.1614587 8.41666667,24.375 C9.91666667,23.8541667 11.692708,23.385416 13.692708,22.9739573 C13.9791653,22.9166667 14.1874987,22.6614587 14.1874987,22.369792 C14.1874987,22.0781253 13.9791653,21.8281253 13.692708,21.765624 C11.692708,21.3541667 9.91666667,20.885416 8.41666667,20.369792 C6.11458267,19.5781253 4.442708,18.6718747 3.447916,17.6822907 C1.385416,15.630208 1.385416,12.2916667 3.447916,10.2343747 C4.67187467,9.02083333 6.41666667,8.47395733 8.125,8.77604133 C8.322916,8.8125 8.53124933,8.75 8.67187467,8.60937467 C8.817708,8.46354133 8.880208,8.260416 8.84374933,8.0625 C8.54166667,6.36458267 9.08854133,4.625 10.3124987,3.40624933 C12.375,1.35416667 15.7291653,1.35416667 17.7916667,3.40624933 C18.890624,4.5 19.8645827,6.22916667 20.6822907,8.54166667 C21.1666667,9.90624933 21.5989573,11.494792 21.9739573,13.255208 C22.0312493,13.5416667 22.2864573,13.744792 22.578124,13.744792 C22.8697907,13.744792 23.125,13.5416667 23.1874987,13.255208 C23.578124,11.4062493 24.0260413,9.755208 24.515624,8.34895733 C25.3124987,6.0625 26.2187493,4.40104133 27.2187493,3.40624933 C29.2812493,1.35416667 32.635416,1.35416667 34.697916,3.40624933 C35.9218747,4.625 36.4687493,6.36458267 36.1666667,8.0625 C36.130208,8.260416 36.192708,8.46354133 36.3385413,8.60937467 C36.4791653,8.75 36.6874987,8.8125 36.885416,8.77604133 C38.5937493,8.47395733 40.3385413,9.02083333 41.5624987,10.2395827 C42.5624987,11.2291667 43.1093747,12.5520827 43.1093747,13.9583333 C43.1093747,15.3645827 42.5624987,16.6875 41.5624987,17.6822907 C40.4635413,18.7760413 38.7291653,19.744792 36.4062493,20.5572907 C35.1197907,21.010416 33.640624,21.4166667 32.010416,21.7708333 C31.7239573,21.8281253 31.520832,22.0833333 31.520832,22.369792 C31.520832,22.6614587 31.7239573,22.9114587 32.010416,22.9739573 C33.640624,23.3281253 35.1197907,23.7343747 36.4062493,24.1875 C38.7291653,25 40.4635413,25.9687493 41.5624987,27.0625 C43.625,29.1145827 43.625,32.4531253 41.5624987,34.505208 Z" id="Shape" fill="#000000" fill-rule="nonzero" mask="url(#mask-2)"></path>
        </g>
    </g>
</svg>