<?xml version="1.0" encoding="UTF-8"?>
<svg width="25.989584px" height="51.9479173px" viewBox="0 0 25.989584 51.9479173" version="1.1" xmlns="http://www.w3.org/2000/svg" xmlns:xlink="http://www.w3.org/1999/xlink">
    <title>cash</title>
    <defs>
        <polygon id="path-1" points="0 0 26 0 26 52 0 52"></polygon>
    </defs>
    <g id="Icons-2" stroke="none" stroke-width="1" fill="none" fill-rule="evenodd">
        <g id="cash" transform="translate(0, -0.026)">
            <g id="Clipped">
                <mask id="mask-2" fill="white">
                    <use xlink:href="#path-1"></use>
                </mask>
                <g id="Path"></g>
                <path d="M11.2083333,8.40625067 L12.0781253,8.317708 L12.0781253,2.65625067 L12.0729173,2.59375067 C12.0729173,2.59375067 12.067708,2.34895867 12.192708,2.20833333 C12.317708,2.067708 12.6041667,1.98437467 12.989584,1.98437467 C13.3489587,1.98437467 13.625,2.057292 13.7291667,2.177084 C13.817708,2.28125067 13.8229173,2.47395867 13.817708,2.546876 L13.8020827,2.60416667 L13.8020827,8.26562533 L14.7239587,8.307292 C16.7083333,8.40625067 18.4166667,8.63541733 19.8020827,8.994792 C20.2708333,9.14583333 21.6979173,9.76562533 21.6979173,11.7812507 C21.6979173,12.9635427 21.510416,13.4531253 21.4010413,13.6406253 C21.3281253,13.7656253 21.2760413,13.807292 21.0937493,13.807292 C20.994792,13.807292 20.880208,13.7916667 20.739584,13.7604173 L20.25,13.6041667 C20.244792,13.6041667 20.239584,13.5989587 20.239584,13.5989587 L18.9635413,13.0937507 L18.9635413,13.1458333 C17.6666667,12.7343747 16.2968747,12.4479173 14.875,12.2916667 L13.8020827,12.171876 L13.8020827,23.567708 L14.442708,23.802084 C17.9375,25.0781253 20.4583333,26.5312507 21.932292,28.1302093 C23.3593747,29.671876 24.0520827,31.489584 24.0520827,33.6875 C24.0520827,36.239584 23.2812507,38.2239587 21.692708,39.7604173 C20.0885413,41.317708 17.7239587,42.2812507 14.6614587,42.6302093 L13.8020827,42.7239587 L13.8020827,49.0989587 C13.8020827,49.1041667 13.7864587,49.375 13.6718747,49.625 C13.5625,49.8593747 13.4010413,50.0104173 12.989584,50.0104173 C12.2708333,50.0104173 12.114584,49.3593747 12.0781253,49.0625 L12.0781253,42.7812507 L11.114584,42.7760413 C9.369792,42.7656253 7.66145867,42.5416667 6.05208267,42.1093747 L5.82812533,42.046876 C4.45312533,41.6614587 3.03125067,41.2656253 2.567708,40.4062507 C2.32291733,39.9583333 2.32291733,39.3437507 2.567708,38.5312507 C2.72916667,37.989584 3.07812533,37.369792 4.364584,37.369792 C5.32291733,37.369792 6.23437467,37.7239587 6.244792,37.7291667 L7.869792,38.369792 L7.83854133,38.1979173 C8.989584,38.494792 10.0625,38.682292 11.0468747,38.75 L12.0781253,38.817708 L12.0781253,27.8541667 L11.4479173,27.619792 C7.71354133,26.2135427 5.15625067,24.6979173 3.84374933,23.125 C2.557292,21.5729173 1.932292,19.7291667 1.932292,17.4739587 C1.932292,15.0729173 2.744792,13.0781253 4.42708267,11.3854173 C6.10937467,9.6875 8.39062533,8.6875 11.2083333,8.40625067 Z M3.0625,9.994792 C1.02604133,12.046876 -0.005208,14.5625 -0.005208,17.4739587 C-0.005208,20.171876 0.791666667,22.494792 2.364584,24.3854173 C3.83333333,26.1562507 6.385416,27.7343747 10.1406253,29.2135427 L10.1406253,36.677084 C9.15104133,36.5312507 8.0625,36.2604173 6.89583333,35.8802093 C6.8125,35.8489587 6.64583333,35.7916667 6.42187467,35.7239587 L5.625,35.4635427 L5.625,35.5364587 C5.244792,35.4635427 4.8125,35.4114587 4.364584,35.4114587 C2.505208,35.4114587 1.20312533,36.317708 0.713541333,37.9635427 C0.3125,39.2864587 0.364584,40.427084 0.869792,41.3541667 C1.72916667,42.932292 3.630208,43.4687507 5.3125,43.9375 L5.54166667,44 C7.02083333,44.3958333 8.567708,44.6354173 10.1406253,44.7083333 L10.1406253,49.1093747 L10.1458333,49.182292 C10.2291667,50.302084 11.0520827,51.9739587 12.989584,51.9739587 C14.994792,51.9739587 15.7291667,50.2656253 15.739584,49.1093747 L15.739584,44.4635427 C18.8229173,43.9843747 21.2760413,42.8854173 23.0364587,41.177084 C24.994792,39.2760413 25.989584,36.7552093 25.989584,33.6875 C25.989584,31.0052093 25.0989587,28.682292 23.3489587,26.7864587 C21.7343747,25.0416667 19.239584,23.5364587 15.739584,22.1979173 L15.739584,14.3854173 C16.8437493,14.567708 17.9010413,14.8385427 18.9114587,15.1979173 C18.9270827,15.2031253 18.9479173,15.2135427 18.9635413,15.2187507 L18.9635413,15.2291667 L19.6614587,15.4791667 L19.682292,15.4843747 C19.7031253,15.494792 19.7291667,15.5 19.755208,15.5104173 L20.9010413,15.9114587 L20.9010413,15.7604173 C20.9687493,15.7656253 21.0312507,15.7656253 21.0937493,15.7656253 C21.9531253,15.7656253 22.635416,15.3802093 23.067708,14.6406253 C23.4531253,13.9843747 23.635416,13.0729173 23.635416,11.7812507 C23.635416,9.08333333 21.864584,7.58333333 20.3489587,7.114584 L20.307292,7.10416667 C19.0156253,6.76562533 17.4791667,6.53125067 15.739584,6.40625067 L15.739584,2.77604133 C15.7708333,2.46875067 15.7968747,1.625 15.2187493,0.927084 C14.880208,0.515625333 14.2187493,0.0260413333 12.989584,0.0260413333 C11.7708333,0.0260413333 11.0937493,0.505209333 10.744792,0.911458667 C10.125,1.614584 10.125,2.47916667 10.1406253,2.75520933 L10.1406253,6.567708 C7.26562533,7.00520933 4.885416,8.15625067 3.0625,9.994792" id="Shape" fill="#050606" fill-rule="nonzero" mask="url(#mask-2)"></path>
            </g>
            <path d="M10.1406253,14.6562507 L10.1406253,19.677084 C10.0156253,19.5833333 9.89062533,19.4791667 9.77604133,19.3802093 C8.98437467,18.677084 8.59895867,17.9010413 8.59895867,17.046876 C8.59895867,16.2083333 8.79687467,15.2291667 10.1406253,14.6562507 Z M10.682292,22.2864587 L12.0781253,22.989584 L12.0781253,12.192708 L10.9375,12.4010413 C7.40104133,13.046876 6.66145867,15.2812507 6.66145867,17.046876 C6.66145867,17.244792 6.67187467,17.442708 6.692708,17.6354173 C6.92187467,19.5104173 8.260416,21.0729173 10.682292,22.2864587" id="Shape" fill="#050606" fill-rule="nonzero"></path>
            <path d="M15.739584,31.5989587 C17.385416,32.671876 17.385416,33.6666667 17.385416,34.0416667 C17.385416,34.8906253 17.1718747,35.8802093 15.739584,36.421876 L15.739584,31.5989587 Z M19.3229173,34.0416667 C19.3229173,33.3281253 19.1562507,32.6614587 18.8281253,32.046876 C18.1979173,30.869792 16.9687493,29.8802093 15.1562507,29.0833333 L13.8020827,28.489584 L13.8020827,38.8125 L14.9166667,38.6354173 C18.75,38.0416667 19.3229173,35.5 19.3229173,34.0416667" id="Shape" fill="#050606" fill-rule="nonzero"></path>
        </g>
    </g>
</svg>