<?xml version="1.0" encoding="UTF-8"?>
<svg width="25.9218747px" height="43.9218747px" viewBox="0 0 25.9218747 43.9218747" version="1.1" xmlns="http://www.w3.org/2000/svg" xmlns:xlink="http://www.w3.org/1999/xlink">
    <title>venus</title>
    <defs>
        <polygon id="path-1" points="0 0 26 0 26 44 0 44"></polygon>
    </defs>
    <g id="Icons-2" stroke="none" stroke-width="1" fill="none" fill-rule="evenodd">
        <g id="venus" transform="translate(-0.0365, 0)">
            <mask id="mask-2" fill="white">
                <use xlink:href="#path-1"></use>
            </mask>
            <g id="Path"></g>
            <path d="M13,0 C5.85416667,0 0.0364586667,5.869792 0.0364586667,13.0781253 C0.0364586667,19.9791667 5.35937467,25.630208 12.072916,26.109376 L12.072916,33.630208 L3.73958267,33.630208 C3.40624933,33.630208 3.09895867,33.802084 2.927084,34.0937507 C2.76041733,34.3854173 2.76041733,34.744792 2.927084,35.0364587 C3.09895867,35.3281253 3.40624933,35.505208 3.73958267,35.5 L12.072916,35.5 L12.072916,42.9739587 C12.067708,43.307292 12.244792,43.625 12.5312493,43.7968747 C12.822916,43.9635413 13.177084,43.9635413 13.4635413,43.7968747 C13.755208,43.625 13.927084,43.307292 13.927084,42.9739587 L13.927084,35.5 L22.255208,35.5 C22.5885413,35.505208 22.9010413,35.3281253 23.072916,35.0364587 C23.2395827,34.744792 23.2395827,34.3854173 23.072916,34.0937507 C22.9010413,33.802084 22.5885413,33.630208 22.255208,33.630208 L13.927084,33.630208 L13.927084,26.109376 C20.6406253,25.630208 25.9583333,19.9791667 25.9583333,13.0781253 C25.9583333,5.869792 20.1458333,0 13,0 Z M13,1.869792 C19.1458333,1.869792 24.1093747,6.875 24.1093747,13.0781253 C24.1093747,19.244792 19.2031253,24.2291667 13.1041667,24.2864587 C13.0625,24.2812507 13.0260413,24.2760427 12.9843747,24.2760427 C12.9531253,24.2812507 12.9218747,24.2812507 12.8854173,24.2864587 C6.79166667,24.2187507 1.89062533,19.244792 1.89062533,13.0781253 C1.89062533,6.875 6.84895867,1.869792 13,1.869792 Z" id="Shape" fill="#000000" fill-rule="nonzero" mask="url(#mask-2)"></path>
        </g>
    </g>
</svg>