<?xml version="1.0" encoding="UTF-8"?>
<svg width="26.2870076px" height="40px" viewBox="0 0 26.2870076 40" version="1.1" xmlns="http://www.w3.org/2000/svg" xmlns:xlink="http://www.w3.org/1999/xlink">
    <title>saturn</title>
    <defs>
        <polygon id="path-1" points="0 0 26.6979173 0 26.6979173 40 0 40"></polygon>
    </defs>
    <g id="Icons-2" stroke="none" stroke-width="1" fill="none" fill-rule="evenodd">
        <g id="saturn" transform="translate(-0.0104, 0)">
            <mask id="mask-2" fill="white">
                <use xlink:href="#path-1"></use>
            </mask>
            <g id="Path"></g>
            <path d="M26.2083333,35.4427093 C25.7031253,36.4635413 25.057292,37.380208 24.2708347,38.2031253 C23.0937507,39.3958333 21.8281253,40.0156253 20.5416667,40.0156253 C19.8802093,40.0104173 19.2552093,39.864584 18.6562507,39.5833333 C17.2604173,38.9479173 16.354168,38.0312507 15.9687507,36.875 C15.109376,34.307292 16.927084,30.994792 18.8489587,27.489584 C21.8385427,22.052084 24.927084,16.4166667 19.229168,12.6927093 C15.0104173,9.927084 9.65625067,13.9583333 8.43750133,14.9531253 L8.43750133,32.75 C8.43750133,32.9635413 8.359376,33.1458333 8.20833333,33.2968747 C8.057292,33.4531253 7.869792,33.5260427 7.65625067,33.5260427 C7.43750133,33.5260427 7.25520933,33.4531253 7.104168,33.2968747 C6.94791733,33.1458333 6.875,32.9635413 6.875,32.75 L6.875,5.307292 L0.791666667,5.307292 C0.572917333,5.307292 0.390625333,5.22916667 0.239584,5.07812533 C0.0833333333,4.927084 0.0104173333,4.744792 0.0104173333,4.53125067 C0.0104173333,4.31770933 0.0833333333,4.130208 0.239584,3.97916667 C0.390625333,3.82812533 0.572917333,3.755208 0.791666667,3.755208 L6.875,3.755208 L6.875,0.776042667 C6.875,0.5625 6.94791733,0.380208 7.104168,0.223958667 C7.25520933,0.0729173333 7.43750133,0 7.65625067,0 C7.869792,0 8.057292,0.0729173333 8.20833333,0.223958667 C8.359376,0.380208 8.43750133,0.5625 8.43750133,0.776042667 L8.43750133,3.755208 L14.5208347,3.755208 C14.734376,3.755208 14.9166667,3.82812533 15.0729173,3.97916667 C15.2239587,4.130208 15.302084,4.31770933 15.302084,4.53125067 C15.302084,4.744792 15.2239587,4.927084 15.0729173,5.07812533 C14.9166667,5.22916667 14.734376,5.307292 14.5208347,5.307292 L8.43750133,5.307292 L8.43750133,12.989584 C9.34895867,12.3333333 10.3177093,11.7708333 11.3385427,11.2968747 C14.6510427,9.77083333 17.677084,9.802084 20.0937507,11.380208 C26.989584,15.8958333 23.239584,22.734376 20.229168,28.2239587 C18.4687507,31.4218747 16.8125013,34.4375 17.4531253,36.375 C17.7135427,37.119792 18.3125013,37.7031253 19.3125013,38.1614587 C22.4687507,39.5989587 24.7083333,34.9791667 24.802084,34.7968747 C24.8906253,34.5989587 25.0364587,34.4635413 25.244792,34.3854173 C25.4479173,34.3125 25.6510427,34.3177093 25.8489587,34.4114587 C26.046876,34.505208 26.182292,34.6510427 26.25,34.859376 C26.3229173,35.0625 26.3125013,35.2604173 26.2135427,35.4583333 L26.2083333,35.4427093 Z" id="Path" fill="#000000" fill-rule="nonzero" mask="url(#mask-2)"></path>
        </g>
    </g>
</svg>