<?xml version="1.0" encoding="UTF-8"?>
<svg width="30px" height="34.9947907px" viewBox="0 0 30 34.9947907" version="1.1" xmlns="http://www.w3.org/2000/svg" xmlns:xlink="http://www.w3.org/1999/xlink">
    <title>jupiter</title>
    <defs>
        <polygon id="path-1" points="0 0 30 0 30 35 0 35"></polygon>
    </defs>
    <g id="Icons-2" stroke="none" stroke-width="1" fill="none" fill-rule="evenodd">
        <g id="jupiter" transform="translate(0, -0.0052)">
            <mask id="mask-2" fill="white">
                <use xlink:href="#path-1"></use>
            </mask>
            <g id="Path"></g>
            <path d="M16.2656253,16.864584 C17.744792,12.9635427 18.432292,7.47916667 15.9166667,3.8125 C14.2864587,1.432292 11.5937507,0.00520933333 8.72916667,0.00520933333 C3.91666667,0.00520933333 0,3.95312533 0,8.796876 C0,9.119792 0.260417333,9.38541733 0.583333333,9.38541733 C0.906250667,9.38541733 1.17187467,9.119792 1.17187467,8.796876 C1.17187467,4.59375067 4.557292,1.177084 8.72916667,1.177084 C11.1718747,1.177084 13.557292,2.4375 14.9479173,4.47395867 C17.2083333,7.77083333 16.484376,12.989584 15.1718747,16.4479173 C13.7291667,20.25 10.5416667,24.9843747 6.29166667,25.8125 C5.989584,25.869792 5.8125,26.1406253 5.83854133,26.442708 C5.875,26.744792 6.14062533,26.9739587 6.44791733,26.9739587 L21.1041667,26.9739587 L21.1041667,34.5937507 C21.1041667,34.9166667 21.369792,35.182292 21.6875,35.182292 C22.0104173,35.182292 22.2760427,34.9166667 22.2760427,34.5937507 L22.2760427,26.9739587 L29.8958333,26.9739587 C30.2187507,26.9739587 30.484376,26.7083333 30.484376,26.3854173 C30.484376,26.0625 30.2187507,25.802084 29.8958333,25.802084 L22.2760427,25.802084 L22.2760427,0.593750667 C22.2760427,0.270833333 22.0104173,0.00520933333 21.6875,0.00520933333 C21.369792,0.00520933333 21.1041667,0.270833333 21.1041667,0.593750667 L21.1041667,25.802084 L9.47916667,25.802084 C12.6666667,23.8854173 15.0104173,20.1875 16.2656253,16.864584 Z" id="Path" fill="#000000" fill-rule="nonzero" mask="url(#mask-2)"></path>
        </g>
    </g>
</svg>