<?xml version="1.0" encoding="UTF-8"?>
<svg width="71.809895px" height="62.5781253px" viewBox="0 0 71.809895 62.5781253" version="1.1" xmlns="http://www.w3.org/2000/svg" xmlns:xlink="http://www.w3.org/1999/xlink">
    <title>water</title>
    <defs>
        <polygon id="path-1" points="5.68434189e-14 0 71.9687493 0 71.9687493 63 5.68434189e-14 63"></polygon>
    </defs>
    <g id="Icons-2" stroke="none" stroke-width="1" fill="none" fill-rule="evenodd">
        <g id="water" transform="translate(-0.0612, 0)">
            <mask id="mask-2" fill="white">
                <use xlink:href="#path-1"></use>
            </mask>
            <g id="Path"></g>
            <path d="M35.9739573,62.5781253 C35.4687493,62.5781253 34.9947907,62.3072907 34.755208,61.875 L0.244790667,2.11458267 C5.68434189e-14,1.68229067 5.68434189e-14,1.135416 0.244790667,0.708333333 C0.505208,0.276041333 0.963541333,0 1.46874933,0 L70.4687493,0 C70.9687493,0 71.442708,0.276041333 71.6874987,0.708333333 C71.9322907,1.135416 71.9322907,1.68229067 71.6874987,2.11458267 L37.1822907,61.875 C36.9374987,62.322916 36.4791653,62.5781253 35.9739573,62.5781253 Z M3.92187467,2.817708 L35.9739573,58.3437493 L68.0260413,2.817708 L3.92187467,2.817708 Z" id="Shape" fill="#000000" fill-rule="nonzero" mask="url(#mask-2)"></path>
        </g>
    </g>
</svg>