<?xml version="1.0" encoding="UTF-8"?>
<svg width="53.1354852px" height="45.1488531px" viewBox="0 0 53.1354852 45.1488531" version="1.1" xmlns="http://www.w3.org/2000/svg" xmlns:xlink="http://www.w3.org/1999/xlink">
    <title>locks</title>
    <defs>
        <polygon id="path-1" points="5.68434189e-14 0 54.5937493 0 54.5937493 45.7760413 5.68434189e-14 45.7760413"></polygon>
    </defs>
    <g id="Icons-2" stroke="none" stroke-width="1" fill="none" fill-rule="evenodd">
        <g id="locks" transform="translate(-1.0833, -0.0102)">
            <mask id="mask-2" fill="white">
                <use xlink:href="#path-1"></use>
            </mask>
            <g id="Path"></g>
            <path d="M30.2812493,0.729166667 L29.5937493,6.74479067 C29.578124,6.90624933 29.510416,7.03645733 29.390624,7.14583333 C29.270832,7.255208 29.130208,7.307292 28.9687493,7.307292 L26.2916667,7.307292 C26.130208,7.3125 25.9895827,7.255208 25.8697907,7.15104133 C25.7447907,7.04166667 25.6770827,6.90624933 25.6562493,6.74479067 L24.9687493,0.729166667 C24.947916,0.536457333 25,0.369790667 25.130208,0.223958667 C25.255208,0.0833333333 25.4166667,0.010416 25.6041653,0.010416 L29.645832,0.010416 C29.8385413,0.005208 29.9947907,0.078124 30.1197907,0.223958667 C30.25,0.364582667 30.3072907,0.536457333 30.2812493,0.729166667 Z M42.7812493,3.24479067 L40.1562493,9.04166667 C40.0364573,9.317708 40.0833333,9.557292 40.2916667,9.76562533 C40.5,9.97916667 40.7395827,10.0260413 41.005208,9.89583333 L46.8333333,7.15624933 C46.9270827,7.10937467 47.005208,7.04687467 47.072916,6.96354133 C47.135416,6.875 47.1770827,6.78124933 47.192708,6.67708267 C47.2083333,6.572916 47.203124,6.46874933 47.1666667,6.36979067 C47.135416,6.26562533 47.078124,6.17708267 47,6.10416667 L43.8020827,3.04166667 C43.640624,2.89583333 43.453124,2.83854133 43.2395827,2.875 C43.0260413,2.92187467 42.875,3.04687467 42.7812493,3.24479067 Z M8.42187467,7.15624933 L14.2447907,9.89583333 C14.510416,10.0156253 14.75,9.97395867 14.9583333,9.76562533 C15.1666667,9.557292 15.2135413,9.317708 15.0937493,9.04166667 L12.4687493,3.24479067 C12.380208,3.04687467 12.2239573,2.92187467 12.010416,2.875 C11.7968747,2.83854133 11.6145827,2.89583333 11.453124,3.04166667 L8.25,6.10416667 C7.93229067,6.39062533 8.020832,6.98958267 8.42187467,7.15624933 Z M26.7239573,31.6197907 C26.4114573,31.3020827 25.5468747,30.432292 25.2239573,30.1041667 L22.8437493,32.5208333 L24.3385413,34.0312493 L26.7239573,31.6197907 Z M13.5364573,23.1041667 L19.6874987,16.880208 C26.4687493,10.6458333 35.270832,20.5156253 28.5260413,26.7656253 L30.0468747,28.3020827 C38.645832,19.7864573 27.0416667,7.23958267 18.1874987,15.3541667 L12.0364573,21.5833333 C12.255208,21.807292 13.2968747,22.8593747 13.5364573,23.1041667 Z M42.270832,30.5885413 L42.4843747,32.6041667 C42.505208,32.807292 42.442708,32.9843747 42.2968747,33.125 C42.1562493,33.2708333 41.9791653,33.3333333 41.7812493,33.3125 L39.7968747,33.0885413 C36.1145827,32.8697907 36.385416,38.0520827 39.7291653,38.3593747 L48.2135413,39.1041667 L47.4895827,30.4947907 C47.1822907,27.182292 42.1041653,26.7447907 42.270832,30.5885413 Z M34.9635413,41.7760413 L30.760416,37.5260413 C30.5572907,37.3125 30.4583333,37.0625 30.4583333,36.7656253 C30.4583333,36.4739587 30.5572907,36.2187493 30.760416,36.005208 C30.880208,35.885416 45.0520827,21.5468747 45.1666667,21.432292 C45.375,21.2239587 45.625,21.125 45.9166667,21.125 C46.2083333,21.125 46.4583333,21.2239587 46.6718747,21.432292 L50.875,25.682292 C60.9895827,36.7968747 45.9583333,52.010416 34.9635413,41.7760413 Z M49.5468747,39.760416 L48.760416,30.380208 C48.260416,25.3541667 40.7291653,25.1770827 41,30.6875 L41.135416,31.942708 L39.9010413,31.807292 C34.4895827,31.5260413 34.630208,39.135416 39.6041653,39.6458333 L48.8541653,40.453124 C49.0520827,40.4739587 49.2187493,40.4114573 49.3593747,40.2708333 C49.5,40.130208 49.5624987,39.9583333 49.5468747,39.760416 Z M29.4583333,12.9218747 C30.395832,13.4843747 31.2135413,14.182292 31.9166667,15.0260413 C33.3333333,15.2447907 34.5468747,15.8593747 35.5624987,16.875 L41.7187493,23.0989587 C41.9166667,22.9010413 43.0416667,21.760416 43.2135413,21.5833333 L37.067708,15.3593747 C36.067708,14.3541667 34.895832,13.635416 33.5520827,13.2083333 C32.2135413,12.7760413 30.8437493,12.682292 29.4583333,12.9218747 Z M18.1093747,35.2447907 C18.020832,34.125 17.265624,32.9687493 15.4218747,33.0885413 L13.4739573,33.3125 C13.270832,33.3333333 13.0989573,33.2708333 12.953124,33.125 C12.8124987,32.9791667 12.75,32.807292 12.770832,32.6041667 L12.9843747,30.557292 C13.130208,26.7395827 8.04687467,27.203124 7.760416,30.505208 L7.04166667,39.1041667 L15.5312493,38.3593747 C17.3489573,38.1770827 18.2187493,36.6197907 18.1093747,35.2447907 Z M24.4947907,37.5260413 L20.2916667,41.7760413 C19.765624,42.307292 19.197916,42.7760413 18.5833333,43.192708 C17.9687493,43.6093747 17.322916,43.9583333 16.640624,44.2447907 C15.9583333,44.5312493 15.255208,44.7447907 14.5312493,44.8906253 C13.8072907,45.0364573 13.072916,45.1093747 12.3333333,45.1093747 C11.5937493,45.1093747 10.8645827,45.0364573 10.140624,44.8906253 C9.41666667,44.7447907 8.71354133,44.5312493 8.03124933,44.2447907 C7.34895733,43.9583333 6.697916,43.6093747 6.08333333,43.192708 C5.46874933,42.7760413 4.90104133,42.307292 4.380208,41.7760413 C3.85416533,41.25 3.390624,40.6770827 2.97916533,40.0520827 C2.567708,39.432292 2.22395733,38.7760413 1.93749867,38.0833333 C1.65624933,37.3958333 1.442708,36.682292 1.30208267,35.947916 C1.15624933,35.2187493 1.08333333,34.4791667 1.08333333,33.7291667 C1.08333333,32.9843747 1.15624933,32.2447907 1.30208267,31.510416 C1.442708,30.7760413 1.65624933,30.0625 1.93749867,29.375 C2.22395733,28.682292 2.567708,28.0260413 2.97916533,27.4062493 C3.390624,26.7864573 3.85416533,26.2083333 4.380208,25.682292 L8.58333333,21.432292 C8.79166667,21.2239587 9.04166667,21.125 9.33333333,21.125 C9.625,21.125 9.875,21.2239587 10.0833333,21.432292 C10.5572907,21.932292 24.4062493,35.9218747 24.4947907,36.005208 C24.692708,36.2187493 24.7968747,36.4739587 24.7968747,36.7656253 C24.7968747,37.0625 24.692708,37.3125 24.4947907,37.5260413 Z M15.3124987,31.807292 L14.1197907,31.942708 L14.255208,30.6614573 C14.510416,25.182292 6.97916533,25.3541667 6.49479067,30.3906253 L5.703124,39.760416 C5.68749867,39.9583333 5.75,40.130208 5.890624,40.2708333 C6.03124933,40.4114573 6.203124,40.4739587 6.40104133,40.453124 L15.6562493,39.6458333 C20.625,39.130208 20.770832,31.5 15.3124987,31.807292 Z M24,16.2395827 C23.6822907,16.6614573 23.4010413,17.1041667 23.1614573,17.578124 C22.9218747,18.0468747 22.7291653,18.5364573 22.572916,19.0416667 C22.4218747,19.5468747 22.317708,20.0625 22.255208,20.5885413 C22.197916,21.1145827 22.1822907,21.6406253 22.2187493,22.1718747 C22.255208,22.697916 22.3333333,23.2187493 22.4635413,23.7343747 C22.5885413,24.2447907 22.760416,24.7447907 22.9791653,25.2239587 C23.192708,25.7083333 23.453124,26.1666667 23.75,26.5989587 C24.0520827,27.0364573 24.385416,27.4375 24.755208,27.8125 C26.6145827,29.6875 29.1874987,32.2812493 30.9114573,34.0312493 C31.0937493,33.8489587 32.2083333,32.7239587 32.4114573,32.5156253 L26.260416,26.2916667 C23.625,23.828124 23.760416,19.0260413 26.4739573,16.6718747 C25.6874987,16.328124 24.8593747,16.182292 24,16.2395827 Z" id="Shape" fill="#000000" fill-rule="nonzero" mask="url(#mask-2)"></path>
        </g>
    </g>
</svg>