<?xml version="1.0" encoding="UTF-8"?>
<svg width="48.6688005px" height="49.2487863px" viewBox="0 0 48.6688005 49.2487863" version="1.1" xmlns="http://www.w3.org/2000/svg" xmlns:xlink="http://www.w3.org/1999/xlink">
    <title>mars</title>
    <defs>
        <polygon id="path-1" points="0 0 36.25 0 36.25 36.8385413 0 36.8385413"></polygon>
        <polygon id="path-3" points="0 0 37.5833333 0 37.5833333 36.8385413 0 36.8385413"></polygon>
    </defs>
    <g id="Icons-2" stroke="none" stroke-width="1" fill="none" fill-rule="evenodd">
        <g id="mars" transform="translate(1.8999, -0.0918)">
            <g id="Clipped" transform="translate(10.5189, 0)">
                <mask id="mask-2" fill="white">
                    <use xlink:href="#path-1"></use>
                </mask>
                <g id="Path"></g>
                <line x1="21.529815" y1="6.42067992" x2="21.5326269" y2="23.5218933" id="Path" stroke="#000000" stroke-width="2.68693886" mask="url(#mask-2)" transform="translate(21.5312, 14.9713) rotate(-135.3527) translate(-21.5312, -14.9713)"></line>
            </g>
            <path d="M30.0528507,29.8348563 C30.052183,30.6562172 29.9707001,31.4630194 29.8119275,32.2663046 C29.6531548,33.06959 29.4174076,33.8472585 29.1046856,34.5993103 C28.7918589,35.3587288 28.4060029,36.0741059 27.9543792,36.7527925 C27.5027553,37.431479 26.9818381,38.0624327 26.4064644,38.6382556 C25.8273553,39.2177696 25.2012606,39.7347699 24.5208148,40.1892726 C23.8403688,40.6437752 23.1241439,41.0246905 22.3684048,41.3357094 C21.616296,41.6504039 20.8358794,41.8841284 20.0344157,42.0442335 C19.2329522,42.2043387 18.4215429,42.2871177 17.6076592,42.2852208 C16.7864095,42.2832736 15.9773121,42.2039855 15.1767367,42.0436482 C14.3724255,41.8870022 13.5987341,41.6492591 12.8408254,41.3378176 C12.0866522,41.0226847 11.3702543,40.6411724 10.6917371,40.185914 C10.0094844,39.7343469 9.37973894,39.2163687 8.80239562,38.6393458 C8.22505249,38.062323 7.7111078,37.4299152 7.25672121,36.7531805 C6.79870411,36.0727702 6.41850226,35.3590433 6.10522433,34.6009736 C5.79194641,33.8429039 5.5562735,33.0662508 5.39831083,32.2636477 C5.23661263,31.464736 5.15978027,30.6545918 5.15671258,29.8369221 C5.16101072,29.0192366 5.23886312,28.2087592 5.39763579,27.4054738 C5.56003879,26.6058638 5.79578619,25.8281953 6.10487743,25.0724681 C6.42133489,24.316725 6.80356014,23.5976725 7.25518404,22.918986 C7.70680795,22.2402994 8.22772513,21.6093457 8.80309871,21.0335228 C9.382208,20.4540088 10.011933,19.9406839 10.692379,19.4861812 C11.3691945,19.0280032 12.0854193,18.6470881 12.8411585,18.336069 C13.5968976,18.0250499 14.3736839,17.7876502 15.1751474,17.6275449 C15.9766111,17.4674397 16.7880202,17.3846609 17.6019041,17.3865578 C18.4231536,17.3885048 19.232251,17.4677929 20.0328266,17.6281302 C20.8371377,17.7847762 21.610829,18.0225193 22.3687377,18.3339608 C23.122911,18.6490937 23.8393087,19.030606 24.517826,19.4858644 C25.2000787,19.9374315 25.8298243,20.4554099 26.4071674,21.0324326 C26.9845108,21.6094554 27.4984555,22.2418632 27.9528421,22.9185979 C28.4108591,23.5990082 28.7946913,24.3164105 29.1043389,25.0708048 C29.4176169,25.8288746 29.6532896,26.6055276 29.8112522,27.4081307 C29.9729506,28.2070424 30.0497828,29.0171866 30.0528507,29.8348563 Z" id="Path" stroke="#000000" stroke-width="2.68693886" stroke-linecap="round" stroke-linejoin="bevel" transform="translate(17.6048, 29.8359) rotate(-135.3527) translate(-17.6048, -29.8359)"></path>
            <g id="Clipped" transform="translate(9.1855, 0)">
                <mask id="mask-4" fill="white">
                    <use xlink:href="#path-3"></use>
                </mask>
                <g id="Path"></g>
                <polyline id="Path" stroke="#000000" stroke-width="2.68693886" mask="url(#mask-4)" transform="translate(25.8703, 11.8782) rotate(-135.3527) translate(-25.8703, -11.8782)" points="17.4347544 6.77501535 25.87022 16.9814798 34.3058597 6.77918732"></polyline>
            </g>
        </g>
    </g>
</svg>