<?xml version="1.0" encoding="UTF-8"?>
<svg width="44.869792px" height="75.8593753px" viewBox="0 0 44.869792 75.8593753" version="1.1" xmlns="http://www.w3.org/2000/svg" xmlns:xlink="http://www.w3.org/1999/xlink">
    <title>feminine</title>
    <defs>
        <polygon id="path-1" points="0 0 45 0 45 76 0 76"></polygon>
    </defs>
    <g id="Icons-2" stroke="none" stroke-width="1" fill="none" fill-rule="evenodd">
        <g id="feminine" transform="translate(-0.0625, 0)">
            <mask id="mask-2" fill="white">
                <use xlink:href="#path-1"></use>
            </mask>
            <g id="Path"></g>
            <path d="M22.5,0 C10.130208,0 0.0625,10.1354173 0.0625,22.5885427 C0.0625,34.5 9.27083333,44.2656253 20.8958333,45.0989587 L20.8958333,58.0885427 L6.47395867,58.0885427 C5.89583333,58.0833333 5.35937467,58.3854173 5.0625,58.8854173 C4.77604133,59.3906253 4.77604133,60.0104173 5.0625,60.5156253 C5.35937467,61.0208333 5.89583333,61.3229173 6.47395867,61.3125 L20.8958333,61.3125 L20.8958333,74.2239587 C20.8906253,74.802084 21.192708,75.3437507 21.692708,75.6406253 C22.192708,75.932292 22.807292,75.932292 23.307292,75.6406253 C23.807292,75.3437507 24.1093747,74.802084 24.0989587,74.2239587 L24.0989587,61.3125 L38.5260413,61.3125 C39.0989587,61.3229173 39.6406253,61.0208333 39.932292,60.5156253 C40.2187493,60.0104173 40.2187493,59.3906253 39.932292,58.8854173 C39.6406253,58.3854173 39.0989587,58.0833333 38.5260413,58.0885427 L24.0989587,58.0885427 L24.0989587,45.0989587 C35.7239587,44.2656253 44.932292,34.5 44.932292,22.5885427 C44.932292,10.1354173 34.869792,0 22.5,0 Z M22.5,3.22395867 C33.1406253,3.22395867 41.7291667,11.875 41.7291667,22.5885427 C41.7291667,33.239584 33.2343747,41.8437507 22.682292,41.9479173 C22.6093747,41.932292 22.5416667,41.927084 22.4739587,41.927084 C22.4166667,41.932292 22.3593747,41.932292 22.2968747,41.9479173 C11.755208,41.8333333 3.26562533,33.2343747 3.26562533,22.5885427 C3.26562533,11.875 11.8593747,3.22395867 22.5,3.22395867 Z" id="Shape" fill="#000000" fill-rule="nonzero" mask="url(#mask-2)"></path>
        </g>
    </g>
</svg>