<?xml version="1.0" encoding="UTF-8"?>
<svg width="81.9296877px" height="69.9895827px" viewBox="0 0 81.9296877 69.9895827" version="1.1" xmlns="http://www.w3.org/2000/svg" xmlns:xlink="http://www.w3.org/1999/xlink">
    <title>earth</title>
    <defs>
        <polygon id="path-1" points="0 0 82 0 82 70 0 70"></polygon>
    </defs>
    <g id="Icons-2" stroke="none" stroke-width="1" fill="none" fill-rule="evenodd">
        <g id="earth" transform="translate(-0.0703, -0.0104)">
            <mask id="mask-2" fill="white">
                <use xlink:href="#path-1"></use>
            </mask>
            <g id="Path"></g>
            <path d="M80.5312493,39.4791667 L59.0989587,39.4791667 L80.5156253,2.38541733 C80.7968747,1.89583333 80.7968747,1.28645867 80.5156253,0.796874667 C80.2395827,0.302084 79.7135413,0.0104173333 79.1406253,0.0104173333 L1.65624933,0.0104173333 C1.09895867,0.0104173333 0.572916,0.302084 0.281249333,0.796874667 C4.02733402e-14,1.28645867 4.02733402e-14,1.89583333 0.281249333,2.38541733 L21.697916,39.4791667 L2.60937467,39.4791667 C1.73958267,39.4791667 1.01562533,40.182292 1.01562533,41.0729173 C1.01562533,41.9427093 1.72395867,42.6614587 2.60937467,42.6614587 L23.5208333,42.6614587 L39.010416,69.5104173 C39.2916667,70.005208 39.817708,70.302084 40.3906253,70.302084 C40.947916,70.302084 41.4739587,70.005208 41.7708333,69.5104173 L57.260416,42.6614587 L80.5312493,42.6614587 C81.4010413,42.6614587 82.125,41.9583333 82.125,41.0729173 C82.125,40.182292 81.4218747,39.4791667 80.5312493,39.4791667 Z M4.40104133,3.177084 L76.3958333,3.177084 L55.4375,39.4791667 L25.3593747,39.4791667 L4.40104133,3.177084 Z M40.3906253,65.5260427 L27.1770827,42.6458333 L53.6041667,42.6458333 L40.3906253,65.5260427 Z" id="Shape" fill="#000000" fill-rule="nonzero" mask="url(#mask-2)"></path>
        </g>
    </g>
</svg>