<?xml version="1.0" encoding="UTF-8"?>
<svg width="52.6224263px" height="28.8083038px" viewBox="0 0 52.6224263 28.8083038" version="1.1" xmlns="http://www.w3.org/2000/svg" xmlns:xlink="http://www.w3.org/1999/xlink">
    <title>sleep</title>
    <defs>
        <polygon id="path-1" points="0 0 16 0 16 14.5781253 0 14.5781253"></polygon>
        <polygon id="path-3" points="0.0104166667 0.0104166667 1.32291667 0.0104166667 1.32291667 1.32291667 0.0104166667 1.32291667"></polygon>
    </defs>
    <g id="Icons-2" stroke="none" stroke-width="1" fill="none" fill-rule="evenodd">
        <g id="sleep" transform="translate(-0.0104, -0.1865)">
            <path d="M13.9322913,18.4218747 C15.151042,18.3385413 15.203126,19.234376 14.8177087,19.3229173 C14.4322913,19.4114587 12.9427087,19.744792 11.270834,19.989584 C9.598958,20.234376 8.92708333,20.119792 9.13020867,19.244792 C9.333334,18.369792 12.213542,15.6354173 12.5364593,15.1666667 C12.8593753,14.6979173 13.0468753,14.7083333 11.0468753,14.989584 C9.04687533,15.2708333 8.81250067,13.4791667 10.3802087,13.239584 C11.8593753,13.0156253 14.0677087,13.359376 14.4166673,13.427084 C14.7656247,13.5 15.583334,14.114584 14.8125007,14.9114587 C14.0364593,15.7083333 11.1197927,18.1041667 10.848958,18.5468747 C10.583334,18.989584 10.71875,19.052084 11.40625,18.9218747 C12.09375,18.7916667 13.2500007,18.4739587 13.9322913,18.4218747" id="Path" fill="#000000" fill-rule="nonzero"></path>
            <path d="M25.588542,14.9218747 C27.6406247,15.005208 27.15625,15.619792 26.6614593,16.057292 C25.776042,16.8281253 23.453126,16.4114587 20.6145833,16.505208 C17.776042,16.5989587 16.6718753,16.2864587 17.1822913,14.859376 C17.6927087,13.4375 21.8854167,9.864584 22.5104167,9.14062533 C23.1406247,8.42187467 24.6041673,8.01562533 21.208334,8.109376 C17.8125007,8.20833333 17.151042,6.03125067 19.8072913,5.927084 C22.3229167,5.82291733 26.5625007,5.95312533 27.1354167,6.13541733 C27.708334,6.31770933 28.203126,7.66666667 26.7604167,8.84895867 C25.3177087,10.0364587 20.71875,13.3281253 20.1927087,14.0208333 C19.6614593,14.7083333 19.8697927,14.8333333 21.0416673,14.75 C22.213542,14.6614587 24.4427087,14.875 25.588542,14.9218747" id="Path" fill="#000000" fill-rule="nonzero"></path>
            <g id="Clipped" transform="translate(27.5885, 0)">
                <mask id="mask-2" fill="white">
                    <use xlink:href="#path-1"></use>
                </mask>
                <g id="Path"></g>
                <path d="M11.0208333,11.1875 C13.505208,11.5468747 13.2031253,13.369792 12.3906253,13.380208 C11.5729173,13.3906253 8.442708,13.4114587 4.97916667,13.1666667 C1.510416,12.927084 0.208333333,12.4062507 1.01562533,10.739584 C1.817708,9.07291733 8.83333333,4.83854133 9.6875,4.04166667 C10.5468747,3.239584 9.97916667,3.177084 5.83854133,2.869792 C1.69791733,2.5625 2.10937467,-0.005208 5.35937467,0.197917333 C8.432292,0.395833333 13.5729173,1.08333333 14.244792,1.375 C14.9166667,1.66666667 16.0208333,3.45833333 14.1093747,4.71875067 C12.2031253,5.97916667 5.51562533,9.31770933 4.78125067,10.0937507 C4.04687467,10.864584 4.28645867,11.0468747 5.72395867,11.0833333 C7.16145867,11.125 9.630208,10.989584 11.0208333,11.1875" id="Path" fill="#000000" fill-rule="nonzero" mask="url(#mask-2)"></path>
            </g>
            <path d="M49.395834,15.7812507 C51.1406247,16.1875 50.703126,17.0885413 50.2291673,17.4218747 C48.588542,18.5989587 47.4218753,17.2083333 44.973958,16.8281253 C42.526042,16.4479173 41.6302087,16 42.3072913,14.864584 C42.9843753,13.7239587 48.2291673,11.1354173 48.8854167,10.619792 C49.5468753,10.1041667 49.8072913,10.1979173 46.8802087,9.72916667 C43.953126,9.26562533 44.1041673,6.427084 46.401042,6.77083333 C48.5729167,7.09375067 51.828126,8.75 52.2864593,9 C52.7500007,9.244792 52.958334,9.82812533 51.526042,10.6041667 C50.088542,11.3854173 45.59375,14.125 45.026042,14.630208 C44.458334,15.1354173 44.6145833,15.2760427 45.6354167,15.3906253 C46.651042,15.505208 48.4166673,15.557292 49.395834,15.7812507" id="Path" fill="#000000" fill-rule="nonzero"></path>
            <path d="M1.958334,25.3229173 C1.93229133,25.9166667 2.395834,26.4218747 2.99479267,26.4479173 C3.598958,26.4791667 4.10416733,26.0208333 4.13541667,25.427084 C4.16145933,24.8333333 3.69791667,24.3333333 3.098958,24.302084 C2.49479267,24.2760427 1.98437533,24.734376 1.958334,25.3229173" id="Path" fill="#000000" fill-rule="nonzero"></path>
            <path d="M4.56770867,22.6458333 C4.53125,23.369792 5.098958,23.989584 5.838542,24.0208333 C6.578126,24.057292 7.203126,23.494792 7.23958333,22.7708333 C7.270834,22.0416667 6.703126,21.427084 5.963542,21.3906253 C5.22916733,21.3541667 4.60416733,21.9166667 4.56770867,22.6458333" id="Path" fill="#000000" fill-rule="nonzero"></path>
            <g id="Clipped" transform="translate(0, 27.6719)">
                <mask id="mask-4" fill="white">
                    <use xlink:href="#path-3"></use>
                </mask>
                <g id="Path"></g>
                <path d="M0.0104166667,0.651042 C-0.00520794879,1.00520867 0.270834,1.30729133 0.630208667,1.32291667 C0.989583333,1.338542 1.29166733,1.06770867 1.31250067,0.713542 C1.32812538,0.359375333 1.05208333,0.0572913333 0.692708667,0.041666 C0.333334,0.026042 0.026042,0.296875333 0.0104166667,0.651042" id="Path" fill="#000000" fill-rule="nonzero" mask="url(#mask-4)"></path>
            </g>
        </g>
    </g>
</svg>