<?xml version="1.0" encoding="UTF-8"?>
<svg width="79.3346686px" height="79.9740017px" viewBox="0 0 79.3346686 79.9740017" version="1.1" xmlns="http://www.w3.org/2000/svg" xmlns:xlink="http://www.w3.org/1999/xlink">
    <title>masculine</title>
    <defs>
        <polygon id="path-1" points="0 0 58.4531253 0 58.4531253 59.0260413 0 59.0260413"></polygon>
        <polygon id="path-3" points="0 0 59.7864587 0 59.7864587 60.3593747 0 60.3593747"></polygon>
    </defs>
    <g id="Icons-2" stroke="none" stroke-width="1" fill="none" fill-rule="evenodd">
        <g id="masculine" transform="translate(3.0896, -0.0744)">
            <g id="Clipped" transform="translate(17.792, 0)">
                <mask id="mask-2" fill="white">
                    <use xlink:href="#path-1"></use>
                </mask>
                <g id="Path"></g>
                <line x1="34.420375" y1="10.3530061" x2="34.4178441" y2="38.1526087" id="Path" stroke="#000000" stroke-width="4.36937672" mask="url(#mask-2)" transform="translate(34.4191, 24.2528) rotate(-135.3501) translate(-34.4191, -24.2528)"></line>
            </g>
            <path d="M48.8675651,48.3350623 C48.8684701,49.6609592 48.7368763,50.9792665 48.4802214,52.2826305 C48.2162011,53.5859819 47.8347153,54.852305 47.3247544,56.0778976 C46.8184376,57.3071794 46.1912419,58.4736453 45.4541766,59.5809971 C44.7134672,60.68466 43.87785,61.7071355 42.9399593,62.6484117 C41.9984242,63.5859985 40.9768658,64.4276913 39.8717169,65.1624347 C38.7664912,65.9045438 37.5999251,66.5250093 36.3718651,67.0385627 C35.1438818,67.5447501 33.8766549,67.9293309 32.5739054,68.1886283 C31.2711559,68.4479257 29.9550572,68.574611 28.625533,68.5760619 C27.2960088,68.5774894 25.9825977,68.4463663 24.6742132,68.186345 C23.3731944,67.9263364 22.1065876,67.5448451 20.8818351,67.0345184 C19.6533614,66.5278683 18.4850409,65.903462 17.3805181,65.1649893 C16.275995,64.4265167 15.2535685,63.5850575 14.3131614,62.6479773 C13.3727542,61.7108974 12.5363863,60.6856 11.7966159,59.5794386 C11.0568452,58.4732772 10.4355382,57.3083873 9.92540559,56.0773898 C9.41519625,54.8537587 9.03066256,53.5861429 8.77172714,52.2819088 C8.51279203,50.9776747 8.38286962,49.6626092 8.38556678,48.3330355 C8.38112696,47.0034492 8.51272082,45.6851419 8.77302004,44.3854673 C9.03339601,43.0784264 9.41852621,41.8157928 9.92484268,40.5865111 C10.4311595,39.3572293 11.0583552,38.1907634 11.7954205,37.0834113 C12.5324087,35.9834252 13.3717471,34.9572729 14.3132822,34.0196862 C15.2511729,33.0784099 16.2763757,32.2404066 17.3778802,31.501974 C18.4867503,30.7635538 19.649672,30.1393993 20.8813764,29.6295351 C22.1093596,29.1233477 23.3729422,28.7350777 24.6793361,28.4794695 C25.9820856,28.2201721 27.2945395,28.0897977 28.6240641,28.0883585 C29.9572327,28.0906085 31.2706438,28.2217315 32.5753839,28.4780637 C33.8764027,28.7380723 35.1430094,29.1195633 36.3714064,29.6335795 C37.5998801,30.1402296 38.7645561,30.7609464 39.8727234,31.5031082 C40.9772465,32.2415809 41.9960286,33.0793512 42.9400801,34.0201202 C43.8767661,34.960877 44.7168552,35.9824978 45.4566255,37.088659 C46.1927518,38.1911312 46.8177033,39.3597105 47.3241915,40.5870185 C47.8343241,41.8180157 48.2189345,43.0782655 48.4778699,44.3824996 C48.736805,45.686734 48.8667275,47.0017995 48.8675651,48.3350623 Z" id="Path" stroke="#000000" stroke-width="4.36937672" stroke-linecap="round" stroke-linejoin="bevel" transform="translate(28.6266, 48.3322) rotate(-135.3501) translate(-28.6266, -48.3322)"></path>
            <g id="Clipped" transform="translate(16.4587, 0)">
                <mask id="mask-4" fill="white">
                    <use xlink:href="#path-3"></use>
                </mask>
                <g id="Path"></g>
                <polyline id="Path" stroke="#000000" stroke-width="4.36937672" mask="url(#mask-4)" transform="translate(40.6591, 19.2421) rotate(-135.3501) translate(-40.6591, -19.2421)" points="26.9386309 10.9462618 40.6610551 27.5394306 54.3795717 10.9446947"></polyline>
            </g>
        </g>
    </g>
</svg>