<?xml version="1.0" encoding="UTF-8"?>
<svg width="45.7913989px" height="47.3016962px" viewBox="0 0 45.7913989 47.3016962" version="1.1" xmlns="http://www.w3.org/2000/svg" xmlns:xlink="http://www.w3.org/1999/xlink">
    <title>earth2</title>
    <defs>
        <polygon id="path-1" points="0 0 46 0 46 48.6770827 0 48.6770827"></polygon>
    </defs>
    <g id="Icons-2" stroke="none" stroke-width="1" fill="none" fill-rule="evenodd">
        <g id="earth2" transform="translate(-0.0635, -0.7818)">
            <g id="Clipped">
                <mask id="mask-2" fill="white">
                    <use xlink:href="#path-1"></use>
                </mask>
                <g id="Path"></g>
                <path d="M7.66666667,37.5312507 C8.33854133,36.3906253 8.84895867,34.9739587 8.744792,33.6041667 C8.53125067,30.739584 4.307292,31.6614587 2.08333333,31.8125 C2.45833333,32.9114587 2.95312533,33.9791667 3.54687467,35.010416 C4.64583333,36.9166667 5.8125,39.1718747 7.40625067,40.6979173 C7.47916667,40.7760413 7.567708,40.8489587 7.64583333,40.9218747 C7.489584,39.7239587 7.14062533,38.432292 7.66666667,37.5312507 Z M23.3385413,6.744792 C23.755208,6.53125067 25.625,5.67708267 25.1510413,5.03125067 C24.8281253,4.59895867 24.369792,4.29166667 23.994792,3.91666667 C23.380208,3.29166667 22.9843747,2.65625067 22.8229173,1.83854133 C18.619792,2.005208 14.3125,3.26562533 10.6458333,5.47916667 C10.6979173,7.17187467 9.21874933,8.880208 7.96354133,10.010416 C9.17708267,11.8385413 9.79687467,13.994792 9.77604133,16.2031253 C9.77604133,16.2343747 9.77083333,16.2656253 9.76562533,16.2968747 C10.880208,17.614584 12.7708333,16.8229173 14.2760413,17.067708 C15.7187493,17.307292 16.4791667,18.307292 16.9218747,19.5937493 C17.1979173,18.1614587 16.7031253,16.8489587 16.1406253,15.4531253 C15.0729173,15.6093747 13.9218747,15.760416 12.9114587,15.3437493 C11.6875,14.8385413 11.5156253,13.5885413 11.6875,12.3958333 C11.692708,12.364584 11.6979173,12.3385413 11.7083333,12.3125 C11.6614587,12.067708 11.755208,11.7916667 12.0468747,11.682292 C14.0208333,10.9635413 16.1406253,10.3385413 18.1614587,11.125 C18.260416,11.114584 18.364584,11.1406253 18.4687493,11.2083333 C18.630208,11.2343747 18.7968747,11.255208 18.9583333,11.2812507 C18.994792,8.82812533 21.307292,7.80208267 23.3385413,6.744792 Z M29.885416,5.02604133 C30.5625,4.59374933 30.994792,3.875 31.5468747,3.29166667 C30.182292,2.760416 28.7708333,2.35937467 27.3281253,2.09374933 C27.3437493,3.14062533 28.4531253,5.9375 29.885416,5.02604133 Z M42.7083333,21.7083333 C43.0260413,20.875 43.4270827,20.0885413 44.3437493,19.9062507 C43.8333333,16.5520827 42.7291667,13.3437493 40.8020827,10.5260413 C40.3281253,11.0885413 39.8020827,11.7135413 39.7083333,12.364584 C39.5520827,13.369792 39.7656253,14.442708 39.869792,15.4479173 C40.0520827,17.1979173 41.0260413,18.5937493 41.3385413,20.3020827 C41.4739587,21.0208333 41.5520827,21.8229173 41.8281253,22.505208 C42.3020827,23.6770827 42.5468747,22.135416 42.7083333,21.7083333 Z M44.4687493,30.380208 C44.9270827,27.994792 44.7760413,25.6510413 44.6718747,23.244792 C44.6406253,22.4739587 44.5781253,21.7083333 44.489584,20.9531253 C43.2708333,21.380208 43.7864587,23.692708 42.4114587,24.0625 C41.0625,24.432292 40.6406253,22.1770827 40.489584,21.364584 C40.0833333,19.1458333 39.010416,17.2708333 38.7968747,14.994792 C38.6979173,13.9218747 38.494792,12.8489587 38.7968747,11.7916667 C39.010416,11.0260413 39.6770827,10.317708 40.182292,9.67708267 C40.0468747,9.5 39.9114587,9.32291733 39.7708333,9.15104133 C37.8229173,6.78645867 35.3333333,4.97395867 32.5833333,3.73437467 C31.4375,4.567708 30.619792,6.744792 28.8281253,6.14583333 C27.2760413,5.625 26.2812507,3.64583333 26.2968747,2.057292 C26.2968747,2.02083333 26.3020827,1.98437467 26.307292,1.95312533 C25.505208,1.864584 24.6875,1.817708 23.869792,1.817708 C24.1510413,2.875 25.130208,3.4375 25.8385413,4.23437467 C26.2343747,4.67708267 26.4479173,5.40104133 26.0729173,5.9375 C24.5781253,8.07812533 19.510416,8.39583333 20,11.6979173 C20.0416667,12.005208 19.9218747,12.2291667 19.635416,12.3437493 C18.9635413,12.614584 18.5989587,12.5416667 18.010416,12.1562507 C17.9635413,12.1510413 17.9114587,12.1406253 17.8593747,12.119792 C16.2031253,11.385416 14.3281253,11.9687493 12.6875,12.5625 C12.692708,12.5937493 12.6875,12.635416 12.682292,12.6770827 C12.5416667,13.6770827 12.8489587,14.4375 13.9218747,14.5312507 C14.7031253,14.5989587 15.4843747,14.494792 16.2656253,14.385416 C16.5625,14.3489587 16.7812507,14.5364587 16.869792,14.760416 C16.9531253,14.817708 17.0260413,14.9062507 17.0729173,15.0156253 C17.6458333,16.432292 18.3437493,18.0208333 18.0156253,19.5937493 C17.817708,20.5208333 17.4114587,21.6406253 16.3125,20.9375 C16.0989587,20.7968747 16.0416667,20.5781253 16.0833333,20.385416 C16.0833333,20.375 16.0781253,20.369792 16.0729173,20.3593747 C15.4010413,17.864584 13.9270827,18.130208 11.8385413,18.130208 C10.5260413,18.125 9.494792,17.755208 8.72395867,16.6406253 C8.58333333,16.432292 8.619792,16.2291667 8.739584,16.0885413 C8.73437467,13.942708 8.08854133,11.9114587 6.83333333,10.182292 C6.70312533,10.005208 6.755208,9.6875 6.91666667,9.54687467 C7.65625067,8.91666667 9.15104133,7.44791733 9.54166667,6.192708 C7.03125067,7.90104133 4.885416,10.0885413 3.375,12.7135413 C0.697917333,17.364584 0.968749333,22.4843747 1.255208,27.692708 C1.3125,28.760416 1.494792,29.7916667 1.76562533,30.7916667 C4.02083333,30.7291667 8.20833333,29.6666667 9.489584,32.1666667 C10.135416,33.4375 9.72395867,35.3906253 9.26562533,36.6510413 C9.09374933,37.125 8.59374933,37.7135413 8.52083333,38.1875 C8.34895867,39.3489587 8.744792,40.385416 8.744792,41.7812507 C8.744792,41.807292 8.73437467,41.8333333 8.72395867,41.8541667 C11.6666667,44.2031253 15.630208,46.0833333 19.135416,46.7083333 C23.375,47.4583333 27.8229173,46.7760413 31.7135413,44.9062507 C35.5156253,43.0833333 39.010416,40.380208 41.4531253,36.875 C42.8281253,34.9166667 44.005208,32.7656253 44.4687493,30.380208 Z M45.682292,22.682292 C45.7708333,24.760416 45.994792,26.875 45.7291667,28.9479173 C45.2708333,32.5937493 43.7135413,35.8437493 41.4010413,38.6562507 C36.5937493,44.4791667 28.9791667,48.5989587 21.3489587,48.0312507 C17.432292,47.739584 13.9114587,46.2291667 10.5364587,44.2656253 C6.77083333,42.0781253 4.432292,38.9218747 2.40104133,35.0729173 C0.229166667,30.9635413 0.156250667,26.864584 0.067708,22.2916667 C-0.010416,17.9114587 1.005208,13.8541667 3.71874933,10.364584 C9.22395867,3.27604133 18.6406253,-0.229166667 27.364584,1.03645867 C32.875,1.994792 37.7187493,4.92708267 41.0520827,9.20833333 C41.2343747,9.28125067 41.380208,9.44791733 41.380208,9.64062533 C42.9270827,11.739584 44.125,14.1406253 44.864584,16.7760413 C45.4166667,18.7135413 45.5937493,20.6770827 45.682292,22.682292" id="Shape" fill="#000000" fill-rule="nonzero" mask="url(#mask-2)"></path>
            </g>
            <path d="M39.2656253,25.9531253 C39.5885413,24.2239587 37.557292,24.0833333 36.364584,23.7968747 C34.869792,23.4375 33.7135413,22.5885413 32.3281253,21.9739587 C30.7083333,21.255208 28.8958333,21.239584 27.3125,20.4218747 C26.0364587,19.760416 24.6770827,18.0937493 23.0625,18.7083333 C22.0989587,19.0781253 21.6979173,20.4010413 21.005208,21.1718747 C20.5312507,23.8541667 19.067708,27.2239587 20.7135413,29.7812507 C21.7239587,31.3541667 23.1718747,31.4687493 23.4583333,33.432292 C23.635416,34.6614587 23.869792,36.119792 23.5312507,37.3437493 C23.2864587,38.2187493 22.9270827,39.0416667 22.7760413,39.9479173 C22.5364587,41.4010413 22.192708,44.369792 23.755208,45.192708 C23.7864587,45.1510413 23.8281253,45.114584 23.885416,45.0833333 C24.5156253,44.7291667 24.1406253,43.4687493 24.3333333,42.864584 C24.4583333,42.505208 24.7864587,42.192708 25.0833333,41.9843747 C26.6875,40.8541667 26.994792,39.0885413 28.3020827,37.7239587 C29.4479173,36.5260413 30.8281253,35.7291667 32.1666667,34.7864587 C33.7291667,33.6979173 35,32.2343747 36.2031253,30.760416 C37.2343747,29.505208 38.9479173,27.630208 39.2656253,25.9531253 Z M38.5937493,23.3020827 C41.5781253,24.5520827 39.9531253,27.380208 38.5625,29.3541667 C37.3125,31.1406253 35.8906253,33.0208333 34.2656253,34.4635413 C32.8541667,35.7083333 31.0989587,36.5 29.7239587,37.7812507 C28.8333333,38.6093747 28.2343747,39.505208 27.7239587,40.6041667 C27.380208,41.3333333 27.0260413,41.9114587 26.3593747,42.364584 C25.7760413,42.7656253 25.1875,43.2656253 25.260416,44.0364587 C25.2864587,44.307292 25.3437493,44.619792 25.2760413,44.8906253 C25.1614587,45.3489587 24.9843747,45.6041667 24.6562507,45.8333333 C24.6510413,46.135416 24.3958333,46.4583333 24.010416,46.3906253 C22.0989587,46.0520827 21.5729173,43.9531253 21.5625,42.2343747 C21.5625,41.182292 21.6458333,40.0989587 21.9010413,39.0729173 C22.2291667,37.7708333 22.7343747,36.6666667 22.6093747,35.2760413 C22.5468747,34.5208333 22.6718747,33.25 22.2135413,32.614584 C21.9791667,32.2968747 21.4687493,32.0833333 21.1666667,31.8437493 C20.255208,31.130208 19.5260413,30.0729173 19.260416,28.9218747 C18.6093747,26.0989587 19.5364587,23.635416 20.010416,20.9010413 C20.010416,20.8385413 20.0208333,20.7760413 20.0520827,20.7135413 C20.0885413,20.5781253 20.1718747,20.489584 20.2656253,20.442708 C21.2916667,19.369792 21.5208333,17.9791667 23.1458333,17.619792 C24.6614587,17.2864587 26.0989587,18.3489587 27.3281253,19.0364587 C28.7968747,19.8593747 30.1718747,20.0625 31.7760413,20.6406253 C32.614584,20.9375 33.375,21.3489587 34.1458333,21.7812507 C35.5989587,22.5937493 37.1093747,22.6770827 38.5937493,23.3020827" id="Shape" fill="#000000" fill-rule="nonzero"></path>
            <path d="M21.6510413,15.6875 C21.7083333,15.2656253 21.4270827,14.8906253 21.0781253,14.692708 C20.5364587,14.3958333 19.880208,14.2812507 19.255208,14.3489587 C19.4531253,14.9270827 19.864584,15.3958333 20.364584,15.75 C20.432292,15.7968747 20.4791667,15.8593747 20.5156253,15.9218747 C20.9010413,16.0885413 21.5729173,16.2135413 21.6510413,15.6875 Z M22.5260413,14.807292 C23.3125,16.625 21.239584,17.630208 19.8385413,16.744792 C19.7343747,16.6770827 19.6666667,16.5885413 19.630208,16.494792 C18.8020827,15.8385413 18.2656253,15.0208333 18.125,13.932292 C18.0885413,13.7083333 18.3020827,13.4843747 18.5,13.4270827 C19.8489587,13.0520827 21.9010413,13.3593747 22.5260413,14.807292" id="Shape" fill="#000000" fill-rule="nonzero"></path>
        </g>
    </g>
</svg>