<?xml version="1.0" encoding="UTF-8"?>
<svg width="66.6248588px" height="87.8906253px" viewBox="0 0 66.6248588 87.8906253" version="1.1" xmlns="http://www.w3.org/2000/svg" xmlns:xlink="http://www.w3.org/1999/xlink">
    <title>Creativity</title>
    <defs>
        <polygon id="path-1" points="0 0 67 0 67 88 0 88"></polygon>
    </defs>
    <g id="Icons-2" stroke="none" stroke-width="1" fill="none" fill-rule="evenodd">
        <g id="Creativity" transform="translate(-0.0206, -0.0573)">
            <mask id="mask-2" fill="white">
                <use xlink:href="#path-1"></use>
            </mask>
            <g id="Path"></g>
            <path d="M62.6614587,23.9479173 L62.5833333,28.5625 L66.135416,31.6614587 C67,32.432292 66.744792,33.9114587 65.5260413,34.2656253 L61.0885413,35.630208 L59.260416,39.989584 C58.7916667,41.114584 57.2812507,41.2083333 56.630208,40.244792 L53.942708,36.375 L49.25,35.9635413 C48.0520827,35.864584 47.442708,34.4843747 48.2291667,33.494792 L51.0156253,29.7864587 L49.9531253,25.192708 C49.6979173,24.0885413 50.760416,22.9843747 51.994792,23.4739587 L56.3541667,24.9739587 L60.4010413,22.5260413 C61.442708,21.875 62.755208,22.7239587 62.6614587,23.9479173 Z M59.557292,29.2135413 L59.614584,26.5156253 L57.2968747,27.9114587 C56.9270827,28.130208 56.4739587,28.192708 56.0416667,28.0520827 L53.489584,27.1666667 L54.0781253,29.75 C54.1979173,30.182292 54.119792,30.6562507 53.8229173,31.0520827 L52.192708,33.2031253 L54.864584,33.4375 C55.2968747,33.4791667 55.7083333,33.692708 55.9635413,34.067708 L57.5156253,36.2968747 L58.557292,33.8125 C58.7135413,33.4166667 59.0468747,33.0833333 59.5,32.9635413 L62.0885413,32.1770827 L60.0468747,30.4010413 C59.755208,30.1041667 59.557292,29.6718747 59.557292,29.2135413 Z M11.8020827,37.6406253 L6.32291733,28.0937493 C5.755208,28.2708333 5.16145867,28.385416 4.57291733,28.4270827 L10.2083333,38.25 C10.739584,38.0729173 11.2708333,37.875 11.8020827,37.6406253 Z M8.89583333,26.5729173 L14.3906253,36.119792 C14.864584,35.7864587 15.2968747,35.432292 15.7083333,35.0364587 L10.0729173,25.2135413 C9.71874933,25.7239587 9.34374933,26.1770827 8.89583333,26.5729173 Z M10.4270827,20.317708 C10.7031253,20.4583333 10.9166667,20.6718747 11.0520827,20.932292 L18.869792,34.5208333 C19.2031253,35.114584 19.1041667,35.8229173 18.692708,36.2812507 C17.5729173,37.5208333 16.1614587,38.6458333 14.630208,39.5312507 C13.0989587,40.4218747 11.4479173,41.0729173 9.79687467,41.4270827 C9.130208,41.567708 8.46354133,41.2291667 8.14583333,40.6562507 L0.354166667,27.0833333 C0.197917333,26.807292 0.156250667,26.5520827 0.156250667,26.2760413 L0.0208333333,16.7291667 C-3.26301486e-14,15.5468747 1.29687467,14.8125 2.29687467,15.4270827 L10.4270827,20.317708 Z M3.119792,25.2916667 C4.16145867,25.5468747 5.239584,25.4062507 6.182292,24.8541667 C7.10937467,24.3020827 7.79687467,23.4375 8.08854133,22.4114587 L3.04166667,19.3906253 L3.119792,25.2916667 Z M17.4583333,76.010416 L17.7135413,76.010416 L17.7135413,69.5 C9.130208,64.2916667 4.57291733,54.3906253 6.244792,44.364584 C6.35937467,43.635416 7.010416,43.1041667 7.71874933,43.1041667 L52.9583333,43.1041667 C53.744792,43.1041667 54.375,43.6979173 54.4531253,44.4635413 C54.6093747,45.5520827 54.6458333,45.6510413 54.7239587,46.9531253 C54.7864587,47.9375 54.7864587,48.6666667 54.744792,49.6562507 C54.7239587,49.869792 54.7239587,50.0885413 54.7083333,50.307292 L60.557292,59.1614587 C61.130208,60.0312507 60.6770827,61.1770827 59.692708,61.4531253 L54.6093747,62.8125 L54.6093747,71.494792 C54.6093747,72.3229173 53.942708,73.010416 53.114584,73.010416 L39.8020827,73.010416 L39.8020827,75.989584 L40.4114587,75.989584 C43.692708,75.989584 46.3593747,78.6718747 46.3593747,81.9687493 L46.3593747,86.4270827 C46.3593747,87.255208 45.692708,87.9479173 44.869792,87.9479173 L14.2968747,87.9479173 C13.4687493,87.9479173 12.8020827,87.2760413 12.8020827,86.4270827 L12.8020827,80.7083333 C12.7812507,78.119792 14.885416,76.010416 17.4583333,76.010416 Z M40.3906253,79.0468747 L17.4583333,79.0468747 C16.5520827,79.0468747 15.807292,79.7968747 15.807292,80.7083333 L15.807292,84.9687493 L43.3385413,84.9687493 L43.3385413,82.010416 C43.3385413,80.369792 42,79.0468747 40.3906253,79.0468747 Z M51.739584,47.1510413 C51.7239587,46.8333333 51.682292,46.5 51.6458333,46.1406253 L9.010416,46.1406253 C8.52083333,50.8593747 9.54166667,55.4739587 11.8385413,59.4010413 C13.7656253,62.6770827 16.5312507,65.3958333 19.8333333,67.2708333 C20.3437493,67.510416 20.7135413,68.0416667 20.7135413,68.6510413 L20.7135413,76.0312507 L36.7968747,76.0312507 L36.7968747,71.5520827 C36.7968747,70.7239587 37.4635413,70.0520827 38.2916667,70.0520827 L51.5833333,70.0520827 L51.5833333,61.7291667 C51.5833333,61.057292 52.0364587,60.4479173 52.7031253,60.2656253 L56.885416,59.1458333 L51.9010413,51.5885413 C51.505208,50.994792 51.682292,50.385416 51.739584,49.5729173 L51.739584,47.1510413 Z M49.6979173,17.635416 C50.5260413,17.635416 51.192708,18.307292 51.192708,19.135416 C51.192708,19.9635413 50.5260413,20.635416 49.6979173,20.635416 L45.9479173,20.635416 C45.125,20.635416 44.4583333,19.9635413 44.4583333,19.135416 C44.4583333,18.307292 45.125,17.635416 45.9479173,17.635416 L49.6979173,17.635416 Z M14.7083333,20.6562507 C13.880208,20.6562507 13.192708,19.9843747 13.192708,19.1562507 C13.192708,18.3281253 13.864584,17.6562507 14.7083333,17.6562507 L18.4583333,17.6562507 C19.2812507,17.6562507 19.9479173,18.3281253 19.9479173,19.1562507 C19.9479173,19.9843747 19.2812507,20.6562507 18.4583333,20.6562507 L14.7083333,20.6562507 Z M18.7708333,7.77083333 C18.182292,7.182292 18.182292,6.23437467 18.7708333,5.64062533 C19.3593747,5.04687467 20.3020827,5.04687467 20.8906253,5.64062533 L23.5416667,8.30208267 C24.130208,8.89583333 24.130208,9.84374933 23.5416667,10.4375 C22.9531253,11.0260413 22.010416,11.0260413 21.4218747,10.4375 L18.7708333,7.77083333 Z M30.7083333,1.557292 C30.7083333,0.729166667 31.380208,0.057292 32.2031253,0.057292 C33.0260413,0.057292 33.6979173,0.729166667 33.6979173,1.557292 L33.6979173,5.32812533 C33.6979173,6.15625067 33.0260413,6.82291733 32.2031253,6.82291733 C31.380208,6.82291733 30.7083333,6.15625067 30.7083333,5.32812533 L30.7083333,1.557292 Z M43.5156253,5.64062533 C44.1041667,5.04687467 45.0468747,5.04687467 45.635416,5.64062533 C46.2239587,6.23437467 46.2239587,7.182292 45.635416,7.77083333 L42.9843747,10.4375 C42.3958333,11.0260413 41.4531253,11.0260413 40.864584,10.4375 C40.2760413,9.84374933 40.2760413,8.89583333 40.864584,8.30208267 L43.5156253,5.64062533 Z M38.8385413,26.5729173 C40.7239587,28.1718747 40.4479173,32.6510413 37.9166667,33.3385413 C34.8125,39.5312507 29.5729173,39.5312507 26.4687493,33.3385413 C23.9375,32.630208 23.6614587,28.130208 25.567708,26.5520827 C25.3125,26.1770827 25.0364587,25.8437493 24.760416,25.505208 C23.5416667,24.0468747 22.3437493,22.6093747 22.3437493,19.0781253 C22.3437493,13.6093747 26.7656253,9.17187467 32.2031253,9.17187467 C37.6406253,9.17187467 42.0625,13.6093747 42.0625,19.0781253 C42.0625,22.625 40.864584,24.067708 39.6458333,25.5468747 C39.369792,25.880208 39.0937493,26.1979173 38.8385413,26.5729173 Z M34.380208,33.4375 L30.0260413,33.4375 C31.494792,35.4687493 32.8906253,35.4687493 34.380208,33.4375 Z M37.2083333,29.0208333 L27.1979173,29.0208333 C27.0208333,29.0208333 27.4114587,29.0989587 27.3906253,29.1770827 C27.3125,29.494792 27.3125,29.9270827 27.3906253,30.239584 C27.4114587,30.3229173 27.0208333,30.4010413 27.1979173,30.4010413 L37.2083333,30.4010413 C37.385416,30.4010413 36.9739587,30.3229173 37.0156253,30.239584 C37.0937493,29.9270827 37.0937493,29.4739587 37.0156253,29.1770827 C36.9739587,29.0989587 37.385416,29.0208333 37.2083333,29.0208333 Z M37.0312507,14.2239587 C34.364584,11.5416667 30.0260413,11.5416667 27.3541667,14.2239587 C26.114584,15.4635413 25.3489587,17.182292 25.3489587,19.0781253 C25.3489587,22.9218747 27.3906253,23.2187493 28.7083333,26 L35.7187493,26 C37.0312507,23.260416 39.057292,22.9218747 39.057292,19.0781253 C39.057292,17.182292 38.2916667,15.4479173 37.0312507,14.2239587 Z" id="Shape" fill="#000000" fill-rule="nonzero" mask="url(#mask-2)"></path>
        </g>
    </g>
</svg>