<?xml version="1.0" encoding="UTF-8"?>
<svg width="47.6825229px" height="41.1102479px" viewBox="0 0 47.6825229 41.1102479" version="1.1" xmlns="http://www.w3.org/2000/svg" xmlns:xlink="http://www.w3.org/1999/xlink">
    <title>heart</title>
    <defs>
        <polygon id="path-1" points="0 0 48 0 48 42 0 42"></polygon>
    </defs>
    <g id="Icons-2" stroke="none" stroke-width="1" fill="none" fill-rule="evenodd">
        <g id="heart" transform="translate(-0.2697, -0.8795)">
            <mask id="mask-2" fill="white">
                <use xlink:href="#path-1"></use>
            </mask>
            <g id="Path"></g>
            <path d="M24.1041667,41.9896904 C23.7864587,41.9896904 23.5781253,41.8125 23.5260413,41.7656253 L5.03645867,23.510416 C0.635416,19.5781253 -0.880208,13.5833333 1.17187467,8.60416667 C3.5625,2.807292 9.59895867,1.29166667 10.005208,1.19791733 C15.1875,0.005208 20.7291667,2.22916667 24.1093747,6.77083333 C27.489584,2.22916667 33.0312507,0.005208 38.2187493,1.19791733 C38.4791667,1.260416 44.630208,2.739584 47.0468747,8.60416667 C49.114584,13.619792 47.5625,19.6093747 43.1875,23.510416 L24.692708,41.7656253 C24.6458333,41.807292 24.432292,41.994792 24.1041667,41.9896904 Z M10.3333333,2.58854133 C9.989584,2.66666667 4.630208,4 2.510416,9.14062533 C0.666666667,13.6093747 2.07812533,18.9635413 6.01562533,22.4635413 L6.04166667,22.489584 L24.1093747,40.3229173 L42.192708,22.4739587 L42.2031253,22.4635413 C46.1406253,18.9635413 47.5520827,13.6093747 45.7135413,9.14062533 C43.5729173,3.95312533 38.119792,2.64062533 37.8906253,2.58854133 C32.9739587,1.45312533 27.682292,3.79687467 24.7187493,8.41666667 L24.1093747,9.369792 L23.5,8.41666667 C20.5364587,3.77083333 15.2031253,1.46354133 10.3333333,2.58854133 Z" id="Shape" fill="#000000" fill-rule="nonzero" mask="url(#mask-2)"></path>
        </g>
    </g>
</svg>