<?xml version="1.0" encoding="UTF-8"?>
<svg width="49px" height="52.8333333px" viewBox="0 0 49 52.8333333" version="1.1" xmlns="http://www.w3.org/2000/svg" xmlns:xlink="http://www.w3.org/1999/xlink">
    <title>protect</title>
    <defs>
        <polygon id="path-1" points="0 0 10.6666667 0 10.6666667 18.432292 0 18.432292"></polygon>
        <polygon id="path-3" points="0 0 15.244792 0 15.244792 17.3333333 0 17.3333333"></polygon>
        <polygon id="path-5" points="0 0 9.33333333 0 9.33333333 22.432292 0 22.432292"></polygon>
        <polygon id="path-7" points="0 0 25.3333333 0 25.3333333 42.432292 0 42.432292"></polygon>
        <polygon id="path-9" points="0 0 10.6666667 0 10.6666667 10.567708 0 10.567708"></polygon>
        <polygon id="path-11" points="0 0 25.755208 0 25.755208 26.6666667 0 26.6666667"></polygon>
    </defs>
    <g id="Icons-2" stroke="none" stroke-width="1" fill="none" fill-rule="evenodd">
        <g id="protect" transform="translate(0, -0.0573)">
            <g id="Clipped" transform="translate(4.5781, 34.5677)">
                <mask id="mask-2" fill="white">
                    <use xlink:href="#path-1"></use>
                </mask>
                <g id="Path"></g>
                <path d="M0.255208,0.838541333 L0.255208,16.0156253 C0.255208,17.2864587 1.29166667,18.3229173 2.567708,18.3229173 C3.84374933,18.3229173 4.875,17.2864587 4.875,16.0156253 L4.875,5.010416 L5.79166667,5.010416 L5.79166667,16.0156253 C5.79166667,17.2864587 6.82291733,18.3229173 8.09895867,18.3229173 C9.375,18.3229173 10.4062507,17.2864587 10.4062507,16.0156253 L10.4062507,0.838541333 L0.255208,0.838541333 Z" id="Path" fill="#000000" fill-rule="nonzero" mask="url(#mask-2)"></path>
            </g>
            <path d="M9.91145867,11.2135413 C7.34375067,11.2135413 5.26041733,13.2968747 5.26041733,15.8697907 C5.26041733,18.4375 7.34375067,20.5260413 9.91145867,20.5260413 C10.677084,20.5260413 11.4010427,20.3333333 12.0364587,20.005208 C12.6875,18.0885413 13.5104173,16.442708 14.489584,15.078124 C14.114584,12.885416 12.2135413,11.2135413 9.91145867,11.2135413 Z" id="Path" fill="#000000" fill-rule="nonzero"></path>
            <g id="Clipped" transform="translate(0, 21.2344)">
                <mask id="mask-4" fill="white">
                    <use xlink:href="#path-3"></use>
                </mask>
                <g id="Path"></g>
                <path d="M1.557292,16.8020827 C1.56770933,16.8020827 1.57812533,16.8020827 1.58854133,16.8020827 C2.44791733,16.7864587 3.130208,16.0729173 3.114584,15.2135413 C3.114584,15.2135413 3.114584,15.2135413 3.114584,15.1875 C3.109376,10.8229173 3.67187467,7.682292 4.4375,5.79687467 C4.56770933,5.47916667 4.70312533,5.19791733 4.83333333,4.95312533 L4.83333333,13.057292 L14.984376,13.057292 L14.984376,8.28645867 C14.5677093,9.04166667 13.7708333,9.54166667 12.8541667,9.54166667 C12.7760427,9.54166667 12.6927093,9.53645867 12.614584,9.52604133 C11.9635413,9.46874933 11.380208,9.15625067 10.9635413,8.65104133 C10.5468747,8.14583333 10.3541667,7.505208 10.4114587,6.85416667 C10.6406253,4.48437467 11.0156253,2.34374933 11.5364587,0.432292 L6.557292,0.432292 C6.5,0.427082667 6.44270933,0.421874667 6.38541733,0.421874667 C6.32291733,0.421874667 6.255208,0.427082667 6.1875,0.432292 L6.17187467,0.432292 C6.125,0.432292 6.07291733,0.432292 6.03125067,0.4375 C5.07812533,0.526041333 4.17187467,0.973958667 3.46875067,1.64062533 C2.27083333,2.77083333 1.46875067,4.442708 0.890625333,6.67187467 C0.317709333,8.90625067 0,11.7187493 0,15.1875 C0,15.1979173 0,15.2291667 0,15.2708333 C0.0156253333,16.119792 0.713541333,16.8020827 1.557292,16.8020827 Z" id="Path" fill="#000000" fill-rule="nonzero" mask="url(#mask-4)"></path>
            </g>
            <path d="M18.2708333,25.8645827 C17.7708333,24.630208 17.1510427,23.625 16.3489587,22.875 C16.3333333,22.8541667 16.307292,22.8385413 16.2916667,22.822916 C15.9531253,24.0520827 15.6614587,25.4947907 15.4427093,27.182292 C15.609376,27.6197907 15.7708333,28.1145827 15.9114587,28.682292 C16.4010427,30.5625 16.7083333,33.1458333 16.7031253,36.4218747 C16.7031253,36.432292 16.7031253,36.4583333 16.7031253,36.4947907 C16.7135413,37.2812493 17.302084,37.9218747 18.057292,38.0208333 L19.0156253,28.255208 C18.807292,27.375 18.557292,26.578124 18.2708333,25.8645827 Z" id="Path" fill="#000000" fill-rule="nonzero"></path>
            <g id="Clipped" transform="translate(25.9115, 30.5677)">
                <mask id="mask-6" fill="white">
                    <use xlink:href="#path-5"></use>
                </mask>
                <g id="Path"></g>
                <path d="M1.14062533,0.843749333 L2.994792,19.75 C3.14062533,21.2656253 4.489584,22.369792 6,22.2239587 C7.51562533,22.0729173 8.619792,20.7291667 8.46874933,19.2135413 L7.369792,7.96874933 C4.90104133,6.692708 2.76562533,4.10416667 1.14062533,0.843749333 Z" id="Path" fill="#000000" fill-rule="nonzero" mask="url(#mask-6)"></path>
            </g>
            <g id="Clipped" transform="translate(9.9115, 10.5677)">
                <mask id="mask-8" fill="white">
                    <use xlink:href="#path-7"></use>
                </mask>
                <g id="Path"></g>
                <path d="M2.77083333,19.5312507 C2.82812533,19.5364587 2.885416,19.5364587 2.942708,19.5364587 C3.84895867,19.5364587 4.625,18.8489587 4.71354133,17.9270827 C5.40625067,10.7083333 7.40625067,7.364584 8.989584,5.83333333 C9.369792,5.46874933 9.72395867,5.19791733 10.0520827,4.994792 L10.0520827,14.885416 L7.66666667,39.2135413 C7.51562533,40.7291667 8.625,42.0729173 10.135416,42.2239587 C11.6458333,42.369792 12.994792,41.2656253 13.1406253,39.75 L15.130208,19.4479173 L16.494792,19.4479173 C14.7916667,15.5 13.807292,10.7916667 13.807292,6.307292 L13.807292,5.41666667 L14.6562507,5.66145867 C15.5729173,5.92708267 16.5416667,6.057292 17.5468747,6.057292 C20.5781253,6.057292 23.3437493,4.84374933 24.9531253,3.96354133 C24.8541667,3.79687467 24.755208,3.630208 24.6510413,3.47395867 C23.9218747,2.364584 23.067708,1.65104133 22.2760413,1.260416 C21.5208333,0.880208 20.8541667,0.791666667 20.4531253,0.786458667 C20.4270827,0.781250667 20.3958333,0.781250667 20.364584,0.781250667 L11.7708333,0.781250667 C11.6979173,0.781250667 11.630208,0.786458667 11.5625,0.791666667 C10.744792,0.843749333 8.625,1.21874933 6.510416,3.27604133 C4.130208,5.59374933 1.90625067,9.84895867 1.16666667,17.5885413 C1.07291733,18.567708 1.79166667,19.4375 2.77083333,19.5312507 Z" id="Path" fill="#000000" fill-rule="nonzero" mask="url(#mask-8)"></path>
            </g>
            <g id="Clipped" transform="translate(20.5781, 0)">
                <mask id="mask-10" fill="white">
                    <use xlink:href="#path-9"></use>
                </mask>
                <g id="Path"></g>
                <path d="M10.4062507,5.067708 C10.4062507,5.73437467 10.2812507,6.375 10.0260413,6.98437467 C9.77083333,7.59895867 9.41145867,8.14062533 8.942708,8.60937467 C8.47395867,9.08333333 7.932292,9.442708 7.317708,9.697916 C6.70312533,9.953124 6.067708,10.078124 5.40104133,10.078124 C4.739584,10.078124 4.09895867,9.953124 3.48437467,9.697916 C2.869792,9.442708 2.33333333,9.08333333 1.85937467,8.60937467 C1.39062533,8.14062533 1.03125067,7.59895867 0.776041333,6.98437467 C0.520833333,6.375 0.395833333,5.73437467 0.395833333,5.067708 C0.395833333,4.40624933 0.520833333,3.76562533 0.776041333,3.15104133 C1.03125067,2.53645733 1.39062533,1.99479067 1.85937467,1.52604133 C2.33333333,1.057292 2.869792,0.697916 3.48437467,0.442708 C4.09895867,0.1875 4.739584,0.057292 5.40104133,0.057292 C6.067708,0.057292 6.70312533,0.1875 7.317708,0.442708 C7.932292,0.697916 8.47395867,1.057292 8.942708,1.52604133 C9.41145867,1.99479067 9.77083333,2.53645733 10.0260413,3.15104133 C10.2812507,3.76562533 10.4062507,4.40624933 10.4062507,5.067708 Z" id="Path" fill="#000000" fill-rule="nonzero" mask="url(#mask-10)"></path>
            </g>
            <g id="Clipped" transform="translate(23.2448, 13.2344)">
                <mask id="mask-12" fill="white">
                    <use xlink:href="#path-11"></use>
                </mask>
                <g id="Path"></g>
                <path d="M1.14062533,3.64062533 C1.14062533,13.6770827 6.33333333,25.5 13.4531253,25.5 C20.5781253,25.5 25.7656253,13.6770827 25.7656253,3.64062533 C19.5520827,5.42708267 13.4531253,0.953125333 13.4531253,0.953125333 C13.4531253,0.953125333 7.35937467,5.42708267 1.14062533,3.64062533 Z M13.4531253,2.55208267 C14.989584,3.5 18.5729173,5.39583333 22.6979173,5.39583333 C23.2656253,5.39583333 23.8281253,5.35937467 24.385416,5.28645867 C24.135416,9.614584 22.9479173,14.1562507 21.0989587,17.7187493 C19.8437493,20.125 17.1875,24.1666667 13.4531253,24.1666667 C9.71874933,24.1666667 7.0625,20.125 5.8125,17.7187493 C3.95833333,14.1562507 2.77083333,9.614584 2.52083333,5.28645867 C3.07812533,5.35937467 3.64062533,5.39583333 4.21354133,5.39583333 C8.33333333,5.39583333 11.9166667,3.5 13.4531253,2.55208267 Z" id="Shape" fill="#000000" fill-rule="nonzero" mask="url(#mask-12)"></path>
            </g>
            <polygon id="Path" fill="#000000" fill-rule="nonzero" points="36.109376 18.307292 36.109376 22.703124 28.1875 22.703124 28.1875 23.880208 36.109376 23.880208 36.109376 35.3385413 37.2864587 35.3385413 37.2864587 23.880208 45.2083333 23.880208 45.2083333 22.703124 37.2864587 22.703124 37.2864587 18.307292"></polygon>
        </g>
    </g>
</svg>