<?xml version="1.0" encoding="UTF-8"?>
<svg width="60.9414647px" height="55.9687493px" viewBox="0 0 60.9414647 55.9687493" version="1.1" xmlns="http://www.w3.org/2000/svg" xmlns:xlink="http://www.w3.org/1999/xlink">
    <title>birth</title>
    <defs>
        <polygon id="path-1" points="0 0 61 0 61 56 0 56"></polygon>
    </defs>
    <g id="Icons-2" stroke="none" stroke-width="1" fill="none" fill-rule="evenodd">
        <g id="birth" transform="translate(0, -0.0156)">
            <mask id="mask-2" fill="white">
                <use xlink:href="#path-1"></use>
            </mask>
            <g id="Path"></g>
            <path d="M43.552084,19.4687507 C42.432292,15.692708 38.182292,13.630208 34.0833333,14.869792 C29.984376,16.1145827 27.5625,20.192708 28.682292,23.9687507 C29.3854173,26.3333333 31.3437507,28.1093747 33.859376,28.7083333 C33.734376,29.0104173 33.552084,29.4218747 33.3229173,29.880208 C32.619792,29.942708 31.9218747,29.947916 31.3333333,29.8541667 C30.2291667,29.677084 29.0156253,28.8281253 28.1927093,28.1510413 C27.2864587,27.4062493 25.9687507,27.3958333 25.0625,28.1354173 L25.0468747,28.1510413 C24.5156253,28.5833333 24.182292,29.2239587 24.130208,29.9114587 C24.0833333,30.5989587 24.3177093,31.2812493 24.7812507,31.7812493 C25.7812507,32.875 27.0989587,34.182292 28.3333333,34.9895827 C27.6041667,35.427084 26.9479173,35.7812493 26.5729173,35.9791667 C26.2656253,35.6093747 25.9531253,35.2760413 25.6510427,35.0156253 C24.484376,34.005208 21.9166667,32.8593747 19.9687507,32.0781253 C18.994792,31.6875 17.8958333,31.9739587 17.234376,32.7916667 C16.7708333,33.3645827 16.5937507,34.1041667 16.744792,34.8281253 C16.8958333,35.5416667 17.3541667,36.1458333 18.005208,36.4687507 C19.489584,37.2239587 20.625,38.0364587 21.2968747,38.8333333 C21.7239587,39.3437507 22.0781253,40.1562493 22.4583333,41.0156253 C23.5156253,43.432292 24.9583333,46.7395827 29.677084,46.7395827 C36.052084,46.7395827 41.380208,37.9635413 42.0260427,34.1041667 C42.557292,30.9218747 41.619792,27.8437507 41.2604173,26.8385413 C43.427084,24.927084 44.3281253,22.067708 43.552084,19.4687507 Z M40.239584,26.875 C40.255208,26.9062493 41.6562507,30.427084 41.0729173,33.942708 C40.489584,37.4531253 35.4427093,45.7656253 29.677084,45.7656253 C25.5885413,45.7656253 24.3958333,43.0312493 23.3437507,40.619792 C22.9375,39.692708 22.552084,38.817708 22.0312507,38.197916 C21.2708333,37.2916667 20.057292,36.4166667 18.4375,35.5989587 C18.052084,35.4062493 17.7812507,35.0468747 17.6927093,34.625 C17.5989587,34.192708 17.7031253,33.75 17.9791667,33.4114587 C18.375,32.9218747 19.0312507,32.75 19.609376,32.9843747 C21.1510427,33.6041667 23.9010427,34.7864587 25.0208333,35.755208 C26.6458333,37.1614587 28.6875,41.0312493 28.7083333,41.072916 C28.8333333,41.307292 29.125,41.4010413 29.364584,41.2760413 C29.5989587,41.1458333 29.6875,40.8541667 29.5625,40.6145827 C29.5,40.494792 28.432292,38.4635413 27.177084,36.7604173 C27.677084,36.494792 28.4739587,36.057292 29.3229173,35.5260413 C29.4114587,35.5625 29.5,35.5989587 29.5885413,35.625 C30.8177093,36.0312493 32.3854173,36.130208 33.6666667,36.130208 C34.9375,36.130208 35.9218747,36.0312493 36.005208,36.0208333 C36.2708333,35.994792 36.4635413,35.755208 36.432292,35.4843747 C36.4062507,35.2187507 36.1718747,35.0260413 35.9010427,35.052084 C35.864584,35.057292 32.1406253,35.4375 29.8854173,34.697916 C28.8489587,34.3593747 27.2916667,33.0885413 25.489584,31.119792 C25.2083333,30.8125 25.0677093,30.4062493 25.0989587,29.9843747 C25.125,29.557292 25.3281253,29.177084 25.6562507,28.9062493 L25.6718747,28.8958333 C26.2239587,28.442708 27.0260427,28.447916 27.5833333,28.9062493 C28.5,29.6614587 29.864584,30.6041667 31.182292,30.817708 C33.4114587,31.177084 36.8906253,30.2604173 37.0416667,30.2239587 C37.2968747,30.1562493 37.4531253,29.8906253 37.3854173,29.630208 C37.3177093,29.3645827 37.052084,29.2135413 36.7916667,29.2812493 C36.7760427,29.2864587 35.734376,29.557292 34.4635413,29.744792 C34.7916667,29.0364587 34.9739587,28.5364587 34.984376,28.5104173 C35.0312507,28.369792 35.0156253,28.2187507 34.9427093,28.0937507 C34.869792,27.9687507 34.744792,27.8854173 34.6041667,27.8593747 C32.1718747,27.4687507 30.2604173,25.869792 29.609376,23.6875 C28.6406253,20.427084 30.7708333,16.8906253 34.359376,15.807292 C37.9479173,14.7187507 41.6562507,16.4895827 42.625,19.75 C43.3177093,22.072916 42.4375,24.6458333 40.3854173,26.307292 C40.2187507,26.442708 40.1614587,26.6718747 40.239584,26.875 Z M13.3906253,16.2916667 C13.3906253,13.322916 10.994792,10.9114587 8.052084,10.9114587 C5.114584,10.9114587 2.71875067,13.322916 2.71875067,16.2916667 C2.71875067,19.255208 5.114584,21.6718747 8.052084,21.6718747 C10.994792,21.6718747 13.3906253,19.255208 13.3906253,16.2916667 Z M3.6875,16.2916667 C3.6875,13.8593747 5.64583333,11.8854173 8.052084,11.8854173 C10.4635413,11.8854173 12.4218747,13.8593747 12.4218747,16.2916667 C12.4218747,18.7187507 10.4635413,20.697916 8.052084,20.697916 C5.64583333,20.697916 3.6875,18.7187507 3.6875,16.2916667 Z M8.052084,47.8333333 C9.06770933,47.8333333 9.89583333,47 9.89583333,45.9739587 L9.89583333,39.6510413 L13.2239587,39.6510413 C14.239584,39.6510413 15.0677093,38.817708 15.0677093,37.7916667 C15.0677093,36.7656253 14.239584,35.932292 13.2239587,35.932292 L9.89583333,35.932292 L9.89583333,24.197916 C13.5208333,23.3437507 16.1041667,20.0781253 16.1041667,16.2916667 C16.1041667,11.8125 12.494792,8.16666667 8.052084,8.16666667 C3.614584,8.16666667 0,11.8125 0,16.2916667 C0,20.0781253 2.58854133,23.3437507 6.20833333,24.197916 L6.20833333,35.932292 L2.880208,35.932292 C1.864584,35.932292 1.03645867,36.7656253 1.03645867,37.7916667 C1.03645867,38.817708 1.864584,39.6510413 2.880208,39.6510413 L6.20833333,39.6510413 L6.20833333,45.9739587 C6.20833333,47 7.03645867,47.8333333 8.052084,47.8333333 Z M2.880208,38.677084 C2.40104267,38.677084 2.005208,38.2812493 2.005208,37.7916667 C2.005208,37.307292 2.40104267,36.9062493 2.880208,36.9062493 L6.69270933,36.9062493 C6.96354133,36.9062493 7.177084,36.6875 7.177084,36.4218747 L7.177084,23.802084 C7.177084,23.5625 7.01041733,23.3645827 6.78125067,23.322916 C3.41145867,22.7031253 0.968750667,19.744792 0.968750667,16.2916667 C0.968750667,12.3489587 4.14583333,9.14062533 8.052084,9.14062533 C11.9583333,9.14062533 15.1406253,12.3489587 15.1406253,16.2916667 C15.1406253,19.744792 12.6927093,22.7031253 9.32812533,23.322916 C9.09895867,23.3645827 8.927084,23.5625 8.927084,23.802084 L8.927084,36.4218747 C8.927084,36.6875 9.14583333,36.9062493 9.41145867,36.9062493 L13.2239587,36.9062493 C13.7083333,36.9062493 14.0989587,37.307292 14.0989587,37.7916667 C14.0989587,38.2812493 13.7083333,38.677084 13.2239587,38.677084 L9.41145867,38.677084 C9.14583333,38.677084 8.927084,38.8958333 8.927084,39.1614587 L8.927084,45.9739587 C8.927084,46.4583333 8.53645867,46.8541667 8.052084,46.8541667 C7.57291733,46.8541667 7.177084,46.4583333 7.177084,45.9739587 L7.177084,39.1614587 C7.177084,38.8958333 6.96354133,38.677084 6.69270933,38.677084 L2.880208,38.677084 Z M57.5833333,20.1145827 C57.927084,20.6145827 58.494792,20.9114587 59.0989587,20.9114587 C59.4739587,20.9114587 59.8385413,20.7968747 60.1458333,20.5833333 C60.552084,20.2968747 60.8229173,19.875 60.9114587,19.3854173 C61,18.8958333 60.8906253,18.4010413 60.609376,17.994792 L54.4010427,8.96354133 C54.057292,8.46354133 53.489584,8.16666667 52.8854173,8.16666667 C52.2812507,8.16666667 51.7187507,8.46354133 51.375,8.96354133 L45.1614587,17.994792 C44.880208,18.4010413 44.7760427,18.8958333 44.864584,19.3854173 C44.9531253,19.875 45.2239587,20.2968747 45.625,20.5833333 C45.9375,20.7968747 46.2968747,20.9114587 46.677084,20.9114587 C47.2812507,20.9114587 47.8489587,20.6145827 48.1927093,20.1145827 L51.0416667,15.9635413 L51.0416667,31.802084 C47.4218747,32.6562493 44.8333333,35.9218747 44.8333333,39.7083333 C44.8333333,44.1875 48.4479173,47.8333333 52.8854173,47.8333333 C57.3281253,47.8333333 60.9375,44.1875 60.9375,39.7083333 C60.9375,35.9218747 58.3541667,32.6562493 54.7291667,31.802084 L54.7291667,15.9635413 L57.5833333,20.1145827 Z M54.1614587,32.677084 C57.5260427,33.2968747 59.9739587,36.255208 59.9739587,39.7083333 C59.9739587,43.6510413 56.7916667,46.8593747 52.8854173,46.8593747 C48.9791667,46.8593747 45.802084,43.6510413 45.802084,39.7083333 C45.802084,36.255208 48.244792,33.2968747 51.614584,32.677084 C51.8437507,32.6354173 52.0104173,32.432292 52.0104173,32.197916 L52.0104173,14.4062493 C52.0104173,14.192708 51.875,14.005208 51.6718747,13.942708 C51.625,13.927084 51.5729173,13.9166667 51.5260427,13.9166667 C51.369792,13.9166667 51.2239587,13.994792 51.130208,14.130208 L47.3958333,19.557292 C47.234376,19.7968747 46.9635413,19.9375 46.677084,19.9375 C46.494792,19.9375 46.3229173,19.880208 46.177084,19.7812493 C45.984376,19.6458333 45.8541667,19.442708 45.8125,19.2083333 C45.7708333,18.9791667 45.8229173,18.744792 45.9583333,18.552084 L52.1666667,9.52083333 C52.3281253,9.28645867 52.5989587,9.14062533 52.8854173,9.14062533 C53.1718747,9.14062533 53.4427093,9.28645867 53.6041667,9.52083333 L59.8177093,18.552084 C59.9479173,18.744792 60,18.9791667 59.9583333,19.2083333 C59.9166667,19.442708 59.7864587,19.6458333 59.5937507,19.7812493 C59.4479173,19.880208 59.2760427,19.9375 59.0989587,19.9375 C58.807292,19.9375 58.5416667,19.7968747 58.375,19.557292 L54.6406253,14.130208 C54.5208333,13.9531253 54.302084,13.875 54.0989587,13.942708 C53.9010427,14.005208 53.7604173,14.192708 53.7604173,14.4062493 L53.7604173,32.197916 C53.7604173,32.432292 53.927084,32.6354173 54.1614587,32.677084 Z M47.552084,39.7083333 C47.552084,42.677084 49.9427093,45.0885413 52.8854173,45.0885413 C55.8281253,45.0885413 58.2187507,42.677084 58.2187507,39.7083333 C58.2187507,36.7395827 55.8281253,34.3281253 52.8854173,34.3281253 C49.9427093,34.3281253 47.552084,36.7395827 47.552084,39.7083333 Z M57.255208,39.7083333 C57.255208,42.1354173 55.2968747,44.1145827 52.8854173,44.1145827 C50.4791667,44.1145827 48.5208333,42.1354173 48.5208333,39.7083333 C48.5208333,37.2812493 50.4791667,35.302084 52.8854173,35.302084 C55.2968747,35.302084 57.255208,37.2812493 57.255208,39.7083333 Z M46.0416667,7.22395867 C41.432292,3.14583333 36.0312507,0.989582667 30.4218747,0.989582667 C24.8125,0.989582667 19.4114587,3.14583333 14.802084,7.22395867 C14.5989587,7.40104133 14.2916667,7.380208 14.119792,7.177084 C13.9427093,6.97395867 13.9635413,6.66666667 14.1614587,6.48958267 C18.9531253,2.255208 24.5729173,0.0156253333 30.4218747,0.0156253333 C36.2708333,0.0156253333 41.8906253,2.255208 46.682292,6.48958267 C46.880208,6.66666667 46.9010427,6.97395867 46.7239587,7.177084 C46.630208,7.28645867 46.494792,7.34375067 46.359376,7.34375067 C46.25,7.34375067 46.1354173,7.307292 46.0416667,7.22395867 Z M14.1614587,49.5104173 C13.9635413,49.3333333 13.9427093,49.0208333 14.119792,48.822916 C14.2916667,48.619792 14.5989587,48.5989587 14.802084,48.7760413 C19.4114587,52.8541667 24.8125,55.0104173 30.4218747,55.0104173 C36.0312507,55.0104173 41.432292,52.8541667 46.0416667,48.7760413 C46.244792,48.5989587 46.5468747,48.619792 46.7239587,48.822916 C46.9010427,49.0208333 46.880208,49.3333333 46.682292,49.5104173 C41.8906253,53.744792 36.2708333,55.9843747 30.4218747,55.9843747 C24.5729173,55.9843747 18.9531253,53.744792 14.1614587,49.5104173 Z" id="Shape" fill="#000000" fill-rule="nonzero" mask="url(#mask-2)"></path>
        </g>
    </g>
</svg>