<?xml version="1.0" encoding="UTF-8"?>
<svg width="74.7812493px" height="67.8642991px" viewBox="0 0 74.7812493 67.8642991" version="1.1" xmlns="http://www.w3.org/2000/svg" xmlns:xlink="http://www.w3.org/1999/xlink">
    <title>Strength</title>
    <defs>
        <polygon id="path-1" points="0 0 75 0 75 68 0 68"></polygon>
    </defs>
    <g id="Icons-2" stroke="none" stroke-width="1" fill="none" fill-rule="evenodd">
        <g id="Strength" transform="translate(-0.1094, 0)">
            <mask id="mask-2" fill="white">
                <use xlink:href="#path-1"></use>
            </mask>
            <g id="Path"></g>
            <path d="M37.4739587,-0.0208333333 C37.2604173,-0.0208333333 37.052084,0.0260413333 36.854168,0.109374667 C36.6562507,0.192708 36.484376,0.3125 36.3333333,0.468750667 C36.182292,0.619792 36.0677093,0.796876 35.989584,0.994792 C35.9114587,1.192708 35.869792,1.40104133 35.875,1.614584 L35.875,11.307292 C35.869792,11.5208333 35.9114587,11.7291667 35.989584,11.932292 C36.0729173,12.1302093 36.1875013,12.307292 36.3437507,12.4635427 C36.494792,12.614584 36.671876,12.7343747 36.869792,12.817708 C37.0729173,12.9010413 37.2812507,12.942708 37.5,12.942708 C37.7187507,12.942708 37.927084,12.9010413 38.125,12.817708 C38.3281253,12.7343747 38.5052093,12.614584 38.6562507,12.4635427 C38.8125013,12.307292 38.927084,12.1302093 39.0104173,11.932292 C39.0885427,11.7291667 39.1302093,11.5208333 39.125,11.307292 L39.125,1.614584 C39.1302093,1.39583333 39.0885427,1.1875 39.0052093,0.984374667 C38.921876,0.781250667 38.802084,0.604166667 38.6458347,0.447917333 C38.494792,0.296876 38.3125013,0.177084 38.109376,0.0937506667 C37.9062507,0.0104173333 37.6927093,-0.0260413333 37.4739587,-0.0208333333 Z M22.869792,1.59375067 C22.5989587,1.58854267 22.3385427,1.65625067 22.0989587,1.78125067 C21.859376,1.90625067 21.6614587,2.08333333 21.5104173,2.307292 C21.359376,2.53125067 21.2708347,2.78125067 21.244792,3.052084 C21.2187507,3.317708 21.2552093,3.57812533 21.359376,3.82812533 L24.614584,11.9062507 C24.6875013,12.114584 24.796876,12.296876 24.9479173,12.4583333 C25.0989587,12.619792 25.2708347,12.75 25.4739587,12.8385427 C25.677084,12.932292 25.8854173,12.9791667 26.109376,12.9843747 C26.3281253,12.989584 26.5416667,12.9531253 26.75,12.869792 C26.9531253,12.7864587 27.1354173,12.6666667 27.2916667,12.5156253 C27.4531253,12.3593747 27.5729173,12.177084 27.6510427,11.9739587 C27.734376,11.7708333 27.7760427,11.557292 27.7708347,11.3385427 C27.7656253,11.114584 27.7187507,10.9062507 27.6302093,10.7083333 L24.375,2.63020933 C24.2552093,2.317708 24.0625013,2.067708 23.7864587,1.88020933 C23.5104173,1.6875 23.2031253,1.59375067 22.869792,1.59375067 Z M52.0833333,1.59375067 C51.7552093,1.60416667 51.4583333,1.70833333 51.1927093,1.89583333 C50.932292,2.08333333 50.739584,2.32812533 50.619792,2.63020933 L47.369792,10.7083333 C47.2812507,10.9062507 47.234376,11.114584 47.229168,11.3385427 C47.2239587,11.557292 47.2604173,11.7708333 47.3437507,11.9739587 C47.427084,12.177084 47.546876,12.3593747 47.7031253,12.5104173 C47.864584,12.6666667 48.0416667,12.7864587 48.25,12.869792 C48.4531253,12.9531253 48.6666667,12.989584 48.8906253,12.9843747 C49.109376,12.9791667 49.3229173,12.932292 49.5260427,12.8385427 C49.729168,12.75 49.9010427,12.619792 50.052084,12.4583333 C50.2031253,12.296876 50.3125013,12.114584 50.3854173,11.9062507 L53.6354173,3.82812533 C53.744792,3.57291733 53.7812507,3.3125 53.7552093,3.03645867 C53.7239587,2.76562533 53.6302093,2.51562533 53.4739587,2.29166667 C53.3177093,2.0625 53.114584,1.89062533 52.864584,1.76562533 C52.619792,1.64062533 52.359376,1.58854267 52.0833333,1.59375067 Z M11.489584,11.307292 C8.81770933,11.307292 6.614584,13.494792 6.614584,16.1510413 L6.614584,18.4375 C6.057292,18.2187507 5.619792,17.7656253 4.989584,17.7656253 C2.31250133,17.7656253 0.109376,19.9531253 0.109376,22.6093747 L0.109376,41.994792 C0.109376,44.6510413 2.31250133,46.8385427 4.989584,46.8385427 C5.619792,46.8385427 6.057292,46.3906253 6.614584,46.1666667 L6.614584,48.4531253 C6.614584,51.1093747 8.81770933,53.302084 11.489584,53.302084 C14.1666667,53.302084 16.364584,51.1093747 16.364584,48.4531253 L16.364584,37.1510413 L19.619792,37.1510413 L19.619792,38.307292 C19.619792,40.5729173 20.4583333,43.0625 22.0312507,45.2291667 C23.3333333,47.0260413 25.307292,48.421876 27.6510427,49.244792 L26.125,66.0781253 C26.109376,66.2916667 26.1302093,66.5 26.1927093,66.7031253 C26.2604173,66.9062507 26.359376,67.0937507 26.5,67.2552093 C26.6354173,67.421876 26.802084,67.552084 26.989584,67.6510413 C27.182292,67.75 27.3854173,67.8125 27.5989587,67.8333333 C27.8125013,67.8489587 28.0260427,67.8281253 28.229168,67.7656253 C28.4375013,67.6979173 28.619792,67.5989587 28.7864587,67.4635427 C28.9531253,67.3229173 29.0885427,67.1614587 29.1875013,66.9739587 C29.2864587,66.7812507 29.3437507,66.5781253 29.364584,66.369792 L30.989584,48.3958333 C31.0260427,47.9843747 30.921876,47.614584 30.671876,47.2812507 C30.421876,46.9479173 30.0885427,46.744792 29.677084,46.6666667 C27.5312507,46.2552093 25.8489587,44.9739587 24.6666667,43.3437507 C23.484376,41.7083333 22.869792,39.7291667 22.869792,38.307292 L22.869792,37.1510413 L27.744792,37.1510413 L27.744792,24.2291667 C27.744792,23.3125 28.4531253,22.6093747 29.369792,22.6093747 C30.2916667,22.6093747 30.994792,23.3125 30.994792,24.2291667 C31,24.4375 31.0416667,24.6406253 31.125,24.8385427 C31.2135427,25.0312507 31.3281253,25.2031253 31.479168,25.3541667 C31.6354173,25.5052093 31.807292,25.619792 32.0052093,25.6979173 C32.2031253,25.7812507 32.4114587,25.817708 32.625,25.817708 C32.8385427,25.817708 33.0416667,25.7812507 33.239584,25.6979173 C33.4375013,25.619792 33.614584,25.5052093 33.7656253,25.3541667 C33.9166667,25.2031253 34.0364587,25.0312507 34.119792,24.8385427 C34.2031253,24.6406253 34.244792,24.4375 34.25,24.2291667 L34.25,22.6093747 C34.25,21.6979173 34.9531253,20.994792 35.875,20.994792 C36.7916667,20.994792 37.5,21.6979173 37.5,22.6093747 L37.5,24.2291667 C37.5,24.4375 37.546876,24.6406253 37.6302093,24.8385427 C37.7135427,25.0312507 37.8333333,25.2031253 37.984376,25.3541667 C38.1354173,25.5052093 38.3125013,25.619792 38.5104173,25.6979173 C38.7083333,25.7812507 38.9114587,25.817708 39.125,25.817708 C39.3385427,25.817708 39.546876,25.7812507 39.739584,25.6979173 C39.9375013,25.619792 40.114584,25.5052093 40.2656253,25.3541667 C40.4166667,25.2031253 40.5364587,25.0312507 40.619792,24.8385427 C40.7031253,24.6406253 40.75,24.4375 40.75,24.2291667 C40.75,23.3125 41.4583333,22.6093747 42.375,22.6093747 C43.296876,22.6093747 44,23.3125 44,24.2291667 L44,25.8437507 C44.0052093,26.052084 44.046876,26.2604173 44.1302093,26.4531253 C44.2135427,26.6510413 44.3333333,26.8229173 44.484376,26.9687507 C44.6406253,27.119792 44.8125013,27.2343747 45.0104173,27.3125 C45.2083333,27.3958333 45.4114587,27.432292 45.625,27.432292 C45.8385427,27.432292 46.046876,27.3958333 46.244792,27.3125 C46.4427093,27.2343747 46.614584,27.119792 46.7708347,26.9687507 C46.921876,26.8229173 47.0364587,26.6510413 47.125,26.4531253 C47.2083333,26.2604173 47.25,26.052084 47.2552093,25.8437507 C47.2552093,24.927084 47.9583333,24.2291667 48.8802093,24.2291667 C49.796876,24.2291667 50.5052093,24.927084 50.5052093,25.8437507 L50.5052093,40.8437507 C50.5052093,43.3958333 48.9114587,45.5416667 46.6614587,46.4114587 C46.3281253,46.546876 46.0625013,46.7604173 45.869792,47.067708 C45.682292,47.369792 45.604168,47.7031253 45.6354173,48.0625 L47.2604173,66.364584 C47.2760427,66.5781253 47.3333333,66.7864587 47.432292,66.9791667 C47.5312507,67.171876 47.6614587,67.3385427 47.8281253,67.4791667 C47.994792,67.619792 48.177084,67.7239587 48.3854173,67.7864587 C48.5937507,67.8541667 48.807292,67.875 49.0260427,67.8593747 C49.239584,67.8385427 49.4479173,67.7812507 49.6406253,67.677084 C49.8333333,67.5781253 49.994792,67.442708 50.1354173,67.2760413 C50.2760427,67.1093747 50.375,66.921876 50.4375013,66.7135427 C50.5,66.5052093 50.5208347,66.296876 50.5,66.0781253 L48.9427093,48.5625 C51.7031253,46.9635427 53.7552093,44.239584 53.7552093,40.8437507 L53.7552093,37.1510413 L58.6302093,37.1510413 L58.6302093,48.4531253 C58.6302093,51.1093747 60.8333333,53.302084 63.5104173,53.302084 C66.182292,53.302084 68.3854173,51.1093747 68.3854173,48.4531253 L68.3854173,46.1666667 C68.9427093,46.3906253 69.3802093,46.8385427 70.0104173,46.8385427 C72.6875013,46.8385427 74.8906253,44.6510413 74.8906253,41.994792 L74.8906253,22.6093747 C74.8906253,19.9531253 72.6875013,17.7656253 70.0104173,17.7656253 C69.3802093,17.7656253 68.9427093,18.2187507 68.3854173,18.4375 L68.3854173,16.1510413 C68.3854173,13.494792 66.182292,11.307292 63.5104173,11.307292 C60.8333333,11.307292 58.6302093,13.494792 58.6302093,16.1510413 L58.6302093,27.4583333 L53.7552093,27.4583333 L53.7552093,25.8437507 C53.7552093,23.1875 51.552084,20.994792 48.8802093,20.994792 C47.8906253,20.994792 47.109376,21.5416667 46.3385427,22.052084 C45.5,20.5625 44.1979173,19.3802093 42.375,19.3802093 C41.3906253,19.3802093 40.609376,19.927084 39.8385427,20.4375 C39,18.9479173 37.6979173,17.7656253 35.875,17.7656253 C34.052084,17.7656253 32.75,18.9479173 31.9114587,20.4375 C31.1406253,19.927084 30.359376,19.3802093 29.369792,19.3802093 C26.6979173,19.3802093 24.494792,21.567708 24.494792,24.2291667 L24.494792,27.4583333 L16.364584,27.4583333 L16.364584,16.1510413 C16.364584,13.494792 14.1666667,11.307292 11.489584,11.307292 Z M11.489584,14.5364587 C12.4062507,14.5364587 13.114584,15.239584 13.114584,16.1510413 L13.114584,48.4531253 C13.114584,49.369792 12.4062507,50.067708 11.489584,50.067708 C10.5729173,50.067708 9.864584,49.369792 9.864584,48.4531253 L9.864584,16.1510413 C9.864584,15.239584 10.5729173,14.5364587 11.489584,14.5364587 Z M63.5104173,14.5364587 C64.427084,14.5364587 65.1354173,15.239584 65.1354173,16.1510413 L65.1354173,48.4531253 C65.1354173,49.369792 64.427084,50.067708 63.5104173,50.067708 C62.5885427,50.067708 61.8854173,49.369792 61.8854173,48.4531253 L61.8854173,16.1510413 C61.8854173,15.239584 62.5885427,14.5364587 63.5104173,14.5364587 Z M4.989584,20.994792 C5.90625067,20.994792 6.614584,21.6979173 6.614584,22.6093747 L6.614584,41.994792 C6.614584,42.9062507 5.90625067,43.6093747 4.989584,43.6093747 C4.06770933,43.6093747 3.364584,42.9062507 3.364584,41.994792 L3.364584,22.6093747 C3.364584,21.6979173 4.06770933,20.994792 4.989584,20.994792 Z M70.0104173,20.994792 C70.932292,20.994792 71.6354173,21.6979173 71.6354173,22.6093747 L71.6354173,41.994792 C71.6354173,42.9062507 70.932292,43.6093747 70.0104173,43.6093747 C69.0937507,43.6093747 68.3854173,42.9062507 68.3854173,41.994792 L68.3854173,22.6093747 C68.3854173,21.6979173 69.0937507,20.994792 70.0104173,20.994792 Z M16.364584,30.6875 L24.494792,30.6875 L24.494792,33.9166667 L16.364584,33.9166667 L16.364584,30.6875 Z M53.7552093,30.6875 L58.6302093,30.6875 L58.6302093,33.9166667 L53.7552093,33.9166667 L53.7552093,30.6875 Z" id="Shape" fill="#000000" fill-rule="nonzero" mask="url(#mask-2)"></path>
        </g>
    </g>
</svg>