<?xml version="1.0" encoding="UTF-8"?>
<svg width="81.8958333px" height="76.9895827px" viewBox="0 0 81.8958333 76.9895827" version="1.1" xmlns="http://www.w3.org/2000/svg" xmlns:xlink="http://www.w3.org/1999/xlink">
    <title>air</title>
    <defs>
        <polygon id="path-1" points="0 0 38.6666667 0 38.6666667 35.9375 0 35.9375"></polygon>
        <polygon id="path-3" points="0 0 82 0 82 34.3958333 0 34.3958333"></polygon>
    </defs>
    <g id="Icons-2" stroke="none" stroke-width="1" fill="none" fill-rule="evenodd">
        <g id="air" transform="translate(-0.0469, -0.0104)">
            <g id="Clipped" transform="translate(21.0677, 0)">
                <mask id="mask-2" fill="white">
                    <use xlink:href="#path-1"></use>
                </mask>
                <g id="Path"></g>
                <path d="M19.9270827,9.29687467 C20.1875,9.29687467 20.4270827,9.442708 20.5520827,9.677084 L34.119792,35.8958333 L38.6510413,35.8958333 L19.9270827,0.0104173333 L1.20312533,35.8958333 L5.73437467,35.8958333 L19.3020827,9.677084 C19.4218747,9.442708 19.6614587,9.29687467 19.9270827,9.29687467 Z" id="Path" fill="#000000" fill-rule="nonzero" mask="url(#mask-2)"></path>
            </g>
            <g id="Clipped" transform="translate(0, 42.6042)">
                <mask id="mask-4" fill="white">
                    <use xlink:href="#path-3"></use>
                </mask>
                <g id="Path"></g>
                <path d="M59.203124,0.156250667 L74.7447907,29.3906253 C74.8593747,29.6093747 74.8541667,29.869792 74.7291667,30.0833333 C74.5989587,30.2916667 74.3697907,30.4218747 74.125,30.4218747 L7.86458267,30.4218747 C7.61458267,30.4218747 7.39062533,30.2916667 7.260416,30.0833333 C7.135416,29.869792 7.125,29.6093747 7.24479067,29.3906253 L22.7864573,0.156250667 L18.260416,0.156250667 L0.0468746667,34.4114587 L81.942708,34.4114587 L63.7291667,0.156250667 L59.203124,0.156250667 Z" id="Path" fill="#000000" fill-rule="nonzero" mask="url(#mask-4)"></path>
            </g>
            <polygon id="Path" fill="#000000" fill-rule="nonzero" points="2.61979067 37.2968747 79.3697907 37.2968747 79.3697907 41.3541667 2.61979067 41.3541667"></polygon>
        </g>
    </g>
</svg>