<?xml version="1.0" encoding="UTF-8"?>
<svg width="255.828125px" height="99.994792px" viewBox="0 0 255.828125 99.994792" version="1.1" xmlns="http://www.w3.org/2000/svg" xmlns:xlink="http://www.w3.org/1999/xlink">
    <title>Chastity</title>
    <defs>
        <polygon id="path-1" points="0 0 256 0 256 100 0 100"></polygon>
    </defs>
    <g id="Icons-2" stroke="none" stroke-width="1" fill="none" fill-rule="evenodd">
        <g id="Chastity" transform="translate(-0.0677, -0.0052)">
            <path d="M159.75,46.8958333 C159.75,47.2916667 159.859375,47.682292 160.083333,48.0312493 C160.661459,48.9062493 174.343751,69.6145827 189.994792,78.1354173 C200.515625,83.8645827 212.614583,84.7083333 220.109375,80.244792 C224.213541,77.802084 226.473959,73.9114587 226.473959,69.2916667 C226.473959,59.005208 217.885417,50.3281253 213.895833,46.8489587 C217.848959,43.2239587 226.473959,34.197916 226.473959,24.5 C226.473959,19.880208 224.213541,15.994792 220.109375,13.5468747 C212.614583,9.08333333 200.515625,9.932292 189.994792,15.6562493 C175.026041,23.807292 160.703125,44.8489587 160.098959,45.7395827 C159.864583,46.0885413 159.75,46.4895827 159.75,46.8958333 Z M191.963541,19.2864587 C201.104167,14.307292 211.8125,13.4114587 218.005208,17.0989587 C220.890625,18.817708 222.354167,21.307292 222.354167,24.5 C222.354167,34.8125 209.541667,45.177084 209.411459,45.2812493 C208.911459,45.682292 208.635417,46.302084 208.635417,46.932292 C208.645833,47.572916 208.958333,48.1718747 209.468751,48.557292 C209.598959,48.6510413 222.354167,58.2395827 222.354167,69.2916667 C222.354167,72.4843747 220.890625,74.9791667 218.005208,76.697916 C211.8125,80.3854173 201.104167,79.4843747 191.963541,74.5104173 C179.25,67.5885413 167.411459,51.3645827 164.3125,46.9114587 C167.510417,42.4218747 179.781249,25.9166667 191.963541,19.2864587 Z" id="Shape" fill="#000000" fill-rule="nonzero"></path>
            <g id="Clipped">
                <mask id="mask-2" fill="white">
                    <use xlink:href="#path-1"></use>
                </mask>
                <g id="Path"></g>
                <path d="M35.4114587,78.4010413 L35.4114587,95.807292 C35.4114587,98.119792 37.2916667,100 39.5989587,100 L52.4791667,100 C54.7916667,100 56.6666667,98.119792 56.6666667,95.807292 L56.6666667,57.625 L106.458333,57.625 C107.156249,59.072916 108.619792,60.0781253 110.328125,60.0781253 L115.796875,60.0781253 C117.890625,60.0781253 119.635417,58.5781253 120.020833,56.5937507 C121.744792,56.0781253 123.140625,55.7864587 123.947916,55.7864587 C125.203125,55.7864587 127.197916,56.7343747 128.369792,57.442708 C129.031249,58.994792 130.552084,60.0781253 132.322916,60.0781253 L137.791667,60.0781253 C139.411459,60.0781253 140.8125,59.1614587 141.546875,57.8281253 C147.286459,57.7968747 150.677084,57.8385413 151.630208,57.9531253 C152.796875,58.0885413 154.557292,60.2968747 157.755208,64.302084 C159.375,66.3281253 161.390625,68.8541667 164,71.9635413 C172.885417,82.5416667 191.218751,93.7916667 207.697916,93.7916667 C224.458333,93.7916667 234.567708,85.5833333 236.156249,70.682292 C236.343751,68.9166667 236.343751,67.130208 236.177084,65.3489587 C239.723959,65.2343747 244.427084,64.697916 247.401041,62.8385413 C253.031249,59.322916 255.807292,54.1666667 255.890625,47.067708 C255.890625,47.052084 255.895833,47.0312493 255.895833,47.0156253 L255.895833,46.7760413 C255.895833,46.7604173 255.890625,46.744792 255.890625,46.7291667 C255.822916,39.6510413 253.046875,34.4843747 247.401041,30.9531253 C244.520833,29.1562493 240.052084,28.567708 236.177084,28.442708 C236.343751,26.6666667 236.343751,24.880208 236.156249,23.1145827 C234.567708,8.20833333 224.458333,0.005208 207.697916,0.005208 C191.218751,0.005208 172.885417,11.25 164,21.8281253 C161.385417,24.942708 159.369792,27.4687507 157.75,29.5 C154.552084,33.505208 152.791667,35.7083333 151.625,35.8489587 C151.052084,35.9166667 148.942708,36.0156253 141.359375,35.9687507 C140.578125,34.807292 139.260417,34.0416667 137.791667,34.0416667 L132.322916,34.0416667 C130.729167,34.0416667 129.3125,34.927084 128.572916,36.2343747 C127.4375,36.947916 125.276041,38.005208 123.947916,38.005208 C123.125,38.005208 121.6875,37.7031253 119.921875,37.1718747 C119.401041,35.369792 117.760417,34.0416667 115.796875,34.0416667 L110.328125,34.0416667 C108.75,34.0416667 107.380208,34.8958333 106.630208,36.1666667 L5.38541733,36.1666667 C5.317708,36.1666667 5.244792,36.1666667 5.17187467,36.177084 C3.119792,36.3906253 0.067708,38.1354173 0.067708,42.0781253 L0.067708,51.7135413 C0.067708,55.6562493 3.119792,57.4010413 5.17187467,57.6145827 C5.244792,57.625 5.317708,57.625 5.38541733,57.625 L10.8645827,57.625 L10.8645827,95.197916 C10.8645827,97.5104173 12.744792,99.3906253 15.052084,99.3906253 L27.567708,99.3906253 C29.880208,99.3906253 31.755208,97.5104173 31.755208,95.197916 L31.755208,78.5208333 C31.755208,76.2083333 29.880208,74.3281253 27.567708,74.3281253 L24.7760413,74.3281253 C24.7395827,74.3281253 24.7083333,74.2968747 24.7083333,74.2604173 L24.7083333,70.9739587 C24.7083333,70.9375 24.7395827,70.9114587 24.7760413,70.9114587 L42.880208,70.9114587 C42.9166667,70.9114587 42.947916,70.9375 42.947916,70.9739587 L42.947916,74.1406253 C42.947916,74.177084 42.9166667,74.2031253 42.880208,74.2031253 L39.5989587,74.2031253 C37.2916667,74.2031253 35.4114587,76.0885413 35.4114587,78.4010413 Z M110.140625,38.4114587 C110.140625,38.3854173 110.140625,38.3541667 110.145833,38.3281253 C110.151041,38.255208 110.218751,38.1718747 110.328125,38.1718747 L115.796875,38.1718747 C115.901041,38.1718747 115.984375,38.255208 115.984375,38.3541667 L115.984375,55.7604173 C115.984375,55.869792 115.901041,55.9531253 115.796875,55.9531253 L110.328125,55.9531253 C110.223959,55.9531253 110.140625,55.869792 110.140625,55.7604173 L110.140625,38.4114587 Z M137.791667,55.9531253 L132.322916,55.9531253 C132.223959,55.9531253 132.145833,55.880208 132.140625,55.7812493 C132.140625,55.755208 132.135417,55.7343747 132.135417,55.7135413 L132.145833,38.2968747 C132.156249,38.244792 132.223959,38.1718747 132.322916,38.1718747 L137.791667,38.1718747 C137.906249,38.1718747 137.968751,38.2604173 137.979167,38.3541667 L137.979167,55.755208 C137.979167,55.869792 137.901041,55.9531253 137.791667,55.9531253 Z M128.015625,41.1562493 L128.015625,52.6354173 C126.776041,52.1145827 125.307292,51.6562493 123.947916,51.6562493 C122.968751,51.6562493 121.682292,51.8645827 120.109375,52.2760413 L120.109375,41.5156253 C121.682292,41.927084 122.968751,42.1354173 123.947916,42.1354173 C125.307292,42.1354173 126.776041,41.682292 128.015625,41.1562493 Z M245.218751,34.4531253 C249.666667,37.2395827 251.75,41.197916 251.776041,46.8906253 C251.744792,52.6093747 249.661459,56.5625 245.218751,59.3333333 C243.411459,60.4635413 239.838541,61.1562493 235.479167,61.2395827 C235.432292,61.0625 235.375,60.8854173 235.328125,60.7083333 C235.239583,60.3958333 235.156249,60.0833333 235.0625,59.7760413 C235.010417,59.6093747 234.953125,59.447916 234.895833,59.2812493 C234.781249,58.9375 234.666667,58.5885413 234.541667,58.25 C234.531249,58.2239587 234.520833,58.192708 234.510417,58.1666667 C235.755208,58.2083333 237.333333,58.2395827 239.265625,58.2395827 C244.848959,58.2395827 248.708333,53.7760413 248.859375,47.125 C248.859375,47.0833333 248.859375,46.8958333 248.859375,46.7760413 C248.859375,46.7239587 248.859375,46.6875 248.859375,46.6718747 C248.755208,41.3281253 244.494792,35.5625 237.786459,35.5625 C236.468751,35.5625 235.395833,35.5781253 234.526041,35.5989587 C234.536459,35.5625 234.546875,35.5260413 234.5625,35.4895827 C234.656249,35.2291667 234.739583,34.9687507 234.828125,34.7031253 C234.911459,34.4687507 234.994792,34.2291667 235.072916,33.9895827 C235.151041,33.7291667 235.223959,33.4635413 235.296875,33.197916 C235.354167,32.9843747 235.421875,32.7708333 235.479167,32.557292 C239.859375,32.6510413 243.432292,33.3385413 245.218751,34.4531253 Z M232.578125,39.807292 C233.447916,39.75 235.036459,39.692708 237.786459,39.692708 C241.994792,39.692708 244.671875,43.3593747 244.739583,46.744792 L244.739583,47.0312493 C244.697916,48.692708 244.192708,54.1093747 239.265625,54.1093747 C236.015625,54.1093747 233.776041,54.0156253 232.5625,53.947916 C230.817708,50.7760413 228.833333,48.3645827 227.463541,46.8958333 C228.843751,45.4114587 230.838541,42.9791667 232.578125,39.807292 Z M160.968751,32.0781253 C162.572916,30.0625 164.572916,27.557292 167.156249,24.4895827 C175.4375,14.619792 192.463541,4.130208 207.697916,4.130208 C222.484375,4.130208 230.682292,10.6666667 232.057292,23.552084 C232.291667,25.7239587 232.203125,27.932292 231.802084,30.0989587 C231.473959,31.8333333 230.947916,33.5468747 230.239583,35.2083333 L229.473959,36.8593747 C227.0625,41.6718747 223.838541,44.755208 223.161459,45.369792 C222.729167,45.7604173 222.479167,46.317708 222.479167,46.9010413 C222.479167,46.9010413 222.479167,46.9062493 222.479167,46.9062493 C222.484375,47.4895827 222.734375,48.0468747 223.166667,48.4375 C223.583333,48.8125 227.010417,51.9843747 229.510417,57.0156253 L230.234375,58.572916 C230.942708,60.2291667 231.468751,61.947916 231.802084,63.6875 C232.203125,65.8645827 232.291667,68.067708 232.057292,70.2395827 C230.682292,83.125 222.484375,89.6614587 207.697916,89.6614587 C192.463541,89.6614587 175.4375,79.1718747 167.156249,69.307292 C164.578125,66.2395827 162.578125,63.7343747 160.973959,61.7239587 C156.718751,56.3906253 154.958333,54.182292 152.109375,53.8541667 C150.989583,53.7187507 147.875,53.6666667 142.104167,53.692708 L142.104167,40.1041667 C150.432292,40.1458333 151.677084,40 152.109375,39.947916 C154.958333,39.6093747 156.718751,37.4062493 160.968751,32.0781253 Z M5.54166667,53.5 C4.90624933,53.380208 4.192708,52.9687507 4.192708,51.7135413 L4.192708,42.0781253 C4.192708,40.807292 4.92187467,40.4010413 5.53124933,40.2916667 L106.015625,40.2916667 L106.015625,53.5 L5.54166667,53.5 Z M47.067708,74.1406253 L47.067708,70.9739587 C47.067708,68.6614587 45.1875,66.7812493 42.880208,66.7812493 L24.7760413,66.7812493 C22.4635413,66.7812493 20.5885413,68.6614587 20.5885413,70.9739587 L20.5885413,74.2604173 C20.5885413,76.572916 22.4635413,78.4583333 24.7760413,78.4583333 L27.567708,78.4583333 C27.6041667,78.4583333 27.6354173,78.4843747 27.6354173,78.5208333 L27.6354173,95.197916 C27.6354173,95.2343747 27.6041667,95.2604173 27.567708,95.2604173 L15.052084,95.2604173 C15.0156253,95.2604173 14.9895827,95.2343747 14.9895827,95.197916 L14.9895827,57.625 L52.5468747,57.625 L52.5468747,95.807292 C52.5468747,95.8437507 52.5156253,95.869792 52.4791667,95.869792 L39.5989587,95.869792 C39.5625,95.869792 39.5364587,95.8437507 39.5364587,95.807292 L39.5364587,78.4010413 C39.5364587,78.3645827 39.5625,78.3333333 39.5989587,78.3333333 L42.880208,78.3333333 C45.1875,78.3333333 47.067708,76.4531253 47.067708,74.1406253 Z" id="Shape" fill="#000000" fill-rule="nonzero" mask="url(#mask-2)"></path>
            </g>
        </g>
    </g>
</svg>