<?xml version="1.0" encoding="UTF-8"?>
<svg width="49.9947907px" height="57.7805953px" viewBox="0 0 49.9947907 57.7805953" version="1.1" xmlns="http://www.w3.org/2000/svg" xmlns:xlink="http://www.w3.org/1999/xlink">
    <title>triumph</title>
    <defs>
        <polygon id="path-1" points="0 0 24.942708 0 24.942708 12.7916667 0 12.7916667"></polygon>
        <polygon id="path-3" points="0 0 38.6666667 0 38.6666667 49.2083333 0 49.2083333"></polygon>
        <polygon id="path-5" points="0 0 31.7239587 0 31.7239587 15.875 0 15.875"></polygon>
    </defs>
    <g id="Icons-2" stroke="none" stroke-width="1" fill="none" fill-rule="evenodd">
        <g id="triumph" transform="translate(0, -0.0417)">
            <g id="Clipped">
                <mask id="mask-2" fill="white">
                    <use xlink:href="#path-1"></use>
                </mask>
                <g id="Path"></g>
                <path d="M8.317708,9.0625 C8.203124,9.760416 7.885416,10.25 7.34895867,10.5520827 C5.697916,11.489584 2.36458267,10.5260413 1.21874933,10.0729173 L0.703124,11.380208 C0.843749333,11.4375 3.1875,12.3489587 5.45833333,12.3489587 C6.380208,12.3489587 7.29166667,12.1979173 8.03645733,11.7760413 C8.953124,11.260416 9.510416,10.4218747 9.703124,9.29166667 C10.328124,5.55208267 14,5.73437467 14.1562493,5.744792 L14.2291667,5.75 C15.6770827,4.58854133 19.4947907,1.85416667 23.6770827,1.557292 C22.7239587,0.619792 21.4270827,0.0416666667 19.9895827,0.0416666667 C17.3541667,0.0416666667 15.1718747,1.989584 14.7916667,4.53125067 L14.4739587,4.39583333 C13.8125,4.114584 7.91145733,1.72395867 5.92708267,4.79166667 C5.557292,5.364584 5.135416,5.66145867 4.64062533,5.69791733 C3.70833333,5.76562533 2.36458267,4.91145867 1.05208267,3.41666667 L0,4.34374933 C0.953124,5.4375 2.83854133,7.239584 4.74479067,7.09895867 C5.692708,7.03125067 6.48437467,6.510416 7.10416667,5.557292 C7.80208267,4.47395867 9.682292,4.54687467 11.3541667,4.90104133 C9.98958267,5.53645867 8.697916,6.78645867 8.317708,9.0625 Z" id="Path" fill="#000000" fill-rule="nonzero" mask="url(#mask-2)"></path>
            </g>
            <path d="M14.9895827,6.94791733 C15.6718747,9.067708 17.6510413,10.5989587 19.9895827,10.5989587 C22.8906253,10.5989587 25.2447907,8.23437467 25.2447907,5.32291733 C25.2447907,4.46874933 25.0416667,3.66145867 24.682292,2.94791733 C20.4895827,2.817708 16.3125,5.880208 14.9895827,6.94791733 Z" id="Path" fill="#000000" fill-rule="nonzero"></path>
            <g id="Clipped" transform="translate(0.9427, 8.7917)">
                <mask id="mask-4" fill="white">
                    <use xlink:href="#path-3"></use>
                </mask>
                <g id="Path"></g>
                <path d="M20.5208333,27.3020827 L28.7343747,23.9114587 L32.192708,33.307292 C32.6093747,34.442708 33.6770827,35.1458333 34.817708,35.1458333 C35.1406253,35.1458333 35.4687493,35.0885413 35.7916667,34.9687493 C37.239584,34.432292 37.9843747,32.8125 37.4479173,31.3541667 L32.9843747,19.2239587 C32.7239587,18.505208 32.182292,17.9270827 31.4843747,17.619792 C30.7864587,17.3125 30,17.3020827 29.2916667,17.5937493 L25.3593747,19.2187493 L25.3593747,8.16145867 C26.135416,8.96354133 27.182292,10.2760413 28.5208333,12.432292 C28.994792,13.192708 29.75,13.619792 30.5729173,13.619792 C30.744792,13.619792 30.9218747,13.6041667 31.0989587,13.5625 C33.5156253,13.0312507 35.2864587,8.46874933 35.5989587,6.0625 C35.994792,2.95312533 34.6041667,1.744792 33.739584,1.30208267 C32.8229173,0.828125333 31.6979173,1.192708 31.2291667,2.119792 C30.7864587,2.989584 31.0833333,4.04166667 31.8906253,4.557292 C31.9791667,4.880208 31.9739587,5.82812533 31.4687493,7.29687467 C31.239584,7.96354133 30.9791667,8.52604133 30.7343747,8.96874933 C28.2656253,5.307292 26.0989587,3.41145867 24.1406253,3.182292 C24.0156253,3.16666667 23.8958333,3.16145867 23.7812507,3.16145867 C23.7083333,3.15104133 23.630208,3.14583333 23.557292,3.14583333 L14.5364587,3.14583333 C14.4375,3.14583333 14.3437493,3.15625067 14.25,3.17187467 C13.630208,3.23437467 12.6770827,3.47395867 11.6770827,4.28125067 C9.82291733,5.76562533 8.57291733,8.52604133 7.94791733,12.5 C7.53125067,12.2083333 7.04687467,11.817708 6.54687467,11.3125 C5.44791733,10.2187493 5.03125067,9.369792 4.96874933,9.03645867 C5.46874933,8.22395867 5.27604133,7.14062533 4.494792,6.557292 C3.67187467,5.932292 2.5,6.10416667 1.880208,6.932292 C1.29687467,7.71354133 0.578125333,9.41145867 2.29687467,12.0260413 C3.52083333,13.8906253 6.65104133,16.8489587 9.02083333,16.8489587 C9.22395867,16.8489587 9.42708267,16.8281253 9.619792,16.7760413 C10.630208,16.5312507 11.3281253,15.7083333 11.4375,14.630208 C11.7135413,12.005208 12.2031253,10.2291667 12.7291667,9.04687467 L12.7291667,20.0833333 L10.635416,45.8958333 C10.505208,47.489584 11.6875,48.8906253 13.2760413,49.0208333 C14.864584,49.1510413 16.260416,47.9635413 16.3906253,46.364584 L17.9583333,27.0729173 C18.6979173,27.5416667 19.6458333,27.6614587 20.5208333,27.3020827 Z" id="Path" fill="#000000" fill-rule="nonzero" mask="url(#mask-4)"></path>
            </g>
            <g id="Clipped" transform="translate(18.276, 42.125)">
                <mask id="mask-6" fill="white">
                    <use xlink:href="#path-5"></use>
                </mask>
                <g id="Path"></g>
                <polygon id="Path" fill="#000000" fill-rule="nonzero" mask="url(#mask-6)" points="23.2343747 0.583333333 19.0416667 3.14062533 14.3229173 2.79166667 7.45833333 3.994792 4.41145867 8.64583333 1.557292 12.2083333 0.786458667 15.4635413 31.7187493 15.4635413 26.817708 0.468749333"></polygon>
            </g>
        </g>
    </g>
</svg>