<?xml version="1.0" encoding="UTF-8"?>
<svg width="50.9895827px" height="40.7113003px" viewBox="0 0 50.9895827 40.7113003" version="1.1" xmlns="http://www.w3.org/2000/svg" xmlns:xlink="http://www.w3.org/1999/xlink">
    <title>bubble</title>
    <defs>
        <polygon id="path-1" points="0 0 51 0 51 41 0 41"></polygon>
    </defs>
    <g id="Icons-2" stroke="none" stroke-width="1" fill="none" fill-rule="evenodd">
        <g id="bubble" transform="translate(-0.0104, -0.2574)">
            <mask id="mask-2" fill="white">
                <use xlink:href="#path-1"></use>
            </mask>
            <g id="Path"></g>
            <path d="M28.1614587,30.078124 C25.359376,30.078124 22.796876,28.7708333 21.239584,26.567708 C20.3854173,26.6614573 19.5260427,26.5156253 18.7604173,26.1458333 C18.1458347,26.3906253 17.1666667,26.7083333 16.1979173,26.7239587 C13.671876,26.7708333 11.3177093,25.4843747 10.0937507,23.385416 C9.364584,23.5989587 8.604168,23.703124 7.82812533,23.703124 C3.51562533,23.703124 0.0104173333,20.3593747 0.0104173333,16.2447907 C0.0104173333,13.0625 2.14583467,10.2291667 5.26041733,9.197916 C5.20833333,8.135416 5.53645867,7.135416 6.21354267,6.33333333 C7.22395867,5.14062533 8.88541733,4.58854133 10.427084,4.91145733 C11.5833333,3.36458267 13.484376,2.42187467 15.489584,2.42187467 C17.1875013,2.42187467 18.7864587,3.072916 19.9583333,4.21874933 C21.4739587,3.23958267 23.3489587,3.072916 25.057292,3.76562533 C26.5364587,1.86979067 28.8437507,0.625 31.4583333,0.338541333 C34.5677093,-0.00520933333 36.9166667,0.734374667 39.057292,2.73958267 C41.5,2.85416667 43.6354173,4.71354133 44.0885427,7.03124933 C45.7604173,6.66666667 47.3437507,6.96354133 48.614584,7.89583333 C50.0833333,8.97395867 51,10.7916667 51,12.635416 C51,14.447916 50.1354173,16.1614573 48.7135427,17.25 C49.2083333,17.9270827 49.4739587,18.75 49.4739587,19.6093747 C49.4739587,21.7864573 47.739584,23.5625 45.5885427,23.630208 C44.604168,25.3020827 43.0156253,26.5625 41.0781253,27.197916 C39.0416667,27.8645827 36.802084,27.7343747 34.864584,26.8541667 C33.2916667,28.880208 30.8229173,30.078124 28.1614587,30.078124 Z M21.7760427,25.317708 L21.984376,25.6406253 C23.307292,27.703124 25.614584,28.9375 28.1614587,28.9375 C30.619792,28.9375 32.8854173,27.7656253 34.2187507,25.807292 L34.5052093,25.3906253 L34.9531253,25.625 C36.7187507,26.5625 38.8229173,26.7395827 40.7239587,26.1145827 C42.5,25.5312493 43.932292,24.3489587 44.7604173,22.7812493 L44.9531253,22.4218747 L45.3489587,22.4843747 C45.3906253,22.4947907 45.427084,22.4895827 45.4687507,22.4895827 C47.052084,22.4895827 48.3385427,21.197916 48.3385427,19.6093747 C48.3385427,18.822916 48.0312507,18.0885413 47.4687507,17.5416667 L46.932292,17.0208333 L47.5781253,16.6406253 C48.989584,15.8125 49.864584,14.2760413 49.864584,12.630208 C49.864584,11.1666667 49.109376,9.67187467 47.9427093,8.8125 C47.1406253,8.22395867 45.7656253,7.65624933 43.7760427,8.29166667 L43.0729173,8.51562533 L43.0416667,7.83333333 C42.9427093,5.71874933 41.0156253,3.98437467 38.8281253,3.98437467 L38.5989587,3.98437467 L38.432292,3.77083333 C36.489584,1.880208 34.4375013,1.17708267 31.5833333,1.49479067 C29.119792,1.77083333 26.979168,2.96874933 25.7031253,4.8125 L25.421876,5.21354133 L24.984376,4.98437467 C23.4114587,4.1875 21.5885427,4.35416667 20.234376,5.42187467 L19.807292,5.755208 L19.4531253,5.34374933 C18.479168,4.20833333 17.0364587,3.557292 15.489584,3.557292 C13.7239587,3.557292 12.057292,4.442708 11.1406253,5.86979067 L10.9114587,6.23437467 L10.5,6.10937467 C9.27083467,5.72395867 7.89062533,6.11458267 7.07812533,7.067708 C6.677084,7.54166667 6.244792,8.34895867 6.432292,9.51562533 L6.51562533,10.0260413 L6.02083467,10.1614573 C3.14583467,10.9166667 1.14062533,13.4166667 1.14062533,16.2447907 C1.14062533,19.7291667 4.14062533,22.5625 7.82812533,22.5625 C8.64062533,22.5625 9.432292,22.4270827 10.177084,22.1614573 L10.6562507,21.9895827 L10.875,22.447916 C11.8229173,24.4062493 13.9166667,25.6458333 16.177084,25.5833333 C16.854168,25.572916 17.7239587,25.3593747 18.5625013,24.9947907 L18.8177093,24.885416 L19.0625013,25.0260413 C19.7656253,25.4218747 20.5989587,25.5520827 21.4010427,25.3906253 L21.7760427,25.317708 Z M8.96875067,34.0989587 C6.84895867,34.0989587 5.13020933,32.75 5.13020933,31.0885413 C5.13020933,29.432292 6.84895867,28.078124 8.96875067,28.078124 C11.0885427,28.078124 12.807292,29.432292 12.807292,31.0885413 C12.807292,32.75 11.0885427,34.0989587 8.96875067,34.0989587 Z M8.96875067,29.2187493 C7.5,29.2187493 6.26041733,30.078124 6.26041733,31.0885413 C6.26041733,32.1041667 7.5,32.9583333 8.96875067,32.9583333 C10.4375013,32.9583333 11.677084,32.1041667 11.677084,31.0885413 C11.677084,30.078124 10.4375013,29.2187493 8.96875067,29.2187493 Z M3.20833333,40.9687493 C1.90104267,40.9687493 0.838542667,39.9635413 0.838542667,38.7239587 C0.838542667,37.4843747 1.90104267,36.4791667 3.20833333,36.4791667 C4.52083467,36.4791667 5.58333333,37.4843747 5.58333333,38.7239587 C5.58333333,39.9635413 4.52083467,40.9687493 3.20833333,40.9687493 Z M3.20833333,37.6145827 C2.52604267,37.6145827 1.96875067,38.1145827 1.96875067,38.7239587 C1.96875067,39.3333333 2.52604267,39.828124 3.20833333,39.828124 C3.89583467,39.828124 4.44791733,39.3333333 4.44791733,38.7239587 C4.44791733,38.1145827 3.89583467,37.6145827 3.20833333,37.6145827 Z" id="Shape" fill="#000000" fill-rule="nonzero" mask="url(#mask-2)"></path>
        </g>
    </g>
</svg>