<?xml version="1.0" encoding="UTF-8"?>
<svg width="25.9375px" height="42.923178px" viewBox="0 0 25.9375 42.923178" version="1.1" xmlns="http://www.w3.org/2000/svg" xmlns:xlink="http://www.w3.org/1999/xlink">
    <title>mercury</title>
    <defs>
        <polygon id="path-1" points="0 0 26 0 26 43 0 43"></polygon>
    </defs>
    <g id="Icons-2" stroke="none" stroke-width="1" fill="none" fill-rule="evenodd">
        <g id="mercury" transform="translate(-0.0313, 0)">
            <mask id="mask-2" fill="white">
                <use xlink:href="#path-1"></use>
            </mask>
            <g id="Path"></g>
            <path d="M4.489584,-0.0209189964 C4.177084,-0.015624 3.88541733,0.145834667 3.71875067,0.411458667 C3.54687467,0.671876 3.53125067,1 3.66666667,1.28125067 C4.630208,3.46354267 6.364584,5.234376 8.52604267,6.28125067 C3.57291733,8.08333333 0.0312506667,12.7656253 0.0312506667,18.2604173 C0.0312506667,25 5.35416667,30.5260427 12.0729173,30.994792 L12.0729173,35.609376 L7.44270933,35.609376 C7.109376,35.604168 6.79687467,35.7760427 6.630208,36.0625013 C6.46354133,36.3437507 6.46354133,36.6927093 6.630208,36.979168 C6.79687467,37.2656253 7.109376,37.4375013 7.44270933,37.432292 L12.0729173,37.432292 L12.0729173,42 C12.0677093,42.3281253 12.244792,42.6354173 12.5312507,42.802084 C12.8229173,42.9635427 13.177084,42.9635427 13.4687507,42.802084 C13.755208,42.6354173 13.927084,42.3281253 13.927084,42 L13.927084,37.432292 L18.557292,37.432292 C18.8906253,37.4375013 19.2031253,37.2656253 19.369792,36.979168 C19.5364587,36.6927093 19.5364587,36.3437507 19.369792,36.0625013 C19.2031253,35.7760427 18.8906253,35.604168 18.557292,35.609376 L13.927084,35.609376 L13.927084,30.994792 C20.6458333,30.5260427 25.9687507,25 25.9687507,18.2604173 C25.9687507,12.7656253 22.427084,8.08333333 17.4739587,6.28125067 C19.6354173,5.234376 21.369792,3.46354267 22.3333333,1.28125067 C22.4635413,1 22.4375,0.671876 22.2708333,0.411458667 C22.0989587,0.145834667 21.802084,-0.010416 21.489584,-0.010416 C21.114584,-0.010416 20.7812507,0.213542667 20.6354173,0.552084 C19.3541667,3.44791733 16.427084,5.479168 13,5.479168 C9.57291733,5.479168 6.64583333,3.44791733 5.359376,0.552084 C5.21875067,0.203125333 4.875,-0.0260413333 4.489584,-0.0209189964 Z M13,7.307292 C19.1510427,7.307292 24.114584,12.1979173 24.114584,18.2604173 C24.114584,24.2864587 19.2031253,29.1562507 13.1041667,29.2135427 C13.0625,29.2083333 13.0260427,29.2031253 12.984376,29.2031253 C12.9531253,29.2083333 12.9218747,29.2083333 12.8854173,29.2135427 C6.79166667,29.1510427 1.88541733,24.2864587 1.88541733,18.2604173 C1.88541733,12.1979173 6.84895867,7.307292 13,7.307292 Z" id="Shape" fill="#000000" fill-rule="nonzero" mask="url(#mask-2)"></path>
        </g>
    </g>
</svg>