<?xml version="1.0" encoding="UTF-8"?>
<svg width="83.934034px" height="92.7910598px" viewBox="0 0 83.934034 92.7910598" version="1.1" xmlns="http://www.w3.org/2000/svg" xmlns:xlink="http://www.w3.org/1999/xlink">
    <title>Lust</title>
    <defs>
        <polygon id="path-1" points="0 0 13.3333333 0 13.3333333 27.3333333 0 27.3333333"></polygon>
        <polygon id="path-3" points="0 0 13.3333333 0 13.3333333 28.6666667 0 28.6666667"></polygon>
        <polygon id="path-5" points="0 0 85.3333333 0 85.3333333 73.6666667 0 73.6666667"></polygon>
    </defs>
    <g id="Icons-2" stroke="none" stroke-width="1" fill="none" fill-rule="evenodd">
        <g id="Lust" transform="translate(-0.0916, -0.1933)">
            <g id="Clipped" transform="translate(1.3333, 0)">
                <mask id="mask-2" fill="white">
                    <use xlink:href="#path-1"></use>
                </mask>
                <g id="Path"></g>
                <path d="M13.010416,18.932292 C6.76562533,10.135416 7.364584,3.52604133 8.130208,0.635416 C8.22395867,0.270833333 7.73437467,0.0364586667 7.47916667,0.317708 C-0.791666667,9.58854133 0.473958667,19.9218747 2.79687467,26.7239587 C5.66145867,23.3281253 9.15104133,20.625 13.010416,18.932292" id="Path" fill="#100F0D" fill-rule="nonzero" mask="url(#mask-2)"></path>
            </g>
            <g id="Clipped" transform="translate(70.6667, 0)">
                <mask id="mask-4" fill="white">
                    <use xlink:href="#path-3"></use>
                </mask>
                <g id="Path"></g>
                <path d="M10.2083333,27.7968747 C12.755208,21.0468747 14.6093747,10.0885413 5.90104133,0.317708 C5.64583333,0.0364586667 5.15625067,0.270833333 5.25,0.635416 C6.02604133,3.57812533 6.614584,10.369792 0.0208333333,19.3958333 C3.91145867,21.2916667 7.42187467,24.1614587 10.2083333,27.7968747" id="Path" fill="#100F0D" fill-rule="nonzero" mask="url(#mask-4)"></path>
            </g>
            <g id="Clipped" transform="translate(0, 19.3333)">
                <mask id="mask-6" fill="white">
                    <use xlink:href="#path-5"></use>
                </mask>
                <g id="Path"></g>
                <path d="M45.010416,63.739584 C44.4062507,64.875 43.25,65.5156253 42.0468747,65.5156253 C41.5156253,65.5156253 40.9791667,65.3906253 40.4791667,65.125 C34.1718747,61.7760413 18.6614587,52.6510413 10.8541667,40.1770827 C6.53645867,33.2864587 5.89583333,25.4166667 9.08854133,18.5729173 C9.864584,16.9010413 11.864584,16.1770827 13.5364587,16.9583333 C15.2187493,17.7343747 15.942708,19.7239587 15.1614587,21.3958333 C12.942708,26.1458333 13.4479173,31.7031253 16.5364587,36.630208 C23.4843747,47.7291667 37.7916667,56.125 43.625,59.2187493 C45.255208,60.0833333 45.880208,62.1093747 45.010416,63.739584 Z M18.2291667,8.29687467 C20.1562507,8.29687467 21.7135413,9.85416667 21.7135413,11.7708333 C21.7135413,13.692708 20.1562507,15.25 18.2291667,15.25 C16.307292,15.25 14.744792,13.692708 14.744792,11.7708333 C14.744792,9.85416667 16.307292,8.29687467 18.2291667,8.29687467 Z M81.3541667,15.619792 C80.244792,13.25 78.8020827,11.119792 77.1614587,9.22916667 C77.0781253,9.130208 76.994792,9.03645867 76.9062507,8.942708 C76.2239587,8.17708267 75.510416,7.46354133 74.755208,6.79166667 C74.5989587,6.65104133 74.442708,6.505208 74.2812507,6.369792 C73.5625,5.76562533 72.8229173,5.20833333 72.0625,4.69791733 C71.869792,4.567708 71.682292,4.42187467 71.4843747,4.30208267 C70.5468747,3.70833333 69.5781253,3.16666667 68.5781253,2.72395867 C68.5781253,2.71874933 68.5781253,2.71874933 68.5729173,2.71874933 C66.75,1.90625067 64.8437493,1.33854133 62.8958333,1.067708 C61.3125,0.843749333 59.7239587,0.729166667 58.1718747,0.729166667 C51.2031253,0.729166667 46.0312507,2.942708 42.9218747,4.79687467 L42.0625,5.307292 L41.2031253,4.80208267 C38.0885413,2.942708 32.9166667,0.734374667 25.9583333,0.734374667 C24.4010413,0.734374667 22.8125,0.843749333 21.2343747,1.067708 C19.614584,1.29166667 18.0364587,1.760416 16.5,2.364584 C12.2708333,4.02604133 8.45833333,7.03125067 5.567708,10.9739587 C4.510416,12.4218747 3.54687467,13.9583333 2.76562533,15.630208 C-1.44791733,24.6406253 -0.651041333,34.932292 4.9375,43.869792 C15.8437493,61.2760413 39.239584,72.3385413 40.2291667,72.7968747 L42.057292,73.6510413 L43.8906253,72.7968747 C44.875,72.3385413 68.2812507,61.2708333 79.1770827,43.8541667 C84.7708333,34.9218747 85.5625,24.635416 81.3541667,15.619792" id="Shape" fill="#100F0D" fill-rule="nonzero" mask="url(#mask-6)"></path>
            </g>
        </g>
    </g>
</svg>