<?xml version="1.0" encoding="UTF-8"?>
<svg width="92.9211794px" height="87.5731381px" viewBox="0 0 92.9211794 87.5731381" version="1.1" xmlns="http://www.w3.org/2000/svg" xmlns:xlink="http://www.w3.org/1999/xlink">
    <title>Harmony</title>
    <defs>
        <polygon id="path-1" points="0 0 93 0 93 88 0 88"></polygon>
    </defs>
    <g id="Icons-2" stroke="none" stroke-width="1" fill="none" fill-rule="evenodd">
        <g id="Harmony" transform="translate(0, -0.4269)">
            <g id="Clipped">
                <mask id="mask-2" fill="white">
                    <use xlink:href="#path-1"></use>
                </mask>
                <g id="Path"></g>
                <path d="M21.2760413,31.4895827 L13.0729173,22.9843747 C10.619792,24.942708 8.47395867,27.1041667 6.67708267,29.4375 C6.29687467,29.927084 5.95833333,30.4739587 5.59895867,31.052084 C5.09374933,31.869792 4.57812533,32.7135413 3.91666667,33.4166667 C3.630208,33.7239587 3.34374933,34.0208333 3.05208267,34.3125 C2.58333333,34.7968747 2.135416,35.255208 1.70312533,35.755208 C1.85416667,35.8541667 2,35.9583333 2.15625067,36.057292 C3.42708267,36.9166667 4.739584,37.7968747 5.79687467,38.9635413 C6.94791733,40.2395827 8.52604133,41.4114587 10.2239587,42.2656253 C10.6562507,42.4843747 11.0937493,42.682292 11.5312507,42.8854173 C12.3020827,43.2343747 13.0989587,43.5989587 13.869792,44.0625 C13.994792,43.8385413 14.119792,43.619792 14.239584,43.4218747 C14.9062507,42.3281253 15.635416,41.2604173 16.3437493,40.2239587 C17.692708,38.255208 19.0937493,36.2135413 20,34 L20.1510413,33.625 C20.432292,32.9166667 20.75,32.1406253 21.2760413,31.4895827 Z M50.7708333,49.7812493 C50.8125,47.0468747 50.494792,44.3281253 49.8281253,41.677084 C49.6041667,41.5625 49.4010413,41.3958333 49.2135413,41.244792 C49.1458333,41.182292 49.067708,41.125 49.005208,41.0781253 L47.3385413,39.942708 C46.932292,39.6562493 46.4791667,39.5312493 45.9531253,39.3854173 C45.75,39.3281253 45.5468747,39.2760413 45.3333333,39.2031253 C44.5312507,38.947916 43.7343747,38.682292 42.932292,38.4166667 C42.7812507,38.3593747 42.619792,38.3125 42.4479173,38.2656253 C42.3385413,38.2343747 42.2239587,38.2031253 42.114584,38.1666667 C41.9739587,39.6145827 41.9218747,41.0781253 41.9739587,42.5312493 C42.010416,43.3854173 41.989584,44.2343747 41.9635413,45.057292 C41.9479173,45.6510413 41.9375,46.2708333 41.942708,46.8854173 C41.942708,47.2708333 41.885416,47.5885413 41.7864587,47.8541667 C42.0364587,47.9010413 42.2864587,47.942708 42.5312507,47.994792 C44.1770827,48.302084 45.8385413,48.6510413 47.4739587,49.0156253 C48.2916667,49.2031253 49.114584,49.4010413 49.932292,49.5989587 C50.0885413,49.6406253 50.255208,49.6666667 50.4270827,49.7031253 C50.5364587,49.7291667 50.6510413,49.755208 50.7708333,49.7812493 Z M51.5156253,76.7135413 C51.3958333,76.7135413 51.2656253,76.697916 51.125,76.6718747 C49.869792,76.442708 48.6614587,75.947916 47.489584,75.4635413 L47.2916667,75.3854173 C44.8333333,74.3906253 42.505208,73.1093747 40.364584,71.572916 C39.9375,71.2656253 39.5208333,70.9375 39.1093747,70.6093747 C37.6770827,72.25 36.2916667,73.947916 34.9791667,75.677084 C34.619792,76.1406253 34.2760413,76.6145827 33.932292,77.0885413 C33.5937493,77.557292 33.255208,78.0312493 32.9010413,78.4895827 C32.760416,78.677084 32.5833333,78.8437507 32.4375,78.9843747 C32.3281253,79.0885413 32.182292,79.2343747 32.114584,79.322916 C32.125,79.3333333 32.130208,79.3437507 32.1406253,79.3541667 C33.5781253,81.005208 35.807292,82.6041667 38.755208,84.0937507 C39.9739587,84.7135413 41.25,85.244792 42.5416667,85.6666667 C44.182292,86.2031253 45.375,86.5260413 45.9166667,86.625 C47.6875,83.3125 49.625,79.9739587 51.5156253,76.7135413 Z M59.869792,26.8958333 C59.880208,26.8854173 59.8958333,26.875 59.9062507,26.8645827 C58.8333333,23.9166667 56.8333333,21.302084 53.442708,18.3958333 C51.5260413,16.7604173 49.4010413,15.3385413 47.135416,14.182292 L46.942708,14.0833333 C45.875,13.5416667 44.7760413,12.9791667 43.682292,12.6718747 C43.505208,12.619792 43.307292,12.6145827 43.0833333,12.6093747 C42.932292,12.6041667 42.7760413,12.5989587 42.619792,12.5833333 C42.067708,12.5312493 41.5468747,12.3645827 41.0520827,12.192708 C40.8906253,12.1406253 40.7239587,12.0937507 40.567708,12.0416667 C40.4114587,11.994792 40,12.25 39.760416,12.4010413 L39.5833333,12.5156253 C39.192708,12.755208 38.7916667,13.005208 38.5260413,13.317708 C38.2968747,13.5885413 38.1875,13.9062493 38.239584,14.1458333 C38.2656253,14.2395827 38.260416,14.3437507 38.25,14.432292 C38.8958333,14.9739587 39.9739587,15.869792 41.4166667,16.5364587 C42.557292,17.0781253 43.6770827,17.427084 44.4843747,17.7187507 C45.2916667,18.005208 45.7864587,18.2239587 45.760416,18.3385413 C45.7343747,18.4531253 45.192708,18.427084 44.3385413,18.2916667 C43.4791667,18.1458333 42.2968747,17.875 41.0625,17.2916667 C40.5781253,17.0625 40.135416,16.7968747 39.739584,16.5208333 C39.2239587,16.2239587 38.6666667,15.8333333 38.0833333,15.4687507 C37.6770827,15.2135413 37.2916667,15.0208333 36.9166667,14.880208 C36.364584,14.7812493 35.8229173,14.755208 35.3906253,14.9583333 C35.130208,15.0781253 34.880208,15.317708 34.6718747,15.6406253 C34.4479173,15.9843747 34.2812507,16.3906253 34.119792,16.7864587 C34.0885413,16.8541667 34.0468747,16.9114587 34.005208,16.9687507 C34.0625,17.0781253 34.130208,17.192708 34.2135413,17.317708 C34.625,17.9895827 35.4114587,18.75 36.4531253,19.4375 C38.5416667,20.8489587 40.3385413,21.869792 40.239584,22.0833333 C40.1510413,22.2864587 38.1562507,21.5937507 35.989584,20.125 C35.932292,20.0937507 35.885416,20.052084 35.8333333,20.0208333 C35.307292,19.6718747 34.5989587,19.1406253 33.8385413,18.4895827 C33.4843747,18.197916 33.130208,17.8385413 32.880208,17.6614587 C32.75,17.572916 32.6510413,17.5260413 32.5208333,17.5104173 C32.3958333,17.494792 32.260416,17.505208 32.130208,17.5312493 C32.0625,17.5468747 32,17.572916 31.9375,17.5885413 C31.5416667,17.8489587 31.192708,18.182292 31,18.5208333 C30.760416,18.947916 30.7031253,19.4687507 30.7968747,19.9583333 C31.005208,20.2187507 31.244792,20.5937507 31.4791667,21.0156253 C31.692708,21.3958333 31.864584,21.7604173 31.9791667,22.052084 C32.2239587,22.322916 32.489584,22.6093747 32.760416,22.9114587 C33.4010413,23.625 33.9687493,24.2760413 34.375,24.7864587 C34.8020827,25.197916 35.2135413,25.557292 35.5416667,25.875 C36.1614587,26.447916 36.5260413,26.8385413 36.4583333,26.932292 C36.385416,27.0260413 35.9062507,26.807292 35.182292,26.3385413 C34.4739587,25.869792 33.4739587,25.1614587 32.625,24.1354173 C32.4270827,23.9114587 32.25,23.6875 32.0729173,23.4739587 C32.0364587,23.4531253 32.005208,23.4375 31.9687493,23.4166667 C31.7708333,23.307292 31.5468747,23.1666667 31.307292,22.994792 C31.0625,22.8385413 30.7864587,22.6093747 30.567708,22.4635413 C30.3281253,22.322916 30.1875,22.2968747 29.989584,22.3333333 C29.7916667,22.375 29.6041667,22.4791667 29.442708,22.5937507 C29.2968747,22.7031253 29.1770827,22.7968747 29.067708,22.875 C29.0468747,22.9114587 29.0208333,22.9531253 29.005208,22.9895827 C28.5833333,24.0416667 28.744792,25.994792 29.494792,26.557292 C29.9687493,26.9166667 30.3541667,27.3281253 30.7291667,27.7291667 C30.942708,27.9583333 31.1510413,28.1875 31.380208,28.3958333 C32.114584,29.0885413 32.932292,29.7135413 33.7187493,30.3125 C34.3020827,30.7656253 34.8906253,31.2135413 35.4791667,31.6614587 C37.489584,33.192708 39.5781253,34.7812493 41.5625,36.4114587 C41.8541667,36.6510413 42.3541667,36.7968747 42.8281253,36.9375 C43.0260413,36.994792 43.2031253,37.0468747 43.380208,37.1041667 C44.1666667,37.369792 44.9583333,37.630208 45.75,37.880208 C45.9479173,37.947916 46.135416,37.994792 46.317708,38.052084 C46.9062507,38.2135413 47.5208333,38.3854173 48.119792,38.7916667 L49.7812507,39.932292 C49.875,39.994792 49.9791667,40.0781253 50.0885413,40.1718747 C50.1979173,40.255208 50.385416,40.4218747 50.4635413,40.4531253 C50.4791667,40.4375 50.625,40.380208 50.7187493,40.3437507 L50.8229173,40.302084 C51.0416667,40.0260413 51.244792,39.6718747 51.432292,39.3333333 C51.5260413,39.1666667 51.619792,39.005208 51.7031253,38.8593747 C52.0416667,38.2916667 52.2968747,37.6718747 52.557292,37.0104173 C52.630208,36.822916 52.7031253,36.6406253 52.7812507,36.4583333 C54.317708,32.7395827 56.7656253,29.4375 59.869792,26.8958333 Z M63.2135413,10.3281253 C63.2135413,10.317708 63.1979173,10.307292 63.192708,10.302084 C61.8958333,8.53124933 59.817708,6.75 57.010416,5.01041733 C55.8437493,4.28645867 54.619792,3.65104133 53.369792,3.11458267 C51.7760413,2.442708 50.614584,2.01562533 50.0937493,1.875 C48.0416667,5.01041733 45.8229173,8.177084 43.6614587,11.2604173 C43.7864587,11.2760413 43.9114587,11.2968747 44.0520827,11.3333333 C45.2760413,11.677084 46.442708,12.2760413 47.567708,12.8489587 L47.760416,12.947916 C50.119792,14.1510413 52.3333333,15.630208 54.3333333,17.3437507 C54.75,17.697916 55.1458333,18.0468747 55.5156253,18.4010413 C57.0729173,16.8958333 58.5937493,15.322916 60.0520827,13.7239587 C60.4479173,13.2916667 60.8229173,12.8489587 61.2083333,12.4062493 C61.5937493,11.9687507 61.9739587,11.5260413 62.3593747,11.0989587 C62.5208333,10.9166667 62.7031253,10.7708333 62.864584,10.6406253 C62.9791667,10.5468747 63.1406253,10.4114587 63.2135413,10.3281253 Z M65.119792,63.7708333 C65.4531253,62.6875 65.125,60.75 64.3333333,60.255208 C63.8281253,59.942708 63.4062507,59.557292 63,59.1875 C62.7656253,58.9895827 62.5416667,58.7760413 62.2968747,58.5781253 C61.505208,57.9583333 60.635416,57.4010413 59.807292,56.875 C59.182292,56.4739587 58.5520827,56.0781253 57.9270827,55.682292 C55.7916667,54.3281253 53.5833333,52.927084 51.4687493,51.4791667 C51.1562507,51.2604173 50.6458333,51.1614587 50.1562507,51.067708 C49.9635413,51.0208333 49.7760413,50.9843747 49.5989587,50.942708 C48.7916667,50.744792 47.9843747,50.552084 47.1666667,50.369792 C45.5520827,50 43.9062507,49.6614587 42.2812507,49.3541667 C41.739584,49.25 41.2031253,49.1562493 40.6666667,49.057292 C40.5156253,49.1406253 40.3541667,49.2239587 40.2083333,49.2916667 C39.7812507,49.505208 39.510416,50.1041667 39.244792,50.6875 C39.1562507,50.8854173 39.067708,51.0833333 38.9739587,51.2604173 C37.239584,54.6145827 34.7239587,57.5260413 31.682292,59.75 C34.005208,63.9583333 37.2760413,67.6510413 41.1666667,70.447916 C43.2187493,71.9166667 45.4531253,73.1458333 47.807292,74.1041667 L48.005208,74.182292 C49.114584,74.6354173 50.260416,75.1041667 51.380208,75.3125 C51.5625,75.3489587 51.755208,75.3333333 51.9791667,75.322916 C52.130208,75.3125 52.2916667,75.302084 52.442708,75.302084 C53.005208,75.3125 53.5312507,75.4375 54.0416667,75.557292 C54.2031253,75.5989587 54.369792,75.6406253 54.5312507,75.6666667 C54.6979173,75.7083333 55.0833333,75.4114587 55.307292,75.2395827 L55.4739587,75.1145827 C55.8437493,74.8437507 56.2239587,74.557292 56.4583333,74.2187507 C56.6666667,73.932292 56.75,73.6093747 56.6666667,73.369792 C56.6406253,73.2812493 56.630208,73.182292 56.6458333,73.0885413 C55.9479173,72.6041667 54.8020827,71.807292 53.307292,71.2656253 C52.125,70.8281253 50.9739587,70.567708 50.1510413,70.3541667 C49.317708,70.1354173 48.807292,69.9583333 48.8281253,69.8437507 C48.8437493,69.7343747 49.380208,69.697916 50.25,69.7708333 C51.1093747,69.8437507 52.317708,70.0104173 53.5989587,70.4843747 C54.0937493,70.6666667 54.557292,70.8906253 54.9739587,71.1354173 C55.5156253,71.3906253 56.1041667,71.7291667 56.7187493,72.0416667 C57.1406253,72.2604173 57.5416667,72.4218747 57.9270827,72.5260413 C58.4791667,72.5781253 59.0364587,72.557292 59.442708,72.322916 C59.6875,72.177084 59.9218747,71.9166667 60.1041667,71.572916 C60.2916667,71.2187507 60.4166667,70.817708 60.557292,70.3906253 C60.5729173,70.322916 60.614584,70.2604173 60.6510413,70.197916 C60.5833333,70.0937507 60.505208,69.9791667 60.4166667,69.8645827 C59.942708,69.2291667 59.0989587,68.5468747 58.005208,67.947916 C55.8020827,66.7239587 53.9218747,65.8593747 54,65.6406253 C54.0781253,65.427084 56.130208,65.9531253 58.4062507,67.2239587 C58.4583333,67.25 58.5,67.2760413 58.5520827,67.307292 C59.1093747,67.6041667 59.869792,68.0833333 60.6875,68.6666667 C61.067708,68.927084 61.4479173,69.255208 61.7135413,69.4114587 C61.8489587,69.4843747 61.9583333,69.5208333 62.0833333,69.5260413 C62.2135413,69.5364587 62.3489587,69.5104173 62.4687493,69.4687507 C62.5364587,69.4531253 62.5937493,69.427084 62.6614587,69.3958333 C63.0312507,69.1093747 63.3489587,68.744792 63.510416,68.3958333 C63.7187493,67.947916 63.7343747,67.4166667 63.5885413,66.942708 C63.364584,66.7031253 63.0937493,66.3489587 62.817708,65.947916 C62.5781253,65.5833333 62.375,65.2395827 62.239584,64.9583333 C61.9635413,64.7083333 61.682292,64.447916 61.385416,64.1614587 C60.6875,63.5104173 60.0625,62.9062493 59.619792,62.447916 C59.1562507,62.067708 58.7187493,61.744792 58.364584,61.4583333 C57.6979173,60.9375 57.2968747,60.5781253 57.3593747,60.4791667 C57.4218747,60.380208 57.9218747,60.5625 58.682292,60.9635413 C59.4270827,61.3645827 60.4791667,61.9843747 61.4218747,62.9375 C61.630208,63.1458333 61.8281253,63.3489587 62.0208333,63.552084 C62.057292,63.567708 62.0937493,63.5781253 62.135416,63.5937507 C62.3385413,63.6875 62.5781253,63.8125 62.8333333,63.9583333 C63.0833333,64.0989587 63.369792,64.2968747 63.6093747,64.4218747 C63.8593747,64.5416667 64.005208,64.557292 64.2031253,64.505208 C64.3906253,64.447916 64.567708,64.3281253 64.7187493,64.192708 C64.8541667,64.0781253 64.9687493,63.9739587 65.067708,63.8906253 C65.0833333,63.8489587 65.1041667,63.807292 65.119792,63.7708333 Z M77.619792,39.4739587 C77.744792,38.7708333 77.6510413,38.119792 77.3593747,37.6458333 C77.192708,37.3593747 76.9114587,37.072916 76.5989587,36.9218747 C76.5989587,36.9218747 76.5885413,36.9218747 76.5833333,36.927084 C76.385416,36.9583333 76.1979173,37.0104173 76.0260413,37.057292 C75.7343747,37.447916 75.4114587,37.8645827 75.0729173,38.2968747 C75.0416667,38.3333333 75.010416,38.369792 74.9791667,38.4010413 C74.875,38.6614587 74.7187493,38.927084 74.5312507,39.1562493 C74.307292,39.4375 74.057292,39.6718747 73.8229173,39.9010413 C72.880208,40.7656253 72.3385413,41.8125 71.9166667,42.5781253 C71.505208,43.3489587 71.2239587,43.8281253 71.114584,43.7864587 C71.010416,43.744792 71.0989587,43.192708 71.380208,42.3385413 C71.5260413,41.9114587 71.7291667,41.4114587 72.0208333,40.875 C72.3125,40.3437507 72.7343747,39.7760413 73.244792,39.2968747 C73.2812507,39.2604173 73.307292,39.2343747 73.3437493,39.197916 C73.6614587,38.75 74.0208333,38.2656253 74.4218747,37.7760413 C74.432292,37.7656253 74.442708,37.755208 74.4479173,37.744792 C74.6406253,37.3125 74.8385413,36.869792 75.130208,36.5468747 C75.1979173,36.4687507 75.2708333,36.4114587 75.3437493,36.3437507 C75.317708,36.2708333 75.3020827,36.192708 75.307292,36.1093747 C75.3333333,35.4062493 74.994792,34.682292 74.432292,34.255208 C73.9635413,33.9062493 73.2812507,33.7656253 72.6562507,33.880208 C72.2760413,34.0364587 71.8593747,34.2291667 71.432292,34.4739587 C71.005208,34.807292 70.557292,35.2083333 70.0937493,35.6562493 C69.0937493,36.5781253 68.1979173,37.380208 67.5729173,37.994792 C66.9375,38.6041667 66.557292,39 66.4583333,38.932292 C66.369792,38.875 66.5885413,38.3437507 67.125,37.6041667 C67.5781253,36.9895827 68.2656253,36.255208 69.057292,35.4895827 C69.2291667,35.2239587 69.4739587,34.942708 69.7708333,34.6562493 C69.9739587,34.3645827 70.2135413,34.0468747 70.4791667,33.7135413 C70.9375,33.1718747 71.2812507,32.7760413 71.4166667,32.4218747 C71.432292,32.3906253 71.4375,32.369792 71.4479173,32.3437507 C71.3593747,31.5 71.0208333,30.7395827 70.489584,30.2031253 C69.7812507,29.494792 68.442708,29.0416667 67.5937493,29.494792 C67.557292,29.5156253 67.5260413,29.5260413 67.489584,29.5312493 C67.2812507,29.7031253 67.057292,29.9114587 66.8229173,30.1510413 C66.4218747,30.557292 65.9791667,30.994792 65.505208,31.4375 C64.5416667,32.3333333 63.682292,33.1145827 62.9531253,33.6406253 C62.2239587,34.1666667 61.619792,34.244792 61.5989587,34.1354173 C61.557292,34.0208333 62.005208,33.7708333 62.5833333,33.1875 C62.7031253,33.0625 62.8385413,32.9166667 62.9739587,32.7760413 C63.2291667,32.2812493 64,31.2708333 64.994792,30.177084 C65.317708,29.817708 65.6666667,29.4687507 65.9375,29.1875 C66.2083333,28.9010413 66.385416,28.6354173 66.4479173,28.4010413 C66.4531253,28.3958333 66.4531253,28.3958333 66.4531253,28.3906253 C66.239584,27.9687507 65.7968747,27.630208 65.385416,27.4687507 C64.635416,27.1718747 63.755208,27.1875 62.9010413,27.197916 C62.489584,27.2083333 62.067708,27.2135413 61.7291667,27.3385413 C61.380208,27.4583333 61.0468747,27.7135413 60.739584,27.9687507 C57.817708,30.3645827 55.5,33.4791667 54.0520827,36.9895827 C53.9791667,37.1666667 53.9062507,37.3489587 53.8333333,37.5260413 C53.567708,38.2083333 53.2864587,38.9166667 52.880208,39.572916 C52.7968747,39.7135413 52.7135413,39.8593747 52.630208,40.0156253 C52.2916667,40.619792 51.885416,41.3385413 51.2760413,41.7812493 C51.932292,44.567708 52.2239587,47.4166667 52.135416,50.2760413 C52.1718747,50.2968747 52.2083333,50.3125 52.239584,50.3333333 C54.3437493,51.7708333 56.5416667,53.1614587 58.6614587,54.5104173 C59.2916667,54.9062493 59.9166667,55.307292 60.5416667,55.7031253 C61.4062507,56.255208 62.3020827,56.822916 63.1458333,57.494792 C63.4218747,57.7083333 63.6770827,57.942708 63.9218747,58.1614587 C64.2031253,58.4114587 64.4687493,58.6458333 64.755208,58.8541667 C66.7812507,57.7395827 68.4583333,56.3281253 70.2760413,54.5885413 C70.2656253,54.4166667 70.317708,54.2395827 70.442708,54.0937507 C70.5729173,53.942708 70.760416,53.869792 70.9479173,53.8645827 C71.3020827,53.3541667 71.510416,52.692708 71.7135413,52 L71.8385413,51.6041667 C72.5989587,49.182292 73.8541667,46.9635413 75.0729173,44.817708 C75.6770827,43.744792 76.307292,42.630208 76.8541667,41.5260413 C77.1562507,40.9114587 77.489584,40.2031253 77.619792,39.4739587 Z M91.2343747,48.697916 C91.0781253,48.6093747 90.9166667,48.5208333 90.760416,48.432292 C89.4166667,47.6875 88.0312507,46.9218747 86.880208,45.8541667 C85.625,44.682292 83.9583333,43.6510413 82.192708,42.947916 C81.739584,42.7708333 81.2864587,42.6093747 80.8385413,42.442708 C80.0312507,42.1614587 79.2135413,41.8593747 78.4062507,41.4687507 C78.3020827,41.7031253 78.192708,41.927084 78.0885413,42.1406253 C77.5208333,43.2812493 76.885416,44.4114587 76.2656253,45.5 C75.0885413,47.5885413 73.869792,49.7395827 73.1510413,52.0208333 L73.0312507,52.4114587 C72.8125,53.1354173 72.567708,53.942708 72.0989587,54.630208 L80.994792,62.4010413 C83.2708333,60.244792 85.2291667,57.8906253 86.817708,55.4218747 C87.1510413,54.9010413 87.442708,54.322916 87.75,53.7187507 C88.182292,52.8645827 88.630208,51.9791667 89.2291667,51.2187507 C89.489584,50.8854173 89.75,50.567708 90.010416,50.255208 C90.4375,49.7291667 90.8489587,49.2291667 91.2343747,48.697916 Z M92.9010413,48.307292 C92.9479173,48.494792 92.9114587,48.6875 92.807292,48.8489587 C92.260416,49.6875 91.6562507,50.4218747 91.0729173,51.130208 C90.8229173,51.4375 90.567708,51.755208 90.3125,52.0781253 C89.8020827,52.7291667 89.4010413,53.5156253 88.9843747,54.3489587 C88.6718747,54.9531253 88.3489587,55.5937507 87.9739587,56.1718747 C86.2187493,58.9062493 84.0260413,61.4895827 81.4687493,63.8437507 C81.3385413,63.9635413 81.1770827,64.0260413 81.005208,64.0260413 C80.8489587,64.0260413 80.682292,63.9635413 80.557292,63.8541667 L71.1614587,55.6458333 C69.4114587,57.322916 67.7708333,58.7031253 65.8229173,59.8385413 C66.6614587,61.057292 66.7916667,63.0156253 66.432292,64.177084 C66.2135413,64.9010413 65.5625,65.7187507 64.744792,66.0885413 C65.1562507,66.9895827 65.1770827,68.072916 64.760416,68.9791667 C64.260416,70.0625 62.989584,71.130208 61.7135413,71.2864587 C61.6041667,71.5989587 61.4843747,71.9166667 61.317708,72.2239587 C61.005208,72.8125 60.6093747,73.2395827 60.130208,73.5208333 C59.489584,73.8906253 58.755208,73.9635413 58.0468747,73.9218747 C57.9843747,74.302084 57.8229173,74.682292 57.5781253,75.0260413 C57.2135413,75.5416667 56.7239587,75.9062493 56.2916667,76.2291667 L56.135416,76.3385413 C55.7343747,76.6562493 55.1979173,77.057292 54.557292,77.057292 C54.4635413,77.057292 54.3593747,77.052084 54.25,77.0260413 C54.0781253,76.9895827 53.9062507,76.947916 53.7239587,76.9062493 C53.505208,76.8541667 53.2916667,76.807292 53.0885413,76.7656253 C51.010416,80.3281253 48.869792,84.0156253 46.9375,87.625 C46.8125,87.8593747 46.7187493,88.0416667 46.239584,88.0416667 C45.6562507,88.0416667 44.5260413,87.7708333 42.114584,86.9843747 C40.755208,86.5364587 39.4114587,85.9895827 38.135416,85.3333333 C35.0260413,83.755208 32.6666667,82.057292 31.1041667,80.2656253 C30.1979173,79.2291667 31.0989587,78.3593747 31.4791667,77.9895827 C31.6041667,77.8645827 31.7291667,77.75 31.807292,77.6458333 C32.1510413,77.197916 32.4843747,76.7343747 32.8229173,76.2708333 C33.1770827,75.7864587 33.5208333,75.302084 33.8906253,74.8281253 C35.2135413,73.0937507 36.6093747,71.380208 38.0468747,69.7291667 C35.0312507,67.130208 32.4739587,64.005208 30.5416667,60.5312493 C30.260416,60.6875 29.9635413,60.8281253 29.625,60.9218747 C29.3125,61 29.005208,61.0260413 28.7031253,61.0260413 C28.4635413,61.0260413 28.2291667,61.0104173 28.005208,60.994792 C27.0729173,60.932292 26.005208,60.8541667 25.0364587,60.375 C24.2968747,60.005208 23.5729173,59.2968747 23.307292,58.4114587 C21.9843747,58.5364587 20.5520827,57.8125 19.744792,56.8645827 C19.005208,55.9843747 18.614584,54.7760413 18.6510413,53.5104173 C17.7812507,53.4895827 16.9166667,53.177084 16.2968747,52.6145827 C15.6041667,52 15.182292,51.1041667 15.114584,50.177084 C14.2864587,49.932292 13.6666667,49.2187507 13.3489587,48.5781253 C12.9531253,47.7760413 12.885416,46.7708333 13.1562507,45.7604173 C13.192708,45.6093747 13.25,45.4687507 13.2968747,45.3281253 C12.5468747,44.869792 11.7812507,44.5156253 10.9635413,44.1458333 C10.505208,43.9375 10.0520827,43.7291667 9.60416667,43.5 C7.76562533,42.5781253 6.04687467,41.2916667 4.77604133,39.8906253 C3.83854133,38.8593747 2.59374933,38.0208333 1.39583333,37.2083333 C1.02604133,36.9635413 0.656250667,36.7187507 0.296874667,36.4635413 C0.140625333,36.3541667 0.0364586667,36.1875 0.005208,36 C-0.0208333333,35.8125 0.0312506667,35.619792 0.145833333,35.4687507 C0.765625333,34.682292 1.42708267,34 2.07291733,33.3437507 C2.35416667,33.057292 2.630208,32.7708333 2.91145867,32.4687507 C3.47916667,31.8593747 3.942708,31.1093747 4.432292,30.322916 C4.79166667,29.7343747 5.16666667,29.1354173 5.58854133,28.5833333 C7.567708,26.0104173 9.97395867,23.630208 12.7239587,21.505208 C12.994792,21.2864587 13.3906253,21.317708 13.635416,21.572916 L22.2968747,30.557292 C24.1770827,29.0416667 25.9270827,27.802084 27.9687493,26.8437507 C27.244792,25.557292 27.2760413,23.5885413 27.7291667,22.4635413 C28.0156253,21.7656253 28.7343747,21.0104173 29.5781253,20.7083333 C29.25,19.7760413 29.3125,18.692708 29.807292,17.8281253 C30.4010413,16.7916667 31.760416,15.8385413 33.0416667,15.7968747 C33.1770827,15.4895827 33.3281253,15.182292 33.5208333,14.8854173 C33.875,14.3385413 34.307292,13.942708 34.807292,13.7031253 C35.4791667,13.3854173 36.2187493,13.380208 36.9218747,13.4791667 C37.0156253,13.1041667 37.2031253,12.744792 37.4791667,12.4166667 C37.885416,11.9375 38.4062507,11.6145827 38.864584,11.3333333 L39.0260413,11.2343747 C39.5260413,10.9166667 40.2031253,10.4843747 40.9635413,10.7135413 C41.135416,10.7656253 41.307292,10.822916 41.4791667,10.880208 C41.692708,10.9531253 41.9010413,11.0156253 42.0989587,11.0781253 C44.4739587,7.70312533 46.9218747,4.21875067 49.1510413,0.786458667 C49.4687493,0.302084 49.6406253,0.0312493333 53.9062507,1.83854133 C55.2239587,2.40104133 56.510416,3.067708 57.7291667,3.822916 C60.692708,5.66666667 62.9010413,7.567708 64.3020827,9.47916667 C65.119792,10.5937507 64.1458333,11.3854173 63.7343747,11.7187507 C63.5937493,11.8281253 63.4635413,11.932292 63.380208,12.0312493 C62.994792,12.447916 62.625,12.880208 62.255208,13.317708 C61.8593747,13.7656253 61.4687493,14.2187507 61.067708,14.6562493 C59.6041667,16.2708333 58.067708,17.8489587 56.510416,19.3593747 C58.7239587,21.5885413 60.182292,23.744792 61.0937493,26.1041667 C61.1510413,26.0833333 61.2083333,26.052084 61.2656253,26.0312493 C61.8229173,25.8333333 62.380208,25.8281253 62.875,25.8125 C63.817708,25.802084 64.885416,25.7812493 65.885416,26.177084 C66.6614587,26.4843747 67.442708,27.125 67.7812507,27.9843747 C69.0885413,27.75 70.5729173,28.3437507 71.4583333,29.2187507 C72.2760413,30.0364587 72.7656253,31.2031253 72.8385413,32.4635413 C73.7083333,32.4062493 74.5937493,32.6510413 75.255208,33.1562493 C76,33.7135413 76.494792,34.5625 76.6458333,35.4791667 C77.489584,35.6562493 78.1718747,36.317708 78.5364587,36.9218747 C79,37.6875 79.1562507,38.682292 78.9791667,39.7187507 C78.9479173,39.869792 78.9062507,40.0156253 78.869792,40.1614587 C79.6510413,40.5468747 80.4531253,40.8333333 81.2916667,41.1406253 C81.7656253,41.307292 82.2343747,41.4739587 82.7031253,41.6614587 C84.619792,42.4218747 86.432292,43.557292 87.8229173,44.8437507 C88.8437493,45.7916667 90.1562507,46.5208333 91.4218747,47.2187507 C91.8125,47.432292 92.1979173,47.6510413 92.5781253,47.869792 C92.739584,47.9635413 92.8593747,48.125 92.9010413,48.307292 Z M24.7760413,48.880208 C24.2760413,49.4583333 23.5312507,50.1354173 22.6718747,50.822916 C22.4739587,51.067708 22.2083333,51.3333333 21.8906253,51.5885413 C21.6614587,51.8645827 21.4010413,52.1614587 21.1041667,52.4739587 C20.5989587,52.9687507 20.2239587,53.3333333 20.057292,53.677084 C20.0468747,53.7031253 20.0416667,53.7239587 20.0260413,53.755208 C20.0416667,54.6041667 20.3125,55.3906253 20.7968747,55.9635413 C21.4479173,56.7291667 22.7343747,57.302084 23.625,56.9218747 C23.6562507,56.9114587 23.6875,56.9010413 23.7239587,56.8906253 C23.9531253,56.7395827 24.1875,56.552084 24.4479173,56.3281253 C24.875,55.9635413 25.3593747,55.567708 25.869792,55.1666667 C26.9010413,54.3593747 27.8281253,53.6562493 28.5937493,53.192708 C29.375,52.7343747 29.9739587,52.7031253 29.994792,52.8125 C30.0156253,52.932292 29.5520827,53.1406253 28.9270827,53.682292 C28.8020827,53.7916667 28.6510413,53.9218747 28.5,54.052084 C28.2135413,54.5260413 27.3541667,55.4583333 26.2708333,56.4635413 C25.9166667,56.7968747 25.5416667,57.1093747 25.244792,57.375 C24.9531253,57.630208 24.755208,57.8854173 24.6718747,58.1093747 C24.8437493,58.5625 25.25,58.9375 25.6510413,59.1354173 C26.375,59.494792 27.255208,59.557292 28.0989587,59.6093747 C28.510416,59.6406253 28.932292,59.6666667 29.2864587,59.572916 C29.6406253,59.4843747 29.994792,59.2604173 30.3229173,59.0364587 C33.442708,56.9010413 36.010416,53.9895827 37.75,50.625 C37.8333333,50.4635413 37.9114587,50.2916667 37.989584,50.1145827 C38.3229173,49.3854173 38.7343747,48.4791667 39.6093747,48.0468747 C39.8125,47.947916 39.9791667,47.8645827 40.1041667,47.7812493 C40.125,47.7656253 40.1510413,47.75 40.1770827,47.7395827 C40.4791667,47.5260413 40.567708,47.3281253 40.5625,46.9010413 C40.557292,46.2604173 40.5729173,45.625 40.5885413,45.0156253 C40.614584,44.182292 40.630208,43.3906253 40.5989587,42.5885413 C40.5364587,40.9114587 40.5989587,39.2135413 40.7864587,37.552084 C40.760416,37.5260413 40.7239587,37.505208 40.692708,37.4843747 C38.7239587,35.869792 36.6458333,34.2916667 34.6458333,32.7604173 C34.057292,32.3125 33.4635413,31.869792 32.880208,31.4166667 C32.067708,30.7968747 31.2291667,30.1458333 30.442708,29.4114587 C30.182292,29.1666667 29.9479173,28.9218747 29.7187493,28.677084 C29.4687493,28.4010413 29.2135413,28.1510413 28.9531253,27.9166667 C26.0885413,29.177084 22.635416,31.1614587 21.432292,34.1458333 L21.2760413,34.5260413 C20.3125,36.875 18.869792,38.9843747 17.4791667,41.0156253 C16.7760413,42.0312493 16.0625,43.0833333 15.4166667,44.1458333 C15.067708,44.7239587 14.6770827,45.4010413 14.4843747,46.1145827 C14.3020827,46.802084 14.3333333,47.4635413 14.5833333,47.9635413 C14.7343747,48.2656253 14.989584,48.572916 15.2916667,48.744792 C15.5,48.7343747 15.692708,48.697916 15.864584,48.6614587 C16.1875,48.2968747 16.5416667,47.9062493 16.9218747,47.5104173 C16.9583333,47.4739587 16.9843747,47.442708 17.0156253,47.4114587 C17.1510413,47.1666667 17.3229173,46.9062493 17.5364587,46.692708 C17.7812507,46.447916 18.0468747,46.2239587 18.307292,46.0208333 C19.3125,45.2395827 19.942708,44.244792 20.4270827,43.5156253 C20.9010413,42.7812493 21.2291667,42.3281253 21.3333333,42.380208 C21.432292,42.432292 21.3020827,42.9739587 20.9479173,43.802084 C20.760416,44.2083333 20.5156253,44.692708 20.1770827,45.2031253 C19.8437493,45.7031253 19.375,46.2343747 18.8229173,46.6666667 C18.7916667,46.692708 18.755208,46.7239587 18.7187493,46.755208 C18.364584,47.182292 17.9583333,47.625 17.5208333,48.0885413 C17.510416,48.0989587 17.505208,48.1041667 17.5,48.1145827 C17.260416,48.5208333 17.0312507,48.9531253 16.7135413,49.244792 C16.6406253,49.317708 16.5625,49.375 16.4843747,49.427084 C16.505208,49.505208 16.510416,49.5833333 16.5,49.6614587 C16.4166667,50.3645827 16.6979173,51.1145827 17.2187493,51.5885413 C17.6562507,51.9791667 18.3229173,52.177084 18.9531253,52.119792 C19.3437493,51.994792 19.7760413,51.8385413 20.2239587,51.6354173 C20.6770827,51.3333333 21.1562507,50.9739587 21.6614587,50.567708 C22.7291667,49.7395827 23.6875,49.0104173 24.369792,48.4531253 C25.0468747,47.9010413 25.4687493,47.5416667 25.557292,47.6145827 C25.6458333,47.6875 25.375,48.192708 24.7760413,48.880208" id="Shape" fill="#000000" fill-rule="nonzero" mask="url(#mask-2)"></path>
            </g>
            <path d="M70.5260413,47.067708 C70.6510413,47.302084 70.7291667,47.6718747 70.6666667,48.072916 C70.5937493,48.4687507 70.4010413,48.7968747 70.2031253,48.9739587 C70.010416,49.1562493 69.8281253,49.197916 69.744792,49.125 C69.5781253,48.9583333 69.755208,48.494792 69.8437493,47.932292 C69.9531253,47.380208 69.9218747,46.875 70.1406253,46.7760413 C70.244792,46.7395827 70.4010413,46.8281253 70.5260413,47.067708" id="Path" fill="#000000" fill-rule="nonzero"></path>
            <path d="M67.375,43.6093747 C67.505208,44.1666667 67.432292,44.6562493 67.2083333,44.7083333 C66.989584,44.7656253 66.6979173,44.3541667 66.567708,43.807292 C66.432292,43.255208 66.505208,42.7604173 66.7291667,42.7031253 C66.9531253,42.6562493 67.239584,43.057292 67.375,43.6093747" id="Path" fill="#000000" fill-rule="nonzero"></path>
            <path d="M64.25,39.4531253 C64.5312507,40.1875 64.4479173,40.8489587 64.2239587,40.8854173 C64,40.9218747 63.7239587,40.3958333 63.4739587,39.75 C63.2291667,39.1041667 63.0885413,38.5312493 63.2760413,38.4010413 C63.4739587,38.2812493 63.9739587,38.7187507 64.25,39.4531253" id="Path" fill="#000000" fill-rule="nonzero"></path>
            <path d="M59.1666667,36.5781253 C59.2708333,37.2083333 59.0156253,37.697916 58.7916667,37.6666667 C58.5625,37.630208 58.4375,37.197916 58.3489587,36.7083333 C58.2708333,36.2187507 58.2656253,35.7656253 58.4687493,35.6614587 C58.6718747,35.557292 59.067708,35.942708 59.1666667,36.5781253" id="Path" fill="#000000" fill-rule="nonzero"></path>
            <path d="M56.4531253,56.4739587 C56.8333333,57.0989587 56.8125,57.7187507 56.5937493,57.7812493 C56.369792,57.8437507 56.057292,57.4166667 55.744792,56.9114587 C55.4375,56.3958333 55.1979173,55.927084 55.3541667,55.75 C55.505208,55.5833333 56.0729173,55.8541667 56.4531253,56.4739587" id="Path" fill="#000000" fill-rule="nonzero"></path>
            <path d="M55.057292,60.3854173 C55.2812507,60.9895827 55.0885413,61.5156253 54.864584,61.5104173 C54.630208,61.505208 54.4479173,61.119792 54.2812507,60.682292 C54.125,60.244792 54.005208,59.8333333 54.1770827,59.677084 C54.3437493,59.5208333 54.8333333,59.7864587 55.057292,60.3854173" id="Path" fill="#000000" fill-rule="nonzero"></path>
            <path d="M52.7239587,65.0208333 C52.8958333,65.3541667 52.9479173,65.7031253 52.9114587,65.9531253 C52.875,66.2031253 52.7708333,66.3489587 52.6562507,66.3489587 C52.4270827,66.3489587 52.239584,65.8854173 51.9843747,65.4010413 C51.739584,64.9062493 51.4791667,64.494792 51.6093747,64.2968747 C51.682292,64.2083333 51.8541667,64.2083333 52.0781253,64.322916 C52.2968747,64.442708 52.5520827,64.682292 52.7239587,65.0208333" id="Path" fill="#000000" fill-rule="nonzero"></path>
            <path d="M48.2083333,68.0260413 C48.4375,68.5833333 48.4583333,69.1093747 48.25,69.197916 C48.0312507,69.2864587 47.6770827,68.9062493 47.4479173,68.3437507 C47.385416,68.2031253 47.3385413,68.057292 47.317708,67.9531253 C47.2916667,67.8489587 47.2760413,67.7760413 47.260416,67.7083333 C47.244792,67.5781253 47.182292,67.4635413 47.1979173,67.3489587 C47.1979173,67.2343747 47.4114587,67.1406253 47.6770827,67.2916667 C47.8020827,67.3645827 47.9218747,67.494792 48.005208,67.630208 C48.0937493,67.7656253 48.1458333,67.8854173 48.2083333,68.0260413" id="Path" fill="#000000" fill-rule="nonzero"></path>
            <path d="M47.135416,20.5989587 C47.1406253,20.7343747 47.1875,20.8489587 47.1666667,20.9635413 C47.1614587,21.0781253 46.9375,21.1562493 46.6875,20.9791667 C46.567708,20.8906253 46.4583333,20.755208 46.385416,20.6145827 C46.3125,20.4739587 46.2656253,20.3541667 46.2135413,20.2031253 C46.0312507,19.619792 46.0625,19.0989587 46.2864587,19.0312493 C46.5,18.9583333 46.8281253,19.369792 47.005208,19.947916 C47.0520827,20.0937507 47.0885413,20.244792 47.0989587,20.3541667 C47.119792,20.4583333 47.125,20.5364587 47.135416,20.5989587" id="Path" fill="#000000" fill-rule="nonzero"></path>
            <path d="M42.2291667,22.494792 C42.432292,23.005208 42.6562507,23.442708 42.510416,23.625 C42.432292,23.7083333 42.260416,23.692708 42.0520827,23.5625 C41.8385413,23.4218747 41.6041667,23.1562493 41.4635413,22.807292 C41.3229173,22.4635413 41.3020827,22.1041667 41.3593747,21.8645827 C41.4166667,21.625 41.5260413,21.4843747 41.6406253,21.4895827 C41.869792,21.5156253 42.0208333,21.9895827 42.2291667,22.494792" id="Path" fill="#000000" fill-rule="nonzero"></path>
            <path d="M39.5416667,26.994792 C39.6614587,27.447916 39.739584,27.8645827 39.5520827,28.005208 C39.380208,28.1510413 38.9166667,27.8385413 38.744792,27.2187507 C38.5729173,26.6093747 38.807292,26.0989587 39.0260413,26.125 C39.260416,26.1458333 39.4114587,26.5468747 39.5416667,26.994792" id="Path" fill="#000000" fill-rule="nonzero"></path>
            <path d="M37.7656253,30.630208 C38.0312507,31.1666667 38.2187493,31.6562493 38.0520827,31.8125 C37.885416,31.9739587 37.3489587,31.6562493 37.0208333,31 C36.6979173,30.3489587 36.7708333,29.7291667 36.994792,29.6875 C37.2187493,29.6510413 37.494792,30.0937507 37.7656253,30.630208" id="Path" fill="#000000" fill-rule="nonzero"></path>
            <path d="M33.442708,50.5312493 C33.4791667,51.0312493 33.4583333,51.4739587 33.239584,51.5625 C33.0260413,51.6458333 32.6666667,51.2343747 32.619792,50.5937507 C32.567708,49.9531253 32.869792,49.4843747 33.0885413,49.5416667 C33.3125,49.5937507 33.4062507,50.0364587 33.442708,50.5312493" id="Path" fill="#000000" fill-rule="nonzero"></path>
            <path d="M28.5989587,47.057292 C28.7864587,47.7239587 28.880208,48.307292 28.6770827,48.4166667 C28.4791667,48.5260413 28.0156253,48.0468747 27.8020827,47.2916667 C27.5833333,46.5312493 27.7239587,45.880208 27.9479173,45.8645827 C28.182292,45.8489587 28.4062507,46.3958333 28.5989587,47.057292" id="Path" fill="#000000" fill-rule="nonzero"></path>
            <path d="M25.864584,42.755208 C25.9479173,43.3125 25.8333333,43.802084 25.6093747,43.8333333 C25.385416,43.8645827 25.125,43.442708 25.0468747,42.880208 C24.9583333,42.317708 25.0729173,41.8333333 25.2968747,41.7968747 C25.5260413,41.7656253 25.7812507,42.192708 25.864584,42.755208" id="Path" fill="#000000" fill-rule="nonzero"></path>
            <path d="M23.1562507,37.182292 C23.307292,37.3593747 23.0833333,37.807292 22.9531253,38.3593747 C22.8020827,38.9010413 22.7760413,39.4062493 22.557292,39.4895827 C22.4531253,39.5208333 22.3020827,39.4062493 22.192708,39.1666667 C22.0937493,38.9166667 22.0468747,38.5416667 22.1458333,38.1510413 C22.25,37.755208 22.4687493,37.447916 22.682292,37.2864587 C22.8958333,37.125 23.0729173,37.1041667 23.1562507,37.182292" id="Path" fill="#000000" fill-rule="nonzero"></path>
        </g>
    </g>
</svg>