<?xml version="1.0" encoding="UTF-8"?>
<svg width="107.504487px" height="107.715031px" viewBox="0 0 107.504487 107.715031" version="1.1" xmlns="http://www.w3.org/2000/svg" xmlns:xlink="http://www.w3.org/1999/xlink">
    <title>Mental Powers</title>
    <defs>
        <polygon id="path-1" points="0 0 33.3333333 0 33.3333333 63.3020827 0 63.3020827"></polygon>
        <polygon id="path-3" points="0 0 14.6666667 0 14.6666667 59.3020827 0 59.3020827"></polygon>
        <polygon id="path-5" points="0 0 25.3333333 0 25.3333333 81.9687493 0 81.9687493"></polygon>
        <polygon id="path-7" points="0 0 42.6666667 0 42.6666667 81.9687493 0 81.9687493"></polygon>
        <polygon id="path-9" points="0 0 61.3333333 0 61.3333333 46.0312507 0 46.0312507"></polygon>
    </defs>
    <g id="Icons-2" stroke="none" stroke-width="1" fill="none" fill-rule="evenodd">
        <g id="Mental-Powers" transform="translate(-0.2221, -0.0313)">
            <g id="Clipped" transform="translate(18.6667, 44.6979)">
                <mask id="mask-2" fill="white">
                    <use xlink:href="#path-1"></use>
                </mask>
                <g id="Path"></g>
                <path d="M29.130208,23.619792 C30.317708,9.72395867 23.307292,1.02604133 8.10937467,0.317708 C7.869792,0.307292 7.64062533,0.338541333 7.41666667,0.421874667 C7.192708,0.5 6.989584,0.625 6.817708,0.781250667 C6.64062533,0.942708 6.5,1.130208 6.40104133,1.34895867 C6.29687467,1.5625 6.244792,1.79166667 6.23437467,2.03125067 C6.21874933,2.26562533 6.255208,2.5 6.33854133,2.72395867 C6.41666667,2.94791733 6.53645867,3.14583333 6.69791733,3.32291733 C6.85937467,3.5 7.04687467,3.635416 7.260416,3.739584 C7.47916667,3.83854133 7.70312533,3.89583333 7.942708,3.90625067 C21.1406253,4.52083333 26.567708,11.5 25.557292,23.317708 C25.260416,26.807292 26.8020827,30.385416 28.0416667,33.255208 C28.6666667,34.6979173 29.6093747,36.875 29.4479173,37.5 C29.244792,37.807292 28.2656253,38.0989587 27.0989587,38.0625 C26.8437493,38.057292 26.5937493,38.0989587 26.3593747,38.1979173 C26.119792,38.2968747 25.9114587,38.4375 25.739584,38.625 C25.5625,38.8125 25.432292,39.0260413 25.3437493,39.2656253 C25.260416,39.510416 25.2291667,39.760416 25.25,40.0156253 C25.5625,43.557292 25.8541667,46.9062507 24.6770827,48.0885413 C23.8906253,48.875 22.005208,49.1458333 19.1041667,48.875 L8.317708,47.9010413 C7.30208267,47.807292 6.35937467,47.494792 5.494792,46.9583333 C4.630208,46.4218747 3.92708267,45.7187493 3.39062533,44.8541667 C3.26562533,44.6510413 3.10416667,44.4791667 2.91145867,44.3437493 C2.71874933,44.2031253 2.505208,44.1041667 2.27604133,44.0520827 C2.04687467,43.994792 1.8125,43.989584 1.57812533,44.0260413 C1.34374933,44.0625 1.125,44.1458333 0.921874667,44.2708333 C0.718749333,44.3958333 0.552082667,44.557292 0.411458667,44.75 C0.270833333,44.942708 0.177082667,45.1562507 0.119792,45.385416 C0.067708,45.619792 0.057292,45.8541667 0.0989586667,46.0885413 C0.135416,46.3229173 0.218749333,46.5416667 0.343749333,46.744792 C1.17708267,48.0885413 2.26562533,49.182292 3.60937467,50.0156253 C4.95312533,50.8489587 6.41145867,51.3385413 7.989584,51.489584 L13.6041667,51.994792 C13.4062507,53.7708333 13.505208,55.5312507 13.9010413,57.2708333 C14.2968747,59.0156253 14.9739587,60.6458333 15.9166667,62.1614587 C16.0416667,62.364584 16.2031253,62.5312507 16.3958333,62.6718747 C16.5885413,62.8125 16.8020827,62.9062507 17.0312507,62.9635413 C17.2656253,63.0156253 17.5,63.0260413 17.7343747,62.9843747 C17.9687493,62.9479173 18.1875,62.864584 18.385416,62.739584 C18.5885413,62.614584 18.760416,62.4531253 18.8958333,62.260416 C19.0364587,62.067708 19.135416,61.8541667 19.1875,61.625 C19.239584,61.3906253 19.25,61.1562507 19.2083333,60.9218747 C19.1718747,60.6875 19.0885413,60.4687493 18.9635413,60.2656253 C18.2239587,59.0833333 17.6979173,57.807292 17.3906253,56.442708 C17.0833333,55.0781253 17.010416,53.7031253 17.1718747,52.3125 C20.5729173,52.619792 24.7291667,53.0937493 27.2031253,50.614584 C29.25,48.5781253 29.260416,45.3281253 28.9687493,41.510416 C30.2812507,41.2708333 31.7708333,40.6718747 32.5781253,39.239584 C34.682292,35.510416 28.6562507,29.1666667 29.130208,23.619792 Z" id="Path" fill="#000000" fill-rule="nonzero" mask="url(#mask-2)"></path>
            </g>
            <g id="Clipped" transform="translate(93.3333, 48.6979)">
                <mask id="mask-4" fill="white">
                    <use xlink:href="#path-3"></use>
                </mask>
                <g id="Path"></g>
                <path d="M5.77083333,0.609374667 C5.58333333,0.468749333 5.375,0.364584 5.14583333,0.302082667 C4.91145867,0.244593058 4.682292,0.229166667 4.44791733,0.260416 C4.20833333,0.291666667 3.989584,0.369792 3.78645867,0.489584 C3.57812533,0.609374667 3.40625067,0.765625333 3.260416,0.953125333 C3.119792,1.14583333 3.01562533,1.35416667 2.95312533,1.58333333 C2.89583333,1.8125 2.880208,2.04687467 2.91145867,2.28125067 C2.942708,2.52083333 3.02083333,2.739584 3.14062533,2.942708 C3.260416,3.15104133 3.41666667,3.32291733 3.60416667,3.46874933 C8.95833333,7.54687467 11.6875,14.75 10.557292,21.8229173 C8.71874933,33.375 0.822917333,36.5364587 0.953125333,48.3385413 C0.989584,51.625 1.942708,54.9166667 3.78645867,58.1093747 C3.91145867,58.307292 4.0625,58.4791667 4.255208,58.619792 C4.442708,58.755208 4.64583333,58.8541667 4.875,58.9114587 C5.09895867,58.9687493 5.32812533,58.9843747 5.5625,58.9479173 C5.79166667,58.9166667 6.010416,58.8437493 6.20833333,58.7239587 C6.41145867,58.6093747 6.58333333,58.4583333 6.72916667,58.2760413 C6.875,58.0885413 6.97395867,57.885416 7.04166667,57.6614587 C7.10416667,57.432292 7.119792,57.2031253 7.09374933,56.9739587 C7.067708,56.739584 7,56.5208333 6.89062533,56.317708 C5.35416667,53.6614587 4.5625,50.9635413 4.53645867,48.2968747 C4.42187467,37.8541667 12.125,34.7760413 14.0989587,22.385416 C15.432292,14.0260413 12.1614587,5.47916667 5.77083333,0.609374667 Z" id="Path" fill="#000000" fill-rule="nonzero" mask="url(#mask-4)"></path>
            </g>
            <g id="Clipped" transform="translate(0, 26.0313)">
                <mask id="mask-6" fill="white">
                    <use xlink:href="#path-5"></use>
                </mask>
                <g id="Path"></g>
                <path d="M10.494792,35.8541667 C10.494792,36.3125 10.5364587,36.7656253 10.619792,37.2187493 C10.7083333,37.6666667 10.8333333,38.1041667 10.994792,38.5312507 C11.1614587,38.9583333 11.364584,39.364584 11.6093747,39.755208 C11.8489587,40.1406253 12.125,40.505208 12.432292,40.8385413 C12.744792,41.1770827 13.0833333,41.4843747 13.4479173,41.755208 C13.8125,42.0312507 14.2031253,42.2656253 14.614584,42.4687493 C15.0208333,42.6666667 15.4479173,42.8281253 15.8906253,42.9531253 C16.3281253,43.0729173 16.7760413,43.1510413 17.2343747,43.192708 C17.6875,43.2291667 18.1406253,43.2239587 18.5937493,43.1770827 C19.0520827,43.130208 19.494792,43.0416667 19.932292,42.9062507 C20.369792,42.7760413 20.7916667,42.6093747 21.1979173,42.3958333 C21.6041667,42.1875 21.989584,41.942708 22.3489587,41.6614587 C22.7083333,41.380208 23.0416667,41.067708 23.3437493,40.7239587 C23.6458333,40.380208 23.9114587,40.0156253 24.1458333,39.619792 C24.380208,39.2291667 24.5729173,38.817708 24.7291667,38.385416 C24.8906253,37.9583333 25.005208,37.5156253 25.0781253,37.0625 C25.1510413,36.614584 25.1875,36.1614587 25.1770827,35.7031253 C25.1666667,35.244792 25.114584,34.7916667 25.0208333,34.3437493 C24.9270827,33.8958333 24.7916667,33.4583333 24.614584,33.0364587 C24.4375,32.614584 24.2291667,32.2135413 23.9791667,31.8281253 C23.7239587,31.4479173 23.442708,31.0937493 23.125,30.760416 C22.807292,30.432292 22.4635413,30.135416 22.0937493,29.869792 C21.7187493,29.6041667 21.3281253,29.375 20.9114587,29.182292 C20.5,28.994792 20.067708,28.8385413 19.625,28.7291667 L19.625,2.47916667 C19.625,2.244792 19.5781253,2.01562533 19.489584,1.79166667 C19.4010413,1.57291733 19.2708333,1.380208 19.0989587,1.21354133 C18.932292,1.04166667 18.739584,0.911458667 18.5208333,0.822917333 C18.3020827,0.729166667 18.0729173,0.6875 17.8333333,0.6875 C17.5989587,0.6875 17.369792,0.729166667 17.1510413,0.822917333 C16.9270827,0.911458667 16.7343747,1.04166667 16.567708,1.21354133 C16.4010413,1.380208 16.2708333,1.57291733 16.1770827,1.79166667 C16.0885413,2.01562533 16.0416667,2.244792 16.0416667,2.47916667 L16.0416667,19.755208 C4.807292,22.8489587 -1.22916667,34.0781253 0.520833333,45.0520827 C2.505208,57.510416 10.1979173,60.4635413 10.0833333,70.9635413 C10.057292,73.630208 9.26562533,76.3281253 7.72916667,78.9843747 C7.60416667,79.1875 7.52083333,79.4114587 7.48437467,79.6510413 C7.44791733,79.8906253 7.46354133,80.125 7.52083333,80.3593747 C7.57812533,80.5989587 7.682292,80.8125 7.82812533,81.005208 C7.97395867,81.1979173 8.15104133,81.3541667 8.35937467,81.4739587 C8.57291733,81.5937493 8.79687467,81.6718747 9.03645867,81.7031253 C9.27604133,81.7291667 9.510416,81.7135413 9.744792,81.6458333 C9.97395867,81.5833333 10.1875,81.4739587 10.375,81.3229173 C10.5625,81.1718747 10.7187493,80.989584 10.8333333,80.7760413 C12.6770827,77.5833333 13.630208,74.2916667 13.6666667,71.005208 C13.7968747,59.192708 5.90104133,56.0468747 4.0625,44.489584 C2.760416,36.3229173 6.567708,26.614584 16.0416667,23.489584 L16.0416667,28.7291667 C15.25,28.932292 14.5156253,29.255208 13.8281253,29.7031253 C13.1458333,30.1510413 12.5520827,30.692708 12.0520827,31.3385413 C11.5468747,31.9843747 11.1614587,32.692708 10.8958333,33.4687493 C10.630208,34.244792 10.494792,35.0364587 10.494792,35.8541667 Z M21.5937493,35.8541667 C21.5937493,36.3541667 21.5,36.8385413 21.307292,37.2968747 C21.114584,37.760416 20.8437493,38.1666667 20.494792,38.5208333 C20.1406253,38.875 19.7343747,39.1458333 19.2760413,39.3385413 C18.8125,39.5260413 18.3333333,39.625 17.8385413,39.625 C17.3385413,39.625 16.8593747,39.5260413 16.3958333,39.3385413 C15.9375,39.1458333 15.5312507,38.875 15.1770827,38.5208333 C14.8281253,38.1666667 14.5520827,37.760416 14.364584,37.3020827 C14.1718747,36.8385413 14.0781253,36.3593747 14.0781253,35.8593747 C14.0781253,35.3593747 14.1718747,34.880208 14.364584,34.4166667 C14.5520827,33.9583333 14.8229173,33.5520827 15.1770827,33.1979173 C15.5312507,32.8437493 15.9375,32.5729173 16.3958333,32.380208 C16.8541667,32.1875 17.3385413,32.0937493 17.8333333,32.0937493 C18.3333333,32.0937493 18.8125,32.192708 19.2708333,32.380208 C19.7291667,32.5729173 20.135416,32.8437493 20.489584,33.1979173 C20.8437493,33.5520827 21.114584,33.9583333 21.3020827,34.4166667 C21.494792,34.880208 21.5937493,35.3593747 21.5937493,35.8541667 Z" id="Shape" fill="#000000" fill-rule="nonzero" mask="url(#mask-6)"></path>
            </g>
            <g id="Clipped" transform="translate(56, 26.0313)">
                <mask id="mask-8" fill="white">
                    <use xlink:href="#path-7"></use>
                </mask>
                <g id="Path"></g>
                <path d="M26.7760413,35.8541667 C26.7760413,36.3125 26.817708,36.7656253 26.9010413,37.2187493 C26.989584,37.6666667 27.114584,38.1041667 27.2760413,38.5312507 C27.442708,38.9583333 27.6458333,39.364584 27.8906253,39.755208 C28.130208,40.1406253 28.4062507,40.505208 28.7187493,40.8385413 C29.0260413,41.1770827 29.364584,41.4843747 29.7291667,41.755208 C30.0937493,42.0312507 30.4843747,42.2656253 30.8958333,42.4687493 C31.3020827,42.6666667 31.7291667,42.8281253 32.1718747,42.9531253 C32.6093747,43.0729173 33.057292,43.1510413 33.510416,43.1875 C33.9687493,43.2291667 34.4218747,43.2239587 34.875,43.1770827 C35.3333333,43.130208 35.7760413,43.0416667 36.2135413,42.9062507 C36.6510413,42.7760413 37.0729173,42.6093747 37.4791667,42.3958333 C37.885416,42.1875 38.2708333,41.942708 38.630208,41.6614587 C38.989584,41.380208 39.3229173,41.067708 39.625,40.7239587 C39.9270827,40.380208 40.192708,40.0156253 40.4270827,39.619792 C40.6614587,39.2291667 40.8541667,38.817708 41.010416,38.385416 C41.1718747,37.9583333 41.2864587,37.5156253 41.3593747,37.067708 C41.432292,36.614584 41.4687493,36.1614587 41.4583333,35.7031253 C41.4479173,35.244792 41.3958333,34.7916667 41.3020827,34.3437493 C41.2083333,33.8958333 41.0729173,33.4635413 40.8958333,33.0416667 C40.7239587,32.614584 40.510416,32.2135413 40.260416,31.8333333 C40.010416,31.4479173 39.7239587,31.0937493 39.4114587,30.760416 C39.0937493,30.432292 38.75,30.135416 38.375,29.869792 C38.005208,29.6041667 37.6093747,29.375 37.1979173,29.182292 C36.7812507,28.994792 36.3541667,28.8385413 35.9114587,28.7291667 L35.9114587,2.47916667 C35.9114587,2.244792 35.864584,2.01562533 35.7760413,1.79166667 C35.682292,1.57291733 35.5520827,1.380208 35.385416,1.21354133 C35.2187493,1.04166667 35.0208333,0.911458667 34.8020827,0.822917333 C34.5833333,0.729166667 34.3541667,0.6875 34.119792,0.6875 C33.880208,0.6875 33.6510413,0.729166667 33.432292,0.822917333 C33.2135413,0.911458667 33.0208333,1.04166667 32.8489587,1.21354133 C32.682292,1.380208 32.5520827,1.57291733 32.4635413,1.79166667 C32.369792,2.01562533 32.3281253,2.244792 32.3281253,2.47916667 L32.3281253,19.0833333 C31.6666667,19.005208 30.994792,18.9531253 30.3125,18.932292 C30.2864587,18.932292 30.260416,18.9479173 30.2343747,18.9479173 L26.8437493,18.9479173 C11.4270827,19.0781253 2.85416667,27.0468747 4.15625067,42.307292 C4.625,47.8125 -1.380208,54.2187493 0.703125333,57.9270827 C1.510416,59.3593747 3,59.9583333 4.3125,60.1979173 C4.02083333,64.010416 4.03125067,67.2656253 6.07812533,69.307292 C8.567708,71.8020827 12.8125,71.3020827 16.1041667,71 C16.2708333,72.3906253 16.1979173,73.7656253 15.8906253,75.130208 C15.5833333,76.494792 15.057292,77.7708333 14.317708,78.9531253 C14.192708,79.1562507 14.1093747,79.375 14.0729173,79.6093747 C14.0312507,79.8437493 14.0416667,80.0781253 14.0937493,80.3125 C14.1510413,80.5416667 14.244792,80.755208 14.385416,80.9479173 C14.5208333,81.1406253 14.692708,81.3020827 14.8958333,81.4270827 C15.0937493,81.5520827 15.3125,81.630208 15.5468747,81.6718747 C15.7812507,81.7083333 16.0156253,81.7031253 16.244792,81.6458333 C16.4791667,81.5937493 16.6875,81.5 16.885416,81.3593747 C17.0781253,81.2187493 17.2343747,81.0520827 17.3593747,80.8489587 C18.3125,79.3281253 18.9843747,77.6979173 19.380208,75.9479173 C19.7760413,74.2031253 19.875,72.4375 19.6770827,70.6614587 L25.2968747,70.1562507 C26.875,70.010416 28.3333333,69.5208333 29.682292,68.6875 C31.0260413,67.8541667 32.119792,66.7656253 32.9531253,65.4166667 C33.0781253,65.2135413 33.1614587,64.994792 33.1979173,64.760416 C33.2343747,64.5260413 33.2291667,64.2968747 33.1718747,64.0625 C33.119792,63.8333333 33.0208333,63.619792 32.885416,63.4270827 C32.744792,63.2343747 32.5729173,63.0729173 32.369792,62.9479173 C32.1718747,62.8229173 31.9531253,62.739584 31.7187493,62.7031253 C31.4843747,62.6666667 31.25,62.6718747 31.0208333,62.7291667 C30.7864587,62.7812507 30.5781253,62.880208 30.385416,63.0156253 C30.1875,63.1562507 30.0312507,63.3281253 29.9062507,63.5312507 C29.369792,64.3958333 28.6666667,65.0989587 27.8020827,65.635416 C26.932292,66.1718747 25.994792,66.4843747 24.9791667,66.5781253 L14.182292,67.5416667 C11.2708333,67.8020827 9.40104133,67.5416667 8.60937467,66.7343747 C7.432292,65.557292 7.72395867,62.2135413 8.03125067,58.6614587 C8.057292,58.4010413 8.02604133,58.1562507 7.942708,57.9114587 C7.85416667,57.6666667 7.72395867,57.4531253 7.54687467,57.2656253 C7.375,57.0833333 7.16666667,56.9375 6.92708267,56.8437493 C6.692708,56.744792 6.442708,56.7031253 6.1875,56.7083333 C5.01562533,56.744792 4.04166667,56.4531253 3.83854133,56.1458333 C3.682292,55.5156253 4.619792,53.3437493 5.244792,51.9010413 C6.47916667,49.0260413 8.02604133,45.4479173 7.72916667,41.9635413 C6.60937467,28.8437493 13.5156253,22.5520827 26.869792,22.494792 C29.3333333,22.494792 30.6562507,22.4375 32.3281253,22.6614587 L32.3281253,28.7187493 C31.5312507,28.9166667 30.7968747,29.244792 30.1093747,29.692708 C29.4270827,30.1406253 28.8333333,30.6875 28.3281253,31.3333333 C27.8281253,31.9791667 27.442708,32.692708 27.1770827,33.4635413 C26.9114587,34.239584 26.7760413,35.0364587 26.7760413,35.8541667 Z M37.875,35.8541667 C37.875,36.3541667 37.7812507,36.8385413 37.5885413,37.2968747 C37.3958333,37.760416 37.125,38.1666667 36.7760413,38.5208333 C36.4218747,38.875 36.0156253,39.1458333 35.557292,39.3385413 C35.0937493,39.5260413 34.614584,39.625 34.114584,39.625 C33.619792,39.625 33.1406253,39.5260413 32.6770827,39.3385413 C32.2187493,39.1458333 31.8125,38.875 31.4583333,38.5208333 C31.1041667,38.1666667 30.8333333,37.760416 30.6458333,37.2968747 C30.4531253,36.8385413 30.3593747,36.3593747 30.3593747,35.8593747 C30.3593747,35.3593747 30.4531253,34.880208 30.6458333,34.4166667 C30.8333333,33.9583333 31.1093747,33.5468747 31.4583333,33.1979173 C31.8125,32.8437493 32.2187493,32.5729173 32.682292,32.380208 C33.1406253,32.1875 33.619792,32.0937493 34.119792,32.0937493 C34.614584,32.0937493 35.0937493,32.192708 35.557292,32.380208 C36.0156253,32.5729173 36.4218747,32.8437493 36.7708333,33.1979173 C37.125,33.5520827 37.3958333,33.9583333 37.5885413,34.4166667 C37.7760413,34.880208 37.875,35.3593747 37.875,35.8541667 Z" id="Shape" fill="#000000" fill-rule="nonzero" mask="url(#mask-8)"></path>
            </g>
            <g id="Clipped" transform="translate(24, 0)">
                <mask id="mask-10" fill="white">
                    <use xlink:href="#path-9"></use>
                </mask>
                <g id="Path"></g>
                <path d="M38.1510413,33.614584 L42.3489587,24.1458347 L44.942708,33.75 C45.0520827,34.1406253 45.2656253,34.4583333 45.5833333,34.7031253 C45.9062507,34.9531253 46.2708333,35.0729173 46.6718747,35.0729173 L58.9531253,35.0729173 C59.1875,35.0729173 59.4166667,35.0312507 59.635416,34.9375013 C59.8593747,34.8489587 60.0520827,34.7187507 60.2187493,34.546876 C60.385416,34.3802093 60.5156253,34.1875013 60.6093747,33.9687507 C60.6979173,33.744792 60.744792,33.5156253 60.744792,33.2812507 C60.744792,33.0416667 60.6979173,32.8125013 60.6093747,32.5937507 C60.5156253,32.375 60.385416,32.177084 60.2187493,32.0104173 C60.0520827,31.8437507 59.8593747,31.7135427 59.635416,31.619792 C59.4166667,31.5312507 59.1875,31.484376 58.9531253,31.484376 L48.0416667,31.484376 L44.4843747,18.3281253 C44.385416,17.9635427 44.1875,17.6614587 43.8958333,17.421876 C43.6041667,17.182292 43.2708333,17.046876 42.8958333,17.0208347 C42.5208333,16.989584 42.1718747,17.0729173 41.8437493,17.2656253 C41.5208333,17.4583333 41.2812507,17.729168 41.125,18.0729173 L36.9479173,27.494792 L30.010416,1.364584 C29.9062507,0.973958667 29.692708,0.656250667 29.375,0.406250667 C29.0520827,0.156250667 28.6875,0.0364586667 28.2864587,0.0312506667 C27.880208,0.0312506667 27.5156253,0.156250667 27.192708,0.401042667 C26.869792,0.645834667 26.6562507,0.963542667 26.5520827,1.354168 L16.9218747,36.8802093 L14.182292,28.7656253 C14.057292,28.4010427 13.8385413,28.109376 13.5260413,27.8854173 C13.2187493,27.6614587 12.869792,27.546876 12.4843747,27.546876 L2.692708,27.546876 C2.45312533,27.546876 2.22395867,27.5937507 2.005208,27.682292 C1.78645867,27.7760427 1.59374933,27.9062507 1.42708267,28.0729173 C1.255208,28.239584 1.125,28.4375013 1.03645867,28.6562507 C0.947917333,28.875 0.901041333,29.104168 0.901041333,29.3437507 C0.901041333,29.5781253 0.947917333,29.807292 1.03645867,30.0312507 C1.125,30.25 1.255208,30.4427093 1.42708267,30.609376 C1.59374933,30.7812507 1.78645867,30.9114587 2.005208,31 C2.22395867,31.0937507 2.45312533,31.1354173 2.692708,31.1354173 L11.1875,31.1354173 L15.4010413,43.609376 C15.5260413,43.979168 15.75,44.2812507 16.0729173,44.5052093 C16.4010413,44.729168 16.755208,44.8385427 17.1510413,44.8229173 C17.5416667,44.8125013 17.8958333,44.6875013 18.2031253,44.4427093 C18.5156253,44.1979173 18.7187493,43.8854173 18.8229173,43.5052093 L28.260416,8.734376 L34.7812507,33.3437507 C34.880208,33.7135427 35.0729173,34.0208347 35.364584,34.2656253 C35.6562507,34.5104173 35.994792,34.6458347 36.369792,34.677084 C36.75,34.7083333 37.1041667,34.625 37.432292,34.427084 C37.760416,34.234376 38,33.9635427 38.1510413,33.614584 Z" id="Path" fill="#000000" fill-rule="nonzero" mask="url(#mask-10)"></path>
            </g>
            <path d="M12.2760413,22.932292 C12.119792,23.0989587 11.994792,23.2916667 11.9114587,23.5104173 C11.8229173,23.729168 11.7812507,23.9531253 11.7864587,24.1875013 C11.7864587,24.421876 11.8333333,24.6510427 11.9270827,24.864584 C12.0156253,25.0781253 12.1458333,25.2708347 12.3125,25.4375013 C12.4739587,25.5989587 12.6666667,25.729168 12.880208,25.8229173 C13.0989587,25.9114587 13.3229173,25.9583333 13.5520827,25.9635427 C13.7864587,25.9635427 14.0156253,25.921876 14.2291667,25.8385427 C14.4479173,25.75 14.6406253,25.6302093 14.8125,25.4687507 C15.2135413,25.0677093 15.6770827,24.7604173 16.1979173,24.5416667 C16.7239587,24.3229173 17.2656253,24.2187507 17.8333333,24.2187507 C18.4010413,24.2187507 18.9479173,24.3229173 19.4687493,24.5416667 C19.994792,24.7604173 20.4583333,25.0677093 20.8593747,25.4687507 C21.0260413,25.6458347 21.2187493,25.7812507 21.4375,25.875 C21.6614587,25.9739587 21.8906253,26.0208347 22.135416,26.0260427 C22.375,26.0312507 22.6093747,25.984376 22.8333333,25.8958347 C23.057292,25.802084 23.25,25.671876 23.4218747,25.5 C23.5937493,25.3281253 23.7239587,25.1302093 23.817708,24.9062507 C23.9062507,24.682292 23.9531253,24.4531253 23.9479173,24.2083333 C23.942708,23.9687507 23.8958333,23.734376 23.7968747,23.5156253 C23.7031253,23.2916667 23.567708,23.0989587 23.3906253,22.932292 C23.0260413,22.5677093 22.630208,22.239584 22.1979173,21.9531253 C21.7708333,21.6666667 21.317708,21.421876 20.8385413,21.2239587 C20.364584,21.0312507 19.875,20.8802093 19.364584,20.7812507 C18.8593747,20.677084 18.3489587,20.6302093 17.8333333,20.6302093 C17.317708,20.6302093 16.807292,20.677084 16.3020827,20.7812507 C15.7968747,20.8802093 15.307292,21.0312507 14.8281253,21.2239587 C14.3541667,21.421876 13.9010413,21.6666667 13.4687493,21.9531253 C13.0416667,22.239584 12.6458333,22.5677093 12.2760413,22.932292 Z" id="Path" fill="#000000" fill-rule="nonzero"></path>
            <path d="M26.7187493,21.3906253 C27.0833333,21.3958347 27.4166667,21.296876 27.7187493,21.0937507 C28.0260413,20.8958347 28.244792,20.625 28.385416,20.2864587 C28.526237,19.9531253 28.5625,19.604168 28.489584,19.25 C28.4218747,18.8906253 28.255208,18.5833333 28,18.3281253 C27.3333333,17.6614587 26.6041667,17.0625013 25.8229173,16.5416667 C25.0364587,16.0156253 24.2135413,15.5729173 23.3385413,15.2135427 C22.4687493,14.854168 21.5729173,14.5781253 20.6458333,14.3958347 C19.7239587,14.2135427 18.7916667,14.119792 17.8489587,14.119792 C16.9062507,14.119792 15.9687493,14.2135427 15.0468747,14.3958347 C14.119792,14.5781253 13.2239587,14.854168 12.3541667,15.2135427 C11.4843747,15.5729173 10.6562507,16.0156253 9.869792,16.5416667 C9.08854133,17.0625013 8.35937467,17.6614587 7.692708,18.3281253 C7.52604133,18.494792 7.39583333,18.6875013 7.307292,18.9114587 C7.21354133,19.1302093 7.17187467,19.359376 7.17187467,19.5937507 C7.17187467,19.8333333 7.21354133,20.0625013 7.307292,20.2812507 C7.39583333,20.5 7.52604133,20.6979173 7.692708,20.864584 C7.85937467,21.0312507 8.057292,21.1614587 8.27604133,21.2552093 C8.494792,21.3437507 8.72395867,21.3906253 8.95833333,21.3906253 C9.19791733,21.3906253 9.42708267,21.3437507 9.64583333,21.2552093 C9.864584,21.1666667 10.057292,21.0364587 10.2291667,20.864584 C10.7291667,20.364584 11.2708333,19.921876 11.8593747,19.5260427 C12.4479173,19.1354173 13.067708,18.802084 13.7239587,18.5312507 C14.375,18.2604173 15.0468747,18.057292 15.739584,17.921876 C16.432292,17.7812507 17.135416,17.7135427 17.8437493,17.7135427 C18.5468747,17.7135427 19.25,17.7812507 19.942708,17.921876 C20.635416,18.057292 21.307292,18.2604173 21.9583333,18.5312507 C22.614584,18.802084 23.2343747,19.1354173 23.8229173,19.5260427 C24.4114587,19.921876 24.9531253,20.364584 25.4531253,20.864584 C25.807292,21.2187507 26.2239587,21.3906253 26.7187493,21.3906253 Z" id="Path" fill="#000000" fill-rule="nonzero"></path>
            <path d="M3.57812533,16.0052093 C4.067708,16.0052093 4.489584,15.8333333 4.84374933,15.484376 C5.692708,14.6302093 6.625,13.869792 7.625,13.1979173 C8.630208,12.5260427 9.6875,11.9635427 10.8020827,11.5 C11.9166667,11.0364587 13.067708,10.6927093 14.25,10.4531253 C15.432292,10.2187507 16.625,10.104168 17.8281253,10.104168 C19.0364587,10.104168 20.2291667,10.2187507 21.4114587,10.4531253 C22.5937493,10.6927093 23.744792,11.0364587 24.8593747,11.5 C25.9739587,11.9635427 27.0312507,12.5260427 28.0312507,13.1979173 C29.0364587,13.869792 29.9635413,14.6302093 30.817708,15.484376 C30.9843747,15.6510427 31.182292,15.7812507 31.4010413,15.875 C31.619792,15.9687507 31.8489587,16.0156253 32.0885413,16.0156253 C32.3281253,16.0156253 32.557292,15.9739587 32.7760413,15.8802093 C33,15.7916667 33.192708,15.6614587 33.364584,15.494792 C33.5312507,15.3229173 33.6614587,15.1302093 33.755208,14.9114587 C33.8489587,14.6875013 33.8958333,14.4583333 33.8958333,14.2187507 C33.8958333,13.979168 33.8541667,13.75 33.760416,13.5312507 C33.6718747,13.307292 33.5416667,13.114584 33.375,12.9427093 C32.864584,12.432292 32.3333333,11.9531253 31.7760413,11.494792 C31.2187493,11.0364587 30.6406253,10.609376 30.0468747,10.2135427 C29.4479173,9.81250133 28.8281253,9.44270933 28.1979173,9.104168 C27.5625,8.76562533 26.9114587,8.45833333 26.25,8.182292 C25.5833333,7.90625067 24.9062507,7.66666667 24.2187493,7.45833333 C23.5312507,7.244792 22.8333333,7.07291733 22.130208,6.932292 C21.4218747,6.79166667 20.7135413,6.68750133 20,6.614584 C19.2812507,6.546876 18.567708,6.51041733 17.8489587,6.51041733 C17.130208,6.51041733 16.4114587,6.546876 15.692708,6.614584 C14.9791667,6.68750133 14.2708333,6.79166667 13.5625,6.932292 C12.8593747,7.07291733 12.1614587,7.244792 11.4739587,7.45833333 C10.7864587,7.66666667 10.1093747,7.90625067 9.44791733,8.182292 C8.78125067,8.45833333 8.130208,8.76562533 7.5,9.104168 C6.864584,9.44270933 6.244792,9.81250133 5.65104133,10.2135427 C5.05208267,10.609376 4.47395867,11.0364587 3.91666667,11.494792 C3.35937467,11.9531253 2.82812533,12.432292 2.317708,12.9427093 C2.0625,13.1979173 1.90104133,13.5052093 1.82812533,13.859376 C1.760416,14.2135427 1.79166667,14.557292 1.92708267,14.8958347 C2.067708,15.229168 2.28645867,15.5 2.58333333,15.7031253 C2.885416,15.9010427 3.21354133,16.0052093 3.57812533,16.0052093 Z" id="Path" fill="#000000" fill-rule="nonzero"></path>
            <path d="M84.5625,22.932292 C84.4010413,23.0989587 84.2760413,23.2916667 84.192708,23.5104173 C84.1041667,23.729168 84.0625,23.9531253 84.067708,24.1875013 C84.0729173,24.421876 84.119792,24.6510427 84.2083333,24.864584 C84.2968747,25.0781253 84.4270827,25.2708347 84.5937493,25.4375013 C84.755208,25.5989587 84.9479173,25.729168 85.1614587,25.8229173 C85.380208,25.9114587 85.6041667,25.9583333 85.8385413,25.9635427 C86.067708,25.9635427 86.2968747,25.921876 86.510416,25.8385427 C86.7291667,25.75 86.9218747,25.6302093 87.0937493,25.4687507 C87.494792,25.0677093 87.9583333,24.7604173 88.4791667,24.5416667 C89.005208,24.3229173 89.5468747,24.2187507 90.114584,24.2187507 C90.682292,24.2187507 91.2291667,24.3229173 91.75,24.5416667 C92.2760413,24.7604173 92.739584,25.0677093 93.1406253,25.4687507 C93.307292,25.6458347 93.5,25.7812507 93.7187493,25.875 C93.942708,25.9739587 94.1718747,26.0208347 94.4166667,26.0260427 C94.6562507,26.0312507 94.8906253,25.984376 95.114584,25.8958347 C95.3385413,25.802084 95.5364587,25.671876 95.7031253,25.5 C95.875,25.3281253 96.005208,25.1302093 96.0989587,24.9062507 C96.1875,24.682292 96.2343747,24.4531253 96.2291667,24.2083333 C96.2239587,23.9687507 96.1770827,23.734376 96.0781253,23.5156253 C95.9843747,23.2916667 95.8489587,23.0989587 95.6718747,22.932292 C95.307292,22.5677093 94.9114587,22.239584 94.4791667,21.9531253 C94.0520827,21.6666667 93.5989587,21.421876 93.119792,21.2239587 C92.6458333,21.0312507 92.1562507,20.8802093 91.6510413,20.7812507 C91.1406253,20.677084 90.630208,20.6302093 90.114584,20.6302093 C89.5989587,20.6302093 89.0885413,20.677084 88.5833333,20.7812507 C88.0781253,20.8802093 87.5885413,21.0312507 87.1093747,21.2239587 C86.635416,21.421876 86.182292,21.6666667 85.75,21.9531253 C85.3229173,22.239584 84.9270827,22.5677093 84.5625,22.932292 Z" id="Path" fill="#000000" fill-rule="nonzero"></path>
            <path d="M99,21.3906253 C99.364584,21.3906253 99.6979173,21.2916667 100,21.0885427 C100.302083,20.8854173 100.520833,20.619792 100.656251,20.2812507 C100.79707,19.9479173 100.833333,19.604168 100.760416,19.244792 C100.6875,18.8906253 100.526041,18.5833333 100.270833,18.3281253 C99.6041667,17.6614587 98.875,17.0625013 98.0937493,16.5416667 C97.307292,16.0156253 96.4791667,15.5729173 95.6093747,15.2135427 C94.739584,14.854168 93.8437493,14.5781253 92.9166667,14.3958347 C91.994792,14.2135427 91.057292,14.119792 90.119792,14.119792 C89.1770827,14.119792 88.239584,14.2135427 87.317708,14.3958347 C86.3906253,14.5781253 85.494792,14.854168 84.625,15.2135427 C83.755208,15.5729173 82.9270827,16.0156253 82.1406253,16.5416667 C81.3593747,17.0625013 80.630208,17.6614587 79.9635413,18.3281253 C79.7968747,18.494792 79.6666667,18.6875013 79.5781253,18.9114587 C79.4843747,19.1302093 79.442708,19.359376 79.442708,19.5937507 C79.442708,19.8333333 79.489584,20.0625013 79.5781253,20.2812507 C79.6666667,20.5 79.7968747,20.6979173 79.9687493,20.864584 C80.135416,21.0312507 80.3281253,21.1614587 80.5468747,21.2552093 C80.7656253,21.3437507 80.994792,21.3906253 81.2343747,21.3906253 C81.4687493,21.3906253 81.6979173,21.3437507 81.9166667,21.2552093 C82.135416,21.1614587 82.3333333,21.0364587 82.5,20.864584 C83,20.364584 83.5468747,19.921876 84.130208,19.5260427 C84.7187493,19.1354173 85.3437493,18.802084 85.994792,18.5312507 C86.6458333,18.2604173 87.3229173,18.057292 88.0156253,17.921876 C88.7083333,17.7812507 89.4062507,17.7135427 90.114584,17.7135427 C90.8229173,17.7135427 91.5208333,17.7812507 92.2135413,17.921876 C92.9062507,18.057292 93.5781253,18.2604173 94.2343747,18.5312507 C94.885416,18.802084 95.505208,19.1354173 96.0937493,19.5260427 C96.682292,19.921876 97.2291667,20.364584 97.7291667,20.864584 C98.0781253,21.2187507 98.505208,21.3958347 99,21.3906253 Z" id="Path" fill="#000000" fill-rule="nonzero"></path>
            <path d="M77.125,15.484376 C77.9791667,14.6302093 78.9062507,13.869792 79.9114587,13.1979173 C80.9114587,12.5260427 81.9739587,11.9635427 83.0885413,11.5 C84.1979173,11.0364587 85.3489587,10.6927093 86.5312507,10.4531253 C87.7135413,10.2187507 88.9062507,10.104168 90.114584,10.104168 C91.317708,10.104168 92.5156253,10.2187507 93.6979173,10.4531253 C94.880208,10.6927093 96.0260413,11.0364587 97.1406253,11.5 C98.255208,11.9635427 99.3125,12.5260427 100.317708,13.1979173 C101.322917,13.869792 102.25,14.6302093 103.104167,15.484376 C103.270833,15.6510427 103.463541,15.7812507 103.682292,15.875 C103.906251,15.9635427 104.135416,16.0104173 104.369792,16.0104173 C104.609375,16.0104173 104.838541,15.9635427 105.057292,15.875 C105.276041,15.7812507 105.473959,15.6510427 105.640625,15.484376 C105.807292,15.3177093 105.9375,15.125 106.031251,14.9010427 C106.119792,14.682292 106.166667,14.4531253 106.166667,14.2135427 C106.166667,13.9739587 106.125,13.744792 106.031251,13.5260427 C105.942708,13.307292 105.8125,13.109376 105.645833,12.9427093 C105.135416,12.432292 104.604167,11.9531253 104.046875,11.494792 C103.489584,11.0364587 102.911459,10.609376 102.3125,10.2135427 C101.718749,9.81250133 101.098959,9.44270933 100.468749,9.104168 C99.8333333,8.76562533 99.182292,8.45833333 98.5208333,8.182292 C97.8541667,7.90625067 97.1770827,7.66666667 96.489584,7.45833333 C95.8020827,7.244792 95.1041667,7.07291733 94.4010413,6.932292 C93.692708,6.79166667 92.9843747,6.68750133 92.2708333,6.614584 C91.5520827,6.546876 90.8385413,6.51041733 90.119792,6.51041733 C89.3958333,6.51041733 88.682292,6.546876 87.9635413,6.614584 C87.25,6.68750133 86.5416667,6.79166667 85.8333333,6.932292 C85.130208,7.07291733 84.432292,7.244792 83.744792,7.45833333 C83.057292,7.66666667 82.380208,7.90625067 81.7135413,8.182292 C81.0520827,8.45833333 80.4010413,8.76562533 79.7656253,9.104168 C79.135416,9.44270933 78.5156253,9.81250133 77.9218747,10.2135427 C77.3229173,10.609376 76.744792,11.0364587 76.1875,11.494792 C75.630208,11.9531253 75.0989587,12.432292 74.5885413,12.9427093 C74.4218747,13.109376 74.2916667,13.307292 74.2031253,13.5260427 C74.1093747,13.744792 74.067708,13.9739587 74.067708,14.2135427 C74.067708,14.4531253 74.1093747,14.682292 74.2031253,14.9010427 C74.2916667,15.119792 74.4218747,15.3125013 74.5885413,15.484376 C74.760416,15.6510427 74.9531253,15.7812507 75.1718747,15.869792 C75.3906253,15.9635427 75.619792,16.0104173 75.8593747,16.0104173 C76.0937493,16.0104173 76.3229173,15.9635427 76.5416667,15.869792 C76.7656253,15.7812507 76.9583333,15.6510427 77.125,15.484376 Z" id="Path" fill="#000000" fill-rule="nonzero"></path>
        </g>
    </g>
</svg>