<?xml version="1.0" encoding="UTF-8"?>
<svg width="97.9687507px" height="101px" viewBox="0 0 97.9687507 101" version="1.1" xmlns="http://www.w3.org/2000/svg" xmlns:xlink="http://www.w3.org/1999/xlink">
    <title>Invocation</title>
    <defs>
        <polygon id="path-1" points="0 0 4 0 4 35.5885413 0 35.5885413"></polygon>
        <polygon id="path-3" points="0 0 1.33333333 0 1.33333333 36.0781253 0 36.0781253"></polygon>
        <polygon id="path-5" points="0 0 28.5885413 0 28.5885413 2.66666667 0 2.66666667"></polygon>
        <polygon id="path-7" points="0 0 28.0781253 0 28.0781253 2.66666667 0 2.66666667"></polygon>
    </defs>
    <g id="Icons-2" stroke="none" stroke-width="1" fill="none" fill-rule="evenodd">
        <g id="Invocation" transform="translate(-0.0156, 0)">
            <path d="M39.390624,60.484376 L15.8489573,88.255208 L39.6718747,60.5833333 C39.5781253,60.552084 39.4895827,60.5156253 39.390624,60.484376 Z" id="Path" fill="#1A1A1A" fill-rule="nonzero"></path>
            <path d="M40.9114587,60.9687507 L20.9739573,88.927084 L41.197916,61.0416667 C41.1041667,61.0156253 41.010416,60.989584 40.9114587,60.9687507 Z" id="Path" fill="#1A1A1A" fill-rule="nonzero"></path>
            <path d="M41.619792,61.1510427 L25.1770827,85.984376 L41.7239573,61.177084 C41.692708,61.1718747 41.6510413,61.1614587 41.619792,61.1510427 Z" id="Path" fill="#1A1A1A" fill-rule="nonzero"></path>
            <path d="M39.9166667,60.6666667 L18.9635413,88 L40.4791667,60.8437507 C40.2916667,60.7864587 40.1041667,60.7291667 39.9166667,60.6666667 Z" id="Path" fill="#1A1A1A" fill-rule="nonzero"></path>
            <path d="M38.3385413,60.0885413 L9.880208,91.2291667 L38.9166667,60.3125 C38.7239573,60.239584 38.5312493,60.1614587 38.3385413,60.0885413 Z" id="Path" fill="#1A1A1A" fill-rule="nonzero"></path>
            <path d="M60.5520827,37.2760427 C60.6510413,37.3125 60.744792,37.3489587 60.8385413,37.3906253 L87.1145827,11.0885413 L60.5520827,37.2760427 Z" id="Path" fill="#1A1A1A" fill-rule="nonzero"></path>
            <path d="M59.7916667,36.984376 C59.9739573,37.052084 60.1614587,37.119792 60.3593747,37.1979173 L83.994792,11.0885413 L59.7916667,36.984376 Z" id="Path" fill="#1A1A1A" fill-rule="nonzero"></path>
            <path d="M59.119792,36.739584 C59.2135413,36.7708333 59.3072907,36.807292 59.4010413,36.8437507 L82.0625,10 L59.119792,36.739584 Z" id="Path" fill="#1A1A1A" fill-rule="nonzero"></path>
            <path d="M60.4895827,58.5104173 C60.4583333,58.5260427 60.4322907,58.552084 60.4010413,58.5729173 L83.9531253,77.6614587 L60.4895827,58.5104173 Z" id="Path" fill="#1A1A1A" fill-rule="nonzero"></path>
            <path d="M60.2083333,58.7135413 C60.0468747,58.8281253 59.890624,58.9427093 59.7239573,59.052084 L86.4843747,82.130208 L60.2083333,58.7135413 Z" id="Path" fill="#1A1A1A" fill-rule="nonzero"></path>
            <path d="M62.0520827,37.9166667 C62.140624,37.9583333 62.2395827,38.005208 62.3281253,38.052084 L91.197916,13.9479173 L62.0520827,37.9166667 Z" id="Path" fill="#1A1A1A" fill-rule="nonzero"></path>
            <path d="M63.5,38.755208 C63.572916,38.807292 63.6458333,38.864584 63.7187493,38.9218747 L88.9843747,21.177084 L63.5,38.755208 Z" id="Path" fill="#1A1A1A" fill-rule="nonzero"></path>
            <path d="M61.1458333,37.5156253 C61.3385413,37.5937507 61.5260413,37.677084 61.7239573,37.7604173 L90.6510413,10.4010427 L61.1458333,37.5156253 Z" id="Path" fill="#1A1A1A" fill-rule="nonzero"></path>
            <path d="M36.8385413,38.9166667 L9.22916667,14.807292 L36.5885413,39.0625 C36.6666667,39.0104173 36.755208,38.9635413 36.8385413,38.9166667 Z" id="Path" fill="#1A1A1A" fill-rule="nonzero"></path>
            <path d="M39.7864587,37.5781253 L19.140624,12.239584 L39.255208,37.7968747 C39.4375,37.7239587 39.6093747,37.6510427 39.7864587,37.5781253 Z" id="Path" fill="#1A1A1A" fill-rule="nonzero"></path>
            <path d="M36.3645827,39.1979173 L9.447916,17.927084 L35.890624,39.505208 C36.0416667,39.4010427 36.2031253,39.2968747 36.3645827,39.1979173 Z" id="Path" fill="#1A1A1A" fill-rule="nonzero"></path>
            <path d="M40.9583333,37.114584 L24.2135413,12.3281253 L40.8593747,37.1510427 C40.8958333,37.1354173 40.9218747,37.119792 40.9583333,37.114584 Z" id="Path" fill="#1A1A1A" fill-rule="nonzero"></path>
            <path d="M34.9635413,40.2968747 L11.380208,24.182292 L34.9010413,40.369792 C34.9218747,40.3437507 34.947916,40.3229173 34.9635413,40.2968747 Z" id="Path" fill="#1A1A1A" fill-rule="nonzero"></path>
            <path d="M35.515624,39.7968747 L8.5,19.927084 L35.3020827,39.9739587 C35.375,39.9114587 35.442708,39.8541667 35.515624,39.7968747 Z" id="Path" fill="#1A1A1A" fill-rule="nonzero"></path>
            <path d="M37.6770827,38.4791667 L8.30729067,11.3229173 L37.130208,38.75 C37.3125,38.6614587 37.5,38.5677093 37.6770827,38.4791667 Z" id="Path" fill="#1A1A1A" fill-rule="nonzero"></path>
            <path d="M39.0781253,37.869792 L15.2187493,10.8385413 L38.8020827,37.984376 C38.8958333,37.9427093 38.9843747,37.9062507 39.0781253,37.869792 Z" id="Path" fill="#1A1A1A" fill-rule="nonzero"></path>
            <path d="M40.3489573,37.3541667 L18.9114587,8.9375 L40.0781253,37.4635413 C40.1718747,37.427084 40.260416,37.3906253 40.3489573,37.3541667 Z" id="Path" fill="#1A1A1A" fill-rule="nonzero"></path>
            <path d="M38.255208,38.2135413 L11.7916667,10.5260427 L37.9791667,38.3385413 C38.0781253,38.2968747 38.1666667,38.255208 38.255208,38.2135413 Z" id="Path" fill="#1A1A1A" fill-rule="nonzero"></path>
            <path d="M58.635416,36.5729173 C58.6718747,36.5833333 58.7031253,36.5937507 58.7343747,36.6041667 L77.635416,12.5833333 L58.635416,36.5729173 Z" id="Path" fill="#1A1A1A" fill-rule="nonzero"></path>
            <path d="M64.817708,39.932292 C64.8489573,39.9531253 64.869792,39.9739587 64.8958333,39.994792 L88.5364587,26.239584 L64.817708,39.932292 Z" id="Path" fill="#1A1A1A" fill-rule="nonzero"></path>
            <path d="M37.8333333,59.869792 L11.5520827,85.739584 L38.1041667,59.994792 C38.015624,59.9531253 37.9218747,59.9114587 37.8333333,59.869792 Z" id="Path" fill="#1A1A1A" fill-rule="nonzero"></path>
            <path d="M35.5208333,58.6875 L9.880208,78.625 L35.755208,58.8333333 C35.6770827,58.7864587 35.5989573,58.734376 35.5208333,58.6875 Z" id="Path" fill="#1A1A1A" fill-rule="nonzero"></path>
            <path d="M34.7864587,58.2239587 L13.197916,73.2708333 L34.8593747,58.2812507 C34.8385413,58.2604173 34.8125,58.239584 34.7864587,58.2239587 Z" id="Path" fill="#1A1A1A" fill-rule="nonzero"></path>
            <path d="M36.1614587,59.052084 L13.1666667,78.3541667 L36.6510413,59.3125 C36.4843747,59.2239587 36.322916,59.1406253 36.1614587,59.052084 Z" id="Path" fill="#1A1A1A" fill-rule="nonzero"></path>
            <path d="M36.942708,59.4583333 L11.817708,82.302084 L37.2031253,59.5885413 C37.1145827,59.5468747 37.0312493,59.5 36.942708,59.4583333 Z" id="Path" fill="#1A1A1A" fill-rule="nonzero"></path>
            <path d="M58.4010413,59.8281253 C58.2187493,59.927084 58.0312493,60.0104173 57.8437493,60.0989587 L85.9739573,90.734376 L58.4010413,59.8281253 Z" id="Path" fill="#1A1A1A" fill-rule="nonzero"></path>
            <path d="M57.6562493,60.1927093 C57.5572907,60.234376 57.4687493,60.2760427 57.375,60.3177093 L82.4375,91.2291667 L57.6562493,60.1927093 Z" id="Path" fill="#1A1A1A" fill-rule="nonzero"></path>
            <path d="M56.380208,60.7031253 C56.2916667,60.739584 56.192708,60.7708333 56.1041667,60.802084 L75.255208,88.927084 L56.380208,60.7031253 Z" id="Path" fill="#1A1A1A" fill-rule="nonzero"></path>
            <path d="M57.0364587,60.4531253 C56.8541667,60.5260427 56.6614587,60.5989587 56.4687493,60.6718747 L79.0416667,90.6406253 L57.0364587,60.4531253 Z" id="Path" fill="#1A1A1A" fill-rule="nonzero"></path>
            <path d="M55.7239573,60.927084 C55.625,60.9583333 55.5260413,60.984376 55.4322907,61.0156253 L75.2083333,92.2291667 L55.7239573,60.927084 Z" id="Path" fill="#1A1A1A" fill-rule="nonzero"></path>
            <path d="M54.9739573,61.1510427 C54.9375,61.1614587 54.9010413,61.1718747 54.869792,61.182292 L70.2031253,88.4218747 L54.9739573,61.1510427 Z" id="Path" fill="#1A1A1A" fill-rule="nonzero"></path>
            <path d="M59.4062493,59.255208 C59.322916,59.307292 59.244792,59.364584 59.1562493,59.4114587 L85.375,84.0468747 L59.4062493,59.255208 Z" id="Path" fill="#1A1A1A" fill-rule="nonzero"></path>
            <path d="M58.890624,59.5625 C58.8020827,59.609376 58.7135413,59.6614587 58.625,59.7083333 L85.3385413,87.177084 L58.890624,59.5625 Z" id="Path" fill="#1A1A1A" fill-rule="nonzero"></path>
            <path d="M64.0312493,39.1718747 C64.1718747,39.2916667 64.2968747,39.4218747 64.4218747,39.557292 L92.2812493,21.177084 L64.0312493,39.1718747 Z" id="Path" fill="#1A1A1A" fill-rule="nonzero"></path>
            <path d="M62.9010413,38.369792 C62.9895827,38.4166667 63.067708,38.4687507 63.1562493,38.5208333 L90.6562493,17.3541667 L62.9010413,38.369792 Z" id="Path" fill="#1A1A1A" fill-rule="nonzero"></path>
            <path d="M50.5781253,66.2864587 L53.5520827,95.364584 L50.8020827,66.25 C50.7291667,66.2656253 50.6510413,66.2812507 50.5781253,66.2864587 Z" id="Path" fill="#1A1A1A" fill-rule="nonzero"></path>
            <path d="M52.1093747,65.864584 L57.0989573,92.505208 L52.317708,65.7760427 C52.25,65.807292 52.1822907,65.8385413 52.1093747,65.864584 Z" id="Path" fill="#1A1A1A" fill-rule="nonzero"></path>
            <path d="M52.7812493,65.5468747 L58.3072907,90.4583333 L52.8541667,65.5104173 C52.8333333,65.5260427 52.8072907,65.5364587 52.7812493,65.5468747 Z" id="Path" fill="#1A1A1A" fill-rule="nonzero"></path>
            <path d="M51.1770827,66.1614587 L55.5468747,96.182292 L51.5937493,66.0416667 C51.4635413,66.0885413 51.317708,66.125 51.1770827,66.1614587 Z" id="Path" fill="#1A1A1A" fill-rule="nonzero"></path>
            <g id="Clipped" transform="translate(48.5885, 65.4115)">
                <mask id="mask-2" fill="white">
                    <use xlink:href="#path-1"></use>
                </mask>
                <g id="Path"></g>
                <path d="M0.963541333,1.005208 L3.20312533,35.5885413 L1.432292,0.963541333 C1.28125067,0.979166667 1.125,0.994792 0.963541333,1.005208 Z" id="Path" fill="#1A1A1A" fill-rule="nonzero" mask="url(#mask-2)"></path>
            </g>
            <path d="M48.697916,35.130208 L48.0416667,2.677084 L48.4531253,35.1562507 C48.5312493,35.1406253 48.6145827,35.130208 48.697916,35.130208 Z" id="Path" fill="#1A1A1A" fill-rule="nonzero"></path>
            <path d="M48.067708,35.1927093 C48.125,35.1875 48.1875,35.182292 48.25,35.177084 L46.135416,3.3125 L47.7708333,35.2239587 C47.8645827,35.2135413 47.9635413,35.2031253 48.067708,35.1927093 Z" id="Path" fill="#1A1A1A" fill-rule="nonzero"></path>
            <path d="M47.385416,35.244792 L44.260416,5.234376 L47.1458333,35.2604173 C47.2239573,35.255208 47.3072907,35.25 47.385416,35.244792 Z" id="Path" fill="#1A1A1A" fill-rule="nonzero"></path>
            <path d="M92.7239573,44.6406253 L70.197916,47.6458333 C70.2812493,47.6562507 70.369792,47.6614587 70.4583333,47.6718747 L92.7239573,44.6406253 Z" id="Path" fill="#1A1A1A" fill-rule="nonzero"></path>
            <path d="M72.197916,48.489584 L95.3385413,46.484376 L72.015624,48.1666667 C72.0833333,48.2604173 72.1458333,48.375 72.197916,48.489584 Z" id="Path" fill="#1A1A1A" fill-rule="nonzero"></path>
            <path d="M50.0312493,35.0364587 L52.3489573,1.8125 L49.7812493,35.0468747 C49.8645827,35.0416667 49.947916,35.0416667 50.0312493,35.0364587 Z" id="Path" fill="#1A1A1A" fill-rule="nonzero"></path>
            <path d="M51.369792,35.0364587 L55.5937493,7.64583333 L51.135416,35.0260427 C51.2135413,35.0312507 51.2968747,35.0364587 51.369792,35.0364587 Z" id="Path" fill="#1A1A1A" fill-rule="nonzero"></path>
            <g id="Clipped" transform="translate(48.5885, 0)">
                <mask id="mask-4" fill="white">
                    <use xlink:href="#path-3"></use>
                </mask>
                <g id="Path"></g>
                <path d="M0.895833333,35.0625 L1.17708267,0 L0.385416,35.0989587 C0.557292,35.0833333 0.723958667,35.0729173 0.895833333,35.0625 Z" id="Path" fill="#1A1A1A" fill-rule="nonzero" mask="url(#mask-4)"></path>
            </g>
            <path d="M27.1822907,52.5 L2.79166667,54.6979173 L26.994792,52.7031253 C27.0572907,52.6354173 27.119792,52.5677093 27.1822907,52.5 Z" id="Path" fill="#1A1A1A" fill-rule="nonzero"></path>
            <path d="M29.3020827,48.9479173 C29.375,48.8281253 29.447916,48.7083333 29.5260413,48.5885413 L5.60416667,46.5729173 L29.3020827,48.9479173 Z" id="Path" fill="#1A1A1A" fill-rule="nonzero"></path>
            <path d="M26.4583333,53.4531253 L4.91666667,56.4739587 L26.2968747,53.8229173 C26.3385413,53.6979173 26.3958333,53.5729173 26.4583333,53.4531253 Z" id="Path" fill="#1A1A1A" fill-rule="nonzero"></path>
            <path d="M30.640624,47.0833333 L8.30729067,42.5885413 L30.5833333,47.1458333 C30.5989573,47.125 30.619792,47.1041667 30.640624,47.0833333 Z" id="Path" fill="#1A1A1A" fill-rule="nonzero"></path>
            <path d="M10.067708,59.057292 L26.260416,55.6875 C26.255208,55.6666667 26.25,55.6562507 26.2395827,55.6354173 L10.067708,59.057292 Z" id="Path" fill="#1A1A1A" fill-rule="nonzero"></path>
            <path d="M26.119792,54.6979173 L5.60937467,58.2968747 L26.1145827,54.869792 C26.1093747,54.8125 26.1145827,54.755208 26.119792,54.6979173 Z" id="Path" fill="#1A1A1A" fill-rule="nonzero"></path>
            <g id="Clipped" transform="translate(0, 50.7448)">
                <mask id="mask-6" fill="white">
                    <use xlink:href="#path-5"></use>
                </mask>
                <g id="Path"></g>
                <path d="M27.8593747,0.911458667 C27.890624,0.838541333 27.9270827,0.770833333 27.9635413,0.697917333 L0.015624,2.41145867 L27.765624,1.114584 C27.7968747,1.04166667 27.822916,0.973958667 27.8593747,0.911458667 Z" id="Path" fill="#1A1A1A" fill-rule="nonzero" mask="url(#mask-6)"></path>
            </g>
            <path d="M29,49.4583333 L2.79687467,48.380208 L28.8958333,49.6562507 C28.9322907,49.5885413 28.9635413,49.5208333 29,49.4583333 Z" id="Path" fill="#1A1A1A" fill-rule="nonzero"></path>
            <path d="M30.010416,47.880208 L4.98437467,44.932292 L29.875,48.0677093 C29.9218747,48.005208 29.9635413,47.9375 30.010416,47.880208 Z" id="Path" fill="#1A1A1A" fill-rule="nonzero"></path>
            <path d="M28.4531253,50.4635413 L1.640624,50.4479173 L28.3489573,50.6614587 C28.385416,50.5937507 28.4218747,50.5312507 28.4531253,50.4635413 Z" id="Path" fill="#1A1A1A" fill-rule="nonzero"></path>
            <path d="M46.765624,35.2812507 L43.0520827,7.64583333 L46.6822907,35.2916667 C46.7083333,35.2864587 46.7395827,35.2812507 46.765624,35.2812507 Z" id="Path" fill="#1A1A1A" fill-rule="nonzero"></path>
            <path d="M52.697916,35.130208 L58.5468747,11.0260427 L52.6093747,35.130208 C52.640624,35.130208 52.6666667,35.130208 52.697916,35.130208 Z" id="Path" fill="#1A1A1A" fill-rule="nonzero"></path>
            <path d="M48.9635413,66.4479173 L49.255208,99.6354173 L49.1875,66.4427093 C49.1145827,66.4427093 49.0364587,66.4427093 48.9635413,66.4479173 Z" id="Path" fill="#1A1A1A" fill-rule="nonzero"></path>
            <path d="M46.6041667,66.2864587 L43.7760413,93.2916667 L46.817708,66.3177093 C46.75,66.3125 46.6770827,66.302084 46.6041667,66.2864587 Z" id="Path" fill="#1A1A1A" fill-rule="nonzero"></path>
            <path d="M45.8281253,66.1614587 L41.7239573,91.7239587 L45.9010413,66.1718747 C45.875,66.1718747 45.8541667,66.1666667 45.8281253,66.1614587 Z" id="Path" fill="#1A1A1A" fill-rule="nonzero"></path>
            <path d="M47.2708333,66.375 L45.2968747,96.4583333 L47.6875,66.4114587 C47.5520827,66.4010427 47.4114587,66.3906253 47.2708333,66.375 Z" id="Path" fill="#1A1A1A" fill-rule="nonzero"></path>
            <path d="M47.2968747,97.177084 L48.2916667,66.4427093 C48.2187493,66.4427093 48.1458333,66.4375 48.067708,66.4375 L47.2968747,97.177084 Z" id="Path" fill="#1A1A1A" fill-rule="nonzero"></path>
            <g id="Clipped" transform="translate(69.9219, 50.7448)">
                <mask id="mask-8" fill="white">
                    <use xlink:href="#path-7"></use>
                </mask>
                <g id="Path"></g>
                <path d="M1.02083333,0.390625333 C0.890625333,0.526041333 0.75,0.656250667 0.609374667,0.776041333 L28.0625,1.33854133 L1.02083333,0.390625333 Z" id="Path" fill="#1A1A1A" fill-rule="nonzero" mask="url(#mask-8)"></path>
            </g>
            <path d="M69.6510413,52.2656253 C69.5937493,52.3281253 69.5312493,52.3906253 69.4687493,52.4531253 L96.140624,54.6510427 L69.6510413,52.2656253 Z" id="Path" fill="#1A1A1A" fill-rule="nonzero"></path>
            <path d="M68.755208,53.0989587 C68.6093747,53.2187507 68.4583333,53.3333333 68.3125,53.4427093 L93.697916,56.4583333 L68.755208,53.0989587 Z" id="Path" fill="#1A1A1A" fill-rule="nonzero"></path>
            <path d="M67.7239573,53.859376 C67.6458333,53.9114587 67.567708,53.9635413 67.4895827,54.0156253 L90.2864587,57.8281253 L67.7239573,53.859376 Z" id="Path" fill="#1A1A1A" fill-rule="nonzero"></path>
            <path d="M66.7395827,54.7083333 L92.3593747,59.875 L66.9010413,54.5312507 C66.8489573,54.5885413 66.7968747,54.6510427 66.7395827,54.7083333 Z" id="Path" fill="#1A1A1A" fill-rule="nonzero"></path>
            <path d="M66.1041667,55.4114587 L86.880208,60.744792 L66.1562493,55.3489587 C66.135416,55.375 66.1145827,55.3906253 66.1041667,55.4114587 Z" id="Path" fill="#1A1A1A" fill-rule="nonzero"></path>
            <path d="M72.380208,49.380208 C72.380208,49.4218747 72.380208,49.4583333 72.380208,49.494792 L95.3385413,48.375 L72.380208,49.3281253 L72.380208,49.380208 Z" id="Path" fill="#1A1A1A" fill-rule="nonzero"></path>
            <path d="M72.0937493,50.505208 L96.7187493,49.9791667 L72.192708,50.3281253 C72.1614587,50.3906253 72.130208,50.4531253 72.0937493,50.505208 Z" id="Path" fill="#1A1A1A" fill-rule="nonzero"></path>
            <path d="M52.1718747,35.0833333 L57.6093747,5.54166667 L51.697916,35.057292 C51.8541667,35.0625 52.015624,35.0677093 52.1718747,35.0833333 Z" id="Path" fill="#1A1A1A" fill-rule="nonzero"></path>
            <path d="M50.8020827,35.0260427 L54.1822907,4.244792 L50.5625,35.0208333 C50.640624,35.0260427 50.7239573,35.0260427 50.8020827,35.0260427 Z" id="Path" fill="#1A1A1A" fill-rule="nonzero"></path>
            <path d="M26.8385413,52.8489587 C27.1770827,52.6041667 27.4010413,52.3437507 27.4895827,52.1354173 C27.5364587,52.0364587 27.5625,51.9531253 27.572916,51.8958333 C27.5781253,51.8385413 27.5885413,51.8125 27.5885413,51.8125 C27.5885413,51.8125 27.572916,51.8385413 27.5520827,51.8906253 C27.5312493,51.9427093 27.4895827,52.0208333 27.4270827,52.109376 C27.3020827,52.2812507 27.0625,52.494792 26.7083333,52.682292 C26.5312493,52.7812507 26.3281253,52.869792 26.1093747,53.005208 C25.885416,53.130208 25.6510413,53.369792 25.5937493,53.677084 C25.5312493,53.9791667 25.635416,54.2968747 25.7968747,54.557292 C25.875,54.6875 25.994792,54.8385413 26.1458333,54.9427093 C26.3020827,55.0468747 26.4895827,55.114584 26.6718747,55.1406253 C27.0520827,55.1927093 27.4062493,55.114584 27.7083333,54.9739587 C27.8593747,54.9062507 28,54.8229173 28.119792,54.7187507 C28.1822907,54.6718747 28.2343747,54.609376 28.2864587,54.552084 L28.3541667,54.4583333 C28.3437493,54.4687507 28.375,54.4375 28.4010413,54.4166667 C28.765624,54.0625 29.1718747,53.8281253 29.5520827,53.880208 C29.9270827,53.927084 30.2083333,54.1406253 30.3958333,54.2604173 C30.5833333,54.3854173 30.6822907,54.4687507 30.6822907,54.4687507 C30.6822907,54.4687507 30.6041667,54.375 30.442708,54.2083333 C30.2760413,54.0625 30.0468747,53.802084 29.5937493,53.682292 C29.369792,53.625 29.0937493,53.6406253 28.8385413,53.739584 C28.5885413,53.8385413 28.3593747,53.989584 28.140624,54.1614587 C28.1145827,54.1875 28.0885413,54.1927093 28.0416667,54.255208 L27.9843747,54.3229173 C27.942708,54.359376 27.9062493,54.4010427 27.8593747,54.4375 C27.760416,54.505208 27.6458333,54.5677093 27.5260413,54.619792 C27.2864587,54.7239587 27.010416,54.7708333 26.75,54.734376 C26.4895827,54.6927093 26.3333333,54.557292 26.1666667,54.359376 C25.9739573,54.1354173 25.9218747,53.9166667 25.9739573,53.7291667 C26,53.3177093 26.515624,53.1041667 26.8385413,52.8489587 Z" id="Path" fill="#1A1A1A" fill-rule="nonzero"></path>
            <path d="M66.2812493,55.4635413 C65.4166667,56.0937507 64.0885413,56.9218747 62.3541667,57.7656253 C60.619792,58.625 58.4531253,59.4583333 55.9791667,60.1614587 C53.505208,60.8333333 50.692708,61.375 47.7343747,61.3958333 C44.7760413,61.4166667 41.9635413,60.927084 39.5468747,60.1458333 C37.1145827,59.375 35.0625,58.3385413 33.4583333,57.3177093 C33.0520827,57.0677093 32.6770827,56.8177093 32.3333333,56.5625 C31.9739573,56.3229173 31.6614587,56.0729173 31.3645827,55.8437507 C31.0625,55.619792 30.7968747,55.3906253 30.515624,55.1979173 C30.2343747,55.0156253 29.9166667,54.8854173 29.6145827,54.8906253 C29.3333333,54.9010427 29.067708,54.932292 28.885416,55.052084 C28.7968747,55.0833333 28.697916,55.119792 28.5989573,55.182292 C28.4062493,55.2864587 28.2239573,55.4531253 28.0208333,55.614584 C27.8125,55.7812507 27.5625,55.9218747 27.244792,55.9739587 C26.9322907,56.0312507 26.567708,56.0156253 26.2239573,55.8906253 C25.885416,55.7656253 25.5625,55.5260427 25.375,55.1875 C25.1822907,54.859376 25.135416,54.4218747 25.25,54.0364587 C25.3072907,53.8541667 25.6093747,53.619792 25.9322907,53.359376 C26.1041667,53.2291667 26.2812493,53.0937507 26.4687493,52.9479173 C26.6614587,52.7916667 26.8645827,52.6562507 27.0989573,52.3437507 C27.817708,51.2916667 28.5989573,50.0885413 29.567708,48.9010427 C30.0572907,48.3125 30.6093747,47.744792 31.25,47.182292 C31.5625,46.9010427 31.8958333,46.614584 32.2395827,46.3229173 C32.4114587,46.177084 32.5833333,46.0312507 32.760416,45.880208 C32.9375,45.744792 33.119792,45.609376 33.2968747,45.4687507 C33.6510413,45.1927093 34.015624,44.9114587 34.385416,44.625 C34.7812493,44.369792 35.1770827,44.114584 35.5781253,43.8489587 C35.7812493,43.7187507 35.9843747,43.5885413 36.192708,43.4583333 C36.4062493,43.3385413 36.625,43.2291667 36.8437493,43.109376 C37.2812493,42.880208 37.7239573,42.6354173 38.1770827,42.4114587 C38.7031253,42.1666667 39.255208,41.9427093 39.8125,41.7239587 C41.197916,41.1927093 42.6614587,40.739584 44.1875,40.4010427 C46.2760413,39.984376 48.3593747,39.807292 50.375,39.8177093 C50.875,39.8489587 51.375,39.875 51.869792,39.9062507 C52.015624,39.9114587 52.1614587,39.9218747 52.3072907,39.927084 C52.4062493,39.932292 52.505208,39.9375 52.6041667,39.9531253 C52.8437493,39.984376 53.0833333,40.0208333 53.322916,40.052084 C53.7968747,40.125 54.2812493,40.1666667 54.744792,40.2656253 C55.2083333,40.364584 55.6614587,40.4687507 56.1145827,40.5625 C59.7343747,41.3906253 62.640624,43.0625 64.8541667,44.682292 C67.0468747,46.369792 68.7812493,47.9010427 70.265624,48.609376 C71,48.9635413 71.6458333,49.109376 72.0781253,49.130208 C72.2968747,49.1510427 72.4635413,49.1458333 72.572916,49.1354173 C72.6822907,49.130208 72.7395827,49.125 72.7395827,49.125 C72.7395827,49.125 72.6822907,49.119792 72.572916,49.114584 C72.4635413,49.109376 72.3020827,49.0937507 72.0885413,49.057292 C71.6770827,48.984376 71.0833333,48.7812507 70.4270827,48.369792 C69.0937493,47.552084 67.5885413,45.9114587 65.510416,44.0156253 C63.385416,42.1614587 60.4114587,40.1718747 56.5781253,39.114584 C56.1041667,38.984376 55.6145827,38.864584 55.130208,38.7291667 C54.640624,38.609376 54.125,38.5416667 53.6145827,38.4479173 C53.3541667,38.4010427 53.0989573,38.359376 52.8385413,38.3125 C52.5781253,38.2760427 52.317708,38.2604173 52.0468747,38.234376 C51.5208333,38.1927093 50.9791667,38.1458333 50.442708,38.1041667 C48.265624,38.0416667 46.010416,38.2031253 43.75,38.6562507 C41.4322907,39.1666667 39.255208,39.9427093 37.2864587,40.9062507 C36.8072907,41.1614587 36.3385413,41.4375 35.875,41.6979173 C35.6458333,41.8333333 35.4114587,41.9531253 35.1875,42.0937507 C34.9739573,42.244792 34.760416,42.3906253 34.5520827,42.5364587 C34.130208,42.8333333 33.7031253,43.119792 33.3020827,43.4166667 C32.9166667,43.739584 32.5468747,44.057292 32.1770827,44.375 C31.8072907,44.6875 31.4531253,44.994792 31.135416,45.3125 C30.8072907,45.630208 30.4791667,45.9375 30.1718747,46.255208 C29.994792,46.432292 29.817708,46.614584 29.6510413,46.7968747 C30.1041667,45.8906253 30.755208,44.807292 31.6614587,43.6406253 C31.9531253,43.2187507 32.3437493,42.8333333 32.7031253,42.4062507 C33.0833333,41.989584 33.515624,41.5833333 33.9531253,41.1614587 C34.869792,40.3489587 35.890624,39.5208333 37.072916,38.7864587 C38.255208,38.052084 39.5468747,37.3437507 40.9739573,36.7864587 C42.4010413,36.2291667 43.9322907,35.7708333 45.5416667,35.4791667 C48.7708333,34.927084 51.9583333,35.0260427 54.760416,35.5468747 C56.1666667,35.7864587 57.4635413,36.1718747 58.6770827,36.5416667 C59.869792,36.9583333 60.9635413,37.3906253 61.9218747,37.859376 C63.8489573,38.7812507 65.3125,39.7135413 66.265624,40.4114587 C66.755208,40.744792 67.0989573,41.052084 67.3541667,41.234376 C67.5989573,41.427084 67.7291667,41.5260427 67.7291667,41.5260427 C67.7291667,41.5260427 67.6093747,41.4166667 67.380208,41.2031253 C67.1458333,41.005208 66.8333333,40.6718747 66.3645827,40.302084 C65.4635413,39.5312507 64.067708,38.505208 62.1614587,37.4635413 C61.2135413,36.9375 60.119792,36.4427093 58.9166667,35.9687507 C57.7031253,35.5364587 56.380208,35.0937507 54.9322907,34.807292 C52.0625,34.1875 48.7395827,34.0208333 45.3541667,34.5989587 C43.6666667,34.9062507 42.067708,35.4010427 40.5937493,36.005208 C39.1093747,36.6041667 37.7916667,37.380208 36.5937493,38.1718747 C35.3958333,38.9791667 34.375,39.869792 33.4739573,40.739584 C33.0364587,41.1979173 32.625,41.6354173 32.255208,42.0729173 C31.9062493,42.5364587 31.5364587,42.9479173 31.260416,43.3906253 C30.2239573,44.8958333 29.5781253,46.2656253 29.2083333,47.307292 C28.9531253,47.609376 28.7083333,47.9114587 28.494792,48.2187507 C27.5625,49.557292 26.8958333,50.8229173 26.2812493,51.927084 C26.2239573,52.0364587 26.0364587,52.2187507 25.875,52.364584 C25.7031253,52.5208333 25.5364587,52.6718747 25.380208,52.8125 C25.2187493,52.9635413 25.067708,53.109376 24.9218747,53.2760427 C24.7916667,53.427084 24.6145827,53.6458333 24.572916,53.880208 C24.4635413,54.4739587 24.5937493,55.0208333 24.9010413,55.4375 C25.192708,55.864584 25.6458333,56.1354173 26.0885413,56.25 C26.9791667,56.484376 27.7916667,56.1510427 28.1562493,55.739584 C28.3020827,55.5625 28.4375,55.432292 28.5781253,55.3281253 C28.6718747,55.2656253 28.7708333,55.1979173 28.9010413,55.130208 C28.9114587,55.125 28.9218747,55.119792 28.9322907,55.114584 C28.9635413,55.0937507 29.005208,55.0833333 29.0468747,55.0677093 C29.0520827,55.0625 29.0572907,55.0625 29.0625,55.057292 C29.2187493,55.0156253 29.4010413,55.0156253 29.6041667,55.0208333 C29.8593747,55.0312507 30.125,55.1614587 30.3645827,55.3541667 C30.6145827,55.5468747 30.8593747,55.7916667 31.1458333,56.0416667 C31.4270827,56.2968747 31.7239573,56.5677093 32.067708,56.8333333 C32.4010413,57.109376 32.765624,57.3854173 33.1614587,57.6614587 C34.7239573,58.7968747 36.7708333,59.9583333 39.255208,60.8385413 C41.7239573,61.7291667 44.6510413,62.2968747 47.7395827,62.2760427 C50.8385413,62.255208 53.7239573,61.6354173 56.2343747,60.864584 C58.7395827,60.0729173 60.8958333,59.109376 62.5937493,58.1458333 C64.2968747,57.182292 65.567708,56.255208 66.380208,55.557292 C66.8020827,55.2291667 67.0833333,54.9218747 67.2968747,54.734376 C67.5,54.5468747 67.6041667,54.4427093 67.6041667,54.4427093 C67.6041667,54.4427093 67.4895827,54.5364587 67.265624,54.7083333 C67.0312493,54.8958333 66.7291667,55.1666667 66.2812493,55.4635413 Z" id="Path" fill="#1A1A1A" fill-rule="nonzero"></path>
            <path d="M66.0625,59.6718747 C65.375,60.427084 64.25,61.432292 62.6666667,62.427084 C61.0833333,63.4166667 59.067708,64.427084 56.692708,65.2187507 C55.5,65.619792 54.2291667,65.9375 52.890624,66.2031253 C51.5468747,66.4427093 50.140624,66.5885413 48.7031253,66.5833333 C45.8281253,66.552084 43.1145827,65.8854173 40.7916667,65.0208333 C38.4635413,64.1406253 36.4843747,63.0781253 34.9583333,62.0260427 C33.4218747,60.9791667 32.3020827,59.9791667 31.6041667,59.2291667 C31.2291667,58.875 30.9895827,58.557292 30.8125,58.3541667 C30.635416,58.1510427 30.5416667,58.0468747 30.5416667,58.0468747 C30.5416667,58.0468747 30.625,58.1614587 30.7760413,58.380208 C30.9375,58.5937507 31.1458333,58.932292 31.4843747,59.3229173 C32.1145827,60.125 33.1614587,61.2187507 34.6510413,62.375 C36.135416,63.5416667 38.0885413,64.7291667 40.4583333,65.7187507 C41.6510413,66.1979173 42.9322907,66.6458333 44.317708,66.9479173 C45.7031253,67.255208 47.1666667,67.489584 48.692708,67.4791667 C50.2187493,67.484376 51.692708,67.3125 53.0833333,67.0416667 C54.4687493,66.739584 55.7864587,66.369792 56.9843747,65.9218747 C59.4062493,65.0312507 61.4114587,63.8906253 62.9583333,62.7864587 C64.510416,61.677084 65.5625,60.5677093 66.1875,59.755208 C66.515624,59.3541667 66.7187493,59.0156253 66.8541667,58.7864587 C66.994792,58.557292 67.067708,58.4375 67.067708,58.4375 C67.067708,58.4375 66.9791667,58.552084 66.817708,58.7656253 C66.6562493,58.984376 66.4270827,59.302084 66.0625,59.6718747 Z" id="Path" fill="#1A1A1A" fill-rule="nonzero"></path>
            <path d="M62.3958333,48.625 C62.369792,48.614584 62.3385413,48.609376 62.3125,48.6041667 C62.3385413,48.609376 62.369792,48.614584 62.3958333,48.625 Z" id="Path" fill="#1A1A1A" fill-rule="nonzero"></path>
            <path d="M73.8437493,49.6614587 C73.5520827,49.7760427 73.0937493,49.9010427 72.5,49.989584 C71.9062493,50.057292 71.1666667,50.057292 70.3281253,49.927084 C69.494792,49.802084 68.5625,49.552084 67.5572907,49.2031253 C66.5520827,48.8541667 65.4791667,48.4010427 64.2968747,47.9114587 C63.1041667,47.427084 61.8020827,46.9479173 60.4010413,46.5104173 C59.6822907,46.2864587 58.9270827,46.0781253 58.1562493,45.880208 C57.5364587,45.7239587 56.8958333,45.5781253 56.244792,45.4479173 C54.572916,45.1041667 52.8072907,44.8437507 50.9687493,44.7187507 C50.7760413,44.7031253 50.5781253,44.6979173 50.385416,44.6927093 C48.3645827,44.5833333 46.390624,44.6562507 44.5260413,44.875 C43.4114587,45.0104173 42.3385413,45.1927093 41.317708,45.4218747 C40.385416,45.630208 39.494792,45.880208 38.6510413,46.1510427 C38.1875,46.2968747 37.7291667,46.4531253 37.2864587,46.619792 C37.1093747,46.6875 36.9322907,46.7604173 36.755208,46.8333333 C35.744792,47.239584 34.817708,47.6718747 33.9895827,48.109376 C32.0572907,49.1562507 30.6562493,50.2135413 29.75,50.989584 C29.2916667,51.369792 28.9635413,51.6927093 28.7395827,51.9114587 C28.515624,52.125 28.4010413,52.239584 28.4010413,52.239584 C28.4010413,52.239584 28.5416667,52.1458333 28.7968747,51.9687507 C29.0520827,51.7864587 29.4322907,51.5208333 29.942708,51.2083333 C30.9531253,50.5729173 34.1718747,49.1041667 36.25,48.5364587 C47.875,45.3385413 53.3385413,46.6458333 58.625,47.6666667 C59.0625,47.7604173 63.390624,48.932292 63.7968747,49.0625 C65.015624,49.4479173 66.1718747,49.8125 67.260416,50.0677093 C68.3489573,50.3281253 69.369792,50.4791667 70.2708333,50.505208 C71.1770827,50.5312507 71.9583333,50.427084 72.567708,50.2760427 C73.1718747,50.0989587 73.6093747,49.9062507 73.890624,49.744792 C74.1614587,49.5833333 74.3072907,49.494792 74.3072907,49.494792 C74.3072907,49.494792 74.140624,49.5468747 73.8437493,49.6614587 Z" id="Path" fill="#1A1A1A" fill-rule="nonzero"></path>
            <path d="M57.0312493,43.755208 C55.8645827,43.4114587 54.6145827,43.0781253 53.2812493,42.9062507 C51.9531253,42.7239587 50.567708,42.609376 49.1458333,42.5937507 C46.2968747,42.5416667 43.572916,42.8854173 41.2031253,43.5416667 C38.8333333,44.2187507 36.875,45.2031253 35.2916667,46.0833333 C33.7031253,46.9739587 32.5,47.7968747 31.6770827,48.375 C30.8593747,48.9531253 30.4166667,49.2916667 30.4166667,49.2916667 C30.4166667,49.2916667 30.885416,48.984376 31.7239573,48.432292 C32.572916,47.8906253 33.817708,47.114584 35.4166667,46.2708333 C37.0208333,45.4479173 38.994792,44.5208333 41.3281253,43.9010427 C43.6614587,43.2968747 46.3385413,42.989584 49.140624,43.0364587 C50.5416667,43.057292 51.9062493,43.1614587 53.2135413,43.3281253 C54.5208333,43.484376 55.744792,43.7968747 56.9114587,44.114584 C59.2343747,44.755208 61.244792,45.5729173 62.9270827,46.2708333 C64.6041667,46.9739587 65.9687493,47.5468747 66.9166667,47.9114587 C67.869792,48.2864587 68.4010413,48.4791667 68.4010413,48.4791667 C68.4010413,48.4791667 67.885416,48.255208 66.9531253,47.8489587 C66.0208333,47.4375 64.6875,46.8177093 63.0312493,46.0677093 C61.369792,45.3281253 59.375,44.4531253 57.0312493,43.755208 Z" id="Path" fill="#1A1A1A" fill-rule="nonzero"></path>
            <path d="M35.697916,61.119792 C38.2812493,62.6406253 42.369792,63.984376 47.0572907,64.369792 C49.4062493,64.5416667 51.6666667,64.3229173 53.6458333,63.8958333 C55.630208,63.4739587 57.3489573,62.869792 58.7343747,62.2656253 C60.125,61.6666667 61.1822907,61.052084 61.8489573,60.557292 C62.1822907,60.3125 62.4270827,60.0989587 62.5833333,59.9531253 C62.7343747,59.802084 62.817708,59.7239587 62.817708,59.7239587 C62.817708,59.7239587 62.7291667,59.802084 62.567708,59.9375 C62.4062493,60.0781253 62.1510413,60.2760427 61.8020827,60.505208 C61.119792,60.9635413 60.0364587,61.5156253 58.635416,62.0677093 C55.8541667,63.1458333 51.7135413,64.2760427 47.0989573,63.932292 C42.505208,63.5468747 38.4270827,62.3385413 35.8281253,60.932292 C34.5208333,60.234376 33.5572907,59.5312507 32.9218747,59.0156253 C32.6041667,58.7604173 32.369792,58.5468747 32.2083333,58.4062507 C32.0468747,58.2604173 31.9635413,58.182292 31.9635413,58.182292 C31.9635413,58.182292 32.0468747,58.2656253 32.192708,58.4114587 C32.3437493,58.5677093 32.567708,58.7916667 32.869792,59.0625 C33.4791667,59.609376 34.4114587,60.364584 35.697916,61.119792 Z" id="Path" fill="#1A1A1A" fill-rule="nonzero"></path>
            <path d="M48.8593747,53.7916667 C51.6718747,53.9479173 54.0833333,51.7812507 54.244792,48.9635413 C54.2968747,48.0260427 54.0833333,47.1354173 53.6822907,46.3541667 C53.0416667,46.2708333 52.4062493,46.2135413 51.7812493,46.1614587 C52.4531253,46.869792 52.8489573,47.8385413 52.7864587,48.8854173 C52.6770827,50.8958333 50.9531253,52.4479173 48.942708,52.3333333 C46.9322907,52.2239587 45.390624,50.489584 45.505208,48.4791667 C45.5520827,47.5937507 45.9166667,46.7968747 46.4791667,46.1979173 C45.8437493,46.255208 45.2083333,46.3281253 44.5833333,46.4218747 C44.2812493,47.0260427 44.0885413,47.6875 44.0468747,48.4010427 C43.890624,51.2135413 46.0520827,53.630208 48.8593747,53.7916667 Z" id="Path" fill="#1A1A1A" fill-rule="nonzero"></path>
            <path d="M43.7031253,52.2135413 C44.1822907,52.9218747 44.6718747,53.369792 45.0260413,53.6354173 C45.197916,53.7760427 45.3437493,53.859376 45.442708,53.9166667 C45.5364587,53.9739587 45.5833333,54.0104173 45.5833333,54.0104173 C45.5833333,54.0104173 45.5416667,53.9739587 45.4531253,53.9062507 C45.369792,53.8333333 45.2395827,53.739584 45.0885413,53.5833333 C44.7812493,53.2864587 44.3645827,52.807292 43.9791667,52.0989587 C43.6145827,51.3854173 43.255208,50.4375 43.1822907,49.307292 C43.135416,48.75 43.192708,48.1458333 43.3072907,47.5104173 C43.369792,47.182292 43.4687493,46.8541667 43.619792,46.5833333 C43.3125,46.6406253 43.010416,46.6979173 42.7083333,46.7604173 C42.6562493,46.9687507 42.6145827,47.1718747 42.5885413,47.369792 C42.5468747,47.7239587 42.5312493,48.0416667 42.5260413,48.375 C42.515624,48.7083333 42.5520827,49.0260427 42.5937493,49.3281253 C42.7812493,50.5416667 43.244792,51.505208 43.7031253,52.2135413 Z" id="Path" fill="#1A1A1A" fill-rule="nonzero"></path>
            <path d="M41.380208,50.6875 C41.765624,51.9739587 42.3125,53.005208 42.880208,53.75 C43.447916,54.5 44.0312493,54.9635413 44.4322907,55.2291667 C44.640624,55.364584 44.817708,55.432292 44.9270827,55.494792 C45.0364587,55.552084 45.0937493,55.5833333 45.0937493,55.5833333 C45.0937493,55.5833333 44.880208,55.4479173 44.494792,55.1718747 C44.135416,54.864584 43.625,54.3854173 43.1510413,53.625 C42.6718747,52.864584 42.2343747,51.8437507 41.9635413,50.5937507 C41.8385413,49.9739587 41.7395827,49.2968747 41.75,48.5833333 C41.760416,48.0312507 41.822916,47.4531253 41.994792,46.9166667 C41.692708,46.984376 41.385416,47.0625 41.0833333,47.1458333 C41.005208,47.6354173 40.994792,48.114584 41.015624,48.5625 C41.0572907,49.3333333 41.2031253,50.0416667 41.380208,50.6875 Z" id="Path" fill="#1A1A1A" fill-rule="nonzero"></path>
            <path d="M54.4531253,51.9010427 C54.005208,52.614584 53.5468747,53.0989587 53.2135413,53.3958333 C52.875,53.6927093 52.6562493,53.802084 52.6562493,53.802084 C52.6562493,53.802084 52.880208,53.7291667 53.25,53.4791667 C53.619792,53.2239587 54.140624,52.7968747 54.6718747,52.109376 C54.9322907,51.7656253 55.2187493,51.364584 55.4166667,50.8437507 C55.6041667,50.3437507 55.760416,49.7760427 55.8385413,49.1406253 C55.9062493,48.5104173 55.8958333,47.807292 55.7135413,47.0833333 C55.6718747,46.9375 55.619792,46.7916667 55.567708,46.6458333 C55.255208,46.5885413 54.9375,46.5416667 54.630208,46.494792 C54.7812493,46.739584 54.9010413,46.994792 54.994792,47.2656253 C55.197916,47.864584 55.2708333,48.484376 55.25,49.057292 C55.2291667,49.6354173 55.1458333,50.177084 55.005208,50.6614587 C54.8958333,51.1354173 54.6718747,51.5416667 54.4531253,51.9010427 Z" id="Path" fill="#1A1A1A" fill-rule="nonzero"></path>
            <path d="M56.369792,50.1875 C56.1562493,51.4062507 55.7187493,52.4062507 55.2291667,53.1354173 C54.7187493,53.8489587 54.2031253,54.3437507 53.8645827,54.6666667 C53.515624,54.984376 53.2916667,55.1041667 53.2916667,55.1041667 C53.2916667,55.1041667 53.5260413,55.0208333 53.9114587,54.739584 C54.2864587,54.4583333 54.8333333,54.0364587 55.447916,53.3541667 C56.0260413,52.6458333 56.6041667,51.6458333 56.9322907,50.359376 C57.1875,49.369792 57.322916,48.1979173 57.135416,46.9427093 C56.8385413,46.880208 56.5468747,46.8229173 56.255208,46.7656253 C56.572916,47.9635413 56.5468747,49.1614587 56.369792,50.1875 Z" id="Path" fill="#1A1A1A" fill-rule="nonzero"></path>
            <path d="M63.4895827,49.4166667 C63.4895827,49.4166667 63.072916,49.25 62.3125,48.9375 C61.5833333,48.6666667 60.5833333,48.2291667 59.244792,47.859376 C59.2343747,47.7239587 59.2239573,47.5833333 59.2083333,47.4427093 C58.692708,47.307292 58.1822907,47.182292 57.6770827,47.0677093 C57.8072907,47.744792 57.8645827,48.4427093 57.8281253,49.1666667 C57.5572907,53.9635413 53.4531253,57.6458333 48.6666667,57.375 C43.880208,57.109376 40.2083333,52.989584 40.4739573,48.1979173 C40.494792,47.8854173 40.5364587,47.5781253 40.5885413,47.2812507 C40.072916,47.432292 39.5625,47.5885413 39.0572907,47.755208 C39.0520827,47.7968747 39.0468747,47.8437507 39.0416667,47.8854173 C37.9270827,48.255208 37.0208333,48.6354173 36.4062493,48.9739587 C35.692708,49.364584 35.3125,49.6041667 35.3125,49.6041667 C35.3125,49.6041667 35.7135413,49.432292 36.4531253,49.119792 C37.0625,48.8541667 37.9375,48.5885413 39.0260413,48.302084 C39.0208333,48.484376 39.0208333,48.6614587 39.0208333,48.8385413 C38.380208,48.994792 37.8437493,49.1458333 37.4531253,49.307292 C36.875,49.5312507 36.5625,49.677084 36.5625,49.677084 C36.5625,49.677084 36.885416,49.5989587 37.4791667,49.4583333 C37.869792,49.359376 38.3958333,49.2760427 39.0208333,49.1927093 C39.0312493,49.3437507 39.0468747,49.494792 39.0625,49.6510427 C38.7083333,49.7291667 38.4114587,49.8125 38.1822907,49.8958333 C37.7916667,50.0364587 37.5833333,50.1406253 37.5833333,50.1406253 C37.5833333,50.1406253 38.135416,50.0260427 39.0937493,49.9635413 C39.1093747,50.0989587 39.130208,50.234376 39.1510413,50.364584 C38.942708,50.4166667 38.7708333,50.4739587 38.630208,50.5312507 L38.6510413,50.677084 C38.8020827,50.6666667 38.9895827,50.6510427 39.2083333,50.6510427 C40.0885413,55.0937507 43.8645827,58.5677093 48.5833333,58.8281253 C53.5937493,59.109376 57.9583333,55.6718747 59.0312493,50.927084 C59.119792,50.9114587 59.192708,50.9062507 59.2760413,50.9010427 C59.442708,50.8958333 59.5885413,50.9062507 59.7135413,50.9218747 C59.9635413,50.9531253 60.0989573,50.989584 60.0989573,50.989584 C60.0989573,50.989584 59.9895827,50.8958333 59.760416,50.7760427 C59.6458333,50.7187507 59.5,50.6510427 59.3125,50.609376 C59.25,50.5937507 59.1822907,50.5885413 59.1093747,50.5781253 C59.135416,50.4218747 59.1666667,50.2760427 59.192708,50.125 C59.6770827,50.1510427 60.0572907,50.1666667 60.3593747,50.2083333 C60.75,50.2604173 60.9635413,50.2968747 60.9635413,50.2968747 C60.9635413,50.2968747 60.7760413,50.1979173 60.4010413,50.0677093 C60.125,49.9531253 59.7031253,49.8541667 59.2291667,49.75 C59.244792,49.5885413 59.2708333,49.427084 59.2812493,49.2656253 C60.9843747,49.5104173 62.0260413,49.734376 62.0260413,49.734376 C62.0260413,49.734376 61.0416667,49.2968747 59.2864587,48.869792 C59.2916667,48.677084 59.2968747,48.484376 59.2864587,48.2916667 C60.515624,48.552084 61.5312493,48.880208 62.255208,49.0677093 C63.0416667,49.2968747 63.4895827,49.4166667 63.4895827,49.4166667 Z" id="Path" fill="#1A1A1A" fill-rule="nonzero"></path>
        </g>
    </g>
</svg>