<?xml version="1.0" encoding="UTF-8"?>
<svg width="25.481404px" height="36.5994568px" viewBox="0 0 25.481404 36.5994568" version="1.1" xmlns="http://www.w3.org/2000/svg" xmlns:xlink="http://www.w3.org/1999/xlink">
    <title>moon</title>
    <defs>
        <polygon id="path-1" points="0 0 25.5781253 0 25.5781253 37.494792 0 37.494792"></polygon>
    </defs>
    <g id="Icons-2" stroke="none" stroke-width="1" fill="none" fill-rule="evenodd">
        <g id="moon" transform="translate(-0.0446, -0.8953)">
            <mask id="mask-2" fill="white">
                <use xlink:href="#path-1"></use>
            </mask>
            <g id="Path"></g>
            <path d="M18.6093747,37.4948448 C17.932292,37.4948448 17.255208,37.4583333 16.5833333,37.385416 C15.9114587,37.3125 15.244792,37.2031253 14.5833333,37.057292 C13.9218747,36.9114587 13.2708333,36.7343747 12.630208,36.5156253 C11.989584,36.3020827 11.3593747,36.0520827 10.75,35.7708333 C10.135416,35.489584 9.54166667,35.1718747 8.96354133,34.8281253 C8.385416,34.4791667 7.82812533,34.1041667 7.29166667,33.6979173 C6.755208,33.2916667 6.239584,32.8541667 5.75,32.3906253 C5.26562533,31.932292 4.80208267,31.442708 4.369792,30.932292 C3.932292,30.4218747 3.53125067,29.885416 3.15625067,29.3333333 C2.78125067,28.7760413 2.4375,28.2031253 2.125,27.6093747 C1.8125,27.0208333 1.53645867,26.4114587 1.29166667,25.7916667 C1.04687467,25.1666667 0.838541333,24.5364587 0.666666667,23.8906253 C0.494792,23.244792 0.354166667,22.5937493 0.255208,21.932292 C0.151041333,21.2760413 0.0885413333,20.6093747 0.0625,19.942708 C0.0312506667,19.2760413 0.0416666667,18.614584 0.0885413333,17.9479173 C0.135416,17.2812507 0.218749333,16.619792 0.338541333,15.9635413 C0.453125333,15.307292 0.609374667,14.6614587 0.802082667,14.0208333 C0.994792,13.380208 1.21874933,12.755208 1.47916667,12.135416 C1.744792,11.5208333 2.03645867,10.9218747 2.364584,10.3385413 C2.692708,9.755208 3.05208267,9.192708 3.442708,8.64583333 C3.83333333,8.10416667 4.25,7.57812533 4.69791733,7.07812533 C5.14583333,6.57812533 5.619792,6.10416667 6.119792,5.65625067 C6.625,5.20833333 7.14583333,4.78645867 7.692708,4.39583333 C8.239584,4.005208 8.807292,3.64062533 9.39583333,3.307292 C9.98437467,2.97916667 10.5885413,2.682292 11.2083333,2.41145867 C11.8281253,2.14583333 12.4635413,1.91666667 13.1093747,1.71874933 C13.755208,1.52083333 14.4114587,1.35937467 15.0781253,1.22916667 C15.739584,1.10416667 16.4114587,1.010416 17.0833333,0.958333333 C17.760416,0.901041333 18.4375,0.885416 19.114584,0.901041333 C19.7916667,0.916666667 20.4635413,0.973958667 21.135416,1.0625 C21.8020827,1.15104133 22.4687493,1.27604133 23.125,1.442708 C23.7812507,1.60416667 24.4270827,1.79687467 25.0625,2.03125067 C25.375,2.14062533 25.5260413,2.35937467 25.5260413,2.6875 C25.5260413,3.010416 25.375,3.22916667 25.0625,3.34374933 C24.244792,3.64062533 23.4583333,4 22.692708,4.41666667 C21.932292,4.83333333 21.2083333,5.30208267 20.5208333,5.82812533 C19.8333333,6.35416667 19.1875,6.92708267 18.5885413,7.54687467 C17.9843747,8.17187467 17.4375,8.83333333 16.9375,9.53645867 C16.442708,10.244792 16,10.9791667 15.619792,11.75 C15.2343747,12.5208333 14.9114587,13.317708 14.6510413,14.135416 C14.3906253,14.9531253 14.192708,15.7864587 14.0625,16.635416 C13.932292,17.4843747 13.864584,18.3385413 13.864584,19.192708 C13.864584,20.0520827 13.932292,20.9062507 14.0625,21.755208 C14.192708,22.6041667 14.3906253,23.4375 14.6510413,24.255208 C14.9114587,25.0729173 15.2343747,25.869792 15.619792,26.6406253 C16,27.4114587 16.442708,28.1458333 16.9375,28.8489587 C17.4375,29.557292 17.9843747,30.2187493 18.5885413,30.8385413 C19.1875,31.4635413 19.8333333,32.0364587 20.5208333,32.5625 C21.2083333,33.0885413 21.932292,33.557292 22.692708,33.9739587 C23.4583333,34.3906253 24.244792,34.75 25.0625,35.0468747 C25.375,35.1614587 25.5260413,35.380208 25.5260413,35.7031253 C25.5260413,36.0312507 25.375,36.25 25.0625,36.3593747 C22.9791667,37.119792 20.8281253,37.5 18.6093747,37.4948448 Z M18.6093747,2.29166667 C18,2.29166667 17.3958333,2.32812533 16.7968747,2.39062533 C16.192708,2.45312533 15.5989587,2.54687467 15.005208,2.67187467 C14.4114587,2.80208267 13.8281253,2.95833333 13.255208,3.14062533 C12.682292,3.32812533 12.114584,3.54687467 11.5625,3.79166667 C11.010416,4.03645867 10.4739587,4.3125 9.95312533,4.60937467 C9.432292,4.91145867 8.92708267,5.239584 8.4375,5.59374933 C7.95312533,5.94791733 7.48437467,6.32812533 7.03645867,6.72916667 C6.59374933,7.135416 6.16666667,7.557292 5.76562533,8.005208 C5.364584,8.45312533 4.989584,8.92187467 4.64062533,9.40625067 C4.29166667,9.89062533 3.96874933,10.3958333 3.67187467,10.9166667 C3.375,11.4375 3.10416667,11.9687493 2.864584,12.5156253 C2.625,13.0625 2.41666667,13.625 2.239584,14.192708 C2.057292,14.7656253 1.91145867,15.3385413 1.79166667,15.9270827 C1.67708267,16.510416 1.59374933,17.0989587 1.53645867,17.692708 C1.48437467,18.2864587 1.46354133,18.885416 1.47395867,19.4791667 C1.48437467,20.0781253 1.52604133,20.6718747 1.59895867,21.260416 C1.67187467,21.8541667 1.78125067,22.442708 1.91666667,23.0208333 C2.05208267,23.6041667 2.21874933,24.1770827 2.42187467,24.739584 C2.619792,25.3020827 2.84374933,25.8541667 3.10416667,26.3958333 C3.35937467,26.932292 3.64583333,27.4583333 3.96354133,27.9687493 C4.27604133,28.4791667 4.614584,28.9687493 4.98437467,29.442708 C5.34895867,29.9166667 5.744792,30.369792 6.15625067,30.807292 C6.57291733,31.239584 7.010416,31.6510413 7.47395867,32.0364587 C7.932292,32.4270827 8.41145867,32.7864587 8.91145867,33.125 C9.41145867,33.4635413 9.92708267,33.7760413 10.4583333,34.057292 C10.989584,34.3437493 11.5364587,34.5989587 12.0989587,34.8229173 C12.6562507,35.0520827 13.2291667,35.25 13.807292,35.4166667 C14.3906253,35.5833333 14.9791667,35.7187493 15.5729173,35.8281253 C16.1718747,35.932292 16.7708333,36.010416 17.375,36.0520827 C17.9791667,36.0937493 18.5833333,36.1093747 19.1875,36.0885413 C19.7916667,36.067708 20.3958333,36.0156253 20.994792,35.9375 C21.5937493,35.8541667 22.1875,35.739584 22.7760413,35.5937493 C21.2239587,34.8385413 19.807292,33.885416 18.5260413,32.739584 C17.244792,31.5937493 16.1510413,30.2916667 15.239584,28.8437493 C14.3229173,27.3958333 13.630208,25.8541667 13.1562507,24.2135413 C12.682292,22.5729173 12.4479173,20.9010413 12.4479173,19.192708 C12.4479173,17.489584 12.682292,15.817708 13.1562507,14.1770827 C13.630208,12.5364587 14.3229173,10.994792 15.239584,9.54687467 C16.1510413,8.09374933 17.244792,6.79687467 18.5260413,5.65104133 C19.807292,4.505208 21.2239587,3.55208267 22.7760413,2.79166667 C21.4062507,2.45833333 20.0156253,2.29166667 18.6093747,2.29166667 Z" id="Shape" fill="#000000" fill-rule="nonzero" mask="url(#mask-2)"></path>
        </g>
    </g>
</svg>