<?xml version="1.0" encoding="UTF-8"?>
<svg width="157px" height="164px" viewBox="0 0 157 164" version="1.1" xmlns="http://www.w3.org/2000/svg" xmlns:xlink="http://www.w3.org/1999/xlink">
    <title>success</title>
    <defs>
        <polygon id="path-1" points="0 0 158 0 158 165 0 165"></polygon>
    </defs>
    <g id="Icons-2" stroke="none" stroke-width="1" fill="none" fill-rule="evenodd">
        <g id="success" transform="translate(0, -1)">
            <mask id="mask-2" fill="white">
                <use xlink:href="#path-1"></use>
            </mask>
            <g id="Path"></g>
            <path d="M156.838158,161.536442 L141.644808,120.536792 C141.367908,119.78808 140.759934,119.212849 140.00448,118.984583 L119.366445,112.708784 L116.434922,97.8714826 C116.176082,96.5597135 114.975181,95.6892581 113.638841,95.8323051 L101.289729,97.3936456 L101.289729,55.7183289 C102.093339,55.4231048 102.863842,55.0335306 103.544052,54.4704742 C105.331858,52.9852223 106.355182,50.7969103 106.355182,48.4564213 C106.355182,45.1998235 104.290476,42.2841031 101.289729,41.176252 L101.289729,37.682257 C102.069261,36.7235396 104.684756,34.3130488 111.420636,34.3130488 C112.772025,34.3130488 113.542528,34.416529 113.954867,34.5047926 C114.063219,38.8448931 117.846508,39.4383853 121.548532,39.4383853 C134.656108,39.4383853 145.036826,34.2613086 145.470234,34.0421731 C146.32802,33.6069454 146.869779,32.7212724 146.869779,31.7503801 L146.869779,3.56407272 C146.869779,2.67535641 146.415303,1.85359856 145.671889,1.38489162 C144.928474,0.919228811 143.995444,0.870532026 143.209891,1.26923714 C143.113579,1.31793393 133.41909,6.12369726 121.548532,6.12369726 C120.197143,6.12369726 119.42664,6.02326034 119.0143,5.93195348 C118.905949,1.59185295 115.12266,1 111.420636,1 C100.052711,1 96.8232208,6.87241071 96.4921458,7.5419915 C96.3175784,7.89808654 96.2272855,8.29070417 96.2272855,8.68636594 L96.2272855,39.6209983 L62.8639158,29.6503317 C64.6938598,27.4285405 65.8405851,24.6102145 65.8405851,21.499707 L65.8405851,16.3743704 C65.8405851,9.31029329 60.1581276,3.56407272 53.1784564,3.56407272 C46.1957757,3.56407272 40.5163278,9.31029329 40.5163278,16.3743704 L40.5163278,21.499707 C40.5163278,22.2210279 40.6126406,22.9180012 40.7270125,23.6088862 L19.8421753,4.23365351 C17.3591102,1.92664373 13.6600954,1.64054974 10.8519737,3.53363762 C9.1123234,4.70236045 7.9505494,6.57718665 7.66763082,8.67419174 C7.37869231,10.7681535 7.99870582,12.889507 9.35912466,14.4934575 L35.6284513,45.5102658 L35.4538846,126.066921 L29.0159732,142.352952 L9.84670879,144.516915 C8.99494193,144.614309 8.24851744,145.140843 7.86326608,145.916948 L0.266590976,161.292958 C-0.356432888,162.559074 0.149209512,164.096066 1.40127641,164.729124 C1.7654599,164.911737 2.15071126,165 2.52994267,165 C3.45996332,165 4.35386666,164.482597 4.79931431,163.58475 L11.7789847,149.456596 L26.882042,147.752208 L25.5035642,151.237072 C24.9858826,152.551885 25.617936,154.043223 26.915149,154.566715 C27.2221466,154.694543 27.5411824,154.749327 27.8541992,154.749327 C28.8594648,154.749327 29.8105541,154.143661 30.2078445,153.13929 L39.854177,128.736114 L48.7841832,126.514323 L78.9180624,121.404204 C79.8420639,121.245939 80.6065467,120.585489 80.9015051,119.687642 L85.5275309,105.644707 L94.1595691,103.459439 L111.932297,101.2133 L119.065467,137.315878 C119.339357,138.703736 120.657639,139.616802 122.045145,139.324621 C123.414594,139.047658 124.305487,137.699366 124.031598,136.311507 L120.492101,118.403265 L137.343838,123.528601 L152.09776,163.338223 C152.476993,164.366942 153.443131,165 154.466454,165 C154.764422,165 155.06239,164.94826 155.357348,164.838692 C156.666601,164.33955 157.328752,162.863429 156.838158,161.536442 Z M119.017311,11.109031 C119.83597,11.2125112 120.690746,11.2490338 121.548532,11.2490338 C130.162511,11.2490338 137.596659,9.01506923 141.807336,7.42024954 L141.807336,30.0886027 C138.701247,31.4034159 130.782526,34.3130488 121.548532,34.3130488 C120.197143,34.3130488 119.42965,34.2095677 119.017311,34.121305 L119.017311,11.109031 Z M101.289729,9.48073204 C102.108388,8.49766551 104.77204,6.12369726 111.420636,6.12369726 C112.769015,6.12369726 113.539518,6.22717832 113.951857,6.3184844 L113.951857,29.3307584 C113.133198,29.2272781 112.275412,29.1877122 111.420636,29.1877122 C106.833737,29.1877122 103.571139,30.1433862 101.289729,31.3303707 L101.289729,9.48073204 Z M45.5817813,16.3743704 C45.5817813,12.1347068 48.988848,8.68636594 53.1784564,8.68636594 C57.3680649,8.68636594 60.7751315,12.1347068 60.7751315,16.3743704 L60.7751315,21.499707 C60.7751315,25.7393713 57.3680649,29.1877122 53.1784564,29.1877122 C48.988848,29.1877122 45.5817813,25.7393713 45.5817813,21.499707 L45.5817813,16.3743704 Z M76.5794665,116.604527 L51.1769555,120.92028 L55.6193851,80.4502087 L74.2288307,85.1585785 L80.8834461,103.541615 L76.5794665,116.604527 Z M96.2272855,98.0358346 L95.5711539,98.1180106 L88.7178937,72.0895793 C88.5222584,71.3408659 88.0015666,70.7230252 87.3002889,70.4095403 L66.2830216,60.9562766 L67.9353893,50.1638521 L96.2272855,55.8887677 L96.2272855,98.0358346 Z M98.1595614,51.0556118 L66.3371979,44.6124187 C65.6569881,44.4815459 64.9557105,44.6276362 64.3898726,45.0263414 C63.8240346,45.4250457 63.4417929,46.0428863 63.3364513,46.7337722 L60.9797963,62.1067385 C60.8052297,63.251113 61.4071849,64.371139 62.4545863,64.8428893 L84.1400243,74.5944196 L90.5869645,99.0828155 L85.1603379,100.455456 L78.5237815,82.1180728 C78.234843,81.3206633 77.5726923,80.7210844 76.7570427,80.5141231 L56.4982398,75.3918298 C56.2995941,75.3370463 56.0949294,75.312698 55.887255,75.312698 L53.3530231,75.312698 C52.0618293,75.312698 50.9783098,76.2927204 50.8368509,77.592316 L45.9670327,121.939869 L40.5253573,123.291204 L40.6939048,70.1873606 L40.6939048,44.5637219 C40.6939048,43.9519687 40.4772009,43.3584765 40.08292,42.895857 L13.2026094,11.1577277 C12.7782304,10.6585857 12.5946343,10.0255275 12.6849272,9.37420763 C12.7722112,8.72288852 13.1183349,8.1628755 13.6600954,7.79764962 C14.0423364,7.53894737 14.4757442,7.41416205 14.9061424,7.41416205 C15.4509117,7.41416205 15.9926714,7.61808003 16.4170496,8.01069766 L38.7345403,28.7129186 C42.6322007,32.3225673 47.6826055,34.3130488 52.9617525,34.3130488 L60.5855154,34.3130488 L99.4146379,45.918101 C100.537285,46.252891 101.289729,47.2724802 101.289729,48.4564213 C101.289729,49.2538308 100.940595,49.9995001 100.33262,50.5047296 C99.7216355,51.0130025 98.9300641,51.210833 98.1595614,51.0556118 Z M83.52001,132.160106 L77.8225039,162.912126 C77.5967705,164.14172 76.5313101,165 75.3364284,165 C75.1829304,165 75.026422,164.984782 74.8669041,164.954347 C73.4914358,164.695646 72.5885029,163.356484 72.847344,161.965582 L78.5448502,131.216607 C78.800681,129.825704 80.1189633,128.912639 81.50045,129.171342 C82.8759183,129.430043 83.7788512,130.769205 83.52001,132.160106 Z M116.302492,151.237072 C116.823183,152.551885 116.191131,154.043223 114.890907,154.566715 C114.58391,154.694543 114.264874,154.749327 113.951857,154.749327 C112.946592,154.749327 111.995503,154.143661 111.601222,153.13929 L106.972186,141.430756 L100.489129,139.242445 C99.6283322,138.953308 98.9872501,138.216769 98.8066635,137.315878 L96.2754419,124.502537 C96.0015521,123.114679 96.8924458,121.766386 98.2618942,121.489423 C99.6433817,121.194199 100.967683,122.110308 101.241572,123.498166 L103.486866,134.850604 L109.690014,136.944565 C110.397312,137.181963 110.96315,137.723714 111.240049,138.423731 L116.302492,151.237072 Z M58.0633234,142.888616 L52.9978699,155.701958 C52.7209704,156.401974 52.1551325,156.943726 51.4478349,157.181123 L44.9617678,159.366391 L43.3756156,163.389963 C42.9813347,164.39129 42.0272358,165 41.0249798,165 C40.7089535,165 40.3899176,164.942173 40.08292,164.817388 C38.7857063,164.293897 38.1536537,162.802558 38.6713352,161.487745 L40.6969144,156.362408 C40.9738138,155.662392 41.5396517,155.12064 42.2469493,154.883244 L48.7330172,152.694932 L53.359043,140.986399 C53.8767245,139.671585 55.360544,139.03244 56.6487282,139.558974 C57.9489515,140.082465 58.5810049,141.573803 58.0633234,142.888616 Z" id="Shape" fill="#000000" fill-rule="nonzero" mask="url(#mask-2)"></path>
        </g>
    </g>
</svg>