<?xml version="1.0" encoding="UTF-8"?>
<svg width="58.7780403px" height="49.9645359px" viewBox="0 0 58.7780403 49.9645359" version="1.1" xmlns="http://www.w3.org/2000/svg" xmlns:xlink="http://www.w3.org/1999/xlink">
    <title>cauldron</title>
    <defs>
        <polygon id="path-1" points="0 0 58.869792 0 58.869792 28.932292 0 28.932292"></polygon>
        <polygon id="path-3" points="0 0 34.6666667 0 34.6666667 23.7343747 0 23.7343747"></polygon>
    </defs>
    <g id="Icons-2" stroke="none" stroke-width="1" fill="none" fill-rule="evenodd">
        <g id="cauldron" transform="translate(-0.0918, 0)">
            <g id="Clipped" transform="translate(0, 21.0677)">
                <mask id="mask-2" fill="white">
                    <use xlink:href="#path-1"></use>
                </mask>
                <g id="Path"></g>
                <path d="M51.239584,16.4843747 C51.0989587,16.6770827 51.0468747,16.869792 50.9687507,17.0520827 C50.2187507,18.692708 49.1510427,20.0937493 47.7864587,21.2760413 C46.0989587,22.7291667 44.1666667,23.760416 42.0885413,24.5312507 C41.4531253,24.7656253 40.807292,24.9635413 40.1562507,25.1406253 C40.1041667,25.1510413 40.0312507,25.135416 40.0208333,25.2083333 C40.0156253,25.2656253 40.0833333,25.2916667 40.125,25.3229173 C40.2968747,25.4479173 40.4583333,25.5781253 40.5833333,25.760416 C40.8385413,26.135416 40.8125,26.4218747 40.484376,26.744792 C40.1927093,27.0260413 39.8385413,27.2031253 39.4739587,27.369792 C38.5677093,27.7760413 37.614584,28.0156253 36.6562507,28.2291667 C35.3541667,28.5156253 34.0364587,28.6875 32.7083333,28.7812507 C30.859376,28.9166667 29.0104173,28.9270827 27.1562507,28.8437493 C25.3177093,28.755208 23.494792,28.5468747 21.7031253,28.0885413 C20.7760427,27.8541667 19.869792,27.5729173 19.0260427,27.1041667 C18.8125,26.9791667 18.614584,26.8281253 18.4479173,26.6406253 C18.1979173,26.3593747 18.1875,26.0625 18.4010427,25.75 C18.5312507,25.557292 18.7135413,25.4218747 18.8906253,25.2760413 C18.932292,25.244792 18.9791667,25.2291667 19,25.1562507 C18.75,25.0781253 18.5,25.005208 18.25,24.932292 C16.427084,24.3958333 14.6927093,23.6562507 13.0833333,22.6406253 C11.0208333,21.3385413 9.3125,19.6979173 8.239584,17.4687493 C8.09895867,17.1718747 7.97916667,16.869792 7.83333333,16.5364587 C7.77604267,17.1041667 7.614584,17.6041667 7.32291733,18.057292 C6.869792,18.7656253 6.125,19.0989587 5.35416667,18.9479173 C4.682292,18.8125 4.114584,18.2031253 4.02604267,17.5260413 C3.96354133,17.0625 4.25,16.5312507 4.677084,16.3333333 C5.02083333,16.1718747 5.32812533,16.2343747 5.60416667,16.4739587 C5.71875067,16.5729173 5.76562533,16.5416667 5.82812533,16.4218747 C5.989584,16.0989587 5.90625067,15.6458333 5.619792,15.375 C5.35416667,15.114584 5.02604267,14.9791667 4.65625067,14.9843747 C3.84375067,15 3.114584,14.7708333 2.484376,14.260416 C1.97916667,13.8541667 1.57812533,13.3541667 1.25,12.7968747 C0.307292,11.2083333 1.39055434e-14,9.48437467 0.114584,7.66145867 C0.203125333,6.260416 0.546874667,4.92187467 1.21354133,3.682292 C1.90104267,2.380208 2.84895867,1.32291733 4.244792,0.760416 C5.84895867,0.114584 7.46354133,0.104166667 9.04166667,0.875 C9.869792,1.27604133 10.4791667,1.92708267 10.984376,2.6875 C11.182292,2.97916667 11.375,3.28125067 11.5364587,3.59895867 C11.5833333,3.682292 11.619792,3.70833333 11.6979173,3.635416 C11.989584,3.35937467 12.3489587,3.17187467 12.6510427,2.91145867 C12.7187507,2.85416667 12.7916667,2.85416667 12.869792,2.885416 C14.2135413,3.47916667 15.6510427,3.744792 17.0833333,3.989584 C19.1406253,4.33854133 21.2083333,4.53645867 23.2916667,4.65625067 C26.7864587,4.864584 30.2864587,4.885416 33.7864587,4.75 C35.2187507,4.69791733 36.6510427,4.60937467 38.0781253,4.46874933 C39.984376,4.27604133 41.8854173,4.02083333 43.7604173,3.59895867 C44.4791667,3.432292 45.2083333,3.29166667 45.875,2.97916667 C46.1510427,2.84895867 46.3385413,2.864584 46.5625,3.057292 C46.7864587,3.25 47.0364587,3.40625067 47.2656253,3.59895867 C47.369792,3.682292 47.4062507,3.692708 47.4739587,3.5625 C47.739584,3.0625 48.0625,2.59374933 48.4218747,2.15104133 C49.307292,1.07291733 50.4375,0.453125333 51.8281253,0.333333333 C54.1979173,0.140625333 56.0312507,1.067708 57.3437507,3.03125067 C58.1510427,4.23437467 58.5937507,5.57291733 58.7812507,7.010416 C59,8.682292 58.8333333,10.3125 58.1875,11.875 C57.8437507,12.7083333 57.3854173,13.4739587 56.7083333,14.0885413 C56.0729173,14.6666667 55.3229173,14.9635413 54.4687507,14.989584 C54.0468747,15 53.6718747,15.119792 53.375,15.432292 C53.1041667,15.7135413 53.0364587,16.119792 53.1927093,16.4531253 C53.239584,16.557292 53.2760427,16.5989587 53.3854173,16.505208 C53.6718747,16.2656253 53.994792,16.1406253 54.359376,16.3125 C54.7604173,16.505208 54.994792,16.8385413 55.0260427,17.2812507 C55.0885413,18.1875 54.380208,18.932292 53.4583333,18.9791667 C52.5885413,19.0312507 52.0416667,18.557292 51.630208,17.869792 C51.3854173,17.4635413 51.2604173,17.010416 51.239584,16.4843747 Z M7.22916667,13.875 C7.26562533,13.7916667 7.244792,13.7187493 7.239584,13.6510413 C7.14062533,12.630208 7.22395867,11.619792 7.41666667,10.619792 C7.79687467,8.70833333 8.625,7 9.82291733,5.46874933 C10.0416667,5.192708 10.0416667,5.192708 9.85416667,4.89062533 C9.52083333,4.34374933 9.114584,3.869792 8.489584,3.64583333 C7.71875067,3.35937467 6.927084,3.32812533 6.130208,3.494792 C4.29166667,3.875 3.109376,4.97916667 2.614584,6.79166667 C2.380208,7.64583333 2.32291733,8.51562533 2.41145867,9.39583333 C2.505208,10.2968747 2.75,11.1458333 3.22395867,11.9218747 C3.76562533,12.8125 4.64583333,13.3437493 5.875,12.7864587 C5.91145867,12.7708333 5.94791733,12.755208 5.989584,12.7812507 C6.35416667,13.0156253 6.75,13.2187493 7.01041733,13.5833333 C7.08333333,13.6770827 7.15104267,13.7708333 7.22916667,13.875 Z M51.7604173,13.9479173 C52.0625,13.4531253 52.489584,13.0989587 52.9739587,12.8020827 C53.0364587,12.7656253 53.0833333,12.7291667 53.1718747,12.7760413 C54.0208333,13.2083333 54.9114587,13.0208333 55.5156253,12.2864587 C55.739584,12.0208333 55.9062507,11.7187493 56.0416667,11.4010413 C56.7083333,9.83854133 56.755208,8.244792 56.2708333,6.625 C56.0468747,5.869792 55.6875,5.1875 55.1041667,4.65104133 C54.1666667,3.78645867 53.052084,3.39062533 51.7760427,3.41145867 C50.5677093,3.432292 49.6354173,3.92187467 49.0312507,4.994792 C48.9375,5.16666667 48.9583333,5.255208 49.0729173,5.39583333 C50.0677093,6.60416667 50.7864587,7.96354133 51.244792,9.45312533 C51.6979173,10.9166667 51.875,12.4166667 51.7604173,13.9479173 Z M40.5364587,9.932292 C40.5312507,10.0312507 40.5833333,10.067708 40.614584,10.119792 C40.7916667,10.4062507 40.9635413,10.692708 41.0833333,11.0156253 C41.130208,11.1406253 41.125,11.1979173 40.9739587,11.2187493 C40.6875,11.2656253 40.4010427,11.3020827 40.114584,11.3281253 C39.7812507,11.364584 39.4427093,11.3593747 39.0677093,11.4479173 C39.1614587,11.4739587 39.2135413,11.489584 39.2656253,11.505208 C39.802084,11.6666667 40.3437507,11.8125 40.875,12 C41.005208,12.0468747 41.005208,12.0885413 40.9479173,12.2031253 C40.7656253,12.5729173 40.5833333,12.942708 40.3854173,13.3125 C40.7760427,13.0833333 41.1354173,12.8125 41.5468747,12.614584 C41.682292,13.260416 41.7760427,13.885416 41.875,14.5156253 C41.9739587,13.875 42.0833333,13.244792 42.2239587,12.5989587 C42.6458333,12.8541667 43.0468747,13.0937493 43.427084,13.4010413 C43.432292,13.3229173 43.4010427,13.2864587 43.380208,13.255208 C43.1614587,12.9062507 42.9791667,12.5364587 42.7864587,12.1770827 C42.7291667,12.0729173 42.739584,12.0260413 42.859376,11.989584 C43.3906253,11.8229173 43.9114587,11.635416 44.4531253,11.505208 C44.5156253,11.489584 44.5937507,11.4843747 44.6354173,11.4062507 C44.0364587,11.3541667 43.4427093,11.3385413 42.8541667,11.260416 C42.5625,11.2187493 42.5625,11.2135413 42.682292,10.9479173 C42.8437507,10.5833333 43.0677093,10.244792 43.2604173,9.89062533 C43.1666667,9.94791733 43.0781253,10.010416 42.994792,10.0781253 C42.7916667,10.244792 42.5729173,10.3958333 42.3385413,10.5208333 C42.2656253,10.5625 42.2187507,10.5833333 42.2031253,10.4739587 C42.1458333,10.119792 42.0781253,9.77083333 42.0208333,9.42187467 C41.9739587,9.135416 41.9375,8.84895867 41.8958333,8.5625 C41.8854173,8.5625 41.875,8.5625 41.859376,8.5625 C41.7708333,9.244792 41.677084,9.92708267 41.5885413,10.619792 C41.2031253,10.442708 40.8854173,10.182292 40.5364587,9.932292 Z M44.3333333,15.239584 C44.3229173,15.244792 44.307292,15.244792 44.2968747,15.244792 C44.239584,15.635416 44.182292,16.0312507 44.125,16.4218747 C44.0677093,16.7864587 43.932292,17.1041667 43.5781253,17.2864587 C43.4166667,17.369792 43.244792,17.4218747 43.0625,17.4583333 C42.744792,17.5208333 42.427084,17.5781253 42.109376,17.635416 C42.1406253,17.6666667 42.1666667,17.6666667 42.1927093,17.6718747 C42.614584,17.739584 43.0416667,17.8125 43.4427093,17.9583333 C43.755208,18.0729173 43.9583333,18.2968747 44.052084,18.6093747 C44.0833333,18.7239587 44.1041667,18.8437493 44.125,18.9635413 C44.1927093,19.3333333 44.255208,19.6979173 44.3177093,20.0833333 C44.380208,20.0156253 44.369792,19.9531253 44.380208,19.8958333 C44.4635413,19.4479173 44.505208,18.994792 44.6406253,18.5625 C44.75,18.2083333 44.9687507,17.9635413 45.3281253,17.8541667 C45.4583333,17.8125 45.5833333,17.7812507 45.7135413,17.75 C46.0156253,17.682292 46.3177093,17.614584 46.6666667,17.5416667 C46.3229173,17.494792 46.0208333,17.4635413 45.7239587,17.4166667 C44.869792,17.2864587 44.625,17.0416667 44.4791667,16.1875 C44.427084,15.869792 44.380208,15.557292 44.3333333,15.239584 Z M13.5625,15.0364587 C13.552084,15.0364587 13.5416667,15.0312507 13.5260427,15.0312507 C13.4791667,15.3229173 13.427084,15.6093747 13.3906253,15.9010413 C13.2760427,16.7291667 12.9531253,17.057292 12.130208,17.1666667 C11.859376,17.2031253 11.5885413,17.239584 11.3177093,17.2760413 C11.6979173,17.380208 12.0833333,17.442708 12.4583333,17.557292 C12.932292,17.7031253 13.1979173,18.010416 13.2812507,18.489584 C13.3541667,18.9114587 13.4375,19.3281253 13.5156253,19.755208 C13.5781253,19.7239587 13.5625,19.6666667 13.5625,19.619792 C13.5937507,19.2031253 13.6718747,18.7968747 13.755208,18.3906253 C13.8385413,17.989584 14.0781253,17.7343747 14.4583333,17.6093747 C14.6666667,17.5468747 14.875,17.489584 15.0937507,17.4583333 C15.2916667,17.4218747 15.489584,17.385416 15.6875,17.3489587 C15.302084,17.2760413 14.9218747,17.2291667 14.5468747,17.130208 C14.052084,17.005208 13.7864587,16.7083333 13.7135413,16.2031253 C13.6614587,15.8125 13.614584,15.4270827 13.5625,15.0364587 Z M15.7239587,15.4791667 C15.7604173,15.510416 15.7708333,15.5208333 15.7812507,15.5260413 C15.9635413,15.5989587 16.1510427,15.6718747 16.3333333,15.75 C16.6458333,15.875 16.6458333,15.885416 16.494792,16.1770827 C16.4114587,16.3333333 16.3229173,16.4843747 16.2656253,16.6770827 C16.5,16.5260413 16.682292,16.3541667 16.8958333,16.1770827 C16.9791667,16.5625 17.0208333,16.9218747 17.0885413,17.2812507 C17.1718747,16.9270827 17.1458333,16.5625 17.2031253,16.192708 C17.4218747,16.3593747 17.630208,16.5156253 17.8385413,16.6718747 C17.7708333,16.4635413 17.630208,16.307292 17.557292,16.119792 C17.4531253,15.8593747 17.4531253,15.8541667 17.7031253,15.75 C17.9218747,15.6562507 18.1562507,15.5937493 18.359376,15.4531253 C18.125,15.4479173 17.8906253,15.442708 17.6614587,15.4270827 C17.4531253,15.4114587 17.4531253,15.4166667 17.5156253,15.2083333 C17.557292,15.0937493 17.5937507,14.9739587 17.6406253,14.8229173 C17.4531253,14.932292 17.3854173,15.125 17.2031253,15.2083333 C17.182292,14.817708 17.2239587,14.4375 17.0937507,14.0781253 C17.005208,14.4479173 17.0260427,14.8385413 16.9010427,15.2083333 C16.734376,15.057292 16.5781253,14.9166667 16.427084,14.7760413 C16.4739587,14.9479173 16.5416667,15.0989587 16.609376,15.255208 C16.6614587,15.3593747 16.625,15.4010413 16.5104173,15.4062507 C16.2604173,15.4270827 16.005208,15.4531253 15.7239587,15.4791667 Z M48.239584,15.6666667 C48.239584,15.3958333 48.0156253,15.1510413 47.7604173,15.1458333 C47.489584,15.135416 47.244792,15.385416 47.244792,15.6666667 C47.244792,15.9583333 47.4583333,16.1666667 47.75,16.1666667 C48.0260427,16.1666667 48.239584,15.9531253 48.239584,15.6666667 Z M39.0989587,14.8385413 C39.0364587,15.3437493 38.744792,15.5885413 38.255208,15.6770827 C38.8489587,15.7083333 39.0104173,16.114584 39.119792,16.5937493 C39.1510427,16.0312507 39.432292,15.7187493 39.994792,15.6510413 C39.4479173,15.6406253 39.1979173,15.3385413 39.0989587,14.8385413 Z M47.7812507,10.864584 C47.5208333,10.864584 47.2864587,11.1041667 47.2916667,11.369792 C47.2968747,11.630208 47.5260427,11.8541667 47.7812507,11.8489587 C48.0364587,11.8489587 48.2656253,11.6093747 48.2604173,11.3541667 C48.25,11.0833333 48.0312507,10.8593747 47.7812507,10.864584 Z M44.927084,7.16145867 C44.9218747,6.89583333 44.7083333,6.6875 44.4531253,6.692708 C44.2031253,6.69791733 43.984376,6.92708267 43.984376,7.182292 C43.989584,7.42187467 44.234376,7.65625067 44.4739587,7.64583333 C44.7135413,7.64062533 44.927084,7.41145867 44.927084,7.16145867 Z M13.9687507,9.85416667 C13.994792,9.40625067 14.177084,9.10416667 14.677084,9.04687467 C14.2812507,8.942708 14.0104173,8.73437467 13.9739587,8.307292 C13.859376,8.692708 13.6510427,8.96874933 13.244792,9.067708 C13.7760427,9.07291733 13.8437507,9.47395867 13.9687507,9.85416667 Z M17.9427093,12.5729173 C17.9427093,12.3593747 17.7656253,12.182292 17.552084,12.182292 C17.3281253,12.182292 17.130208,12.380208 17.1354173,12.5989587 C17.1406253,12.817708 17.307292,12.9843747 17.5260427,12.989584 C17.75,12.989584 17.9479173,12.7968747 17.9427093,12.5729173 Z M20.484376,19.9739587 C20.489584,19.760416 20.307292,19.5625 20.114584,19.5625 C19.9114587,19.5625 19.7187507,19.75 19.7135413,19.9531253 C19.7135413,20.1562507 19.9114587,20.3593747 20.1041667,20.3541667 C20.307292,20.3541667 20.484376,20.1770827 20.484376,19.9739587 Z M16.8854173,20.0208333 C16.8854173,19.8229173 16.734376,19.6510413 16.557292,19.6510413 C16.369792,19.6510413 16.1875,19.8333333 16.1875,20.0260413 C16.1927093,20.2187493 16.3437507,20.375 16.5312507,20.380208 C16.734376,20.380208 16.8854173,20.2291667 16.8854173,20.0208333 Z M37.3333333,19.5468747 C37.3385413,19.3437493 37.1979173,19.192708 37.005208,19.1875 C36.7916667,19.1875 36.6458333,19.3229173 36.6354173,19.5260413 C36.630208,19.7291667 36.7864587,19.9010413 36.9739587,19.9010413 C37.1666667,19.9062507 37.3333333,19.739584 37.3333333,19.5468747 Z M20.6927093,11.6510413 C20.875,11.6510413 21.0260427,11.5 21.0208333,11.317708 C21.0208333,11.1406253 20.875,10.989584 20.7083333,10.989584 C20.5208333,10.9843747 20.364584,11.130208 20.364584,11.3125 C20.364584,11.489584 20.5208333,11.6562507 20.6927093,11.6510413 Z M17.802084,18.4687493 C17.625,18.4635413 17.4687507,18.614584 17.4635413,18.8020827 C17.4583333,18.9687493 17.5989587,19.125 17.755208,19.130208 C17.932292,19.135416 18.0937507,18.9791667 18.0937507,18.7968747 C18.0937507,18.619792 17.9583333,18.4687493 17.802084,18.4687493 Z M40.2916667,19.5885413 C40.4687507,19.5833333 40.609376,19.4375 40.6041667,19.260416 C40.5989587,19.0833333 40.4583333,18.9375 40.2968747,18.942708 C40.125,18.9531253 39.9791667,19.114584 39.989584,19.2864587 C39.994792,19.4479173 40.1406253,19.5937493 40.2916667,19.5885413 Z M41.6406253,16.5260413 C41.6458333,16.369792 41.5,16.2239587 41.3437507,16.2239587 C41.177084,16.2187493 41.0260427,16.3593747 41.0208333,16.5208333 C41.0156253,16.6979173 41.1614587,16.869792 41.3229173,16.864584 C41.4739587,16.864584 41.6354173,16.692708 41.6406253,16.5260413 Z M33.7708333,15.7656253 C33.7708333,15.5989587 33.614584,15.4531253 33.4531253,15.4583333 C33.2968778,15.4635413 33.1510427,15.619792 33.1562507,15.7812507 C33.1614587,15.9583333 33.302084,16.0937493 33.4739587,16.0885413 C33.6354173,16.0781253 33.7760427,15.932292 33.7708333,15.7656253 Z M15.5937507,13.9791667 C15.5937507,13.8229173 15.4531253,13.682292 15.2916667,13.682292 C15.119792,13.6770827 14.989584,13.8125 14.984376,13.989584 C14.9791667,14.1562507 15.114584,14.2968747 15.2760427,14.2916667 C15.4375,14.2916667 15.5937507,14.135416 15.5937507,13.9791667 Z M12.177084,6.55208267 C12.1718747,6.41145867 12.0208333,6.255208 11.8854173,6.260416 C11.734376,6.27083333 11.6041667,6.41666667 11.609376,6.567708 C11.614584,6.71874933 11.755208,6.85416667 11.9062507,6.84374933 C12.0468747,6.84374933 12.182292,6.692708 12.177084,6.55208267 Z M12.989584,10.9010413 C12.989584,10.760416 12.875,10.6406253 12.744792,10.6406253 C12.5937507,10.6458333 12.4531253,10.7864587 12.4531253,10.932292 C12.4531253,11.0729173 12.5781253,11.2135413 12.7083333,11.2135413 C12.8541667,11.2187493 12.994792,11.0625 12.989584,10.9010413 Z M21.7656253,21.5260413 C21.7604173,21.6718747 21.8906253,21.8125 22.0312507,21.8125 C22.1666667,21.8125 22.2864587,21.692708 22.2916667,21.5468747 C22.302084,21.3906253 22.1979173,21.2708333 22.052084,21.2656253 C21.9010427,21.260416 21.7656253,21.380208 21.7656253,21.5260413 Z M10.9062507,13.3958333 C10.7604173,13.3958333 10.625,13.5312507 10.630208,13.6718747 C10.630208,13.8020827 10.755208,13.932292 10.875,13.9270827 C11.0208333,13.9270827 11.1458333,13.7916667 11.1406253,13.6406253 C11.1354173,13.510416 11.0260427,13.3958333 10.9062507,13.3958333 Z M45.177084,10.380208 C45.182292,10.255208 45.0625,10.130208 44.9427093,10.130208 C44.7968747,10.130208 44.6666667,10.25 44.6666667,10.385416 C44.6666667,10.5260413 44.7708333,10.6406253 44.9114587,10.6458333 C45.052084,10.6510413 45.177084,10.5260413 45.177084,10.380208 Z M42.1875,18.5885413 C42.177084,18.4635413 42.1041667,18.380208 41.9635413,18.369792 C41.8281253,18.3541667 41.7031253,18.4687493 41.6927093,18.5989587 C41.6875,18.7343747 41.7864587,18.864584 41.9062507,18.869792 C42.0416667,18.880208 42.182292,18.75 42.1875,18.5885413 Z M14.9739587,16.4010413 C15.1041667,16.4010413 15.25,16.260416 15.234376,16.135416 C15.2187507,16 15.1354173,15.9166667 15,15.9062507 C14.869792,15.8906253 14.739584,16.0208333 14.739584,16.1510413 C14.744792,16.2812507 14.8541667,16.4010413 14.9739587,16.4010413 Z M17.9010427,20.2864587 C17.755208,20.2864587 17.6614587,20.3906253 17.6666667,20.5416667 C17.6718747,20.6718747 17.7812507,20.7968747 17.9010427,20.7916667 C18.0208333,20.7916667 18.1458333,20.6510413 18.1458333,20.5260413 C18.1406253,20.3958333 18.0260427,20.2812507 17.9010427,20.2864587 Z M19.2864587,12.4791667 C19.4166667,12.4791667 19.5312507,12.3541667 19.5260427,12.2135413 C19.5260427,12.0729173 19.4479173,11.989584 19.307292,11.9791667 C19.177084,11.9687493 19.0468747,12.1093747 19.0468747,12.2343747 C19.0468747,12.364584 19.1614587,12.4843747 19.2864587,12.4791667 Z M40.0208333,14.2968747 C40.005208,14.182292 39.9531253,14.0781253 39.8125,14.0520827 C39.6927093,14.0312507 39.5468747,14.1666667 39.5416667,14.2916667 C39.5312507,14.4166667 39.6458333,14.5468747 39.7656253,14.5520827 C39.8906253,14.5520827 40.0156253,14.4375 40.0208333,14.2968747 Z M39.052084,18.255208 C39.1979173,18.255208 39.3385413,18.130208 39.3281253,18.0156253 C39.3229173,17.885416 39.2604173,17.7812507 39.119792,17.760416 C38.989584,17.744792 38.8541667,17.880208 38.859376,18.010416 C38.864584,18.1458333 38.9375,18.2343747 39.052084,18.255208 Z M49.0364587,7.92187467 C49.1510427,7.92187467 49.2656253,7.807292 49.2760427,7.6875 C49.2812507,7.57291733 49.1562507,7.42187467 49.052084,7.41666667 C48.9375,7.41666667 48.807292,7.54687467 48.807292,7.66666667 C48.802084,7.79687467 48.9114587,7.91666667 49.0364587,7.92187467 Z M42.9375,19.989584 C42.9218747,19.875 42.8437507,19.8020827 42.7135413,19.7864587 C42.5989587,19.7760413 42.4531253,19.9166667 42.4635413,20.0260413 C42.4791667,20.1510413 42.552084,20.239584 42.6875,20.244792 C42.8177093,20.25 42.9375,20.135416 42.9375,19.989584 Z M11.0989587,8.82812533 C11.0937507,8.692708 10.989584,8.57291733 10.8906253,8.57291733 C10.7864587,8.57291733 10.6562507,8.71354133 10.677084,8.82291733 C10.6979173,8.9375 10.755208,9.04166667 10.8958333,9.03645867 C11.0312507,9.03125067 11.0885413,8.9375 11.0989587,8.82812533 Z M37.8385413,16.744792 C37.8385413,16.8958333 37.9218747,16.994792 38.0312507,17 C38.1562507,17 38.2760427,16.8958333 38.2708333,16.7760413 C38.2604173,16.6562507 38.1979173,16.567708 38.0677093,16.567708 C37.9375,16.567708 37.8541667,16.6406253 37.8385413,16.744792 Z M38.5625,13.3281253 C38.6927093,13.3125 38.7708333,13.2239587 38.7760427,13.0989587 C38.7760427,13 38.6979173,12.9375 38.5937507,12.9375 C38.4687507,12.942708 38.3906253,13.0156253 38.380208,13.1406253 C38.375,13.25 38.4427093,13.317708 38.5625,13.3281253 Z M14.9062507,12.5260413 C14.9218747,12.635416 14.9635413,12.7187493 15.0989587,12.7083333 C15.2187507,12.7031253 15.2864587,12.625 15.2864587,12.510416 C15.2864587,12.4010413 15.2187507,12.317708 15.114584,12.317708 C14.994792,12.317708 14.9114587,12.385416 14.9062507,12.5260413 Z M45.177084,12.932292 C45.1614587,12.8281253 45.109376,12.744792 44.994792,12.75 C44.880208,12.75 44.7968747,12.8333333 44.7968747,12.942708 C44.7916667,13.0520827 44.859376,13.130208 44.9739587,13.130208 C45.0937507,13.130208 45.1562507,13.0520827 45.177084,12.932292 Z M20.505208,14.7031253 C20.6041667,14.6666667 20.6979173,14.619792 20.6927093,14.494792 C20.6927093,14.3906253 20.630208,14.3229173 20.5312507,14.317708 C20.4166667,14.3125 20.3437507,14.385416 20.3385413,14.489584 C20.3333333,14.5937493 20.3906253,14.6718747 20.505208,14.7031253 Z M14.052084,12.057292 C14.057292,11.9531253 14.0208333,11.869792 13.9114587,11.864584 C13.7916667,11.8593747 13.7135413,11.9218747 13.7031253,12.0416667 C13.6979173,12.135416 13.7135413,12.2343747 13.8333333,12.244792 C13.9635413,12.255208 14.0260427,12.1718747 14.052084,12.057292 Z M36.8958333,15.5156253 C36.880208,15.4270827 36.8437507,15.3541667 36.739584,15.3489587 C36.619792,15.3437493 36.557292,15.4166667 36.552084,15.5208333 C36.5468747,15.625 36.5989587,15.7135413 36.7187507,15.7135413 C36.8333333,15.7083333 36.875,15.619792 36.8958333,15.5156253 Z M35.6718747,14.385416 C35.677084,14.2864587 35.6354173,14.2135415 35.5416667,14.2083333 C35.432292,14.1979173 35.3541667,14.260416 35.3437507,14.375 C35.3385413,14.4583333 35.375,14.5416667 35.4791667,14.5520827 C35.5937507,14.5625 35.6562507,14.5 35.6718747,14.385416 Z M12.0156253,14.6041667 C12.005208,14.510416 11.9635413,14.442708 11.869792,14.4479173 C11.7604173,14.4531161 11.6875,14.5260413 11.6927093,14.635416 C11.6927093,14.7239587 11.755208,14.7968747 11.8541667,14.7916667 C11.9583333,14.7812507 12.005208,14.6979173 12.0156253,14.6041667 Z M35.7656253,20.6510413 C35.75,20.5729173 35.7187507,20.5 35.619792,20.505208 C35.5208333,20.5156253 35.4427093,20.567708 35.4479173,20.6770827 C35.4531253,20.760416 35.5,20.8281253 35.5937507,20.8281253 C35.7031253,20.8281253 35.744792,20.75 35.7656253,20.6510413 Z M25.109376,21.119792 C25.0937507,21.0312507 25.052084,20.9635413 24.9583333,20.9635413 C24.859376,20.9583333 24.807292,21.0312507 24.807292,21.125 C24.8125,21.2083333 24.864584,21.2812507 24.9531253,21.2812507 C25.057292,21.2812507 25.0937507,21.2031253 25.109376,21.119792 Z M15.5625,10.2864587 C15.489584,10.3125 15.427084,10.3593747 15.427084,10.442708 C15.427084,10.5260413 15.4583333,10.5989587 15.5625,10.5989587 C15.6510427,10.5937493 15.7083333,10.5416667 15.7083333,10.4531253 C15.7083333,10.369792 15.6562507,10.3125 15.5625,10.2864587 Z M19.5208333,15.9687493 C19.5,15.8906253 19.4635413,15.8229173 19.369792,15.8229173 C19.2760427,15.8229173 19.2291667,15.880208 19.2291667,15.9739587 C19.2291667,16.0520827 19.2604173,16.114584 19.3541667,16.1093747 C19.4427093,16.1041667 19.5,16.057292 19.5208333,15.9687493 Z M34.0625,18.994792 C33.984376,19.0156253 33.9218747,19.0625 33.927084,19.1510413 C33.927084,19.2343747 33.9791667,19.2916667 34.0625,19.2916667 C34.1406253,19.2916667 34.1979173,19.244792 34.2031253,19.1614587 C34.2083333,19.0625 34.1458333,19.0208333 34.0625,18.994792 Z" id="Shape" fill="#000000" fill-rule="nonzero" mask="url(#mask-2)"></path>
            </g>
            <g id="Clipped" transform="translate(12.2031, 0)">
                <mask id="mask-4" fill="white">
                    <use xlink:href="#path-3"></use>
                </mask>
                <g id="Path"></g>
                <path d="M15.8125,18.9687493 C15.9375,19.2239587 16.0156253,19.442708 16.0468747,19.6718747 C16.182292,20.7864573 15.3958333,21.7239587 14.2656253,21.7916667 C13.6770827,21.828124 13.1510413,21.6718747 12.7083333,21.2760413 C12.3906253,20.9947907 12.3385413,20.6562493 12.5208333,20.2760413 C12.5989587,20.1041667 12.7187493,19.9635413 12.8437493,19.822916 C12.942708,19.7083333 13.0156253,19.7395827 13.0885413,19.8437493 C13.1666667,19.9635413 13.2135413,20.0937493 13.25,20.2291667 C13.2812507,20.3489587 13.317708,20.4687493 13.3906253,20.578124 C13.5156253,20.7708333 13.75,20.817708 13.9479173,20.692708 C14.1718747,20.557292 14.2812507,20.260416 14.2031253,20 C14.130208,19.7395827 13.9791667,19.5312493 13.7968747,19.3437493 C13.5989587,19.135416 13.3906253,18.942708 13.2187493,18.7135413 C12.7968747,18.1614573 12.7656253,17.557292 13.1406253,16.9635413 C13.2708333,16.755208 13.4166667,16.5520827 13.5625,16.3541667 C14.135416,15.5468747 14.2656253,15.1718747 14.307292,14.1562493 C14.5312507,14.5833333 14.6562507,15.010416 14.7031253,15.4635413 C14.739584,15.822916 14.7708333,16.182292 14.8958333,16.5260413 C15.0833333,17.057292 15.4739587,17.3958333 15.9687493,17.6197907 C16.3489587,17.7968747 16.75,17.9114573 17.119792,18.1041667 C18.3281253,18.7447907 19.005208,19.7291667 19.0260413,21.125 C19.0260413,21.192708 19.0260413,21.2656253 19.0468747,21.3333333 C19.2187493,21.067708 19.307292,20.7708333 19.3489587,20.4687493 C19.4583333,19.6770827 19.1979173,18.9635413 18.8281253,18.2864573 C18.5,17.6875 17.994792,17.2760413 17.3906253,16.9791667 C16.9166667,16.75 16.432292,16.5468747 16.0312507,16.192708 C15.260416,15.510416 14.6510413,14.7083333 14.4010413,13.7135413 C14.0208333,12.1875 14.3333333,10.8125 15.4843747,9.682292 C15.8593747,9.317708 16.2343747,8.953124 16.5312507,8.52604133 C16.7760413,8.17708267 16.9583333,7.79687467 17.0833333,7.39062533 C17.260416,6.79166667 17.1770827,6.24479067 16.8125,5.73958267 C16.5885413,5.42187467 16.3541667,5.11458267 16.1510413,4.78645733 C15.692708,4.0625 15.6510413,3.328124 16.0729173,2.578124 C16.1510413,2.442708 16.2187493,2.29687467 16.307292,2.16666667 C16.744792,1.505208 16.7656253,0.828124 16.3906253,0.130208 C16.369792,0.0989586667 16.3385413,0.0625 16.3593747,0 C16.7135413,0.479166667 17.0312507,0.958333333 17.0208333,1.572916 C17.0208333,1.84374933 16.932292,2.09895867 16.8541667,2.34895867 C16.5729173,3.25 16.8593747,4.010416 17.4062507,4.71354133 C17.630208,5 17.8593747,5.28124933 18.0520827,5.58854133 C18.567708,6.39062533 18.807292,7.26562533 18.7291667,8.21874933 C18.6875,8.73958267 18.4479173,9.192708 18.135416,9.59895867 C17.9270827,9.880208 17.692708,10.1458333 17.4739587,10.4166667 C16.869792,11.1770827 16.6614587,12.0208333 16.9531253,12.9635413 C17.0781253,13.3593747 17.3229173,13.682292 17.6041667,13.9739587 C17.9739587,14.3593747 18.4114587,14.6718747 18.8125,15.0208333 C19.2083333,15.3645827 19.5156253,15.7656253 19.7031253,16.260416 C19.7135413,16.2864573 19.7239587,16.3125 19.755208,16.3333333 C19.8541667,15.682292 19.817708,15.0625 19.3437493,14.5468747 C19.114584,14.3020827 18.8593747,14.0885413 18.6093747,13.8697907 C18.2083333,13.510416 17.9270827,13.0937493 17.8437493,12.5520827 C17.8125,12.375 17.8281253,12.197916 17.875,12.0312493 C18.0364587,11.432292 18.3281253,10.9062493 18.7291667,10.432292 C18.6562507,10.6562493 18.5833333,10.885416 18.510416,11.1145827 C18.3593747,11.5833333 18.4531253,12 18.7656253,12.385416 C19.0729173,12.755208 19.442708,13.057292 19.807292,13.3645827 C20.494792,13.932292 21.0781253,14.578124 21.4062507,15.4166667 C22.0729173,17.1406253 21.7864587,19.328124 20.135416,20.6458333 C19.9791667,20.7760413 19.807292,20.8906253 19.6041667,21.0364573 C19.885416,21.0312493 20.1093747,20.9791667 20.3333333,20.9166667 C20.880208,20.760416 21.375,20.5 21.7968747,20.1145827 C22.2968747,19.6614573 22.369792,19.3385413 22.130208,18.7083333 C22.067708,18.5468747 22.005208,18.380208 21.9583333,18.2135413 C21.8385413,17.807292 21.9218747,17.2343747 22.1562507,16.8125 C22.114584,17.442708 22.4166667,17.9062493 22.7708333,18.3541667 C23.005208,18.6458333 23.2343747,18.942708 23.3906253,19.2864573 C23.9010413,20.385416 23.0989587,21.3489587 22.2916667,21.5885413 C22.0520827,21.6562493 21.8125,21.682292 21.5468747,21.625 C21.5781253,21.75 21.6614587,21.807292 21.7343747,21.875 C22.6979173,22.7812493 24.255208,22.578124 24.9635413,21.4583333 C25.130208,21.1875 25.260416,20.9062493 25.3437493,20.5989587 C25.489584,20.0260413 25.4218747,19.4947907 24.9843747,19.010416 C25.307292,19.010416 25.5937493,19.0416667 25.875,19.078124 C26.6562507,19.182292 27.3958333,19.4010413 28.0260413,19.9114573 C28.3906253,20.2083333 28.6614587,20.572916 28.817708,21.0156253 C28.864584,21.1510413 28.9218747,21.1770827 29.0364587,21.0989587 C29.1041667,21.0520827 29.182292,21.0156253 29.25,20.9635413 C29.614584,20.6718747 29.5625,20.307292 29.135416,20.1093747 C29.1614587,20.6458333 29.135416,20.75 28.9166667,20.9010413 C28.942708,20.3645827 28.6614587,19.932292 28.494792,19.4687493 C28.3593747,19.0937493 28.4739587,18.7812493 28.75,18.5156253 C28.8958333,18.375 29.067708,18.255208 29.2187493,18.1145827 C29.505208,17.8541667 29.5312507,17.567708 29.3125,17.2447907 C29.2083333,17.0937493 29.067708,16.9895827 28.9375,16.875 C28.4531253,16.4635413 28.3437493,16.067708 28.5416667,15.4687493 C28.6875,15.0416667 28.9010413,14.6510413 29.1875,14.3020827 C29.2239587,14.255208 29.260416,14.182292 29.3229173,14.2083333 C29.385416,14.2291667 29.3489587,14.3020827 29.3489587,14.3541667 C29.3489587,14.6145827 29.255208,14.8593747 29.1875,15.1093747 C29.1562507,15.2239587 29.125,15.3333333 29.1041667,15.442708 C29.0208333,15.875 29.1718747,16.203124 29.5520827,16.4218747 C29.7135413,16.510416 29.880208,16.5833333 30.0364587,16.6718747 C30.5468747,16.947916 30.744792,17.4270827 30.5937493,17.9843747 C30.5208333,18.2656253 30.380208,18.510416 30.2083333,18.7395827 C29.932292,19.1041667 29.9218747,19.4635413 30.2031253,19.8333333 C30.4635413,20.182292 30.5312507,20.578124 30.442708,21 C30.4010413,21.192708 30.307292,21.3489587 30.1093747,21.4218747 C30.0885413,21.4270827 30.067708,21.447916 30.0781253,21.4843747 C30.1979173,21.5468747 30.317708,21.5260413 30.4270827,21.4635413 C30.817708,21.2291667 30.9583333,20.7343747 30.75,20.3333333 C30.6510413,20.1510413 30.5312507,19.9739587 30.4218747,19.7916667 C30.2291667,19.4739587 30.2760413,19.1718747 30.4843747,18.880208 C30.5208333,18.8333333 30.557292,18.7812493 30.630208,18.7864573 C30.6770827,18.7916667 30.7343747,18.7656253 30.7656253,18.8125 C30.7864587,18.8541667 30.75,18.8958333 30.7239587,18.9270827 C30.557292,19.182292 30.630208,19.4114573 30.807292,19.6197907 C30.9166667,19.7447907 31.0208333,19.8697907 31.130208,19.9895827 C31.3281253,20.203124 31.3906253,20.442708 31.2812507,20.7239587 C31.244792,20.817708 31.2239587,20.9166667 31.192708,21.0208333 C31.8125,21.1145827 32.4218747,21.203124 33.0208333,21.3593747 C33.2187493,21.4062493 33.4166667,21.4635413 33.6041667,21.5468747 C33.692708,21.5833333 33.7812507,21.630208 33.8541667,21.692708 C34.057292,21.875 34.0312507,22.0833333 33.7864587,22.197916 C33.4791667,22.3437493 33.1458333,22.4062493 32.8125,22.4791667 C31.6770827,22.7135413 30.5260413,22.885416 29.369792,22.9843747 C27.869792,23.1145827 26.369792,23.25 24.864584,23.3333333 C21.5989587,23.510416 18.3281253,23.578124 15.057292,23.5312493 C13.3125,23.505208 11.5625,23.453124 9.8125,23.3541667 C8.29166667,23.2656253 6.77083333,23.1562493 5.25,23.005208 C4.10937467,22.8906253 2.96874933,22.755208 1.83854133,22.5260413 C1.57291733,22.4687493 1.3125,22.4062493 1.04687467,22.3437493 C0.953125333,22.322916 0.864584,22.2812493 0.781250667,22.2291667 C0.505208,22.0520827 0.505208,21.817708 0.786458667,21.6510413 C1.135416,21.447916 1.53125067,21.375 1.92187467,21.2916667 C2.869792,21.0937493 3.82812533,20.9739587 4.79687467,20.8906253 C4.8125,20.8125 4.739584,20.7760413 4.70833333,20.7239587 C4.494792,20.4114573 4.494792,20.1770827 4.71874933,19.875 C4.8125,19.75 4.90104133,19.6197907 5.005208,19.505208 C5.26562533,19.2135413 5.35416667,18.9062493 5.14583333,18.5468747 C5.125,18.510416 5.119792,18.4687493 5.10416667,18.4270827 C5.385416,18.447916 5.619792,18.807292 5.57291733,19.125 C5.54687467,19.3125 5.46874933,19.4843747 5.385416,19.6510413 C5.130208,20.1718747 5.22395867,20.682292 5.64583333,21.078124 C5.869792,21.2864573 6.125,21.4218747 6.42708267,21.4739587 C6.442708,21.4062493 6.39062533,21.3958333 6.364584,21.3697907 C5.91666667,20.932292 5.66666667,20.4166667 5.76562533,19.7760413 C5.78645867,19.630208 5.84895867,19.5 5.91666667,19.3697907 C6.15625067,18.947916 6.0625,18.572916 5.755208,18.2239587 C5.630208,18.078124 5.489584,17.942708 5.364584,17.7968747 C5.02604133,17.3958333 5.010416,17.0312493 5.3125,16.5885413 C5.442708,16.3958333 5.57812533,16.203124 5.70312533,16 C5.94791733,15.5885413 5.95312533,15.1562493 5.78645867,14.7135413 C5.71874933,14.5312493 5.65104133,14.3593747 5.57812533,14.1666667 C5.71354133,14.182292 5.79687467,14.255208 5.875,14.322916 C6.32812533,14.697916 6.635416,15.1458333 6.635416,15.760416 C6.635416,15.9687493 6.5625,16.1666667 6.47916667,16.3489587 C6.27604133,16.7916667 6.33854133,17.1666667 6.71354133,17.4895827 C6.864584,17.6145827 7,17.75 7.135416,17.885416 C7.52083333,18.2708333 7.59374933,18.6458333 7.364584,19.135416 C7.23437467,19.4062493 7.07812533,19.6666667 6.942708,19.9375 C6.78125067,20.2656253 6.77083333,20.5833333 6.97916667,20.9010413 C7.04687467,21 7.07812533,21.0260413 7.14062533,20.8958333 C7.27604133,20.6093747 7.51562533,20.4062493 7.78125067,20.2447907 C8.95312533,19.5312493 10.1979173,19.3385413 11.5260413,19.7239587 C11.6666667,19.760416 11.8020827,19.8020827 11.942708,19.8437493 C11.9479173,19.8489587 11.9531253,19.8593747 11.9635413,19.875 C11.5208333,19.9114573 11.0885413,19.9843747 10.6875,20.1666667 C10.2812507,20.3489587 9.932292,20.5989587 9.76562533,21.0416667 C9.755208,21.0833333 9.739584,21.1197907 9.72916667,21.1614573 C9.682292,21.3541667 9.692708,21.3593747 9.885416,21.3125 C10.2656253,21.2291667 10.630208,21.2812493 10.9635413,21.4947907 C11.130208,21.5989587 11.2760413,21.7187493 11.4114587,21.8593747 C12.0885413,22.5208333 12.9114587,22.697916 13.817708,22.6197907 C14.3125,22.578124 14.7916667,22.4791667 15.2291667,22.2395827 C15.8385413,21.9010413 16.2760413,21.4166667 16.3906253,20.7083333 C16.494792,20.0833333 16.2864587,19.5312493 15.9062507,19.0364573 C15.8958333,19.0208333 15.875,19.010416 15.8125,18.9687493 Z" id="Path" fill="#000000" fill-rule="nonzero" mask="url(#mask-4)"></path>
            </g>
            <path d="M12.6562507,21.947916 C12.7187507,22.2760413 12.9739587,22.385416 13.234376,22.4739587 C13.7135413,22.6406253 14.2083333,22.7447907 14.7083333,22.8489587 C16.2239587,23.1562493 17.7604173,23.3593747 19.302084,23.5208333 C21.0260427,23.697916 22.75,23.7916667 24.484376,23.8645827 C27.0208333,23.9635413 29.5677093,24.005208 32.109376,23.9375 C34.0885413,23.885416 36.0677093,23.8125 38.0364587,23.6406253 C39.6666667,23.5 41.2916667,23.3333333 42.9010427,23.0625 C43.875,22.8958333 44.859376,22.760416 45.7968747,22.4166667 C46.0312507,22.3333333 46.255208,22.2343747 46.2812507,21.9114573 C46.5937507,22.125 46.739584,22.4062493 46.7760427,22.7447907 C46.8281253,23.1770827 46.609376,23.510416 46.1614587,23.7343747 C45.5,24.072916 44.7760427,24.2291667 44.052084,24.3697907 C43.0937507,24.557292 42.119792,24.6718747 41.1458333,24.7760413 C39.4583333,24.9635413 37.7708333,25.072916 36.0781253,25.1614573 C33.119792,25.317708 30.1614587,25.4062493 27.2031253,25.3333333 C25.557292,25.2916667 23.9114587,25.2239587 22.2656253,25.130208 C20.625,25.0312493 18.9791667,24.9375 17.3437507,24.75 C16.2760427,24.625 15.2083333,24.4947907 14.1614587,24.2239587 C13.7187507,24.1145827 13.2760427,23.9947907 12.864584,23.7864573 C12.5677093,23.635416 12.2968747,23.453124 12.1927093,23.1145827 C12.0677093,22.7083333 12.2656253,22.2135413 12.6562507,21.947916 Z" id="Path" fill="#000000" fill-rule="nonzero"></path>
            <path d="M56.3281253,14.5260413 C56.4583333,15.135416 56.5364587,15.7656253 56.984376,16.255208 C57.4375,16.7447907 58.0677093,16.822916 58.7135413,16.942708 C58.4635413,17 58.244792,17.057292 58.0312507,17.1093747 C57.244792,17.2916667 56.7864587,17.8125 56.557292,18.557292 C56.4739587,18.822916 56.4166667,19.0937493 56.4010427,19.3697907 C56.3958333,19.4218747 56.4062507,19.4791667 56.3489587,19.5364573 C56.2864587,18.8697907 56.177084,18.2239587 55.734376,17.7135413 C55.2812507,17.1875 54.625,17.0989587 53.989584,16.953124 C54.3177093,16.9062493 54.630208,16.817708 54.9427093,16.7239587 C55.5260427,16.5364573 55.9114587,16.1562493 56.119792,15.5833333 C56.239584,15.2447907 56.3125,14.8906253 56.3281253,14.5260413 Z" id="Path" fill="#000000" fill-rule="nonzero"></path>
            <path d="M44.994792,16.447916 C45.2604173,16.3697907 45.5156253,16.3020827 45.7812507,16.2343747 C46.505208,16.0520827 46.8437507,15.557292 46.9635413,14.8593747 C46.989584,14.703124 47.0156253,14.5520827 47.0416667,14.3906253 C47.0781253,14.5520827 47.109376,14.7187493 47.1406253,14.885416 C47.1927093,15.125 47.2604173,15.3645827 47.380208,15.5833333 C47.5833333,15.9583333 47.9375,16.1197907 48.3177093,16.2447907 C48.5833333,16.3333333 48.8541667,16.3906253 49.182292,16.4375 C48.869792,16.5156253 48.6041667,16.567708 48.3437507,16.6510413 C47.802084,16.8333333 47.4635413,17.197916 47.2812507,17.7291667 C47.1562507,18.078124 47.1041667,18.442708 47.052084,18.807292 C47.0260427,18.5260413 46.9791667,18.25 46.9166667,17.9739587 C46.7135413,17.0885413 46.114584,16.6510413 45.255208,16.505208 C45.1666667,16.4895827 45.0833333,16.4687493 44.994792,16.447916 Z" id="Path" fill="#000000" fill-rule="nonzero"></path>
            <path d="M9.984376,16.4375 C10.5625,16.3125 11.119792,16.255208 11.5364587,15.875 C11.9739587,15.4791667 12.0260427,14.9270827 12.0937507,14.3906253 C12.1562507,14.6510413 12.2083333,14.9114573 12.2760427,15.1770827 C12.4218747,15.7395827 12.7916667,16.0885413 13.3489587,16.2447907 C13.6041667,16.317708 13.859376,16.380208 14.125,16.442708 C13.75,16.5260413 13.380208,16.6041667 13.0468747,16.7916667 C12.6979173,16.9895827 12.489584,17.3020827 12.3541667,17.6666667 C12.2187507,18.0312493 12.177084,18.4114573 12.109376,18.7968747 C12.057292,18.203124 11.9635413,17.630208 11.5833333,17.1562493 C11.1927093,16.6718747 10.5885413,16.6093747 9.984376,16.4375 Z" id="Path" fill="#000000" fill-rule="nonzero"></path>
            <path d="M41.7031253,6.97916667 C41.7760427,7.328124 41.8229173,7.67187467 41.9427093,8.005208 C42.0833333,8.385416 42.3281253,8.65104133 42.7187507,8.78645733 C43,8.885416 43.2864587,8.96354133 43.6041667,9.04166667 C42.2916667,9.20833333 41.734376,10 41.7083333,11.2447907 C41.6875,11.1041667 41.6718747,10.9583333 41.6458333,10.817708 C41.619792,10.6718747 41.5885413,10.5208333 41.552084,10.375 C41.4010427,9.76562533 41.0156253,9.380208 40.4166667,9.203124 C40.2187507,9.14583333 40.0208333,9.09374933 39.7916667,9.03124933 C40.0104173,8.97916667 40.1979173,8.9375 40.3854173,8.885416 C41.2239587,8.67187467 41.5,8.33333333 41.6562507,7.442708 C41.682292,7.29166667 41.6875,7.130208 41.7031253,6.97916667 Z" id="Path" fill="#000000" fill-rule="nonzero"></path>
            <path d="M15.557292,9.03124933 C17.2604173,8.79687467 17.3281253,8.005208 17.4375,6.95833333 C17.5156253,7.317708 17.557292,7.65624933 17.6718747,7.97916667 C17.802084,8.36458267 18.0468747,8.64062533 18.4427093,8.78124933 C18.7291667,8.880208 19.0104173,8.97916667 19.3281253,9.04166667 C18.0104173,9.203124 17.489584,10.0312493 17.4531253,11.2656253 C17.234376,9.64583333 17.052084,9.432292 15.557292,9.03124933 Z" id="Path" fill="#000000" fill-rule="nonzero"></path>
            <path d="M38.494792,14.3906253 C38.3333333,12.9062493 37.994792,12.4114573 36.557292,12.2083333 C37.0781253,12.0468747 37.614584,12 37.989584,11.5989587 C38.359376,11.203124 38.4166667,10.692708 38.494792,10.1666667 C38.5468747,11.3906253 39.1614587,12.0833333 40.4218747,12.1614573 C39.0729173,12.307292 38.5312507,13.125 38.494792,14.3906253 Z" id="Path" fill="#000000" fill-rule="nonzero"></path>
            <path d="M22.7656253,12.1510413 C21.677084,12.3958333 21.0729173,12.7239587 20.9218747,14.2760413 C20.8958333,13.0468747 20.3489587,12.2760413 19.052084,12.1718747 C19.3281253,12.0833333 19.5885413,12.0208333 19.8489587,11.942708 C20.3229173,11.7864573 20.619792,11.4687493 20.7604173,10.9947907 C20.8489587,10.697916 20.9114587,10.3958333 20.927084,10.078124 C21.005208,11.2447907 21.4531253,12.072916 22.7656253,12.1510413 Z" id="Path" fill="#000000" fill-rule="nonzero"></path>
            <path d="M13.8125,5.99479067 C12.5677093,6.22395867 12.3437507,6.74479067 12.1875,7.84895867 C12.1458333,6.828124 11.6979173,6.14583333 10.6041667,6.02083333 C11.0156253,5.875 11.4531253,5.85937467 11.7604173,5.53645733 C12.0625,5.21874933 12.114584,4.80208267 12.1875,4.39062533 C12.2864587,4.79687467 12.3229173,5.22916667 12.6406253,5.54166667 C12.9583333,5.85416667 13.3958333,5.885416 13.8125,5.99479067 Z" id="Path" fill="#000000" fill-rule="nonzero"></path>
            <path d="M48.6666667,12.578124 C49.5989587,12.5 50.0312507,11.9791667 50.057292,11.078124 C50.0833333,11.2708333 50.109376,11.453124 50.1614587,11.635416 C50.2135413,11.822916 50.2708333,12.005208 50.4114587,12.1458333 C50.5468747,12.2812493 50.7083333,12.380208 50.8906253,12.432292 C51.0729173,12.4843747 51.2604173,12.5208333 51.4687507,12.567708 C51.0781253,12.703124 50.6718747,12.7708333 50.4114587,13.1093747 C50.1614587,13.4375 50.0989587,13.822916 50.0677093,14.2239587 C49.994792,13.9791667 49.9687507,13.7291667 49.8854173,13.4895827 C49.7916667,13.2343747 49.6614587,13.010416 49.4114587,12.875 C49.182292,12.7447907 48.932292,12.6718747 48.6666667,12.578124 Z" id="Path" fill="#000000" fill-rule="nonzero"></path>
            <path d="M9.21875067,11.0833333 C9.359376,12.1093747 9.58854133,12.3593747 10.630208,12.567708 C10.2291667,12.697916 9.85416667,12.7916667 9.59895867,13.1041667 C9.34375067,13.4218747 9.28125067,13.7968747 9.21354133,14.197916 C9.177084,13.2968747 8.77083333,12.7083333 7.83854133,12.572916 C7.994792,12.5312493 8.15104267,12.4791667 8.3125,12.442708 C8.94270933,12.2968747 9.09895867,11.9166667 9.177084,11.4062493 C9.19270933,11.2968747 9.20312533,11.192708 9.21875067,11.0833333 Z" id="Path" fill="#000000" fill-rule="nonzero"></path>
            <path d="M33.1406253,9.66666667 C33.4635413,10.6093747 33.4635413,10.6093747 34.4531253,10.9270827 C33.5833333,11.0520827 33.2239587,11.572916 33.1666667,12.3697907 C33.114584,11.572916 32.7760427,11.0260413 31.9114587,10.9010413 C32.6510427,10.8020827 33.125,10.4635413 33.1406253,9.66666667 Z" id="Path" fill="#000000" fill-rule="nonzero"></path>
            <path d="M24.0989587,14.755208 C24.0260427,14.4062493 23.9739587,14.067708 23.7291667,13.807292 C23.494792,13.5520827 23.1666667,13.4739587 22.8437507,13.3593747 C23.552084,13.2708333 24.057292,12.9843747 24.0729173,12.1614573 C24.1510427,12.947916 24.625,13.2760413 25.3489587,13.375 C24.557292,13.510416 24.1562507,13.9791667 24.0989587,14.755208 Z" id="Path" fill="#000000" fill-rule="nonzero"></path>
            <path d="M24.6562507,9.078124 C24.989584,9.98437467 25.0156253,10.005208 25.864584,10.197916 C25.6718747,10.2864573 25.4739587,10.307292 25.302084,10.3958333 C25.125,10.4895827 24.984376,10.6145827 24.880208,10.7864573 C24.7760427,10.9583333 24.739584,11.1510413 24.6614587,11.3593747 C24.5625,10.7135413 24.2187507,10.3020827 23.5416667,10.182292 C24.1718747,10.0885413 24.6406253,9.84374933 24.6562507,9.078124 Z" id="Path" fill="#000000" fill-rule="nonzero"></path>
            <path d="M34.6458333,15.6770827 C35.244792,15.578124 35.6614587,15.3125 35.6875,14.630208 C35.75,15.2968747 36.130208,15.6145827 36.7760427,15.692708 C36.125,15.817708 35.7864587,16.203124 35.7031253,16.8541667 C35.630208,16.2083333 35.2916667,15.8125 34.6458333,15.6770827 Z" id="Path" fill="#000000" fill-rule="nonzero"></path>
            <path d="M22.9166667,16.953124 C23.4739587,16.8958333 23.7708333,16.5885413 23.8541667,16.0260413 C23.9114587,16.578124 24.2187507,16.875 24.7656253,16.9583333 C24.234376,17.1197907 23.927084,17.453124 23.869792,18.010416 C23.7656253,17.4635413 23.4791667,17.0989587 22.9166667,16.953124 Z" id="Path" fill="#000000" fill-rule="nonzero"></path>
            <path d="M14.255208,19.0520827 C14.6927093,18.9739587 14.9010427,18.7083333 14.9218747,18.2760413 C15.0260427,18.6666667 15.2031253,18.9739587 15.6875,19.057292 C15.2187507,19.2135413 14.994792,19.5156253 14.9427093,19.9635413 C14.880208,19.5260413 14.6875,19.2083333 14.255208,19.0520827 Z" id="Path" fill="#000000" fill-rule="nonzero"></path>
            <path d="M35.239584,9.697916 C35.1562507,9.28124933 34.9114587,9.01562533 34.489584,8.885416 C34.9010427,8.78124933 35.177084,8.557292 35.239584,8.11979067 C35.2864587,8.54687467 35.5416667,8.77083333 35.9687507,8.89583333 C35.5208333,9.01562533 35.2968747,9.27604133 35.239584,9.697916 Z" id="Path" fill="#000000" fill-rule="nonzero"></path>
            <path d="M44.1666667,19.067708 C44.5729173,18.947916 44.802084,18.7187493 44.8333333,18.307292 C44.8958333,18.697916 45.0989587,18.9583333 45.5468747,19.072916 C45.0989587,19.2135413 44.927084,19.5208333 44.8489587,19.9114573 C44.7864587,19.505208 44.5677093,19.2343747 44.1666667,19.067708 Z" id="Path" fill="#000000" fill-rule="nonzero"></path>
            <path d="M21.6666667,18.6458333 C21.5885413,18.2968747 21.3854173,18.072916 21.0416667,17.9270827 C21.3854173,17.8437493 21.5729173,17.635416 21.6510427,17.307292 C21.7239587,17.447916 21.7187507,17.5989587 21.8333333,17.703124 C21.9375,17.7968747 22.057292,17.8697907 22.2239587,17.9375 C21.9114587,18.0937493 21.7187507,18.3125 21.6666667,18.6458333 Z" id="Path" fill="#000000" fill-rule="nonzero"></path>
            <path d="M15.9687507,14.0416667 C15.6406253,14.203124 15.4218747,14.4270827 15.4218747,14.828124 C15.1927093,14.25 15.1927093,14.25 14.8437507,14.0520827 C15.177084,13.9375 15.364584,13.7135413 15.3958333,13.3385413 C15.4739587,13.505208 15.4791667,13.6666667 15.5781253,13.7916667 C15.677084,13.9166667 15.7968747,13.9947907 15.9687507,14.0416667 Z" id="Path" fill="#000000" fill-rule="nonzero"></path>
            <path d="M43.5104173,14.0885413 C43.864584,13.9895827 44.0260427,13.7656253 44.0729173,13.4375 C44.1458333,13.75 44.3281253,13.9635413 44.625,14.0833333 C44.2239587,14.307292 44.1510427,14.4114573 44.0989587,14.807292 C44.0208333,14.4843747 43.8854173,14.2083333 43.5104173,14.0885413 Z" id="Path" fill="#000000" fill-rule="nonzero"></path>
            <path d="M32.609376,8.5 C32.6041667,8.6875 32.427084,8.84895867 32.234376,8.84374933 C32.052084,8.83333333 31.8906253,8.65104133 31.8958333,8.46354133 C31.9010427,8.28124933 32.0729173,8.11458267 32.25,8.11979067 C32.4479173,8.11979067 32.614584,8.29687467 32.609376,8.5 Z" id="Path" fill="#000000" fill-rule="nonzero"></path>
            <path d="M24.7187507,7.45833333 C24.7135413,7.64583333 24.5364587,7.807292 24.3437507,7.79687467 C24.1718747,7.78645733 23.994792,7.60416667 24.005208,7.4375 C24.0104173,7.25 24.2031253,7.08333333 24.3958333,7.09374933 C24.5729173,7.09895867 24.7239587,7.27604133 24.7187507,7.45833333 Z" id="Path" fill="#000000" fill-rule="nonzero"></path>
            <path d="M36.1510427,12.7916667 C36.1510427,12.9635413 35.984376,13.125 35.807292,13.125 C35.6510427,13.125 35.484376,12.947916 35.489584,12.7864573 C35.494792,12.630208 35.6614587,12.4739587 35.8229173,12.4739587 C36.005208,12.4739587 36.1510427,12.6145827 36.1510427,12.7916667 Z" id="Path" fill="#000000" fill-rule="nonzero"></path>
            <path d="M39.0364587,16.5520827 C39.0416667,16.7083333 38.8854173,16.8645827 38.7239587,16.8697907 C38.557292,16.8697907 38.3958333,16.7187493 38.3906253,16.5520827 C38.3906253,16.385416 38.5312507,16.2395827 38.7031253,16.2395827 C38.864584,16.2343747 39.0312507,16.3906253 39.0364587,16.5520827 Z" id="Path" fill="#000000" fill-rule="nonzero"></path>
            <path d="M21.005208,16.557292 C21.005208,16.7083333 20.8541667,16.8645827 20.7083333,16.8593747 C20.5468747,16.8593747 20.3906253,16.7083333 20.3906253,16.5520827 C20.3854173,16.380208 20.5260427,16.2447907 20.6979173,16.2447907 C20.864584,16.2447907 21.005208,16.385416 21.005208,16.557292 Z" id="Path" fill="#000000" fill-rule="nonzero"></path>
        </g>
    </g>
</svg>