<?xml version="1.0" encoding="UTF-8"?>
<svg width="70.9843747px" height="44.994792px" viewBox="0 0 70.9843747 44.994792" version="1.1" xmlns="http://www.w3.org/2000/svg" xmlns:xlink="http://www.w3.org/1999/xlink">
    <title>Rare</title>
    <defs>
        <polygon id="path-1" points="0 0 71 0 71 45 0 45"></polygon>
    </defs>
    <g id="Page-1" stroke="none" stroke-width="1" fill="none" fill-rule="evenodd">
        <g id="Rare" transform="translate(-0, -0.0052)">
            <mask id="mask-2" fill="white">
                <use xlink:href="#path-1"></use>
            </mask>
            <g id="Path"></g>
            <path d="M37.4270827,33.807292 C40.119792,30.8541667 44.640624,24.8281253 44.640624,17.8906253 C44.640624,8.01041733 35.4791667,0.005208 35.4791667,0.005208 C35.4791667,0.005208 26.322916,8.01041733 26.322916,17.8906253 C26.322916,24.8177093 30.9010413,30.8541667 33.5468747,33.807292 C30.6145827,31.0937507 24.640624,26.5364587 17.744792,26.5364587 C7.947916,26.5364587 7.57912251e-14,35.7708333 7.57912251e-14,35.7708333 C7.57912251e-14,35.7708333 7.947916,45 17.744792,45 C27.5468747,45 35.494792,35.7708333 35.494792,35.7708333 C35.494792,35.7708333 43.4375,45 53.2395827,45 C63.0364587,45 70.9843747,35.7708333 70.9843747,35.7708333 C70.9843747,35.7708333 63.0260413,26.5364587 53.2291667,26.5364587 C46.3593747,26.5364587 40.3593747,31.0937507 37.4270827,33.807292 Z" id="Path" fill="#000000" fill-rule="nonzero" mask="url(#mask-2)"></path>
        </g>
    </g>
</svg>