<?xml version="1.0" encoding="UTF-8"?>
<svg width="28px" height="50.765624px" viewBox="0 0 28 50.765624" version="1.1" xmlns="http://www.w3.org/2000/svg" xmlns:xlink="http://www.w3.org/1999/xlink">
    <title>Common</title>
    <defs>
        <polygon id="path-1" points="0 0 28 0 28 41.005208 0 41.005208"></polygon>
        <polygon id="path-3" points="0 0 2.63020933 0 2.63020933 46.6145827 0 46.6145827"></polygon>
    </defs>
    <g id="Icons-2" stroke="none" stroke-width="1" fill="none" fill-rule="evenodd">
        <g id="Common">
            <g id="Clipped">
                <mask id="mask-2" fill="white">
                    <use xlink:href="#path-1"></use>
                </mask>
                <g id="Path"></g>
                <path d="M14.2291667,0 C14.2291667,0 28.453124,16.145832 28.453124,27.4218747 C28.453124,38.692708 14.2291667,40.9791653 14.2291667,40.9791653 C14.2291667,40.9791653 0,38.692708 0,27.4218747 C0,16.145832 14.2291667,0 14.2291667,0" id="Path" fill="#000000" fill-rule="nonzero" mask="url(#mask-2)"></path>
            </g>
            <g id="Clipped" transform="translate(12.9115, 4.151)">
                <mask id="mask-4" fill="white">
                    <use xlink:href="#path-3"></use>
                </mask>
                <g id="Path"></g>
                <path d="M1.239584,0.0833333333 C1.239584,-0.0156253333 1.39062533,-0.0156253333 1.39062533,0.0833333333 L2.614584,45.2812493 C2.63020933,46 2.06770933,46.5989587 1.34895867,46.6145827 C0.635417333,46.635416 0.0364586667,46.067708 0.0156253333,45.3541667 C0.0156253333,45.3333333 0.0156253333,45.307292 0.0156253333,45.2812493 L1.239584,0.0833333333" id="Path" fill="#212121" fill-rule="nonzero" mask="url(#mask-4)"></path>
            </g>
        </g>
    </g>
</svg>