<?xml version="1.0" encoding="UTF-8"?>
<svg width="73.9791667px" height="42.9953908px" viewBox="0 0 73.9791667 42.9953908" version="1.1" xmlns="http://www.w3.org/2000/svg" xmlns:xlink="http://www.w3.org/1999/xlink">
    <title>Mythic</title>
    <defs>
        <polygon id="path-1" points="0 0 35.7916667 0 35.7916667 22.6666667 0 22.6666667"></polygon>
        <polygon id="path-3" points="0 0 18.6666667 0 18.6666667 41.8020827 0 41.8020827"></polygon>
        <polygon id="path-5" points="0 0 35.5416667 0 35.5416667 22.6666667 0 22.6666667"></polygon>
    </defs>
    <g id="Icons-2" stroke="none" stroke-width="1" fill="none" fill-rule="evenodd">
        <g id="Mythic" transform="translate(-0.0208, -0.0312)">
            <g id="Clipped" transform="translate(38.2083, 20.4687)">
                <mask id="mask-2" fill="white">
                    <use xlink:href="#path-1"></use>
                </mask>
                <g id="Path"></g>
                <path d="M35.8385413,1.04687467 C33.755208,8.494792 28.9687493,14.6875 22.2656253,18.5833333 C15.8385413,22.3125 8.46874933,23.4531253 1.307292,21.8541667 C1.33333333,21.8229173 1.364584,21.7968747 1.39062533,21.760416 L1.55208267,21.5833333 C1.66666667,21.4479173 1.78645867,21.3125 1.90625067,21.1770827 C2.41666667,20.5781253 2.92187467,19.9531253 3.40104133,19.3020827 C3.71874933,18.875 4.02604133,18.4375 4.32291733,18 C4.619792,17.5520827 4.90625067,17.0989587 5.17708267,16.6406253 C5.39062533,16.2864587 5.59374933,15.9218747 5.78645867,15.5625 C6.02604133,15.135416 6.244792,14.7031253 6.45833333,14.260416 C6.60937467,13.9583333 6.75,13.6614587 6.885416,13.3489587 C7.05208267,12.9739587 7.21354133,12.5989587 7.369792,12.2187493 C7.510416,11.864584 7.65104133,11.510416 7.78125067,11.1510413 C7.91145867,10.7916667 8.03645867,10.4270827 8.15104133,10.057292 C8.239584,9.8125 8.307292,9.567708 8.380208,9.317708 C8.41666667,9.20833333 8.44791733,9.10416667 8.47395867,8.994792 C8.57812533,8.635416 8.67187467,8.28125067 8.760416,7.92708267 C8.875,7.817708 8.994792,7.70833333 9.119792,7.59895867 C9.32812533,7.40104133 9.54166667,7.21874933 9.760416,7.04166667 C9.97395867,6.85937467 10.1770827,6.682292 10.3958333,6.51562533 C10.8020827,6.19791733 11.2187493,5.885416 11.6458333,5.57812533 C11.9270827,5.385416 12.2083333,5.182292 12.5,4.994792 C12.9739587,4.682292 13.4583333,4.385416 13.9531253,4.09374933 C16.432292,2.65104133 19.0885413,1.58854133 21.8541667,0.932292 C26.442708,-0.166666667 31.255208,-0.125 35.8385413,1.04687467 Z" id="Path" fill="#000000" fill-rule="nonzero" mask="url(#mask-2)"></path>
            </g>
            <path d="M58.6875,19.078124 C58.3437493,19.1666667 58.005208,19.265624 57.6718747,19.3697907 C57.4843747,19.4218747 57.3020827,19.4791653 57.125,19.5416667 C56.9062507,19.6145827 56.682292,19.6874987 56.4635413,19.760416 C56.4531253,19.760416 56.4479173,19.760416 56.442708,19.770832 C56.3281253,19.8072907 56.2031253,19.8489573 56.0885413,19.890624 C56.0364587,19.9062493 55.994792,19.9270827 55.942708,19.953124 C55.682292,20.0416667 55.4270827,20.140624 55.1770827,20.2395827 C54.4062507,20.5364573 53.6406253,20.880208 52.8958333,21.25 L52.432292,21.4843747 C52.385416,21.5 52.3385413,21.520832 52.3020827,21.5468747 C52.135416,21.630208 51.9687493,21.7135413 51.807292,21.8072907 C51.494792,21.9739573 51.182292,22.140624 50.875,22.322916 C50.5989587,22.4843747 50.3281253,22.645832 50.057292,22.8124987 C49.5208333,23.145832 48.9843747,23.5 48.4635413,23.8697907 C48.2083333,24.0520827 47.9479173,24.2395827 47.692708,24.4270827 C47.6979173,24.380208 47.7031253,24.3333333 47.7031253,24.2916667 C47.739584,24.0364573 47.7656253,23.7760413 47.7916667,23.520832 C47.8020827,23.3645827 47.8125,23.203124 47.8281253,23.0416667 C47.8333333,22.942708 47.8385413,22.8489573 47.8489587,22.75 C47.8541667,22.6770827 47.8593747,22.5989573 47.8593747,22.5260413 C47.880208,22.270832 47.8906253,22.020832 47.8958333,21.765624 C47.9114587,21.380208 47.9166667,21 47.9166667,20.6093747 C47.9166667,20.255208 47.9114587,19.890624 47.8958333,19.5364573 C47.8906253,19.2916667 47.880208,19.0468747 47.864584,18.8072907 C47.8541667,18.5624987 47.8385413,18.3124987 47.8125,18.072916 C47.7968747,17.7916667 47.7760413,17.505208 47.744792,17.2239573 C47.744792,17.203124 47.739584,17.1822907 47.739584,17.1614573 C47.7291667,17.0885413 47.7187493,17.010416 47.7135413,16.9322907 C47.7031253,16.8645827 47.6979173,16.8020827 47.6875,16.7291653 L47.6875,16.7135413 C47.682292,16.6666667 47.6718747,16.625 47.6666667,16.5833333 C47.6562507,16.453124 47.635416,16.317708 47.614584,16.1874987 C47.5833333,15.9166667 47.5364587,15.635416 47.494792,15.3645827 C47.4843747,15.322916 47.4791667,15.2760413 47.4687493,15.2291653 C47.4375,15.010416 47.3958333,14.7864573 47.3541667,14.5624987 C47.3541667,14.5520827 47.3437493,14.5312493 47.3385413,14.520832 C47.3125,14.3593747 47.2760413,14.1822907 47.244792,14.020832 C47.244792,13.9947907 47.2343747,13.9739573 47.2291667,13.947916 C47.2239587,13.9218747 47.2187493,13.890624 47.2083333,13.8645827 C47.1666667,13.645832 47.114584,13.4270827 47.0625,13.2135413 C47.057292,13.1874987 47.0520827,13.1562493 47.0416667,13.130208 C46.9739587,12.822916 46.8958333,12.5260413 46.817708,12.2291653 C46.817708,12.2187493 46.8125,12.197916 46.807292,12.1874987 C46.9218747,12.072916 47.0416667,11.9739573 47.182292,11.8437493 C47.510416,11.5624987 47.8385413,11.2916667 48.1666667,11.0260413 C48.8489587,10.4843747 49.5468747,9.98437467 50.2239587,9.53645733 C50.635416,9.260416 51.057292,9 51.4791667,8.75 C51.9062507,8.5 52.3281253,8.260416 52.7656253,8.03645733 C53.2031253,7.80208267 53.6406253,7.58854133 54.0781253,7.385416 C54.3020827,7.28645733 54.5260413,7.18229067 54.75,7.08333333 C55.1979173,6.890624 55.6510413,6.70833333 56.1041667,6.53645733 C56.875,6.25 57.6458333,5.99479067 58.4062507,5.77604133 C59.494792,10.140624 59.5989587,14.697916 58.6875,19.078124 Z" id="Path" fill="#000000" fill-rule="nonzero"></path>
            <g id="Clipped" transform="translate(27.5417, 0)">
                <mask id="mask-4" fill="white">
                    <use xlink:href="#path-3"></use>
                </mask>
                <g id="Path"></g>
                <path d="M17.8020827,20.6093747 C17.8020827,22.9062493 17.5416667,25.1874987 17.0208333,27.4010413 L17.0208333,27.4270827 C17.0156253,27.4322907 17.0156253,27.4374987 17.0156253,27.442708 C17.005208,27.4583333 17.005208,27.4791653 17,27.4895827 C16.9635413,27.6562493 16.9218747,27.8333333 16.880208,28.005208 C16.8333333,28.1770827 16.7864587,28.3437493 16.744792,28.515624 C16.0416667,31.0572907 14.994792,33.4947907 13.6406253,35.7812493 C13.385416,36.197916 13.125,36.6197907 12.8541667,37.0260413 C12.5781253,37.4322907 12.2968747,37.8333333 12.005208,38.2291653 C11.5625,38.822916 11.0989587,39.4062493 10.630208,39.947916 C10.5260413,40.072916 10.4166667,40.192708 10.307292,40.317708 L10.1458333,40.5 C9.9375,40.7291653 9.72395867,40.9583333 9.5,41.1822907 C9.45312533,41.145832 9.41666667,41.1145827 9.380208,41.072916 C9.34374933,41.0364573 9.3125,40.9947907 9.27083333,40.9583333 C9.03645867,40.7083333 8.79687467,40.453124 8.567708,40.1874987 C8.4375,40.0468747 8.307292,39.895832 8.192708,39.75 C7.91145867,39.4270827 7.64062533,39.0885413 7.375,38.7447907 C7.22395867,38.5468747 7.067708,38.3437493 6.92187467,38.140624 C6.760416,37.9270827 6.60416667,37.703124 6.45833333,37.4947907 C6.29687467,37.270832 6.14583333,37.0520827 6.005208,36.828124 C5.869792,36.6197907 5.73437467,36.4114573 5.60937467,36.203124 C5.42187467,35.9010413 5.239584,35.5989573 5.0625,35.2864573 C4.96354133,35.1197907 4.869792,34.942708 4.77083333,34.7760413 C4.64583333,34.5364573 4.52083333,34.3020827 4.40104133,34.067708 C4.04166667,33.3541653 3.70312533,32.630208 3.39583333,31.890624 C3.19791733,31.4010413 3.005208,30.9010413 2.83333333,30.4062493 C2.57291733,29.6770827 2.35416667,28.953124 2.16666667,28.2447907 C2.130208,28.1041653 2.09374933,27.9635413 2.057292,27.817708 L2.03125067,27.7135413 C2.01562533,27.6510413 2,27.5885413 1.97395867,27.4895827 C1.97395867,27.4687493 1.96874933,27.442708 1.96354133,27.4166667 C1.96354133,27.4114573 1.96354133,27.4062493 1.95833333,27.4010413 C1.95833333,27.390624 1.95833333,27.380208 1.94791733,27.375 C1.94791733,27.3541653 1.942708,27.3385413 1.9375,27.322916 C1.8125,26.7916667 1.70312533,26.260416 1.614584,25.7291653 C1.45312533,24.8072907 1.33333333,23.875 1.260416,22.942708 C1.22395867,22.4583333 1.19791733,21.9791653 1.1875,21.5 C1.17708267,21.203124 1.17187467,20.9062493 1.17187467,20.6093747 C1.17187467,17.7135413 1.58333333,14.8697907 2.40104133,12.145832 C2.40625067,12.125 2.41145867,12.1093747 2.41145867,12.0937493 C3.10937467,9.765624 4.09895867,7.53124933 5.34374933,5.43229067 C5.59374933,5.015624 5.85416667,4.59895733 6.130208,4.18749867 C6.27083333,3.97395733 6.41666667,3.765624 6.57291733,3.54687467 L6.95833333,3.015624 C6.95833333,3.010416 6.96354133,3.005208 6.96354133,2.99479067 C6.96874933,2.98958267 6.96874933,2.98958267 6.97916667,2.98437467 C7.119792,2.79166667 7.26562533,2.59374933 7.42187467,2.40104133 L7.880208,1.83333333 C8.39062533,1.20833333 8.932292,0.604165333 9.489584,0.0312493333 C10.0468747,0.598957333 10.5833333,1.20833333 11.0937493,1.822916 C11.255208,2.015624 11.4062507,2.20833333 11.5625,2.40104133 C11.755208,2.65624933 11.9479173,2.90624933 12.119792,3.145832 L12.25,3.322916 C12.4531253,3.60937467 12.6562507,3.90104133 12.8489587,4.18229067 C13.119792,4.59374933 13.385416,5.015624 13.6406253,5.43229067 C14.885416,7.53124933 15.869792,9.765624 16.5625,12.0885413 C16.5625,12.1093747 16.567708,12.125 16.5781253,12.145832 C17.3906253,14.8697907 17.8020827,17.7187493 17.8020827,20.6093747 Z" id="Path" fill="#000000" fill-rule="nonzero" mask="url(#mask-4)"></path>
            </g>
            <path d="M27.255208,12.1874987 C27.2343747,12.2760413 27.2083333,12.375 27.182292,12.4635413 C27.1510413,12.578124 27.119792,12.703124 27.0937493,12.817708 C27.0364587,13.0312493 26.9843747,13.2447907 26.9375,13.4583333 C26.9114587,13.5833333 26.880208,13.703124 26.864584,13.828124 C26.7864587,14.1562493 26.7187493,14.4843747 26.6614587,14.822916 C26.5937493,15.192708 26.5364587,15.567708 26.4843747,15.9374987 C26.4739587,15.947916 26.4739587,15.9635413 26.4739587,15.9739573 C26.4270827,16.322916 26.380208,16.6666667 26.3437493,17.010416 C26.3333333,17.0624987 26.3281253,17.1145827 26.3229173,17.1614573 C26.2916667,17.4687493 26.2656253,17.770832 26.244792,18.072916 C26.2187493,18.3124987 26.2083333,18.5624987 26.192708,18.8072907 C26.182292,19.0520827 26.1666667,19.2916667 26.1614587,19.5364573 C26.1510413,19.890624 26.1406253,20.255208 26.1406253,20.6093747 C26.1406253,20.9791653 26.1510413,21.3385413 26.1614587,21.7083333 C26.1666667,21.9791653 26.182292,22.25 26.1979173,22.5260413 C26.2343747,23.130208 26.2916667,23.7343747 26.3593747,24.3333333 C26.3593747,24.3645827 26.3593747,24.4010413 26.364584,24.4322907 C26.114584,24.2447907 25.8593747,24.0572907 25.5937493,23.8697907 C25.442708,23.760416 25.2864587,23.6510413 25.125,23.5468747 C24.494792,23.1145827 23.8541667,22.703124 23.192708,22.322916 C22.880208,22.140624 22.5729173,21.9739573 22.260416,21.8072907 C22.0781253,21.703124 21.8906253,21.6041653 21.7083333,21.520832 C21.25,21.2760413 20.7864587,21.0572907 20.317708,20.8489573 C20.1041667,20.7447907 19.8906253,20.6562493 19.682292,20.5624987 C19.5208333,20.4947907 19.3541667,20.4218747 19.192708,20.3645827 C19.057292,20.3072907 18.9218747,20.25 18.7812507,20.203124 C18.567708,20.1145827 18.3489587,20.0260413 18.135416,19.9583333 C18.0156253,19.9062493 17.885416,19.8593747 17.760416,19.822916 C17.5260413,19.7395827 17.2968747,19.6510413 17.0625,19.5833333 C16.9479173,19.5416667 16.8333333,19.505208 16.7187493,19.4739573 C16.4479173,19.380208 16.1718747,19.3020827 15.8958333,19.2239573 C15.8437493,19.2083333 15.7864587,19.1874987 15.7291667,19.1822907 C15.6093747,19.140624 15.489584,19.1093747 15.375,19.078124 C14.6666667,15.6822907 14.5625,12.2187493 15.0729173,8.75 C15.0989587,8.58333333 15.114584,8.42187467 15.1562507,8.23437467 C15.2812507,7.42187467 15.4583333,6.59895733 15.6614587,5.78645733 C16.442708,6.005208 17.2135413,6.255208 17.9531253,6.53645733 C18.4062507,6.70833333 18.864584,6.890624 19.307292,7.08333333 L19.9739587,7.380208 C20.4270827,7.58854133 20.864584,7.80729067 21.2968747,8.03645733 C21.7291667,8.260416 22.1614587,8.5 22.5781253,8.74479067 C23.005208,9.005208 23.4270827,9.270832 23.8333333,9.53645733 C24.5208333,9.98437467 25.2083333,10.4843747 25.8906253,11.0260413 C26.2239587,11.2916667 26.5625,11.572916 26.9062507,11.8697907 C27.0208333,11.9791653 27.1406253,12.0833333 27.255208,12.1874987 Z" id="Path" fill="#000000" fill-rule="nonzero"></path>
            <g id="Clipped" transform="translate(0, 20.4687)">
                <mask id="mask-6" fill="white">
                    <use xlink:href="#path-5"></use>
                </mask>
                <g id="Path"></g>
                <path d="M34.557292,21.8541667 C27.3906253,23.4531253 20.0156253,22.3125 13.5833333,18.5833333 C6.880208,14.6875 2.10416667,8.494792 0.0208333333,1.04687467 C4.57812533,-0.119792 9.35416667,-0.166666667 13.9114587,0.906250667 C13.9479173,0.911458667 13.9843747,0.921874667 14.0156253,0.932292 C16.7760413,1.58854133 19.432292,2.65625067 21.9062507,4.09374933 C22.4010413,4.385416 22.880208,4.682292 23.3593747,4.994792 C23.5937493,5.15104133 23.8333333,5.3125 24.067708,5.47395867 C24.2968747,5.64583333 24.5260413,5.8125 24.760416,5.97916667 C24.9739587,6.135416 25.1770827,6.29687467 25.385416,6.45833333 C25.9687493,6.92187467 26.5416667,7.41145867 27.0885413,7.91145867 L27.0885413,7.92187467 L27.1041667,7.97916667 C27.1458333,8.14062533 27.182292,8.29687467 27.2239587,8.44791733 C27.4218747,9.21354133 27.6666667,10 27.942708,10.7968747 C28.119792,11.3229173 28.3229173,11.8385413 28.5312507,12.3489587 C28.630208,12.5885413 28.7343747,12.8229173 28.8333333,13.0520827 C28.9114587,13.239584 28.994792,13.4218747 29.0885413,13.6041667 C29.2343747,13.9375 29.3958333,14.2708333 29.5625,14.5989587 C29.6666667,14.807292 29.7656253,15.005208 29.875,15.2135413 C29.9687493,15.385416 30.0625,15.5625 30.1614587,15.7291667 C30.2708333,15.932292 30.380208,16.125 30.5,16.3229173 C31,17.192708 31.5416667,18.0312507 32.130208,18.8489587 C32.2864587,19.0729173 32.4531253,19.2916667 32.625,19.5208333 C32.8020827,19.760416 32.989584,20.005208 33.182292,20.239584 C33.364584,20.4687493 33.557292,20.7031253 33.75,20.9270827 C33.942708,21.1562507 34.1406253,21.385416 34.3385413,21.6093747 C34.4114587,21.692708 34.4791667,21.7708333 34.557292,21.8541667 Z" id="Path" fill="#000000" fill-rule="nonzero" mask="url(#mask-6)"></path>
            </g>
        </g>
    </g>
</svg>