<?xml version="1.0" encoding="UTF-8"?>
<svg width="45px" height="41.8876026px" viewBox="0 0 45 41.8876026" version="1.1" xmlns="http://www.w3.org/2000/svg" xmlns:xlink="http://www.w3.org/1999/xlink">
    <title>bandaged heart</title>
    <defs>
        <polygon id="path-1" points="0 0 45 0 45 43 0 43"></polygon>
        <polygon id="path-3" points="0 0 6.66666667 0 6.66666667 12.3489587 0 12.3489587"></polygon>
    </defs>
    <g id="Icons-2" stroke="none" stroke-width="1" fill="none" fill-rule="evenodd">
        <g id="bandaged-heart" transform="translate(0, -1.0551)">
            <g id="Clipped">
                <mask id="mask-2" fill="white">
                    <use xlink:href="#path-1"></use>
                </mask>
                <g id="Path"></g>
                <path d="M22.5,42.942708 C22.3541653,42.942708 22.2239573,42.9062493 22.1041653,42.822916 C18.1874987,40.0468747 14.5260413,36.9687493 11.1093747,33.5937493 C3.73958267,26.25 0,19.5520827 0,13.6875 C0,8.11979067 2.54166667,3.84895867 6.97916533,1.97916667 C11.5260413,0.057292 16.8593747,1.1875 20.578124,4.86458267 C20.7135413,5 20.7812493,5.16666667 20.7864573,5.36458267 C20.7864573,5.557292 20.7187493,5.72395867 20.5833333,5.86458267 C20.447916,6.005208 20.2812493,6.072916 20.0885413,6.078124 C19.895832,6.078124 19.7291653,6.010416 19.5885413,5.875 C16.2812493,2.60416667 11.5468747,1.58854133 7.52604133,3.28645733 C3.640624,4.92708267 1.41145733,8.71874933 1.41145733,13.6875 C1.41145733,25.822916 19.567708,39.2760413 22.5,41.3697907 C25.4322907,39.2760413 43.5937493,25.822916 43.5937493,13.6875 C43.5937493,8.09895867 40.7916667,4.03124933 36.0989573,2.817708 C31.130208,1.53645733 25.7916667,4.05208267 23.1197907,8.947916 C23.0260413,9.11979067 22.885416,9.23437467 22.697916,9.28645733 C22.510416,9.34374933 22.3333333,9.322916 22.1614573,9.22916667 C21.9895827,9.130208 21.880208,8.98958267 21.822916,8.80208267 C21.770832,8.61458267 21.7916667,8.432292 21.885416,8.260416 C23.4166667,5.453124 25.6822907,3.33333333 28.442708,2.130208 C31.0312493,0.984374667 33.703124,0.755208 36.447916,1.442708 C40.5833333,2.51562533 45,6.29166667 45,13.6875 C45,19.5520827 41.265624,26.25 33.895832,33.5885413 C30.4791653,36.9687493 26.8124987,40.0468747 22.895832,42.822916 C22.7760413,42.9010413 22.645832,42.942708 22.5,42.942708 Z" id="Path" fill="#000000" fill-rule="nonzero" mask="url(#mask-2)"></path>
            </g>
            <g id="Clipped" transform="translate(21.1354, 30.651)">
                <mask id="mask-4" fill="white">
                    <use xlink:href="#path-3"></use>
                </mask>
                <g id="Path"></g>
                <path d="M1.364584,12.2916667 C1.25,12.2916667 1.14583333,12.2656253 1.04166667,12.2135413 C0.942708,12.1614587 0.859374667,12.0885413 0.791666667,11.994792 C0.723958667,11.9010413 0.682292,11.7968747 0.666666667,11.6875 C0.651041333,11.5729173 0.661458667,11.4583333 0.697917333,11.3541667 L3.98437467,1.75 C4.04687467,1.5625 4.16666667,1.42708267 4.34374933,1.33854133 C4.52083333,1.25 4.69791733,1.239584 4.885416,1.30208267 C5.07291733,1.369792 5.20833333,1.489584 5.29166667,1.66666667 C5.375,1.84895867 5.385416,2.02604133 5.317708,2.21354133 L2.03125067,11.8125 C1.92187467,12.135416 1.70312533,12.2916667 1.364584,12.2916667 Z" id="Path" fill="#000000" fill-rule="nonzero" mask="url(#mask-4)"></path>
            </g>
            <path d="M18.5312493,15.2916667 C18.25,15.2916667 18.0416667,15.1666667 17.9114573,14.9166667 C17.7760413,14.6666667 17.7864573,14.4218747 17.942708,14.1875 L21.9166667,8.20833333 C22.0260413,8.05208267 22.1718747,7.953124 22.3645827,7.91666667 C22.5520827,7.880208 22.7239573,7.91666667 22.885416,8.02604133 C23.0468747,8.135416 23.145832,8.28124933 23.1822907,8.46874933 C23.2239573,8.66145733 23.192708,8.83854133 23.0885413,9 L19.1145827,14.9739587 C18.9791653,15.1875 18.7812493,15.2916667 18.5312493,15.2916667 Z" id="Path" fill="#000000" fill-rule="nonzero"></path>
            <path d="M24.7760413,28.828124 C24.5833333,28.828124 24.4166667,28.760416 24.2812493,28.6197907 L16.4218747,20.7083333 C16.2864573,20.567708 16.2135413,20.4010413 16.2135413,20.203124 C16.2135413,20.010416 16.2864573,19.8437493 16.4218747,19.703124 L21.6510413,14.4375 C21.7916667,14.2968747 21.9583333,14.2291667 22.1510413,14.2291667 C22.3437493,14.2291667 22.510416,14.2968747 22.6510413,14.4375 L30.510416,22.3489587 C30.645832,22.4895827 30.7135413,22.6562493 30.7135413,22.8489587 C30.7135413,23.0468747 30.645832,23.2135413 30.510416,23.3541667 L25.2760413,28.6197907 C25.140624,28.760416 24.9739573,28.828124 24.7760413,28.828124 Z M17.9166667,20.203124 L24.7760413,27.1145827 L29.010416,22.8489587 L22.1510413,15.942708 L17.9166667,20.203124 Z" id="Shape" fill="#000000" fill-rule="nonzero"></path>
            <path d="M18.5260413,32.807292 C17.9062493,32.807292 17.3020827,32.7135413 16.7083333,32.5364573 C16.1145827,32.3541667 15.5624987,32.0885413 15.0468747,31.7447907 C14.5312493,31.3958333 14.078124,30.9843747 13.6874987,30.5 C13.2968747,30.0208333 12.9791653,29.4895827 12.7447907,28.9114573 C12.505208,28.3385413 12.3593747,27.7395827 12.2968747,27.1197907 C12.2343747,26.5 12.265624,25.880208 12.385416,25.2708333 C12.505208,24.6614573 12.7135413,24.078124 13.005208,23.5312493 C13.2968747,22.9791667 13.6614573,22.4843747 14.0989573,22.0416667 L16.4218747,19.703124 C16.5572907,19.567708 16.7239573,19.4947907 16.9218747,19.4947907 C17.1145827,19.4947907 17.2812493,19.567708 17.4166667,19.703124 L25.2760413,27.6197907 C25.4166667,27.755208 25.4843747,27.9218747 25.4843747,28.1197907 C25.4843747,28.317708 25.4166667,28.4843747 25.2760413,28.6197907 L22.953124,30.9583333 C22.3697907,31.5520827 21.692708,32.010416 20.9218747,32.328124 C20.1562493,32.6510413 19.3593747,32.807292 18.5260413,32.807292 Z M15.0937493,23.0468747 C14.640624,23.505208 14.2916667,24.0312493 14.0468747,24.630208 C13.7968747,25.2291667 13.6770827,25.8541667 13.6770827,26.5 C13.6770827,27.1510413 13.7968747,27.7708333 14.0416667,28.3697907 C14.2916667,28.9687493 14.640624,29.5 15.0937493,29.9583333 C15.5520827,30.4166667 16.072916,30.7656253 16.6718747,31.0156253 C17.265624,31.2656253 17.885416,31.385416 18.5260413,31.385416 C19.1718747,31.385416 19.7864573,31.2656253 20.385416,31.0156253 C20.9791653,30.7656253 21.5,30.4166667 21.9583333,29.9583333 L23.7812493,28.1197907 L16.9218747,21.2083333 L15.0937493,23.0468747 Z" id="Shape" fill="#000000" fill-rule="nonzero"></path>
            <path d="M30.010416,23.5625 C29.8124987,23.5625 29.6510413,23.4895827 29.510416,23.3541667 L21.6510413,15.4375 C21.515624,15.3020827 21.447916,15.130208 21.447916,14.9375 C21.447916,14.7395827 21.515624,14.572916 21.6510413,14.432292 L23.9739573,12.0937493 C24.265624,11.8020827 24.5833333,11.5416667 24.9270827,11.3125 C25.265624,11.0833333 25.625,10.8906253 26.005208,10.7291667 C26.385416,10.572916 26.7760413,10.453124 27.1822907,10.375 C27.5833333,10.2916667 27.9895827,10.25 28.4010413,10.25 C28.8124987,10.25 29.2187493,10.2916667 29.625,10.375 C30.0260413,10.453124 30.4166667,10.572916 30.7968747,10.7291667 C31.1770827,10.8906253 31.5364573,11.0833333 31.880208,11.3125 C32.2239573,11.5416667 32.5364573,11.8020827 32.828124,12.0937493 C33.1197907,12.385416 33.380208,12.7083333 33.6093747,13.0520827 C33.8333333,13.3958333 34.0260413,13.760416 34.1874987,14.1406253 C34.3437493,14.5260413 34.4583333,14.9166667 34.5416667,15.322916 C34.6197907,15.7291667 34.6614573,16.1406253 34.6614573,16.5520827 C34.6614573,16.9687493 34.6197907,17.380208 34.5416667,17.7812493 C34.4583333,18.1875 34.3437493,18.5833333 34.1874987,18.9687493 C34.0260413,19.3489587 33.8333333,19.7135413 33.6093747,20.057292 C33.380208,20.4010413 33.1197907,20.7187493 32.828124,21.010416 L30.505208,23.3541667 C30.3697907,23.4895827 30.203124,23.5625 30.010416,23.5625 Z M23.1510413,14.9375 L30.010416,21.8437493 L31.8333333,20.010416 C32.2916667,19.5520827 32.645832,19.0208333 32.890624,18.4218747 C33.140624,17.822916 33.265624,17.197916 33.265624,16.5520827 C33.270832,15.9010413 33.145832,15.2760413 32.9010413,14.6770827 C32.6562493,14.078124 32.3020827,13.5468747 31.8489573,13.0885413 C31.390624,12.625 30.8645827,12.2760413 30.270832,12.0260413 C29.6718747,11.7760413 29.0520827,11.6562493 28.4062493,11.6562493 C27.760416,11.6562493 27.140624,11.7812493 26.5468747,12.0312493 C25.953124,12.2812493 25.4270827,12.6406253 24.9739573,13.0989587 L23.1510413,14.9375 Z" id="Shape" fill="#000000" fill-rule="nonzero"></path>
            <path d="M22.1510413,15.6458333 C21.947916,15.6458333 21.7760413,15.572916 21.635416,15.4218747 C21.5624987,15.3385413 21.510416,15.2447907 21.4791653,15.1406253 C21.447916,15.0364573 21.4374987,14.932292 21.4583333,14.822916 C21.4739573,14.7135413 21.515624,14.6145827 21.578124,14.5260413 C21.640624,14.4375 21.7187493,14.3645827 21.8124987,14.3125 C21.9114573,14.260416 22.010416,14.2343747 22.1197907,14.2291667 C22.2291653,14.2239587 22.3333333,14.2447907 22.4322907,14.2864573 C22.5312493,14.328124 22.6197907,14.3958333 22.6874987,14.4791667 C22.760416,14.5625 22.8072907,14.6562493 22.8333333,14.760416 C22.8593747,14.8697907 22.8645827,14.9739587 22.8437493,15.0833333 C22.817708,15.1875 22.7760413,15.2864573 22.7083333,15.375 C22.640624,15.4583333 22.5572907,15.5260413 22.4583333,15.572916 C22.3645827,15.625 22.260416,15.6458333 22.1510413,15.6458333 Z" id="Path" fill="#000000" fill-rule="nonzero"></path>
            <path d="M18.2916667,24.880208 C18.2916667,25.078124 18.2239573,25.25 18.0833333,25.385416 C17.942708,25.5260413 17.7760413,25.5989587 17.578124,25.5989587 C17.380208,25.5989587 17.2135413,25.5260413 17.072916,25.385416 C16.9374987,25.25 16.8645827,25.078124 16.8645827,24.880208 C16.8645827,24.682292 16.9374987,24.5156253 17.072916,24.375 C17.2135413,24.2343747 17.380208,24.1614573 17.578124,24.1614573 C17.7760413,24.1614573 17.942708,24.2343747 18.0833333,24.375 C18.2239573,24.5156253 18.2916667,24.682292 18.2916667,24.880208 Z" id="Path" fill="#000000" fill-rule="nonzero"></path>
            <path d="M20.7916667,27.4010413 C20.7916667,27.5989587 20.7239573,27.7656253 20.5833333,27.9062493 C20.447916,28.0468747 20.2760413,28.1197907 20.0833333,28.1197907 C19.885416,28.1197907 19.7187493,28.0468747 19.578124,27.9062493 C19.4374987,27.7656253 19.3697907,27.5989587 19.3697907,27.4010413 C19.3697907,27.203124 19.4374987,27.0312493 19.578124,26.8906253 C19.7187493,26.755208 19.885416,26.682292 20.0833333,26.682292 C20.2760413,26.682292 20.447916,26.755208 20.5833333,26.8906253 C20.7239573,27.0312493 20.7916667,27.203124 20.7916667,27.4010413 Z" id="Path" fill="#000000" fill-rule="nonzero"></path>
            <path d="M17.7916667,28.010416 C17.7916667,28.2083333 17.7239573,28.375 17.5833333,28.5156253 C17.447916,28.6562493 17.2760413,28.7291667 17.0833333,28.7291667 C16.885416,28.7291667 16.7187493,28.6562493 16.578124,28.5156253 C16.4374987,28.375 16.3697907,28.2083333 16.3697907,28.010416 C16.3697907,27.8125 16.4374987,27.6406253 16.578124,27.5 C16.7187493,27.3593747 16.885416,27.2916667 17.0833333,27.2916667 C17.2760413,27.2916667 17.447916,27.3593747 17.5833333,27.5 C17.7239573,27.6406253 17.7916667,27.8125 17.7916667,28.010416 Z" id="Path" fill="#000000" fill-rule="nonzero"></path>
            <path d="M27.5572907,15.6562493 C27.5572907,15.8541667 27.4895827,16.0208333 27.3489573,16.1614573 C27.2135413,16.3020827 27.0416667,16.3697907 26.8489573,16.3697907 C26.6510413,16.3697907 26.4843747,16.3020827 26.3437493,16.1614573 C26.203124,16.0208333 26.135416,15.8541667 26.135416,15.6562493 C26.135416,15.4583333 26.203124,15.2864573 26.3437493,15.1458333 C26.4843747,15.005208 26.6510413,14.9375 26.8489573,14.9375 C27.0416667,14.9375 27.2135413,15.005208 27.3489573,15.1458333 C27.4895827,15.2864573 27.5572907,15.4583333 27.5572907,15.6562493 Z" id="Path" fill="#000000" fill-rule="nonzero"></path>
            <path d="M30.0624987,18.1770827 C30.0624987,18.375 29.9895827,18.5416667 29.8541653,18.682292 C29.7135413,18.822916 29.5468747,18.8906253 29.3489573,18.8906253 C29.1510413,18.8906253 28.9843747,18.822916 28.8437493,18.682292 C28.7083333,18.5416667 28.635416,18.375 28.635416,18.1770827 C28.635416,17.9791667 28.7083333,17.807292 28.8437493,17.6666667 C28.9843747,17.5260413 29.1510413,17.4583333 29.3489573,17.4583333 C29.5468747,17.4583333 29.7135413,17.5260413 29.8541653,17.6666667 C29.9895827,17.807292 30.0624987,17.9791667 30.0624987,18.1770827 Z" id="Path" fill="#000000" fill-rule="nonzero"></path>
            <path d="M30.6666667,15.1510413 C30.6666667,15.3489587 30.5989573,15.5208333 30.4583333,15.6614573 C30.317708,15.8020827 30.1510413,15.8697907 29.953124,15.8697907 C29.755208,15.8697907 29.5885413,15.8020827 29.447916,15.6614573 C29.3124987,15.5208333 29.2395827,15.3489587 29.2395827,15.1510413 C29.2395827,14.953124 29.3124987,14.7864573 29.447916,14.6458333 C29.5885413,14.505208 29.755208,14.4375 29.953124,14.4375 C30.1510413,14.4375 30.317708,14.505208 30.4583333,14.6458333 C30.5989573,14.7864573 30.6666667,14.953124 30.6666667,15.1510413 Z" id="Path" fill="#000000" fill-rule="nonzero"></path>
        </g>
    </g>
</svg>